<svg width="76" height="56" viewBox="0 0 76 56" fill="none" xmlns="http://www.w3.org/2000/svg">
<circle cx="48" cy="28" r="28" fill="#22DBB5" fill-opacity="0.15"/>
<g clip-path="url(#clip0_1_2)">
<path d="M28 46.6668H6.53345C3.95715 46.6638 1.86963 44.5759 1.86664 42V1.86664H35.4666V28.9335C35.4666 29.4488 35.8848 29.8666 36.4001 29.8666C36.9153 29.8666 37.3332 29.4488 37.3332 28.9335V7.46655H40.1334V27.0665C40.1334 27.5822 40.5512 28 41.0669 28C41.5822 28 42 27.5822 42 27.0665V7.46655H44.8002V27.0665C44.8002 27.5822 45.218 28 45.7333 28C46.249 28 46.6668 27.5822 46.6668 27.0665V6.53345C46.6668 6.01776 46.249 5.59991 45.7333 5.59991H37.3332V0.933533C37.3332 0.417847 36.9153 0 36.4001 0H0.933533C0.417847 0 0 0.417847 0 0.933533V42C0.00427246 45.6064 2.92664 48.5292 6.53345 48.5334H28C28.5153 48.5334 28.9335 48.1156 28.9335 47.5999C28.9335 47.0847 28.5157 46.6668 28 46.6668Z" fill="#11302D"/>
<path d="M55.0669 39.2001H53.4865C53.3562 38.8293 53.2058 38.4652 53.0366 38.1102L54.1569 36.9904C54.5209 36.6259 54.5209 36.0351 54.1569 35.6706L50.1967 31.7105C49.8323 31.346 49.2414 31.346 48.877 31.7105L47.7567 32.8303C47.4017 32.6611 47.0377 32.5111 46.6668 32.3804V30.8004C46.6668 30.2848 46.249 29.8669 45.7333 29.8669H40.1334C39.6177 29.8669 39.1998 30.2848 39.1998 30.8004V32.3804C38.829 32.5111 38.465 32.6611 38.1099 32.8303L36.9897 31.7105C36.6252 31.346 36.0348 31.346 35.6699 31.7105L31.7098 35.6706C31.3458 36.0351 31.3458 36.6255 31.7098 36.9904L32.83 38.1102C32.6608 38.4652 32.5104 38.8293 32.3801 39.2001H30.7997C30.2845 39.2001 29.8666 39.6184 29.8666 40.1336V45.7336C29.8666 46.2492 30.2845 46.6671 30.7997 46.6671H32.3801C32.5104 47.0379 32.6608 47.4019 32.83 47.757L31.7098 48.8772C31.3458 49.2417 31.3458 49.8321 31.7098 50.197L35.6699 54.1571C36.0344 54.5212 36.6252 54.5212 36.9897 54.1571L38.1099 53.0369C38.465 53.2061 38.829 53.3565 39.1998 53.4868V55.0672C39.1998 55.5824 39.6177 56.0003 40.1334 56.0003H45.7333C46.249 56.0003 46.6668 55.5824 46.6668 55.0672V53.4868C47.0377 53.3565 47.4017 53.2061 47.7567 53.0369L48.877 54.1571C49.2414 54.5212 49.8318 54.5212 50.1967 54.1571L54.1569 50.197C54.5209 49.8326 54.5209 49.2417 54.1569 48.8772L53.0366 47.757C53.2058 47.4019 53.3562 47.0379 53.4865 46.6671H55.0669C55.5822 46.6671 56 46.2492 56 45.7336V40.1336C56 39.6184 55.5822 39.2001 55.0669 39.2001V39.2001ZM54.1334 44.8004H52.8033C52.3859 44.8004 52.0193 45.0773 51.9057 45.4789C51.7092 46.1758 51.4323 46.8478 51.0803 47.481C50.8773 47.845 50.9406 48.3 51.2354 48.5952L52.1689 49.5284L49.5332 52.1739L48.5997 51.2403C48.3049 50.9455 47.8499 50.8823 47.4854 51.0852C46.8522 51.4373 46.1806 51.7141 45.4833 51.9102C45.0817 52.0243 44.8049 52.3909 44.8049 52.8083V54.1336H41.0669V52.8036C41.0669 52.3862 40.7896 52.0196 40.3884 51.906C39.6912 51.7094 39.0191 51.4326 38.3864 51.0805C38.0219 50.8776 37.5669 50.9408 37.2717 51.2356L36.3386 52.1692L33.6935 49.5335L34.6266 48.5999C34.9218 48.3047 34.985 47.8501 34.7817 47.4857C34.4296 46.8525 34.1528 46.1809 33.9567 45.4836C33.8447 45.082 33.4803 44.803 33.0633 44.8004H31.7333V41.0672H33.0633C33.4807 41.0672 33.8473 40.7899 33.9614 40.3887C34.1575 39.6914 34.4343 39.0194 34.7864 38.3866C34.9897 38.0222 34.9265 37.5672 34.6313 37.2719L33.6982 36.3388L36.3339 33.6938L37.267 34.6269C37.5622 34.9221 38.0172 34.9853 38.3817 34.7819C39.0144 34.4299 39.6865 34.153 40.3837 33.9569C40.7853 33.845 41.0639 33.4806 41.0669 33.0636V31.7335H44.8002V33.0636C44.8002 33.481 45.077 33.8476 45.4786 33.9616C46.1759 34.1577 46.8475 34.4346 47.4807 34.7866C47.8452 34.99 48.2997 34.9268 48.595 34.6316L49.5285 33.6985L52.1736 36.3341L51.2401 37.2672C50.9453 37.5625 50.882 38.0175 51.085 38.3819C51.437 39.0147 51.7139 39.6867 51.9104 40.384C52.024 40.7852 52.3906 41.0625 52.808 41.0625H54.1334V44.8004Z" fill="#11302D"/>
<path d="M42.9335 36.3999C39.325 36.3999 36.4001 39.3248 36.4001 42.9333C36.4001 46.5414 39.325 49.4663 42.9335 49.4663C46.5416 49.4663 49.4666 46.5414 49.4666 42.9333C49.4627 39.3265 46.5399 36.4041 42.9335 36.3999ZM42.9335 47.5997C40.356 47.5997 38.2667 45.5105 38.2667 42.9333C38.2667 40.3557 40.356 38.2665 42.9335 38.2665C45.5107 38.2665 47.5999 40.3557 47.5999 42.9333C47.5969 45.5092 45.5094 47.5967 42.9335 47.5997Z" fill="#11302D"/>
<path d="M30.8003 5.60013H19.6C19.0847 5.60013 18.6669 6.01798 18.6669 6.53366C18.6669 7.04892 19.0847 7.46677 19.6 7.46677H30.8003C31.3155 7.46677 31.7334 7.04892 31.7334 6.53366C31.7334 6.01798 31.3155 5.60013 30.8003 5.60013Z" fill="#11302D"/>
<path d="M30.8003 11.1997H19.6C19.0847 11.1997 18.6669 11.6176 18.6669 12.1333C18.6669 12.6485 19.0847 13.0664 19.6 13.0664H30.8003C31.3155 13.0664 31.7334 12.6485 31.7334 12.1333C31.7334 11.6176 31.3155 11.1997 30.8003 11.1997Z" fill="#11302D"/>
<path d="M30.8003 18.6666H19.6C19.0847 18.6666 18.6669 19.0845 18.6669 19.5997C18.6669 20.1154 19.0847 20.5332 19.6 20.5332H30.8003C31.3155 20.5332 31.7334 20.1154 31.7334 19.5997C31.7334 19.0845 31.3155 18.6666 30.8003 18.6666Z" fill="#11302D"/>
<path d="M30.8003 24.2666H19.6C19.0847 24.2666 18.6669 24.6845 18.6669 25.1997C18.6669 25.7154 19.0847 26.1333 19.6 26.1333H30.8003C31.3155 26.1333 31.7334 25.7154 31.7334 25.1997C31.7334 24.6845 31.3155 24.2666 30.8003 24.2666Z" fill="#11302D"/>
<path d="M28.9336 31.7334H19.6C19.0847 31.7334 18.6669 32.1512 18.6669 32.6669C18.6669 33.1822 19.0847 33.6 19.6 33.6H28.9336C29.4489 33.6 29.8667 33.1822 29.8667 32.6669C29.8667 32.1512 29.4489 31.7334 28.9336 31.7334Z" fill="#11302D"/>
<path d="M27.067 39.2C27.5822 39.2 28.0001 38.7822 28.0001 38.2669C28.0001 37.7512 27.5822 37.3334 27.067 37.3334H19.6C19.0847 37.3334 18.6669 37.7512 18.6669 38.2669C18.6669 38.7822 19.0847 39.2 19.6 39.2H27.067Z" fill="#11302D"/>
<path d="M16.5267 5.87357C16.1623 5.50913 15.5714 5.50913 15.207 5.87357L14.8682 6.21238C14.7361 5.84623 14.3892 5.60184 14 5.60013H6.53343C6.01775 5.60013 5.5999 6.01798 5.5999 6.53366V14.0002C5.5999 14.5155 6.01775 14.9333 6.53343 14.9333H14C14.5152 14.9333 14.9335 14.5155 14.9335 14.0002V8.78653L16.5267 7.19333C16.8907 6.82889 16.8907 6.23801 16.5267 5.87357ZM13.0669 13.0667H7.46654V7.46677H13.0669V8.01364L11.1998 9.88028L9.99327 8.67374C9.62242 8.31571 9.03154 8.32596 8.67351 8.69638C8.32402 9.05826 8.32402 9.63163 8.67351 9.9935L10.5401 11.8601C10.9046 12.2246 11.4955 12.2246 11.8599 11.8601L13.0669 10.6532V13.0667Z" fill="#11302D"/>
<path d="M16.5267 18.94C16.1623 18.5756 15.5714 18.5756 15.207 18.94L14.8682 19.2789C14.7361 18.9127 14.3892 18.6683 14 18.6666H6.53343C6.01775 18.6666 5.5999 19.0845 5.5999 19.5997V27.0667C5.5999 27.582 6.01775 27.9998 6.53343 27.9998H14C14.5152 27.9998 14.9335 27.582 14.9335 27.0667V21.853L16.5267 20.2598C16.8907 19.8954 16.8907 19.3045 16.5267 18.94ZM13.0669 26.1332H7.46654V20.5332H13.0669V21.0801L11.1998 22.9468L9.99327 21.7398C9.62242 21.3818 9.03154 21.392 8.67351 21.7629C8.32402 22.1247 8.32402 22.6981 8.67351 23.0596L10.5401 24.9262C10.9046 25.2906 11.4955 25.2906 11.8599 24.9262L13.0669 23.7196V26.1332Z" fill="#11302D"/>
<path d="M15.2069 32.0068L14.8681 32.3456C14.7361 31.9795 14.3892 31.7351 14 31.7334H6.53343C6.01775 31.7334 5.5999 32.1512 5.5999 32.6669V40.1335C5.5999 40.6487 6.01775 41.067 6.53343 41.067H14C14.5152 41.067 14.9335 40.6487 14.9335 40.1335V34.9198L16.5267 33.3266C16.8847 32.9557 16.8745 32.3649 16.5036 32.0068C16.1418 31.6578 15.5684 31.6578 15.2069 32.0068V32.0068ZM13.0669 39.1999H7.46654V33.6H13.0669V34.1469L11.1998 36.0135L9.99327 34.807C9.62242 34.449 9.03154 34.4592 8.67351 34.8296C8.32402 35.1915 8.32402 35.7649 8.67351 36.1268L10.5401 37.9934C10.9046 38.3578 11.4955 38.3578 11.8599 37.9934L13.0669 36.7864V39.1999Z" fill="#11302D"/>
</g>
<defs>
<clipPath id="clip0_1_2">
<rect width="56" height="56" fill="white"/>
</clipPath>
</defs>
</svg>
