<svg width="56" height="56" viewBox="0 0 56 56" fill="none" xmlns="http://www.w3.org/2000/svg">
<g clip-path="url(#clip0_103_2838)">
<path d="M28 46.6668H6.53345C3.95715 46.6638 1.86963 44.5759 1.86664 42V1.86664H35.4666V28.9335C35.4666 29.4488 35.8848 29.8666 36.4001 29.8666C36.9153 29.8666 37.3332 29.4488 37.3332 28.9335V7.46655H40.1334V27.0665C40.1334 27.5822 40.5512 28 41.0669 28C41.5822 28 42 27.5822 42 27.0665V7.46655H44.8002V27.0665C44.8002 27.5822 45.218 28 45.7333 28C46.249 28 46.6668 27.5822 46.6668 27.0665V6.53345C46.6668 6.01776 46.249 5.59991 45.7333 5.59991H37.3332V0.933533C37.3332 0.417847 36.9153 0 36.4001 0H0.933533C0.417847 0 0 0.417847 0 0.933533V42C0.00427246 45.6064 2.92664 48.5292 6.53345 48.5334H28C28.5153 48.5334 28.9335 48.1156 28.9335 47.5999C28.9335 47.0847 28.5157 46.6668 28 46.6668Z" fill="#11302D"/>
<path d="M55.067 39.2004H53.4866C53.3563 38.8295 53.2059 38.4655 53.0367 38.1105L54.1569 36.9907C54.5209 36.6262 54.5209 36.0353 54.1569 35.6709L50.1968 31.7108C49.8323 31.3463 49.2415 31.3463 48.877 31.7108L47.7568 32.8306C47.4017 32.6614 47.0377 32.5114 46.6669 32.3807V30.8007C46.6669 30.285 46.249 29.8672 45.7333 29.8672H40.1334C39.6177 29.8672 39.1999 30.285 39.1999 30.8007V32.3807C38.829 32.5114 38.465 32.6614 38.11 32.8306L36.9897 31.7108C36.6253 31.3463 36.0349 31.3463 35.67 31.7108L31.7098 35.6709C31.3458 36.0353 31.3458 36.6258 31.7098 36.9907L32.8301 38.1105C32.6609 38.4655 32.5105 38.8295 32.3802 39.2004H30.7998C30.2845 39.2004 29.8667 39.6187 29.8667 40.1339V45.7338C29.8667 46.2495 30.2845 46.6674 30.7998 46.6674H32.3802C32.5105 47.0382 32.6609 47.4022 32.8301 47.7573L31.7098 48.8775C31.3458 49.2419 31.3458 49.8324 31.7098 50.1973L35.67 54.1574C36.0344 54.5214 36.6253 54.5214 36.9897 54.1574L38.11 53.0372C38.465 53.2064 38.829 53.3568 39.1999 53.4871V55.0675C39.1999 55.5827 39.6177 56.0006 40.1334 56.0006H45.7333C46.249 56.0006 46.6669 55.5827 46.6669 55.0675V53.4871C47.0377 53.3568 47.4017 53.2064 47.7568 53.0372L48.877 54.1574C49.2415 54.5214 49.8319 54.5214 50.1968 54.1574L54.1569 50.1973C54.5209 49.8328 54.5209 49.2419 54.1569 48.8775L53.0367 47.7573C53.2059 47.4022 53.3563 47.0382 53.4866 46.6674H55.067C55.5822 46.6674 56.0001 46.2495 56.0001 45.7338V40.1339C56.0001 39.6187 55.5822 39.2004 55.067 39.2004ZM54.1334 44.8007H52.8034C52.386 44.8007 52.0194 45.0776 51.9058 45.4792C51.7092 46.176 51.4324 46.8481 51.0803 47.4813C50.8774 47.8453 50.9406 48.3003 51.2354 48.5955L52.1689 49.5286L49.5333 52.1741L48.5997 51.2406C48.3049 50.9458 47.8499 50.8826 47.4855 51.0855C46.8523 51.4376 46.1807 51.7144 45.4834 51.9105C45.0818 52.0246 44.8049 52.3912 44.8049 52.8086V54.1339H41.067V52.8039C41.067 52.3865 40.7897 52.0199 40.3885 51.9063C39.6912 51.7097 39.0192 51.4329 38.3864 51.0808C38.022 50.8779 37.567 50.9411 37.2717 51.2359L36.3386 52.1694L33.6935 49.5338L34.6266 48.6002C34.9219 48.305 34.9851 47.8504 34.7817 47.486C34.4297 46.8528 34.1528 46.1812 33.9567 45.4839C33.8448 45.0823 33.4803 44.8033 33.0634 44.8007H31.7333V41.0674H33.0634C33.4808 41.0674 33.8474 40.7902 33.9614 40.389C34.1575 39.6917 34.4344 39.0197 34.7864 38.3869C34.9898 38.0225 34.9266 37.5674 34.6313 37.2722L33.6982 36.3391L36.3339 33.694L37.267 34.6271C37.5623 34.9224 38.0173 34.9856 38.3817 34.7822C39.0145 34.4302 39.6865 34.1533 40.3838 33.9572C40.7854 33.8453 41.064 33.4808 41.067 33.0638V31.7338H44.8002V33.0638C44.8002 33.4813 45.0771 33.8478 45.4787 33.9619C46.176 34.158 46.8476 34.4349 47.4808 34.7869C47.8452 34.9903 48.2998 34.9271 48.595 34.6318L49.5286 33.6987L52.1736 36.3344L51.2401 37.2675C50.9453 37.5627 50.8821 38.0178 51.085 38.3822C51.4371 39.015 51.7139 39.687 51.9105 40.3843C52.0241 40.7855 52.3907 41.0627 52.8081 41.0627H54.1334V44.8007Z" fill="#11302D"/>
<path d="M42.9334 36.3994C39.3248 36.3994 36.3999 39.3243 36.3999 42.9329C36.3999 46.541 39.3248 49.4659 42.9334 49.4659C46.5414 49.4659 49.4664 46.541 49.4664 42.9329C49.4625 39.3261 46.5397 36.4037 42.9334 36.3994ZM42.9334 47.5992C40.3558 47.5992 38.2665 45.51 38.2665 42.9329C38.2665 40.3553 40.3558 38.2661 42.9334 38.2661C45.5105 38.2661 47.5997 40.3553 47.5997 42.9329C47.5967 45.5087 45.5092 47.5963 42.9334 47.5992Z" fill="#11302D"/>
<path d="M30.8004 5.60059H19.6001C19.0848 5.60059 18.667 6.01843 18.667 6.53412C18.667 7.04938 19.0848 7.46722 19.6001 7.46722H30.8004C31.3156 7.46722 31.7335 7.04938 31.7335 6.53412C31.7335 6.01843 31.3156 5.60059 30.8004 5.60059Z" fill="#11302D"/>
<path d="M30.8004 11.2002H19.6001C19.0848 11.2002 18.667 11.618 18.667 12.1337C18.667 12.649 19.0848 13.0668 19.6001 13.0668H30.8004C31.3156 13.0668 31.7335 12.649 31.7335 12.1337C31.7335 11.618 31.3156 11.2002 30.8004 11.2002Z" fill="#11302D"/>
<path d="M30.8004 18.667H19.6001C19.0848 18.667 18.667 19.0848 18.667 19.6001C18.667 20.1158 19.0848 20.5336 19.6001 20.5336H30.8004C31.3156 20.5336 31.7335 20.1158 31.7335 19.6001C31.7335 19.0848 31.3156 18.667 30.8004 18.667Z" fill="#11302D"/>
<path d="M30.8004 24.2666H19.6001C19.0848 24.2666 18.667 24.6844 18.667 25.1997C18.667 25.7154 19.0848 26.1332 19.6001 26.1332H30.8004C31.3156 26.1332 31.7335 25.7154 31.7335 25.1997C31.7335 24.6844 31.3156 24.2666 30.8004 24.2666Z" fill="#11302D"/>
<path d="M28.9337 31.7334H19.6001C19.0848 31.7334 18.667 32.1512 18.667 32.6669C18.667 33.1822 19.0848 33.6 19.6001 33.6H28.9337C29.449 33.6 29.8668 33.1822 29.8668 32.6669C29.8668 32.1512 29.449 31.7334 28.9337 31.7334Z" fill="#11302D"/>
<path d="M27.0671 39.1996C27.5823 39.1996 28.0002 38.7818 28.0002 38.2665C28.0002 37.7509 27.5823 37.333 27.0671 37.333H19.6001C19.0848 37.333 18.667 37.7509 18.667 38.2665C18.667 38.7818 19.0848 39.1996 19.6001 39.1996H27.0671Z" fill="#11302D"/>
<path d="M16.5269 5.87402C16.1625 5.50958 15.5716 5.50958 15.2072 5.87402L14.8683 6.21283C14.7363 5.84668 14.3894 5.60229 14.0002 5.60059H6.53363C6.01794 5.60059 5.6001 6.01843 5.6001 6.53412V14.0007C5.6001 14.5159 6.01794 14.9338 6.53363 14.9338H14.0002C14.5154 14.9338 14.9337 14.5159 14.9337 14.0007V8.78699L16.5269 7.19379C16.8909 6.82935 16.8909 6.23846 16.5269 5.87402ZM13.0671 13.0671H7.46674V7.46722H13.0671V8.0141L11.2 9.88074L9.99347 8.67419C9.62262 8.31616 9.03174 8.32642 8.67371 8.69684C8.32422 9.05872 8.32422 9.63208 8.67371 9.99396L10.5403 11.8606C10.9048 12.225 11.4957 12.225 11.8601 11.8606L13.0671 10.6536V13.0671Z" fill="#11302D"/>
<path d="M16.5269 18.9404C16.1625 18.576 15.5716 18.576 15.2072 18.9404L14.8683 19.2792C14.7363 18.9131 14.3894 18.6687 14.0002 18.667H6.53363C6.01794 18.667 5.6001 19.0848 5.6001 19.6001V27.0671C5.6001 27.5823 6.01794 28.0002 6.53363 28.0002H14.0002C14.5154 28.0002 14.9337 27.5823 14.9337 27.0671V21.8534L16.5269 20.2602C16.8909 19.8958 16.8909 19.3049 16.5269 18.9404ZM13.0671 26.1335H7.46674V20.5336H13.0671V21.0805L11.2 22.9471L9.99347 21.7402C9.62262 21.3821 9.03174 21.3924 8.67371 21.7632C8.32422 22.1251 8.32422 22.6985 8.67371 23.0599L10.5403 24.9266C10.9048 25.291 11.4957 25.291 11.8601 24.9266L13.0671 23.72V26.1335Z" fill="#11302D"/>
<path d="M15.2071 32.0068L14.8683 32.3456C14.7363 31.9795 14.3894 31.7351 14.0002 31.7334H6.53363C6.01794 31.7334 5.6001 32.1512 5.6001 32.6669V40.1335C5.6001 40.6487 6.01794 41.067 6.53363 41.067H14.0002C14.5154 41.067 14.9337 40.6487 14.9337 40.1335V34.9198L16.5269 33.3266C16.8849 32.9557 16.8747 32.3649 16.5038 32.0068C16.142 31.6578 15.5686 31.6578 15.2071 32.0068ZM13.0671 39.1999H7.46673V33.6H13.0671V34.1469L11.2 36.0135L9.99347 34.807C9.62262 34.449 9.03174 34.4592 8.6737 34.8296C8.32422 35.1915 8.32422 35.7649 8.6737 36.1268L10.5403 37.9934C10.9048 38.3578 11.4957 38.3578 11.8601 37.9934L13.0671 36.7864V39.1999Z" fill="#11302D"/>
</g>
<defs>
<clipPath id="clip0_103_2838">
<rect width="56" height="56" fill="white"/>
</clipPath>
</defs>
</svg>
