<svg width="20" height="16" viewBox="0 0 20 16" fill="none" xmlns="http://www.w3.org/2000/svg">
<path d="M18.9308 6.80415C18.1348 4.09809 17.237 2.69988 17.2225 2.6748C17.1714 2.613 15.9028 1.11098 12.8452 0L12.4412 1.08833C13.8958 1.61688 14.9277 2.26169 15.4953 2.67831C13.8009 2.1777 11.7852 1.87111 10 1.87111C8.21477 1.87111 6.1991 2.1777 4.50473 2.67831C5.07223 2.26172 6.10418 1.61688 7.55875 1.08833L7.15473 0C4.09727 1.11098 2.82867 2.613 2.7775 2.6748C2.76301 2.69988 1.86523 4.09809 1.06922 6.80415C0.302031 9.41197 0.0105859 13.0908 0 13.2384C0.0683594 13.3441 1.64062 16 5.92551 16L7.0116 14.444C5.7948 14.1243 4.63453 13.6088 3.57242 12.9093L4.22176 11.9442C5.93523 13.0726 7.93332 13.6691 10 13.6691C12.0667 13.6691 14.0648 13.0726 15.7782 11.9442L16.4276 12.9093C15.3655 13.6088 14.2052 14.1243 12.9884 14.444L14.0745 16C18.3594 16 19.9316 13.3441 20 13.2384C19.9894 13.0908 19.698 9.41197 18.9308 6.80415ZM7.2907 9.83733H6.11883V7.90493H7.2907V9.83733ZM13.8812 9.83733H12.7093V7.90493H13.8812V9.83733Z" fill="white"/>
</svg>
