<svg width="25" height="15" viewBox="0 0 25 15" fill="none" xmlns="http://www.w3.org/2000/svg">
<path d="M13.4755 14.2885L24.6006 3.16319C24.8581 2.90587 25 2.56238 25 2.19612C25 1.82986 24.8581 1.48637 24.6006 1.22906L23.7815 0.409753C23.2478 -0.123373 22.3803 -0.123373 21.8474 0.409753L12.5052 9.75195L3.15262 0.399387C2.8951 0.142072 2.55181 0 2.18575 0C1.81929 0 1.476 0.142072 1.21828 0.399387L0.399387 1.21869C0.141869 1.47621 0 1.8195 0 2.18575C0 2.55201 0.141869 2.8955 0.399387 3.15282L11.5347 14.2885C11.793 14.5464 12.1379 14.6881 12.5046 14.6873C12.8727 14.6881 13.2174 14.5464 13.4755 14.2885Z" fill="#22DBB5"/>
</svg>
