<svg width="149" height="50" viewBox="0 0 149 50" fill="none" xmlns="http://www.w3.org/2000/svg">
<path d="M9.12665 31.0739C9.92451 31.0739 10.6349 31.2588 11.2579 31.6286C11.8809 31.9984 12.3673 32.5313 12.717 33.2273C13.0777 33.9233 13.258 34.739 13.258 35.6743C13.258 36.6096 13.0777 37.4253 12.717 38.1213C12.3673 38.8065 11.8809 39.334 11.2579 39.7037C10.6349 40.0735 9.92451 40.2584 9.12665 40.2584C8.25229 40.2584 7.50908 40.0409 6.89703 39.6059C6.2959 39.16 5.88058 38.5781 5.65106 37.8603V40.1442H4.15918V28.0723H5.65106V33.472C5.88058 32.7542 6.2959 32.1778 6.89703 31.7428C7.50908 31.2969 8.25229 31.0739 9.12665 31.0739ZM8.7004 32.3953C8.12113 32.3953 7.59652 32.5313 7.12655 32.8032C6.65658 33.0642 6.29044 33.4448 6.02813 33.9451C5.76582 34.4454 5.63467 35.0218 5.63467 35.6743C5.63467 36.3269 5.76582 36.9033 6.02813 37.4035C6.29044 37.8929 6.65658 38.2736 7.12655 38.5455C7.59652 38.8174 8.12113 38.9533 8.7004 38.9533C9.62941 38.9533 10.3672 38.6651 10.9136 38.0887C11.471 37.5014 11.7497 36.6966 11.7497 35.6743C11.7497 34.652 11.471 33.8527 10.9136 33.2762C10.3672 32.689 9.62941 32.3953 8.7004 32.3953Z" fill="white"/>
<path d="M15.8291 31.1881L18.7473 38.2355L21.4523 31.1881H23.1082L17.7636 44.3857H16.075L17.944 39.9974L14.1569 31.1881H15.8291Z" fill="white"/>
<path d="M33.7727 28.529C35.117 28.529 36.2427 28.8607 37.1499 29.5242C38.068 30.1876 38.6855 31.0902 39.0024 32.2322H37.4286C37.1553 31.5361 36.6963 30.9761 36.0515 30.5519C35.4175 30.1278 34.6634 29.9157 33.789 29.9157C33.0021 29.9157 32.2972 30.1006 31.6742 30.4703C31.0512 30.8292 30.5594 31.3458 30.1987 32.0201C29.849 32.6944 29.6741 33.4883 29.6741 34.4019C29.6741 35.3372 29.8544 36.1474 30.2151 36.8326C30.5758 37.5069 31.0731 38.0289 31.707 38.3987C32.3518 38.7576 33.0896 38.937 33.9202 38.937C34.6306 38.937 35.2809 38.7847 35.8711 38.4802C36.4613 38.1757 36.9422 37.7353 37.3138 37.1588C37.6964 36.5716 37.9259 35.8864 38.0024 35.1034H33.4612V33.994H39.2647V35.3644C39.1664 36.2779 38.8822 37.1045 38.4122 37.844C37.9423 38.5836 37.3084 39.1708 36.5105 39.6059C35.7126 40.0409 34.8055 40.2584 33.789 40.2584C32.6742 40.2584 31.6906 40.0137 30.8381 39.5243C29.9856 39.024 29.3189 38.3334 28.838 37.4525C28.368 36.5607 28.133 35.5438 28.133 34.4019C28.133 33.2599 28.368 32.2485 28.838 31.3676C29.3189 30.4758 29.9856 29.7797 30.8381 29.2795C31.6906 28.7792 32.6688 28.529 33.7727 28.529Z" fill="white"/>
<path d="M48.0573 37.4851H42.9751L42.0078 40.1442H40.4012L44.6801 28.8553H46.3687L50.6312 40.1442H49.0246L48.0573 37.4851ZM47.6311 36.3269L45.5162 30.5193L43.4014 36.3269H47.6311Z" fill="white"/>
<path d="M53.6332 28.6432V40.1442H52.1413V28.6432H53.6332Z" fill="white"/>
<path d="M65.0158 40.1442H63.5239L57.5236 31.0576V40.1442H56.0318V28.6432H57.5236L63.5239 37.7461V28.6432H65.0158V40.1442Z" fill="white"/>
<path d="M74.7268 37.1588C74.7268 37.7026 74.5956 38.2083 74.3333 38.676C74.071 39.1436 73.6721 39.5243 73.1365 39.8179C72.601 40.1116 71.9397 40.2584 71.1528 40.2584C70.3877 40.2584 69.7046 40.1224 69.1035 39.8506C68.5133 39.5678 68.0379 39.1871 67.6772 38.7086C67.3275 38.2192 67.1253 37.6646 67.0706 37.0447H68.6609C68.6937 37.3709 68.8029 37.6917 68.9887 38.0071C69.1855 38.3117 69.4587 38.5672 69.8085 38.7739C70.1691 38.9696 70.6009 39.0675 71.1036 39.0675C71.7594 39.0675 72.2621 38.8935 72.6119 38.5455C72.9616 38.1975 73.1365 37.7516 73.1365 37.2078C73.1365 36.7401 73.0108 36.3595 72.7594 36.0658C72.519 35.7722 72.2184 35.5438 71.8577 35.3807C71.4971 35.2067 71.0052 35.0218 70.3823 34.826C69.65 34.5868 69.0598 34.3638 68.6117 34.1572C68.1745 33.9397 67.7974 33.6188 67.4805 33.1947C67.1744 32.7705 67.0214 32.2104 67.0214 31.5144C67.0214 30.9162 67.1635 30.3888 67.4477 29.932C67.7428 29.4752 68.1581 29.1218 68.6936 28.8716C69.2401 28.6215 69.8795 28.4964 70.6118 28.4964C71.7485 28.4964 72.6501 28.7737 73.3168 29.3284C73.9835 29.8722 74.3715 30.5682 74.4808 31.4165H72.8742C72.7868 30.9597 72.5518 30.5573 72.1692 30.2093C71.7867 29.8613 71.2676 29.6873 70.6118 29.6873C70.0107 29.6873 69.5298 29.845 69.1691 30.1604C68.8084 30.4649 68.6281 30.8999 68.6281 31.4655C68.6281 31.9114 68.7428 32.2757 68.9724 32.5585C69.2128 32.8303 69.5079 33.0479 69.8577 33.211C70.2074 33.3633 70.6883 33.5373 71.3003 33.733C72.0435 33.9723 72.6392 34.2007 73.0873 34.4182C73.5464 34.6357 73.9344 34.9674 74.2513 35.4133C74.5683 35.8483 74.7268 36.4302 74.7268 37.1588Z" fill="white"/>
<g clip-path="url(#clip0_7335_32090)">
<path d="M89.8774 24.4505C89.8774 24.4505 90.1965 25.439 91.2333 25.9152C91.5885 26.0739 91.9873 26.1388 92.3716 26.1028C92.7486 26.0739 93.3142 25.9945 93.6984 25.7997C93.6984 25.7997 94.1262 26.68 94.5685 27.0984C94.5685 27.0984 94.5395 25.807 95.279 25.0638C95.279 25.0638 94.3147 25.2298 93.8144 25.6266C93.8144 25.6266 92.7994 23.9311 91.255 24.0032C91.255 24.0032 90.3342 24.0321 89.8774 24.4505Z" fill="white"/>
<path d="M98.4404 23.5849C98.4404 23.5849 99.3032 24.5084 100.681 24.494C101.152 24.4868 101.616 24.3497 102.029 24.1116C102.428 23.8807 103.001 23.5055 103.327 23.1015C103.327 23.1015 104.255 23.8519 104.951 24.0827C104.951 24.0827 104.248 22.6903 104.676 21.4854C104.676 21.4854 103.712 22.1636 103.363 22.849C103.363 22.849 101.377 21.5142 99.7165 22.3872C99.7165 22.3872 98.7232 22.8923 98.4404 23.5849Z" fill="white"/>
<path d="M105.626 23.3112C105.626 23.3112 105.952 24.3069 107.004 24.7686C107.366 24.9274 107.758 24.9851 108.149 24.949C108.533 24.9129 109.092 24.8264 109.483 24.6316C109.483 24.6316 109.926 25.5118 110.368 25.9303C110.368 25.9303 110.324 24.6388 111.057 23.874C111.057 23.874 110.092 24.0544 109.592 24.4512C109.592 24.4512 108.555 22.7557 107.004 22.8495C107.011 22.8495 106.083 22.8927 105.626 23.3112Z" fill="white"/>
<path d="M120.003 25.7927C120.003 25.7927 120.329 26.7883 121.381 27.2501C121.743 27.4088 122.135 27.4665 122.526 27.4305C122.91 27.3944 123.469 27.3078 123.86 27.113C123.86 27.113 124.302 27.9932 124.745 28.4117C124.745 28.4117 124.701 27.1202 125.434 26.3554C125.434 26.3554 124.469 26.5358 123.969 26.9326C123.969 26.9326 122.932 25.2371 121.381 25.3309C121.388 25.3309 120.46 25.3742 120.003 25.7927Z" fill="white"/>
<path d="M125.463 30.1581C125.463 30.1581 125.39 31.3485 126.304 32.2721C126.616 32.5895 127.014 32.8132 127.442 32.9358C127.863 33.0585 128.493 33.2028 128.987 33.1595C128.987 33.1595 129.081 34.2778 129.378 34.8983C129.378 34.8983 129.878 33.5058 130.98 33.0152C130.98 33.0152 129.886 32.7988 129.19 33.0152C129.19 33.0152 128.805 30.793 127.123 30.2374C127.123 30.2447 126.123 29.9056 125.463 30.1581Z" fill="white"/>
<path d="M130.052 34.083C130.052 34.083 130.328 35.0065 131.285 35.461C131.611 35.6198 131.974 35.6775 132.336 35.6558C132.691 35.6342 133.213 35.5693 133.569 35.4033C133.569 35.4033 133.953 36.233 134.352 36.6227C134.352 36.6227 134.345 35.425 135.048 34.7468C135.048 34.7468 134.156 34.8838 133.685 35.2374C133.685 35.2374 132.778 33.6501 131.343 33.6862C131.343 33.6934 130.487 33.7078 130.052 34.083Z" fill="white"/>
<path d="M142.755 36.8392C142.755 36.8392 142.545 37.5462 142.965 38.2317C143.11 38.4698 143.321 38.6573 143.56 38.7944C143.799 38.9243 144.155 39.1047 144.459 39.1408C144.459 39.1408 144.358 39.8262 144.452 40.2446C144.452 40.2446 144.945 39.4726 145.684 39.3283C145.684 39.3283 145.054 39.047 144.597 39.083C144.597 39.083 144.677 37.6833 143.741 37.1206C143.741 37.1206 143.19 36.7742 142.755 36.8392Z" fill="white"/>
<path d="M139.783 42.3369C139.783 42.3369 139.181 42.6688 139 43.3903C138.942 43.6428 138.949 43.9026 139.021 44.1479C139.087 44.386 139.21 44.7395 139.384 44.9632C139.384 44.9632 138.862 45.3528 138.645 45.6847C138.645 45.6847 139.478 45.5043 140.058 45.8867C140.058 45.8867 139.826 45.2878 139.507 45.0137C139.507 45.0137 140.486 44.1479 140.239 43.1594C140.247 43.1666 140.116 42.5822 139.783 42.3369Z" fill="white"/>
<path d="M135.578 38.4626C135.578 38.4626 135.404 39.5016 136.129 40.4107C136.375 40.7209 136.709 40.9518 137.071 41.1033C137.434 41.2476 137.971 41.4352 138.413 41.4424C138.413 41.4424 138.391 42.4381 138.594 43.0153C138.594 43.0153 139.16 41.832 140.182 41.5001C140.182 41.5001 139.232 41.2115 138.601 41.3414C138.601 41.3414 138.471 39.3428 137.035 38.7007C137.035 38.6863 136.187 38.2894 135.578 38.4626Z" fill="white"/>
<path d="M136.093 41.1621C136.093 41.1621 135.397 42.2444 135.766 43.5936C135.897 44.0553 136.151 44.4738 136.492 44.8201C136.825 45.152 137.34 45.621 137.826 45.8374C137.826 45.8374 137.325 46.9413 137.275 47.6844C137.275 47.6844 138.478 46.6383 139.776 46.7465C139.776 46.7465 138.855 45.9745 138.087 45.8086C138.087 45.8086 138.899 43.5142 137.608 42.1145C137.608 42.1145 136.847 41.2703 136.093 41.1621Z" fill="white"/>
<path d="M139.819 39.1628C139.819 39.1628 140.007 39.8265 140.689 40.1584C140.921 40.2739 141.182 40.3172 141.443 40.3099C141.697 40.2955 142.066 40.2594 142.328 40.1368C142.328 40.1368 142.596 40.7284 142.871 41.017C142.871 41.017 142.879 40.1656 143.386 39.6822C143.386 39.6822 142.748 39.776 142.407 40.0213C142.407 40.0213 141.769 38.8742 140.747 38.8958C140.74 38.8958 140.131 38.8958 139.819 39.1628Z" fill="white"/>
<path d="M86.042 26.205C86.042 26.205 86.7163 26.6306 87.5573 26.407C87.8474 26.3276 88.1084 26.1689 88.3186 25.9596C88.5289 25.7576 88.8189 25.433 88.9567 25.1371C88.9567 25.1371 89.6455 25.4474 90.1095 25.4835C90.1095 25.4835 89.457 24.7403 89.5222 23.9395C89.5222 23.9395 89.0364 24.5094 88.9349 24.9856C88.9349 24.9856 87.5066 24.4806 86.6293 25.2742C86.6293 25.2742 86.1 25.736 86.042 26.205Z" fill="white"/>
<path d="M83.1562 25.1653C83.1562 25.1653 83.3448 25.6775 83.903 25.9012C84.0916 25.9806 84.3018 26.0022 84.5048 25.9733C84.7006 25.9445 84.9906 25.894 85.1936 25.7858C85.1936 25.7858 85.4401 26.2403 85.6794 26.4423C85.6794 26.4423 85.6287 25.7713 85.9984 25.3601C85.9984 25.3601 85.4981 25.4683 85.2444 25.692C85.2444 25.692 84.6716 24.8262 83.8668 24.9055C83.8668 24.8983 83.381 24.9416 83.1562 25.1653Z" fill="white"/>
<path d="M82.4092 25.2809C82.4092 25.2809 82.4672 25.4324 82.6266 25.4973C82.6846 25.519 82.7426 25.5262 82.8006 25.519C82.8586 25.5118 82.9456 25.4973 83.0036 25.4613C83.0036 25.4613 83.0761 25.5911 83.1486 25.6561C83.1486 25.6561 83.1341 25.4613 83.2428 25.3386C83.2428 25.3386 83.0978 25.3675 83.0181 25.4324C83.0181 25.4324 82.8514 25.1799 82.6121 25.2015C82.6194 25.2087 82.4817 25.2159 82.4092 25.2809Z" fill="white"/>
<path d="M82.3657 25.9809C82.3657 25.9809 82.5035 26.1324 82.7282 26.1324C82.8079 26.1324 82.8804 26.1108 82.9456 26.0747C83.0109 26.0386 83.1051 25.9809 83.1559 25.916C83.1559 25.916 83.3008 26.0386 83.4168 26.0747C83.4168 26.0747 83.3081 25.8511 83.3733 25.6562C83.3733 25.6562 83.2138 25.7645 83.1559 25.8727C83.1559 25.8727 82.8369 25.6563 82.5687 25.7933C82.5687 25.7933 82.4092 25.8727 82.3657 25.9809Z" fill="white"/>
<path d="M86.7524 24.3862C86.7524 24.3862 86.8974 24.5954 87.1729 24.6315C87.2671 24.6459 87.3613 24.6315 87.4483 24.5954C87.5353 24.5593 87.6586 24.5016 87.7383 24.4367C87.7383 24.4367 87.8978 24.6098 88.0282 24.682C88.0282 24.682 87.934 24.3862 88.05 24.1553C88.05 24.1553 87.8398 24.2635 87.7455 24.3862C87.7455 24.3862 87.3903 24.0615 87.0351 24.1841C87.0424 24.1841 86.8322 24.2563 86.7524 24.3862Z" fill="white"/>
<path d="M91.2046 27.0492C91.2046 27.0492 91.5381 27.3955 92.0674 27.3811C92.2487 27.3739 92.4227 27.3234 92.5749 27.2296C92.7272 27.1358 92.9374 26.9915 93.0607 26.8328C93.0607 26.8328 93.416 27.1142 93.6842 27.1935C93.6842 27.1935 93.4087 26.6668 93.561 26.2051C93.561 26.2051 93.1985 26.472 93.0752 26.7318C93.0752 26.7318 92.3067 26.2339 91.6831 26.5803C91.6831 26.5803 91.3061 26.7823 91.2046 27.0492Z" fill="white"/>
<path d="M93.3506 24.3429C93.3506 24.3429 93.6551 24.7831 94.2424 24.8624C94.4454 24.8913 94.6484 24.8624 94.8369 24.7831C95.0182 24.7109 95.2865 24.5883 95.446 24.4367C95.446 24.4367 95.7867 24.8119 96.0695 24.949C96.0695 24.949 95.8592 24.3141 96.113 23.8379C96.113 23.8379 95.6635 24.0616 95.475 24.3357C95.475 24.3357 94.7209 23.6503 93.9669 23.91C93.9669 23.9173 93.5101 24.0688 93.3506 24.3429Z" fill="white"/>
<path d="M101.471 25.5626C101.471 25.5626 101.638 26.0893 102.182 26.3418C102.37 26.4284 102.581 26.4645 102.784 26.4428C102.987 26.4284 103.284 26.3851 103.487 26.2913C103.487 26.2913 103.712 26.7603 103.944 26.984C103.944 26.984 103.929 26.2985 104.328 25.9089C104.328 25.9089 103.82 25.9955 103.552 26.2047C103.552 26.2047 103.023 25.3029 102.203 25.3317C102.211 25.3317 101.718 25.3389 101.471 25.5626Z" fill="white"/>
<path d="M103.422 25.591C103.422 25.591 103.951 25.7858 104.502 25.5044C104.69 25.4106 104.85 25.2591 104.966 25.0859C105.082 24.9128 105.234 24.653 105.285 24.4222C105.285 24.4222 105.807 24.5376 106.133 24.4871C106.133 24.4871 105.568 24.0686 105.502 23.5059C105.502 23.5059 105.249 23.9676 105.256 24.3139C105.256 24.3139 104.19 24.1769 103.704 24.8551C103.697 24.8551 103.4 25.2591 103.422 25.591Z" fill="white"/>
<path d="M112.209 22.6256C112.209 22.6256 112.565 22.8565 113.014 22.7411C113.167 22.705 113.304 22.6184 113.42 22.5102C113.529 22.402 113.689 22.236 113.761 22.0773C113.761 22.0773 114.124 22.2432 114.37 22.2649C114.37 22.2649 114.029 21.8681 114.073 21.4424C114.073 21.4424 113.812 21.7382 113.754 21.9907C113.754 21.9907 113 21.7166 112.528 22.135C112.528 22.135 112.253 22.3803 112.209 22.6256Z" fill="white"/>
<path d="M101.703 21.7606C101.703 21.7606 102.116 21.9987 102.609 21.8472C102.776 21.7967 102.928 21.6957 103.052 21.5658C103.168 21.4431 103.334 21.2411 103.414 21.0607C103.414 21.0607 103.828 21.2339 104.103 21.2411C104.103 21.2411 103.697 20.8154 103.726 20.332C103.726 20.332 103.45 20.6784 103.4 20.9669C103.4 20.9669 102.537 20.7 102.037 21.1906C102.037 21.1906 101.732 21.4792 101.703 21.7606Z" fill="white"/>
<path d="M109.069 23.52C109.069 23.52 109.483 23.9312 110.113 23.8951C110.331 23.8879 110.541 23.8158 110.722 23.7003C110.904 23.5849 111.157 23.4045 111.302 23.2169C111.302 23.2169 111.738 23.5416 112.064 23.6354C112.064 23.6354 111.716 23.0077 111.89 22.4521C111.89 22.4521 111.462 22.7768 111.31 23.1015C111.31 23.1015 110.374 22.5243 109.635 22.95C109.635 22.95 109.185 23.2025 109.069 23.52Z" fill="white"/>
<path d="M111.295 23.9396C111.295 23.9396 111.302 24.5528 111.81 25.0002C111.984 25.1517 112.194 25.2527 112.426 25.3032C112.644 25.3537 112.977 25.4042 113.231 25.3609C113.231 25.3609 113.318 25.9381 113.499 26.2484C113.499 26.2484 113.702 25.5124 114.253 25.2166C114.253 25.2166 113.68 25.1445 113.325 25.2815C113.325 25.2815 113.042 24.1488 112.158 23.9251C112.15 23.9179 111.621 23.7808 111.295 23.9396Z" fill="white"/>
<path d="M113.725 26.1398C113.725 26.1398 113.884 26.6304 114.392 26.8613C114.566 26.9407 114.761 26.9695 114.957 26.9551C115.146 26.9407 115.421 26.9046 115.617 26.8108C115.617 26.8108 115.827 27.2509 116.045 27.4529C116.045 27.4529 116.03 26.818 116.4 26.4428C116.4 26.4428 115.921 26.5222 115.675 26.717C115.675 26.717 115.175 25.8801 114.413 25.9089C114.406 25.9161 113.949 25.9306 113.725 26.1398Z" fill="white"/>
<path d="M116.501 27.2863C116.501 27.2863 116.697 27.7192 117.19 27.8707C117.357 27.9212 117.538 27.9284 117.712 27.8924C117.879 27.8563 118.133 27.7914 118.292 27.6831C118.292 27.6831 118.532 28.0583 118.756 28.2243C118.756 28.2243 118.669 27.6471 118.967 27.2647C118.967 27.2647 118.539 27.3945 118.336 27.5966C118.336 27.5966 117.785 26.8895 117.096 27.0049C117.103 27.0121 116.69 27.0771 116.501 27.2863Z" fill="white"/>
<path d="M120.946 29.6019C120.946 29.6019 121.2 29.8761 121.613 29.8761C121.758 29.8761 121.896 29.8328 122.019 29.7679C122.142 29.7029 122.309 29.5875 122.41 29.4648C122.41 29.4648 122.686 29.6885 122.896 29.7607C122.896 29.7607 122.686 29.3422 122.816 28.9814C122.816 28.9814 122.526 29.1835 122.425 29.3855C122.425 29.3855 121.83 28.9814 121.337 29.2412C121.33 29.2484 121.033 29.3999 120.946 29.6019Z" fill="white"/>
<path d="M128.994 28.6506C128.994 28.6506 129.023 28.8166 129.182 28.9104C129.233 28.9465 129.298 28.9609 129.363 28.9609C129.429 28.9609 129.516 28.9609 129.581 28.9392C129.581 28.9392 129.632 29.0908 129.697 29.1629C129.697 29.1629 129.719 28.9537 129.849 28.8527C129.849 28.8527 129.69 28.8599 129.603 28.9176C129.603 28.9176 129.472 28.629 129.226 28.6073C129.218 28.6001 129.073 28.5929 128.994 28.6506Z" fill="white"/>
<path d="M128.965 31.5943C128.965 31.5943 129.037 31.8251 129.284 31.9334C129.371 31.9694 129.458 31.9839 129.552 31.9767C129.639 31.9694 129.769 31.9478 129.864 31.9045C129.864 31.9045 129.965 32.1137 130.067 32.2075C130.067 32.2075 130.059 31.9045 130.226 31.7313C130.226 31.7313 130.001 31.7746 129.885 31.8684C129.885 31.8684 129.646 31.4716 129.284 31.4932C129.284 31.486 129.066 31.4932 128.965 31.5943Z" fill="white"/>
<path d="M128.994 35.1445C128.994 35.1445 129.03 35.2599 129.153 35.3176C129.196 35.3393 129.24 35.3465 129.283 35.3393C129.327 35.332 129.392 35.3248 129.435 35.3032C129.435 35.3032 129.486 35.4042 129.537 35.4547C129.537 35.4547 129.529 35.3032 129.616 35.2166C129.616 35.2166 129.508 35.2382 129.442 35.2815C129.442 35.2815 129.319 35.0867 129.146 35.0939C129.153 35.0939 129.044 35.1012 128.994 35.1445Z" fill="white"/>
<path d="M131.887 36.0091C131.887 36.0091 131.908 36.0812 131.981 36.11C132.002 36.1244 132.031 36.1244 132.06 36.1244C132.089 36.1244 132.125 36.1172 132.154 36.1028C132.154 36.1028 132.183 36.1676 132.219 36.1964C132.219 36.1964 132.219 36.1028 132.27 36.0524C132.27 36.0524 132.205 36.0668 132.169 36.0956C132.169 36.0956 132.096 35.9731 131.988 35.9803C131.981 35.9731 131.916 35.9731 131.887 36.0091Z" fill="white"/>
<path d="M134.692 38.088C134.692 38.088 134.845 38.2323 135.077 38.2179C135.156 38.2107 135.229 38.1818 135.294 38.1385C135.359 38.0952 135.446 38.0303 135.497 37.9581C135.497 37.9581 135.656 38.0736 135.772 38.1024C135.772 38.1024 135.642 37.8788 135.7 37.6768C135.7 37.6768 135.548 37.7994 135.497 37.9149C135.497 37.9149 135.156 37.7128 134.888 37.8788C134.888 37.8788 134.729 37.9726 134.692 38.088Z" fill="white"/>
<path d="M142.625 38.9967C142.625 38.9967 142.697 39.1915 142.907 39.2781C142.98 39.307 143.059 39.3142 143.139 39.307C143.212 39.2998 143.328 39.2781 143.4 39.2348C143.4 39.2348 143.494 39.408 143.589 39.4873C143.589 39.4873 143.574 39.2276 143.712 39.0689C143.712 39.0689 143.523 39.1122 143.422 39.1915C143.422 39.1915 143.204 38.8596 142.893 38.8885C142.9 38.8957 142.719 38.9101 142.625 38.9967Z" fill="white"/>
<path d="M134.809 37.3877C134.809 37.3877 134.845 37.4887 134.961 37.532C134.997 37.5464 135.041 37.5536 135.084 37.5464C135.12 37.5392 135.186 37.532 135.222 37.5103C135.222 37.5103 135.272 37.6041 135.323 37.6402C135.323 37.6402 135.309 37.5031 135.388 37.4237C135.388 37.4237 135.287 37.4454 135.236 37.4887C135.236 37.4887 135.12 37.3155 134.961 37.33C134.947 37.33 134.853 37.3372 134.809 37.3877Z" fill="white"/>
<path d="M130.35 36.2617C130.35 36.2617 130.256 36.4132 130.306 36.6008C130.328 36.6658 130.364 36.7235 130.408 36.7668C130.451 36.8101 130.524 36.875 130.596 36.9039C130.596 36.9039 130.531 37.0554 130.524 37.1636C130.524 37.1636 130.69 37.0193 130.871 37.0265C130.871 37.0265 130.741 36.9183 130.632 36.8966C130.632 36.8966 130.741 36.5792 130.56 36.3844C130.56 36.3916 130.459 36.2689 130.35 36.2617Z" fill="white"/>
<path d="M124.346 31.3129C124.346 31.3129 124.404 31.5798 124.665 31.7241C124.752 31.7746 124.854 31.7963 124.955 31.7963C125.057 31.7963 125.202 31.7891 125.31 31.7458C125.31 31.7458 125.405 31.9839 125.506 32.1065C125.506 32.1065 125.528 31.7674 125.738 31.5943C125.738 31.5943 125.484 31.6159 125.347 31.7097C125.347 31.7097 125.122 31.2407 124.716 31.2263C124.716 31.2263 124.477 31.2119 124.346 31.3129Z" fill="white"/>
<path d="M125.383 26.9832C125.383 26.9832 125.506 27.3728 125.919 27.5604C126.057 27.6253 126.217 27.647 126.369 27.6325C126.521 27.6181 126.739 27.5892 126.891 27.5099C126.891 27.5099 127.058 27.8562 127.232 28.0221C127.232 28.0221 127.217 27.5171 127.507 27.2213C127.507 27.2213 127.13 27.2862 126.934 27.445C126.934 27.445 126.536 26.7812 125.927 26.81C125.927 26.8028 125.564 26.8172 125.383 26.9832Z" fill="white"/>
<path d="M117.248 26.1753C117.248 26.1753 117.611 26.536 118.169 26.5071C118.357 26.4999 118.546 26.435 118.705 26.334C118.865 26.233 119.09 26.0742 119.213 25.9083C119.213 25.9083 119.597 26.1969 119.887 26.2835C119.887 26.2835 119.583 25.7279 119.735 25.2373C119.735 25.2373 119.351 25.5259 119.227 25.8073C119.227 25.8073 118.401 25.295 117.748 25.6774C117.741 25.6774 117.35 25.8939 117.248 26.1753Z" fill="white"/>
<path d="M119.242 26.4937C119.242 26.4937 119.075 27.1214 119.452 27.713C119.583 27.915 119.771 28.081 119.981 28.1964C120.192 28.3047 120.511 28.4562 120.779 28.485C120.779 28.485 120.706 29.0911 120.793 29.4518C120.793 29.4518 121.214 28.7664 121.852 28.6293C121.852 28.6293 121.294 28.3912 120.895 28.4345C120.895 28.4345 120.938 27.208 120.105 26.7246C120.112 26.7246 119.619 26.4288 119.242 26.4937Z" fill="white"/>
<path d="M123.338 27.8496C123.338 27.8496 122.961 28.4124 123.135 29.1267C123.193 29.372 123.324 29.5956 123.498 29.7832C123.665 29.9636 123.933 30.2161 124.187 30.3388C124.187 30.3388 123.904 30.9088 123.868 31.2984C123.868 31.2984 124.513 30.7645 125.194 30.8366C125.194 30.8366 124.723 30.4181 124.317 30.3243C124.317 30.3243 124.774 29.1267 124.121 28.3763C124.129 28.3691 123.737 27.9145 123.338 27.8496Z" fill="white"/>
<path d="M124.861 28.5352C124.861 28.5352 125.093 29.2567 125.847 29.603C126.108 29.7184 126.398 29.7617 126.681 29.7401C126.956 29.7184 127.369 29.6607 127.652 29.5236C127.652 29.5236 127.964 30.1658 128.283 30.4688C128.283 30.4688 128.261 29.5308 128.798 28.9825C128.798 28.9825 128.095 29.1052 127.732 29.3938C127.732 29.3938 126.992 28.16 125.861 28.2105C125.869 28.2105 125.194 28.2321 124.861 28.5352Z" fill="white"/>
<path d="M129.095 29.3868C129.095 29.3868 128.834 29.9857 129.124 30.6422C129.226 30.8659 129.385 31.0607 129.588 31.205C129.784 31.3493 130.081 31.5441 130.342 31.609C130.342 31.609 130.175 32.2079 130.212 32.5831C130.212 32.5831 130.734 31.9554 131.401 31.9121C131.401 31.9121 130.872 31.5946 130.473 31.573C130.473 31.573 130.698 30.3464 129.936 29.7404C129.943 29.7404 129.487 29.3796 129.095 29.3868Z" fill="white"/>
<path d="M110.665 26.3634C110.665 26.3634 111.013 26.7097 111.542 26.6809C111.724 26.6737 111.898 26.6087 112.057 26.5149C112.209 26.4211 112.42 26.2696 112.543 26.1109C112.543 26.1109 112.913 26.3851 113.181 26.4644C113.181 26.4644 112.891 25.9377 113.036 25.4688C113.036 25.4688 112.673 25.7429 112.55 26.0099C112.55 26.0099 111.767 25.5265 111.144 25.8872C111.136 25.8872 110.759 26.0965 110.665 26.3634Z" fill="white"/>
<path d="M112.477 26.9116C112.477 26.9116 112.39 27.4166 112.731 27.8495C112.847 28.0011 113.006 28.1165 113.18 28.1886C113.354 28.2608 113.615 28.3546 113.825 28.3546C113.825 28.3546 113.811 28.8308 113.905 29.1122C113.905 29.1122 114.188 28.5494 114.674 28.3907C114.674 28.3907 114.217 28.2464 113.912 28.3041C113.912 28.3041 113.862 27.3373 113.173 27.027C113.18 27.027 112.774 26.8322 112.477 26.9116Z" fill="white"/>
<path d="M114.718 29.0547C114.718 29.0547 114.304 29.2423 114.152 29.704C114.101 29.8628 114.094 30.0359 114.13 30.2019C114.167 30.3606 114.225 30.5987 114.326 30.7574C114.326 30.7574 113.964 30.9811 113.812 31.1903C113.812 31.1903 114.37 31.111 114.725 31.3923C114.725 31.3923 114.609 30.9883 114.413 30.7935C114.413 30.7935 115.095 30.274 114.986 29.6175C114.979 29.6247 114.913 29.2278 114.718 29.0547Z" fill="white"/>
<path d="M116.559 32.3516C116.559 32.3516 116.421 32.467 116.414 32.6618C116.414 32.7267 116.429 32.7917 116.457 32.8566C116.486 32.9143 116.537 33.0009 116.595 33.0442C116.595 33.0442 116.479 33.1669 116.443 33.2679C116.443 33.2679 116.645 33.1813 116.812 33.2462C116.812 33.2462 116.725 33.1091 116.624 33.0514C116.624 33.0514 116.826 32.7845 116.711 32.5392C116.718 32.5392 116.653 32.3949 116.559 32.3516Z" fill="white"/>
<path d="M115.327 30.6709C115.327 30.6709 115.044 30.9739 115.095 31.4285C115.109 31.58 115.167 31.7315 115.254 31.8542C115.341 31.9768 115.479 32.1572 115.624 32.251C115.624 32.251 115.407 32.5757 115.349 32.8065C115.349 32.8065 115.791 32.5396 116.197 32.6406C116.197 32.6406 115.95 32.3448 115.711 32.251C115.711 32.251 116.095 31.5656 115.762 31.0533C115.755 31.0533 115.559 30.743 115.327 30.6709Z" fill="white"/>
<path d="M115.943 33.3617C115.943 33.3617 115.9 33.7297 116.175 34.0399C116.27 34.1482 116.386 34.2203 116.523 34.2708C116.654 34.3141 116.85 34.3718 117.002 34.3646C117.002 34.3646 117.009 34.7182 117.096 34.913C117.096 34.913 117.277 34.4873 117.625 34.3502C117.625 34.3502 117.284 34.2636 117.067 34.3213C117.067 34.3213 116.987 33.6215 116.465 33.4195C116.458 33.4195 116.154 33.2968 115.943 33.3617Z" fill="white"/>
<path d="M118.734 36.2617C118.734 36.2617 118.422 36.572 118.444 37.0482C118.451 37.2141 118.502 37.3728 118.589 37.5099C118.676 37.647 118.814 37.8418 118.959 37.95C118.959 37.95 118.705 38.2819 118.632 38.5272C118.632 38.5272 119.111 38.2675 119.539 38.3974C119.539 38.3974 119.292 38.0727 119.046 37.9572C119.046 37.9572 119.488 37.2502 119.169 36.6874C119.169 36.6874 118.98 36.3483 118.734 36.2617Z" fill="white"/>
<path d="M115.703 33.8682C115.703 33.8682 115.065 34.2433 114.899 35.0226C114.841 35.2895 114.862 35.5709 114.942 35.8306C115.022 36.0832 115.167 36.4583 115.355 36.6964C115.355 36.6964 114.812 37.1293 114.587 37.4901C114.587 37.4901 115.471 37.2664 116.109 37.6632C116.109 37.6632 115.848 37.0283 115.493 36.7469C115.493 36.7469 116.508 35.7873 116.218 34.7412C116.225 34.7412 116.058 34.1135 115.703 33.8682Z" fill="white"/>
<path d="M116.269 36.2267C116.269 36.2267 116.059 37.0637 116.581 37.8501C116.762 38.1171 117.016 38.3335 117.306 38.4778C117.589 38.6221 118.017 38.8097 118.372 38.8458C118.372 38.8458 118.285 39.6538 118.408 40.1445C118.408 40.1445 118.952 39.2209 119.808 39.0189C119.808 39.0189 119.054 38.7159 118.532 38.7736C118.532 38.7736 118.561 37.1358 117.444 36.5081C117.437 36.5153 116.77 36.1329 116.269 36.2267Z" fill="white"/>
<path d="M115.885 39.7554C115.885 39.7554 116.081 40.3615 116.719 40.6501C116.936 40.7511 117.183 40.7872 117.422 40.7655C117.654 40.7439 117.995 40.6934 118.234 40.578C118.234 40.578 118.502 41.1191 118.77 41.3716C118.77 41.3716 118.749 40.578 119.198 40.1234C119.198 40.1234 118.611 40.2244 118.306 40.4697C118.306 40.4697 117.683 39.4308 116.733 39.4813C116.726 39.4741 116.16 39.4957 115.885 39.7554Z" fill="white"/>
<path d="M116.313 38.7597C116.313 38.7597 116.429 39.1133 116.799 39.2792C116.929 39.3369 117.067 39.3586 117.205 39.3441C117.343 39.3297 117.538 39.3008 117.676 39.2359C117.676 39.2359 117.828 39.5534 117.988 39.6977C117.988 39.6977 117.973 39.2359 118.242 38.969C118.242 38.969 117.901 39.0267 117.72 39.171C117.72 39.171 117.357 38.5649 116.806 38.5938C116.806 38.5938 116.48 38.6082 116.313 38.7597Z" fill="white"/>
<path d="M116.356 40.7927C116.356 40.7927 116.269 41.1318 116.479 41.4492C116.552 41.5575 116.653 41.644 116.769 41.7018C116.885 41.7595 117.059 41.8388 117.197 41.8533C117.197 41.8533 117.161 42.1779 117.212 42.3728C117.212 42.3728 117.436 42.0048 117.777 41.9182C117.777 41.9182 117.473 41.7956 117.262 41.8172C117.262 41.8172 117.277 41.1534 116.827 40.9009C116.827 40.9081 116.559 40.7566 116.356 40.7927Z" fill="white"/>
<path d="M114.616 33.1387C114.616 33.1387 114.355 33.3118 114.297 33.6509C114.275 33.7664 114.297 33.8818 114.333 33.9973C114.377 34.1055 114.442 34.257 114.529 34.358C114.529 34.358 114.304 34.5528 114.225 34.7115C114.225 34.7115 114.594 34.5961 114.876 34.7476C114.876 34.7476 114.753 34.4807 114.594 34.3724C114.594 34.3724 115.006 33.9395 114.854 33.4994C114.862 33.4994 114.775 33.2397 114.616 33.1387Z" fill="white"/>
<path d="M118.081 34.4795C118.081 34.4795 117.886 34.7032 117.922 35.0206C117.936 35.1288 117.98 35.2371 118.045 35.3236C118.11 35.4102 118.212 35.5329 118.313 35.5978C118.313 35.5978 118.161 35.8287 118.125 36.0019C118.125 36.0019 118.437 35.8071 118.727 35.872C118.727 35.872 118.545 35.6628 118.371 35.605C118.371 35.605 118.632 35.1072 118.386 34.7464C118.393 34.7464 118.248 34.5228 118.081 34.4795Z" fill="white"/>
<path d="M117.045 35.1077C117.045 35.1077 116.936 35.4613 117.146 35.8004C117.219 35.9158 117.32 36.0168 117.443 36.0818C117.559 36.1467 117.741 36.2333 117.893 36.2549C117.893 36.2549 117.842 36.594 117.886 36.8033C117.886 36.8033 118.132 36.4209 118.502 36.3487C118.502 36.3487 118.19 36.2044 117.965 36.2188C117.965 36.2188 118.009 35.5262 117.545 35.2376C117.538 35.252 117.262 35.0789 117.045 35.1077Z" fill="white"/>
<path d="M115.725 37.6904C115.725 37.6904 115.428 37.8852 115.37 38.2604C115.349 38.3903 115.37 38.5201 115.414 38.6428C115.457 38.7655 115.537 38.9386 115.631 39.0468C115.631 39.0468 115.385 39.2633 115.291 39.4437C115.291 39.4437 115.711 39.3138 116.023 39.487C116.023 39.487 115.878 39.1911 115.704 39.0685C115.704 39.0685 116.16 38.5851 116.001 38.0945C115.994 38.0945 115.899 37.7987 115.725 37.6904Z" fill="white"/>
<path d="M119.612 39.5664C119.612 39.5664 119.314 39.7612 119.256 40.1364C119.235 40.2663 119.256 40.3961 119.3 40.5188C119.343 40.6414 119.423 40.8146 119.517 40.9228C119.517 40.9228 119.271 41.1393 119.177 41.3196C119.177 41.3196 119.597 41.1898 119.909 41.3629C119.909 41.3629 119.764 41.0671 119.59 40.9445C119.59 40.9445 120.047 40.4611 119.887 39.9704C119.88 39.9704 119.786 39.6746 119.612 39.5664Z" fill="white"/>
<path d="M119.364 41.6165C119.364 41.6165 119.132 41.6021 118.951 41.7824C118.886 41.8402 118.842 41.9195 118.821 41.9989C118.799 42.0782 118.77 42.2009 118.777 42.2947C118.777 42.2947 118.56 42.3091 118.437 42.3668C118.437 42.3668 118.705 42.4606 118.806 42.6771C118.806 42.6771 118.85 42.4679 118.806 42.3308C118.806 42.3308 119.241 42.2586 119.343 41.9339C119.35 41.9339 119.415 41.7391 119.364 41.6165Z" fill="white"/>
<path d="M117.872 40.9658C117.872 40.9658 117.778 41.1462 117.857 41.3482C117.886 41.4204 117.93 41.4781 117.988 41.5286C118.046 41.5791 118.133 41.644 118.212 41.6657C118.212 41.6657 118.147 41.8461 118.154 41.9615C118.154 41.9615 118.328 41.7811 118.531 41.7811C118.531 41.7811 118.379 41.6729 118.256 41.6585C118.256 41.6585 118.35 41.2905 118.125 41.0885C118.125 41.0885 117.995 40.9658 117.872 40.9658Z" fill="white"/>
<path d="M117.943 42.0273C117.943 42.0273 117.835 42.0562 117.77 42.1572C117.748 42.1933 117.741 42.2366 117.741 42.2799C117.741 42.3232 117.748 42.3809 117.762 42.4242C117.762 42.4242 117.661 42.4602 117.618 42.5035C117.618 42.5035 117.755 42.5107 117.835 42.5973C117.835 42.5973 117.827 42.4963 117.784 42.4386C117.784 42.4386 117.979 42.3448 117.979 42.1789C117.979 42.1789 117.986 42.0778 117.943 42.0273Z" fill="white"/>
<path d="M114.166 31.5656C114.166 31.5656 113.985 31.9985 114.203 32.4674C114.275 32.6262 114.398 32.7633 114.543 32.8643C114.681 32.9653 114.899 33.1024 115.087 33.1529C115.087 33.1529 114.971 33.5858 115 33.8599C115 33.8599 115.37 33.4054 115.848 33.3621C115.848 33.3621 115.464 33.1384 115.174 33.124C115.174 33.124 115.326 32.2438 114.768 31.8109C114.775 31.8181 114.449 31.5584 114.166 31.5656Z" fill="white"/>
<path d="M104.784 22.5689C104.784 22.5689 105.212 22.9369 105.828 22.872C106.039 22.8503 106.242 22.7637 106.408 22.6411C106.575 22.5184 106.814 22.3308 106.938 22.1288C106.938 22.1288 107.387 22.4174 107.706 22.4896C107.706 22.4896 107.329 21.8979 107.46 21.3496C107.46 21.3496 107.061 21.6959 106.938 22.0206C106.938 22.0206 105.988 21.5156 105.292 21.9845C105.299 21.9701 104.878 22.2443 104.784 22.5689Z" fill="white"/>
<path d="M108.134 21.0322C108.134 21.0322 108.301 21.595 108.881 21.8764C109.077 21.9701 109.302 22.0134 109.519 21.999C109.737 21.9846 110.048 21.9485 110.273 21.8475C110.273 21.8475 110.505 22.3525 110.744 22.5906C110.744 22.5906 110.744 21.8619 111.172 21.4507C111.172 21.4507 110.628 21.53 110.338 21.7465C110.338 21.7465 109.787 20.7797 108.917 20.7941C108.917 20.7941 108.395 20.8013 108.134 21.0322Z" fill="white"/>
<path d="M96.3086 25.0362C96.3086 25.0362 96.6639 25.3897 97.2149 25.3609C97.4034 25.3537 97.5847 25.2887 97.7442 25.1877C97.8964 25.0867 98.1212 24.9352 98.2445 24.7692C98.2445 24.7692 98.6215 25.0506 98.9043 25.13C98.9043 25.13 98.607 24.5889 98.752 24.1055C98.752 24.1055 98.3822 24.3869 98.2517 24.6682C98.2517 24.6682 97.4397 24.1704 96.8016 24.5384C96.7944 24.5384 96.4101 24.7548 96.3086 25.0362Z" fill="white"/>
<path d="M99.2231 24.9715C99.2231 24.9715 99.3464 25.3395 99.7452 25.5127C99.8829 25.5704 100.028 25.592 100.173 25.5776C100.318 25.5632 100.528 25.5271 100.673 25.4549C100.673 25.4549 100.84 25.7868 101.007 25.9383C101.007 25.9383 100.985 25.4549 101.261 25.1663C101.261 25.1663 100.898 25.2385 100.717 25.39C100.717 25.39 100.325 24.7623 99.7452 24.7984C99.7379 24.7912 99.3899 24.8128 99.2231 24.9715Z" fill="white"/>
<path d="M102.377 24.7765C102.377 24.7765 102.682 24.9208 103.015 24.7837C103.131 24.7405 103.233 24.6611 103.313 24.5601C103.385 24.4663 103.494 24.3148 103.537 24.1849C103.537 24.1849 103.834 24.2787 104.03 24.2715C104.03 24.2715 103.718 23.9973 103.711 23.6582C103.711 23.6582 103.537 23.9179 103.523 24.12C103.523 24.12 102.907 23.9829 102.58 24.3581C102.58 24.3581 102.385 24.5817 102.377 24.7765Z" fill="white"/>
<path d="M107.359 25.8361C107.359 25.8361 107.678 26.1392 108.156 26.1031C108.323 26.0886 108.475 26.0309 108.613 25.9443C108.744 25.8578 108.939 25.7135 109.041 25.5692C109.041 25.5692 109.375 25.8073 109.621 25.8722C109.621 25.8722 109.346 25.4032 109.469 24.9775C109.469 24.9775 109.15 25.2301 109.048 25.4754C109.048 25.4754 108.33 25.0569 107.779 25.396C107.772 25.396 107.439 25.5908 107.359 25.8361Z" fill="white"/>
<path d="M115.124 22.5254C115.124 22.5254 115.225 22.8284 115.551 22.9655C115.66 23.016 115.783 23.0304 115.906 23.016C116.022 23.0016 116.196 22.9727 116.312 22.915C116.312 22.915 116.45 23.1819 116.588 23.3118C116.588 23.3118 116.573 22.915 116.791 22.6769C116.791 22.6769 116.494 22.7346 116.341 22.8573C116.341 22.8573 116.015 22.3378 115.544 22.3739C115.551 22.3811 115.269 22.3955 115.124 22.5254Z" fill="white"/>
<path d="M108.699 23.0735C108.699 23.0735 108.888 23.1673 109.098 23.0807C109.17 23.0519 109.236 23.0013 109.279 22.9436C109.33 22.8859 109.395 22.7921 109.417 22.7127C109.417 22.7127 109.605 22.7705 109.729 22.7633C109.729 22.7633 109.533 22.5901 109.526 22.3809C109.526 22.3809 109.417 22.5396 109.41 22.6695C109.41 22.6695 109.018 22.5829 108.822 22.8138C108.822 22.8138 108.706 22.9508 108.699 23.0735Z" fill="white"/>
<path d="M110.715 25.1074C110.715 25.1074 110.802 25.3383 111.056 25.4393C111.143 25.4754 111.237 25.4826 111.331 25.4682C111.418 25.4538 111.556 25.4321 111.643 25.3816C111.643 25.3816 111.759 25.5836 111.868 25.6774C111.868 25.6774 111.846 25.3744 112.006 25.1868C112.006 25.1868 111.781 25.2373 111.665 25.3383C111.665 25.3383 111.404 24.9487 111.034 24.9848C111.034 24.9848 110.817 25.0064 110.715 25.1074Z" fill="white"/>
<path d="M111.375 21.4725C111.375 21.4725 111.484 21.6745 111.723 21.7395C111.803 21.7611 111.89 21.7611 111.977 21.7395C112.057 21.7178 112.173 21.6818 112.253 21.624C112.253 21.624 112.376 21.7972 112.492 21.8693C112.492 21.8693 112.434 21.5952 112.572 21.4004C112.572 21.4004 112.369 21.4725 112.274 21.5735C112.274 21.5735 111.992 21.2489 111.658 21.321C111.658 21.321 111.455 21.3643 111.375 21.4725Z" fill="white"/>
<path d="M100.528 20.7999C100.528 20.7999 100.681 21.0236 100.971 21.0669C101.072 21.0813 101.173 21.0669 101.268 21.0308C101.362 20.9947 101.492 20.937 101.572 20.8576C101.572 20.8576 101.746 21.0452 101.884 21.1174C101.884 21.1174 101.782 20.7999 101.913 20.5618C101.913 20.5618 101.688 20.67 101.594 20.8071C101.594 20.8071 101.217 20.4608 100.84 20.5907C100.84 20.5907 100.608 20.6628 100.528 20.7999Z" fill="white"/>
<path d="M105.829 25.0286C105.829 25.0286 105.916 25.3244 106.227 25.4687C106.336 25.5192 106.452 25.5337 106.568 25.5264C106.684 25.5192 106.851 25.4976 106.967 25.4399C106.967 25.4399 107.09 25.7068 107.22 25.8295C107.22 25.8295 107.213 25.4471 107.438 25.2306C107.438 25.2306 107.155 25.2739 107.003 25.3894C107.003 25.3894 106.706 24.8843 106.249 24.8987C106.235 24.906 105.966 24.906 105.829 25.0286Z" fill="white"/>
<path d="M114.174 25.4908C114.174 25.4908 114.435 25.7 114.79 25.6495C114.914 25.6278 115.03 25.5773 115.131 25.5052C115.225 25.433 115.363 25.3104 115.436 25.1949C115.436 25.1949 115.704 25.3537 115.892 25.3897C115.892 25.3897 115.66 25.0506 115.726 24.7188C115.726 24.7188 115.501 24.928 115.436 25.1228C115.436 25.1228 114.87 24.8486 114.464 25.13C114.464 25.1372 114.225 25.3032 114.174 25.4908Z" fill="white"/>
<path d="M117.719 28.6291C117.719 28.6291 117.922 28.896 118.285 28.9321C118.408 28.9465 118.531 28.9177 118.647 28.8672C118.756 28.8167 118.923 28.7373 119.017 28.6363C119.017 28.6363 119.241 28.86 119.415 28.9393C119.415 28.9393 119.27 28.5569 119.415 28.2539C119.415 28.2539 119.14 28.4054 119.031 28.5714C119.031 28.5714 118.546 28.1673 118.089 28.3477C118.089 28.3549 117.813 28.4559 117.719 28.6291Z" fill="white"/>
<path d="M122.374 30.1945C122.374 30.1945 122.454 30.4542 122.722 30.5841C122.816 30.6274 122.918 30.6418 123.019 30.6418C123.121 30.6346 123.266 30.6201 123.367 30.5696C123.367 30.5696 123.476 30.8005 123.592 30.916C123.592 30.916 123.592 30.5768 123.788 30.382C123.788 30.382 123.534 30.4181 123.403 30.5263C123.403 30.5263 123.142 30.079 122.744 30.0934C122.736 30.079 122.49 30.0862 122.374 30.1945Z" fill="white"/>
<path d="M127.536 27.669C127.536 27.669 127.449 27.9288 127.587 28.1885C127.638 28.2751 127.71 28.3545 127.797 28.405C127.884 28.4555 128.015 28.5276 128.124 28.5493C128.124 28.5493 128.073 28.8018 128.102 28.9605C128.102 28.9605 128.298 28.6863 128.573 28.6431C128.573 28.6431 128.348 28.5276 128.182 28.5348C128.182 28.5348 128.24 28.0226 127.899 27.7917C127.899 27.7917 127.703 27.6546 127.536 27.669Z" fill="white"/>
<path d="M130.705 30.8517C130.705 30.8517 130.821 31.2413 131.22 31.4289C131.358 31.4939 131.51 31.5227 131.662 31.5083C131.807 31.5011 132.032 31.4722 132.184 31.4001C132.184 31.4001 132.344 31.7464 132.51 31.9123C132.51 31.9123 132.503 31.4073 132.8 31.1259C132.8 31.1259 132.423 31.1836 132.228 31.3351C132.228 31.3351 131.843 30.6713 131.242 30.6858C131.249 30.6858 130.886 30.6858 130.705 30.8517Z" fill="white"/>
<path d="M129.799 35.0862C129.799 35.0862 129.733 35.5119 130.031 35.8798C130.132 36.0025 130.27 36.1035 130.422 36.1612C130.567 36.2189 130.792 36.2911 130.973 36.2911C130.973 36.2911 130.966 36.7023 131.053 36.9332C131.053 36.9332 131.278 36.4498 131.698 36.3055C131.698 36.3055 131.307 36.1901 131.053 36.2478C131.053 36.2478 130.995 35.4325 130.4 35.1728C130.393 35.1728 130.045 35.014 129.799 35.0862Z" fill="white"/>
<path d="M131.909 36.6742C131.909 36.6742 132.083 37.1793 132.626 37.4102C132.815 37.4895 133.018 37.5184 133.214 37.4967C133.41 37.4751 133.7 37.4318 133.895 37.3236C133.895 37.3236 134.127 37.7709 134.359 37.9801C134.359 37.9801 134.33 37.3164 134.7 36.9195C134.7 36.9195 134.207 37.0206 133.953 37.2298C133.953 37.2298 133.41 36.364 132.612 36.4217C132.619 36.4217 132.141 36.4506 131.909 36.6742Z" fill="white"/>
<path d="M136.701 36.4288C136.701 36.4288 136.86 36.9843 137.418 37.2585C137.614 37.3523 137.825 37.3956 138.042 37.3812C138.252 37.374 138.564 37.3379 138.782 37.2441C138.782 37.2441 138.999 37.7419 139.238 37.98C139.238 37.98 139.246 37.2657 139.666 36.8689C139.666 36.8689 139.13 36.9411 138.847 37.1503C138.847 37.1503 138.318 36.1979 137.469 36.2051C137.469 36.2123 136.954 36.2123 136.701 36.4288Z" fill="white"/>
<path d="M140 37.8644C140 37.8644 140.167 38.3333 140.66 38.5426C140.834 38.6147 141.015 38.6364 141.204 38.6147C141.385 38.5931 141.646 38.5498 141.827 38.456C141.827 38.456 142.045 38.8672 142.255 39.062C142.255 39.062 142.226 38.4488 142.567 38.088C142.567 38.088 142.11 38.1818 141.878 38.3766C141.878 38.3766 141.378 37.583 140.645 37.6407C140.653 37.6335 140.218 37.6623 140 37.8644Z" fill="white"/>
<path d="M138.637 47.2803C138.637 47.2803 138.354 47.7348 138.514 48.2976C138.572 48.4924 138.68 48.6656 138.818 48.8099C138.956 48.9469 139.173 49.1417 139.383 49.2283C139.383 49.2283 139.181 49.6901 139.159 50.0003C139.159 50.0003 139.659 49.5602 140.203 49.5963C140.203 49.5963 139.818 49.2788 139.492 49.2139C139.492 49.2139 139.826 48.2471 139.282 47.6699C139.275 47.6699 138.956 47.3163 138.637 47.2803Z" fill="white"/>
<path d="M139.869 37.0778C139.869 37.0778 140.188 37.388 140.667 37.3591C140.833 37.3519 140.993 37.2942 141.131 37.2076C141.268 37.1211 141.464 36.9768 141.566 36.8325C141.566 36.8325 141.907 37.0778 142.153 37.1499C142.153 37.1499 141.885 36.6737 142.015 36.248C142.015 36.248 141.689 36.5006 141.58 36.7459C141.58 36.7459 140.862 36.313 140.297 36.6449C140.297 36.6377 139.956 36.8325 139.869 37.0778Z" fill="white"/>
<path d="M140.254 40.2812C140.254 40.2812 140.094 40.4833 140.138 40.7574C140.152 40.8512 140.196 40.9378 140.254 41.0172C140.312 41.0893 140.406 41.1903 140.493 41.2481C140.493 41.2481 140.37 41.4573 140.348 41.6016C140.348 41.6016 140.609 41.4212 140.863 41.4645C140.863 41.4645 140.696 41.2913 140.551 41.2481C140.551 41.2481 140.761 40.8079 140.537 40.5049C140.537 40.5049 140.406 40.3173 140.254 40.2812Z" fill="white"/>
<path d="M140.21 41.6733C140.21 41.6733 140.131 41.9331 140.283 42.1856C140.334 42.2722 140.413 42.3443 140.5 42.3948C140.587 42.4453 140.718 42.5103 140.826 42.5319C140.826 42.5319 140.783 42.7844 140.819 42.936C140.819 42.936 141.008 42.6546 141.276 42.6041C141.276 42.6041 141.044 42.4958 140.877 42.5031C140.877 42.5031 140.913 41.9908 140.573 41.7743C140.573 41.7816 140.37 41.6517 140.21 41.6733Z" fill="white"/>
<path d="M138.564 37.9512C138.564 37.9512 138.195 38.3913 138.289 39.0118C138.318 39.221 138.412 39.423 138.543 39.5962C138.673 39.7621 138.876 40.0002 139.079 40.1157C139.079 40.1157 138.796 40.5774 138.731 40.9021C138.731 40.9021 139.325 40.5053 139.891 40.6207C139.891 40.6207 139.528 40.2239 139.195 40.1157C139.195 40.1157 139.681 39.1416 139.188 38.449C139.188 38.449 138.898 38.0378 138.564 37.9512Z" fill="white"/>
<path d="M133.257 33.6721C133.257 33.6721 133.402 34.1411 133.888 34.3719C134.054 34.4513 134.243 34.4802 134.424 34.473C134.605 34.4585 134.866 34.4297 135.055 34.3431C135.055 34.3431 135.251 34.7616 135.454 34.9636C135.454 34.9636 135.446 34.3575 135.809 34.0112C135.809 34.0112 135.352 34.0834 135.113 34.2637C135.113 34.2637 134.649 33.4556 133.917 33.4773C133.909 33.4701 133.474 33.4773 133.257 33.6721Z" fill="white"/>
<path d="M135.287 35.2451C135.287 35.2451 135.026 35.6131 135.135 36.0893C135.171 36.2552 135.258 36.4067 135.367 36.5294C135.476 36.652 135.65 36.8252 135.816 36.9046C135.816 36.9046 135.621 37.2797 135.592 37.5395C135.592 37.5395 136.027 37.1932 136.483 37.2509C136.483 37.2509 136.171 36.9695 135.903 36.8973C135.903 36.8973 136.222 36.1109 135.795 35.5987C135.802 35.5987 135.548 35.2884 135.287 35.2451Z" fill="white"/>
<path d="M135.998 37.5822C135.998 37.5822 136.128 38.0007 136.556 38.2099C136.708 38.2821 136.868 38.3109 137.034 38.2965C137.194 38.2821 137.433 38.2532 137.6 38.1811C137.6 38.1811 137.774 38.5562 137.955 38.7366C137.955 38.7366 137.948 38.1955 138.267 37.878C138.267 37.878 137.861 37.943 137.643 38.1017C137.643 38.1017 137.23 37.3802 136.578 37.4018C136.585 37.4091 136.193 37.4163 135.998 37.5822Z" fill="white"/>
<path d="M132.902 36.0601C132.902 36.0601 132.96 36.2188 133.134 36.2837C133.192 36.3054 133.257 36.3126 133.322 36.3054C133.38 36.2982 133.475 36.2765 133.533 36.2477C133.533 36.2477 133.612 36.3847 133.685 36.4497C133.685 36.4497 133.67 36.2404 133.779 36.1178C133.779 36.1178 133.627 36.1539 133.547 36.2188C133.547 36.2188 133.366 35.9518 133.119 35.9807C133.119 35.9735 132.967 35.9879 132.902 36.0601Z" fill="white"/>
<path d="M136.172 35.5913C136.172 35.5913 136.23 35.75 136.404 35.815C136.462 35.8366 136.528 35.8438 136.593 35.8366C136.651 35.8294 136.745 35.8078 136.803 35.7789C136.803 35.7789 136.883 35.916 136.955 35.9809C136.955 35.9809 136.941 35.7717 137.049 35.649C137.049 35.649 136.897 35.6851 136.818 35.75C136.818 35.75 136.636 35.4831 136.39 35.5119C136.39 35.5047 136.238 35.5192 136.172 35.5913Z" fill="white"/>
<path d="M134.744 35.9092C134.744 35.9092 134.584 36.104 134.628 36.3709C134.642 36.4647 134.686 36.5513 134.744 36.6235C134.802 36.6956 134.888 36.7966 134.975 36.8471C134.975 36.8471 134.852 37.0491 134.83 37.1934C134.83 37.1934 135.084 37.0203 135.33 37.0636C135.33 37.0636 135.171 36.8976 135.026 36.8471C135.026 36.8471 135.229 36.4214 135.012 36.1256C135.019 36.1184 134.888 35.9453 134.744 35.9092Z" fill="white"/>
<path d="M139.086 36.4936C139.086 36.4936 139.282 36.6523 139.55 36.609C139.645 36.5946 139.732 36.5513 139.804 36.4936C139.877 36.4359 139.978 36.3493 140.029 36.2627C140.029 36.2627 140.232 36.3854 140.377 36.407C140.377 36.407 140.203 36.1545 140.246 35.9092C140.246 35.9092 140.08 36.0679 140.029 36.2122C140.029 36.2122 139.601 36.0102 139.304 36.2266C139.304 36.2266 139.123 36.3493 139.086 36.4936Z" fill="white"/>
<path d="M143.995 39.4004C143.995 39.4004 143.799 39.523 143.749 39.7756C143.734 39.8621 143.741 39.9487 143.77 40.0281C143.799 40.1075 143.85 40.2229 143.908 40.295C143.908 40.295 143.741 40.4393 143.676 40.5548C143.676 40.5548 143.951 40.4754 144.161 40.5981C144.161 40.5981 144.074 40.4033 143.959 40.3167C143.959 40.3167 144.27 40.0064 144.169 39.6746C144.169 39.6746 144.111 39.4798 143.995 39.4004Z" fill="white"/>
<path d="M144.792 38.3628C144.792 38.3628 144.864 38.6009 145.104 38.7164C145.183 38.7596 145.278 38.7741 145.372 38.7669C145.459 38.7596 145.597 38.7452 145.684 38.7019C145.684 38.7019 145.778 38.9112 145.879 39.0122C145.879 39.0122 145.879 38.7091 146.053 38.536C146.053 38.536 145.829 38.5721 145.705 38.6586C145.705 38.6586 145.473 38.2546 145.111 38.2618C145.118 38.269 144.901 38.269 144.792 38.3628Z" fill="white"/>
<path d="M145.054 40.0211C145.054 40.0211 145.148 40.3458 145.481 40.5046C145.597 40.5623 145.721 40.5839 145.851 40.5695C145.974 40.5623 146.156 40.5406 146.286 40.4829C146.286 40.4829 146.417 40.7715 146.561 40.9086C146.561 40.9086 146.561 40.4901 146.808 40.252C146.808 40.252 146.496 40.3025 146.33 40.4252C146.33 40.4252 146.011 39.8696 145.51 39.8841C145.503 39.8841 145.206 39.8913 145.054 40.0211Z" fill="white"/>
<path d="M146.083 39.4303C146.083 39.4303 146.337 39.7189 146.758 39.7334C146.903 39.7406 147.048 39.6973 147.171 39.6323C147.294 39.5674 147.476 39.4592 147.577 39.3365C147.577 39.3365 147.853 39.5746 148.063 39.654C148.063 39.654 147.867 39.2211 148.005 38.8604C148.005 38.8604 147.7 39.0552 147.592 39.2644C147.592 39.2644 147.004 38.8315 146.49 39.084C146.49 39.084 146.178 39.2283 146.083 39.4303Z" fill="white"/>
<path d="M131.263 33.0732C131.263 33.0732 131.625 33.4628 132.205 33.4556C132.401 33.4556 132.597 33.3979 132.771 33.2969C132.938 33.2031 133.177 33.0443 133.315 32.8784C133.315 32.8784 133.699 33.1959 133.996 33.2897C133.996 33.2897 133.706 32.7052 133.887 32.2002C133.887 32.2002 133.481 32.4816 133.336 32.7702C133.336 32.7702 132.503 32.2074 131.806 32.5682C131.799 32.5754 131.379 32.7846 131.263 33.0732Z" fill="white"/>
<path d="M128.088 33.3477C128.088 33.3477 127.972 33.6074 128.102 33.8816C128.146 33.9754 128.218 34.0619 128.298 34.1197C128.377 34.1774 128.508 34.264 128.624 34.2928C128.624 34.2928 128.551 34.5453 128.566 34.7113C128.566 34.7113 128.791 34.4443 129.073 34.4227C129.073 34.4227 128.849 34.2856 128.675 34.2784C128.675 34.2784 128.776 33.7517 128.443 33.492C128.45 33.5064 128.254 33.3477 128.088 33.3477Z" fill="white"/>
<path d="M116.776 24.5538C116.776 24.5538 116.871 24.8712 117.19 25.0227C117.298 25.0732 117.422 25.1021 117.545 25.0949C117.668 25.0877 117.842 25.066 117.965 25.0083C117.965 25.0083 118.096 25.2897 118.226 25.4268C118.226 25.4268 118.226 25.0227 118.465 24.7919C118.465 24.7919 118.161 24.8352 118.001 24.9578C118.001 24.9578 117.697 24.4167 117.211 24.4239C117.211 24.4239 116.921 24.4239 116.776 24.5538Z" fill="white"/>
<path d="M108.852 26.2835C108.852 26.2835 108.939 26.5793 109.251 26.7236C109.359 26.7741 109.475 26.7958 109.591 26.7813C109.707 26.7741 109.874 26.7525 109.99 26.6947C109.99 26.6947 110.113 26.9617 110.244 27.0844C110.244 27.0844 110.237 26.702 110.461 26.4855C110.461 26.4855 110.179 26.5288 110.026 26.6442C110.026 26.6442 109.729 26.1392 109.272 26.1536C109.265 26.1608 108.99 26.1681 108.852 26.2835Z" fill="white"/>
<path d="M115.827 25.9958C115.827 25.9958 116.023 26.1762 116.306 26.1473C116.4 26.1401 116.494 26.104 116.581 26.0463C116.661 25.9958 116.77 25.9092 116.835 25.8154C116.835 25.8154 117.038 25.9525 117.183 25.9958C117.183 25.9958 117.016 25.7217 117.081 25.4619C117.081 25.4619 116.893 25.6134 116.835 25.7649C116.835 25.7649 116.407 25.5196 116.074 25.7289C116.066 25.7289 115.871 25.8515 115.827 25.9958Z" fill="white"/>
<path d="M120.583 24.9266C120.583 24.9266 120.823 25.1214 121.156 25.0637C121.272 25.042 121.374 24.9987 121.468 24.9266C121.555 24.8544 121.678 24.7462 121.743 24.638C121.743 24.638 121.99 24.7823 122.171 24.8184C122.171 24.8184 121.954 24.5081 122.012 24.2051C122.012 24.2051 121.801 24.3999 121.743 24.5803C121.743 24.5803 121.214 24.3277 120.852 24.5947C120.852 24.5947 120.627 24.7534 120.583 24.9266Z" fill="white"/>
<path d="M121.46 27.8637C121.46 27.8637 121.525 28.1162 121.779 28.2461C121.866 28.2894 121.967 28.311 122.062 28.3038C122.156 28.3038 122.301 28.2894 122.395 28.2461C122.395 28.2461 122.489 28.4698 122.598 28.5852C122.598 28.5852 122.605 28.2605 122.801 28.0802C122.801 28.0802 122.562 28.109 122.431 28.2028C122.431 28.2028 122.199 27.7627 121.808 27.7627C121.815 27.7699 121.583 27.7627 121.46 27.8637Z" fill="white"/>
<path d="M100.673 26.5872C100.673 26.5872 100.826 26.7171 101.036 26.6882C101.108 26.681 101.181 26.6521 101.239 26.6088C101.297 26.5656 101.384 26.5006 101.427 26.4285C101.427 26.4285 101.587 26.5295 101.695 26.5511C101.695 26.5511 101.565 26.3419 101.608 26.1543C101.608 26.1543 101.471 26.277 101.427 26.3924C101.427 26.3924 101.094 26.2192 100.855 26.378C100.847 26.378 100.702 26.479 100.673 26.5872Z" fill="white"/>
<path d="M106.967 20.685C106.967 20.685 107.097 20.8726 107.336 20.9087C107.423 20.9231 107.503 20.9087 107.583 20.8798C107.663 20.851 107.771 20.8005 107.844 20.7355C107.844 20.7355 107.989 20.8943 108.105 20.952C108.105 20.952 108.018 20.685 108.127 20.483C108.127 20.483 107.938 20.5768 107.858 20.685C107.858 20.685 107.547 20.3892 107.228 20.4974C107.228 20.5047 107.039 20.5696 106.967 20.685Z" fill="white"/>
<path d="M98.2812 22.3445C98.2812 22.3445 98.4045 22.5033 98.6147 22.5177C98.6872 22.5249 98.7597 22.5105 98.8322 22.4816C98.8974 22.4528 98.9916 22.4023 99.0496 22.3445C99.0496 22.3445 99.1801 22.4744 99.2888 22.5177C99.2888 22.5177 99.2019 22.2868 99.2816 22.1064C99.2816 22.1064 99.1221 22.2002 99.0569 22.3012C99.0569 22.3012 98.7669 22.0632 98.4915 22.1786C98.4987 22.1786 98.332 22.2435 98.2812 22.3445Z" fill="white"/>
<path d="M94.9604 26.9331C94.9604 26.9331 95.352 27.1928 95.8523 27.0702C96.0263 27.0269 96.1785 26.9403 96.309 26.8176C96.4323 26.7022 96.6063 26.5146 96.6933 26.3415C96.6933 26.3415 97.0921 26.5363 97.3676 26.5579C97.3676 26.5579 96.9906 26.1106 97.0413 25.6416C97.0413 25.6416 96.7513 25.9663 96.6861 26.2477C96.6861 26.2477 95.8523 25.9302 95.323 26.392C95.323 26.392 95.004 26.6589 94.9604 26.9331Z" fill="white"/>
<path d="M96.8237 22.3305C96.8237 22.3305 97.2153 22.5903 97.7155 22.4676C97.8895 22.4243 98.0418 22.3378 98.1723 22.2151C98.2956 22.0997 98.4696 21.9121 98.5566 21.7389C98.5566 21.7389 98.9554 21.9337 99.2309 21.9554C99.2309 21.9554 98.8539 21.508 98.9046 21.0391C98.9046 21.0391 98.6146 21.3637 98.5493 21.6451C98.5493 21.6451 97.7155 21.3349 97.1863 21.7894C97.179 21.7822 96.8672 22.0564 96.8237 22.3305Z" fill="white"/>
<path d="M104.777 20.6428C104.777 20.6428 104.901 21.0252 105.307 21.2056C105.444 21.2705 105.597 21.2922 105.749 21.2778C105.894 21.2633 106.111 21.2345 106.264 21.1623C106.264 21.1623 106.43 21.5014 106.604 21.6674C106.604 21.6674 106.59 21.1695 106.88 20.8737C106.88 20.8737 106.51 20.9386 106.314 21.0974C106.314 21.0974 105.916 20.4408 105.314 20.4697C105.314 20.4697 104.951 20.4841 104.777 20.6428Z" fill="white"/>
<path d="M94.7139 22.4889C94.7139 22.4889 94.9386 23.1743 95.6637 23.4989C95.9102 23.6072 96.1857 23.6505 96.454 23.6216C96.715 23.6 97.1065 23.535 97.3748 23.4052C97.3748 23.4052 97.6793 24.0184 97.9838 24.2998C97.9838 24.2998 97.9548 23.4052 98.4624 22.8785C98.4624 22.8785 97.7953 23.0011 97.4473 23.2753C97.4473 23.2753 96.7295 22.1065 95.6564 22.1642C95.6709 22.1642 95.0256 22.193 94.7139 22.4889Z" fill="white"/>
<path d="M92.4731 23.8303C92.4731 23.8303 92.8502 24.0323 93.2852 23.8736C93.4375 23.8231 93.568 23.7293 93.6695 23.6066C93.771 23.4912 93.9087 23.3108 93.974 23.1448C93.974 23.1448 94.351 23.2819 94.5975 23.2819C94.5975 23.2819 94.2205 22.914 94.2278 22.4883C94.2278 22.4883 93.9957 22.8057 93.9595 23.0655C93.9595 23.0655 93.1837 22.8562 92.7559 23.3108C92.7487 23.318 92.4876 23.585 92.4731 23.8303Z" fill="white"/>
<path d="M99.2456 21.2048C99.2456 21.2048 99.3398 21.5078 99.6588 21.6593C99.7675 21.7098 99.8908 21.7315 100.007 21.717C100.123 21.7098 100.297 21.6882 100.413 21.6304C100.413 21.6304 100.543 21.9046 100.674 22.0345C100.674 22.0345 100.666 21.6377 100.898 21.4068C100.898 21.4068 100.601 21.4573 100.449 21.5727C100.449 21.5727 100.144 21.0532 99.666 21.0677C99.666 21.0677 99.3833 21.0749 99.2456 21.2048Z" fill="white"/>
<path d="M95.2715 25.4324C95.2715 25.4324 95.344 25.656 95.5832 25.757C95.6629 25.7931 95.7499 25.8075 95.8369 25.7931C95.9239 25.7859 96.0471 25.7643 96.1341 25.721C96.1341 25.721 96.2356 25.9158 96.3298 26.0096C96.3298 26.0096 96.3153 25.721 96.482 25.5478C96.482 25.5478 96.2646 25.5911 96.1558 25.6777C96.1558 25.6777 95.9239 25.3025 95.5759 25.3241C95.5759 25.3241 95.3657 25.3386 95.2715 25.4324Z" fill="white"/>
<path d="M89.7183 23.643C89.7183 23.643 89.8632 23.8522 90.1387 23.8883C90.2329 23.9027 90.3272 23.8883 90.4142 23.8522C90.5011 23.8161 90.6244 23.7584 90.7041 23.6935C90.7041 23.6935 90.8636 23.8667 90.9941 23.9388C90.9941 23.9388 90.8998 23.643 91.0158 23.4121C91.0158 23.4121 90.8056 23.5203 90.7114 23.643C90.7114 23.643 90.3562 23.3183 90.001 23.441C90.0082 23.441 89.798 23.5131 89.7183 23.643Z" fill="white"/>
<path d="M91.1973 23.3044C91.1973 23.3044 91.2553 23.5352 91.4872 23.6507C91.567 23.694 91.6539 23.7084 91.7409 23.7084C91.8279 23.7084 91.9584 23.694 92.0454 23.6579C92.0454 23.6579 92.1324 23.8599 92.2266 23.9609C92.2266 23.9609 92.2339 23.6723 92.4151 23.5064C92.4151 23.5064 92.1976 23.5352 92.0744 23.6146C92.0744 23.6146 91.8642 23.2178 91.5162 23.2178C91.5162 23.2178 91.306 23.2178 91.1973 23.3044Z" fill="white"/>
<path d="M88.3472 26.3627C88.3472 26.3627 88.5937 26.8316 89.152 26.9832C89.3477 27.0337 89.5507 27.0337 89.7393 26.9832C89.9278 26.9327 90.2033 26.8461 90.3773 26.7234C90.3773 26.7234 90.6673 27.1275 90.9211 27.3006C90.9211 27.3006 90.7978 26.6585 91.1023 26.2184C91.1023 26.2184 90.6311 26.3843 90.4136 26.6224C90.4136 26.6224 89.761 25.8576 88.9925 26.0236C88.9997 26.0164 88.5429 26.1101 88.3472 26.3627Z" fill="white"/>
<path d="M97.4326 25.6849C97.4326 25.6849 97.6066 26.2116 98.1577 26.4497C98.3462 26.5362 98.5564 26.5651 98.7595 26.5435C98.9625 26.5218 99.2597 26.4785 99.4627 26.3775C99.4627 26.3775 99.6948 26.8465 99.9268 27.0629C99.9268 27.0629 99.905 26.3775 100.289 25.9807C100.289 25.9807 99.7818 26.0745 99.5207 26.2837C99.5207 26.2837 98.977 25.3891 98.1577 25.4396C98.1577 25.4396 97.6719 25.4612 97.4326 25.6849Z" fill="white"/>
<path d="M104.784 25.8729C104.784 25.8729 104.973 26.2192 105.393 26.313C105.538 26.3491 105.69 26.3419 105.828 26.2986C105.966 26.2625 106.169 26.1904 106.3 26.0894C106.3 26.0894 106.524 26.3852 106.713 26.5078C106.713 26.5078 106.604 26.0316 106.829 25.6998C106.829 25.6998 106.488 25.8296 106.329 26.0172C106.329 26.0172 105.828 25.4617 105.263 25.606C105.263 25.606 104.922 25.6853 104.784 25.8729Z" fill="white"/>
<path d="M112.557 23.2758C112.557 23.2758 112.81 24.0983 113.666 24.4879C113.956 24.625 114.282 24.6755 114.601 24.6539C114.913 24.6322 115.377 24.5673 115.696 24.4158C115.696 24.4158 116.044 25.1445 116.399 25.4908C116.399 25.4908 116.385 24.4302 117.001 23.8169C117.001 23.8169 116.211 23.9468 115.79 24.2715C115.79 24.2715 114.964 22.8718 113.695 22.915C113.695 22.915 112.934 22.9367 112.557 23.2758Z" fill="white"/>
<path d="M114.137 27.4315C114.137 27.4315 114.21 27.7922 114.558 28.0015C114.681 28.0736 114.812 28.1097 114.957 28.1097C115.094 28.1097 115.29 28.1025 115.435 28.052C115.435 28.052 115.551 28.3766 115.689 28.5426C115.689 28.5426 115.725 28.088 116.015 27.8499C116.015 27.8499 115.667 27.8716 115.479 27.9942C115.479 27.9942 115.181 27.3593 114.637 27.3232C114.637 27.3305 114.311 27.3016 114.137 27.4315Z" fill="white"/>
<path d="M117.292 23.5784C117.292 23.5784 117.516 24.2206 118.198 24.5092C118.43 24.6102 118.691 24.639 118.945 24.6102C119.191 24.5813 119.554 24.5236 119.807 24.3937C119.807 24.3937 120.105 24.9637 120.395 25.2234C120.395 25.2234 120.351 24.3865 120.822 23.8815C120.822 23.8815 120.199 24.0041 119.88 24.2711C119.88 24.2711 119.191 23.1816 118.183 23.261C118.183 23.261 117.582 23.297 117.292 23.5784Z" fill="white"/>
<path d="M88.1812 24.1923C88.1812 24.1923 88.2101 24.3438 88.3479 24.4304C88.3986 24.4592 88.4494 24.4737 88.5074 24.4809C88.5653 24.4809 88.6451 24.4809 88.7031 24.4664C88.7031 24.4664 88.7466 24.6035 88.8046 24.6685C88.8046 24.6685 88.8263 24.4809 88.9423 24.3871C88.9423 24.3871 88.8046 24.3943 88.7248 24.4376C88.7248 24.4376 88.6088 24.1778 88.3914 24.1562C88.3914 24.1562 88.2609 24.1418 88.1812 24.1923Z" fill="white"/>
<path d="M85.0269 24.9125C85.0269 24.9125 85.2371 25.1434 85.5778 25.1434C85.6938 25.1434 85.8097 25.1073 85.9112 25.0568C86.0127 24.9991 86.1504 24.9125 86.2302 24.8115C86.2302 24.8115 86.4549 24.9991 86.6289 25.0568C86.6289 25.0568 86.4621 24.7105 86.5636 24.4219C86.5636 24.4219 86.3244 24.5878 86.2374 24.7538C86.2374 24.7538 85.7517 24.4219 85.3458 24.6311C85.3458 24.6239 85.0993 24.7466 85.0269 24.9125Z" fill="white"/>
<mask id="mask0_7335_32090" style="mask-type:alpha" maskUnits="userSpaceOnUse" x="81" y="26" width="36" height="18">
<path d="M82.2555 26.4714C82.2555 26.4714 81.5522 26.8971 81.951 29.3647C82.3498 31.8322 84.6192 34.8985 85.975 36.1972C87.3381 37.4959 90.5718 40.2881 94.2115 41.594C97.8513 42.9 101.353 43.5204 105.638 43.3256C109.923 43.1308 115.252 41.7167 116.166 41.2766C116.166 41.2766 114.571 39.242 114.107 35.988C114.056 35.3459 114.085 33.0587 113.875 32.33C113.679 31.6374 113.295 29.3863 112.707 28.2896C112.649 28.1742 112.555 28.0876 112.439 28.0299C111.801 27.7124 109.242 26.8322 100.686 27.1136C100.36 27.128 100.034 27.1497 99.7146 27.1785C98.4168 27.3084 94.4508 27.6547 90.6733 27.431C90.6733 27.431 88.8172 27.2867 86.7436 26.6735C86.497 26.6085 84.4887 26.3271 83.2271 26.3271C82.7558 26.3271 82.3933 26.3632 82.2555 26.4714Z" fill="#47A09D"/>
</mask>
<g mask="url(#mask0_7335_32090)">
<path d="M82.2934 26.1172L81.5396 28.5919V26.1172H82.2934Z" fill="white"/>
<path d="M91.9367 26.1172L87.7097 40.0204L81.5396 38.1662V28.5919L82.2936 26.1172H91.9367Z" fill="white"/>
<path d="M101.58 26.1162L96.541 42.6818L87.71 40.0195L91.937 26.1162H101.58Z" fill="white"/>
<path d="M101.841 26.1162L96.7803 42.754L96.541 42.6818L101.58 26.1162H101.841Z" fill="white"/>
<path d="M102.102 26.1162L97.0195 42.8261L96.7803 42.754L101.841 26.1162H102.102Z" fill="white"/>
<path d="M102.355 26.1162L97.2511 42.8983L97.019 42.8261L102.102 26.1162H102.355Z" fill="white"/>
<path d="M102.617 26.1162L97.4907 42.9704L97.2515 42.8983L102.356 26.1162H102.617Z" fill="white"/>
<path d="M102.878 26.1162L97.73 43.0425L97.4907 42.9704L102.617 26.1162H102.878Z" fill="white"/>
<path d="M103.234 25.9207L97.8171 43.7381L97.4538 43.7207L102.858 25.9703L103.234 25.9207Z" fill="white"/>
<path d="M103.392 26.1162L98.2008 43.1796L97.9688 43.1075L103.138 26.1162H103.392Z" fill="white"/>
<path d="M103.654 26.1162L98.4409 43.2518L98.2017 43.1796L103.393 26.1162H103.654Z" fill="white"/>
<path d="M103.915 26.1162L98.6797 43.3239L98.4404 43.2518L103.654 26.1162H103.915Z" fill="white"/>
<path d="M104.168 26.1162L98.9112 43.3961L98.6792 43.3239L103.914 26.1162H104.168Z" fill="white"/>
<path d="M104.429 26.1162L99.1509 43.4682L98.9116 43.3961L104.168 26.1162H104.429Z" fill="white"/>
<path d="M104.69 26.1162L99.3901 43.5404L99.1509 43.4682L104.429 26.1162H104.69Z" fill="white"/>
<path d="M104.944 26.1162L99.6434 43.5404H99.3969H99.3896L104.69 26.1162H104.944Z" fill="white"/>
<path d="M105.204 26.1162L99.9041 43.5404H99.6431L104.943 26.1162H105.204Z" fill="white"/>
<path d="M105.466 26.1162L100.166 43.5404H99.9048L105.205 26.1162H105.466Z" fill="white"/>
<path d="M105.72 26.1162L100.42 43.5404H100.166L105.466 26.1162H105.72Z" fill="white"/>
<path d="M105.981 26.1162L100.681 43.5404H100.42L105.72 26.1162H105.981Z" fill="white"/>
<path d="M106.242 26.1162L100.942 43.5404H100.681L105.981 26.1162H106.242Z" fill="white"/>
<path d="M106.496 26.1162L101.196 43.5404H100.942L106.242 26.1162H106.496Z" fill="white"/>
<path d="M106.756 26.1162L101.456 43.5404H101.195L106.495 26.1162H106.756Z" fill="white"/>
<path d="M107.018 26.1162L101.718 43.5404H101.457L106.757 26.1162H107.018Z" fill="white"/>
<path d="M107.271 26.1162L101.971 43.5404H101.717L107.017 26.1162H107.271Z" fill="white"/>
<path d="M107.286 26.1162L107.511 26.1811L102.232 43.5404H101.971L107.271 26.1162H107.286Z" fill="white"/>
<path d="M107.511 26.1826L107.75 26.2548L102.493 43.5419H102.232L107.511 26.1826Z" fill="white"/>
<path d="M107.75 26.2549L107.989 26.327L102.747 43.542H102.493L107.75 26.2549Z" fill="white"/>
<path d="M107.989 26.3262L108.221 26.3983L103.008 43.5411H102.747L107.989 26.3262Z" fill="white"/>
<path d="M108.221 26.3984L108.461 26.4706L103.269 43.5412H103.008L108.221 26.3984Z" fill="white"/>
<path d="M108.46 26.4707L108.7 26.5429L103.53 43.5413H103.269L108.46 26.4707Z" fill="white"/>
<path d="M108.7 26.543L108.932 26.6151L103.784 43.5415H103.53L108.7 26.543Z" fill="white"/>
<path d="M108.932 26.6152L109.171 26.6874L104.045 43.5416H103.784L108.932 26.6152Z" fill="white"/>
<path d="M109.171 26.6875L109.41 26.7596L104.306 43.5417H104.045L109.171 26.6875Z" fill="white"/>
<path d="M109.41 26.7598L109.642 26.8319L104.56 43.5418H104.306L109.41 26.7598Z" fill="white"/>
<path d="M109.643 26.832L109.882 26.897L104.821 43.5419H104.56L109.643 26.832Z" fill="white"/>
<path d="M109.881 26.8965L110.12 26.9686L105.081 43.5414H104.82L109.881 26.8965Z" fill="white"/>
<path d="M110.121 26.9678L110.36 27.0399L105.336 43.5406H105.082L110.121 26.9678Z" fill="white"/>
<path d="M110.36 27.041L110.592 27.1132L105.596 43.5417H105.335L110.36 27.041Z" fill="white"/>
<path d="M110.592 27.1133L110.831 27.1854L105.857 43.5418H105.596L110.592 27.1133Z" fill="white"/>
<path d="M110.831 27.1855L111.07 27.2577L106.111 43.5419H105.857L110.831 27.1855Z" fill="white"/>
<path d="M111.071 27.2568L111.303 27.329L106.372 43.541H106.111L111.071 27.2568Z" fill="white"/>
<path d="M111.302 27.3291L111.542 27.4013L106.633 43.5412H106.372L111.302 27.3291Z" fill="white"/>
<path d="M111.543 27.4023L111.782 27.4745L106.888 43.5423H106.634L111.543 27.4023Z" fill="white"/>
<path d="M111.781 27.4736L112.013 27.5386L107.148 43.5414H106.887L111.781 27.4736Z" fill="white"/>
<path d="M112.013 27.5381L112.252 27.6102L107.409 43.5409H107.148L112.013 27.5381Z" fill="white"/>
<path d="M112.252 27.6104L112.492 27.6825L107.663 43.541H107.409L112.252 27.6104Z" fill="white"/>
<path d="M112.492 27.6836L112.724 27.7557L107.925 43.5421H107.664L112.492 27.6836Z" fill="white"/>
<path d="M112.724 27.7559L112.963 27.828L108.185 43.5422H107.924L112.724 27.7559Z" fill="white"/>
<path d="M112.963 27.8262L113.202 27.8983L108.446 43.5404H108.185L112.963 27.8262Z" fill="white"/>
<path d="M113.203 27.8994L113.435 27.9716L108.7 43.5415H108.446L113.203 27.8994Z" fill="white"/>
<path d="M113.434 27.9717L113.673 28.0438L108.96 43.5416H108.699L113.434 27.9717Z" fill="white"/>
<path d="M113.673 28.043L113.913 28.1151L109.221 43.5407H108.96L113.673 28.043Z" fill="white"/>
<path d="M113.912 28.1152L114.152 28.1874L109.475 43.5409H109.221L113.912 28.1152Z" fill="white"/>
<path d="M114.152 28.1875L114.384 28.2524L109.737 43.541H109.476L114.152 28.1875Z" fill="white"/>
<path d="M114.384 28.2529L114.623 28.3251L109.997 43.5415H109.736L114.384 28.2529Z" fill="white"/>
<path d="M114.623 28.3252L114.862 28.3973L110.251 43.5416H109.997L114.623 28.3252Z" fill="white"/>
<path d="M114.863 28.3975L115.095 28.4696L110.512 43.5417H110.251L114.863 28.3975Z" fill="white"/>
<path d="M115.095 28.4697L115.334 28.5419L110.773 43.5418H110.512L115.095 28.4697Z" fill="white"/>
<path d="M115.334 28.542L115.573 28.6141L111.027 43.5419H110.773L115.334 28.542Z" fill="white"/>
<path d="M115.573 28.6133L115.805 28.6854L111.288 43.5411H111.027L115.573 28.6133Z" fill="white"/>
<path d="M115.805 28.6855L116.044 28.7577L111.549 43.5412H111.288L115.805 28.6855Z" fill="white"/>
<path d="M116.045 28.7578L116.161 28.7867V29.234L111.803 43.5413H111.549L116.045 28.7578Z" fill="white"/>
<path d="M116.16 30.0848L112.064 43.5407H111.803L116.16 29.2334V30.0848Z" fill="white"/>
<path d="M112.064 43.5409L116.161 30.085V43.5409H112.064Z" fill="white"/>
</g>
<path d="M104.117 43.6006C100.659 43.6006 97.5337 43.0378 94.1622 41.8257C90.4282 40.4837 87.122 37.5833 85.8749 36.3928C84.4248 35.0148 82.2062 31.9628 81.8074 29.4809C81.4086 27.0494 82.0612 26.5155 82.1699 26.4434C82.779 26.0033 86.5275 26.5588 86.7812 26.631C88.8186 27.2298 90.6675 27.3813 90.682 27.3813C94.4812 27.605 98.5415 27.2442 99.6943 27.1288C100.028 27.0927 100.361 27.0711 100.68 27.0639C109.105 26.7825 111.759 27.6194 112.506 27.9946C112.651 28.0667 112.767 28.175 112.839 28.3193C113.282 29.1418 113.608 30.6136 113.825 31.5804C113.898 31.9195 113.963 32.2081 114.014 32.3813C114.166 32.908 114.195 34.2067 114.217 35.1591C114.224 35.5415 114.231 35.8734 114.246 36.061C114.695 39.2428 116.254 41.2557 116.269 41.2774L116.378 41.4217L116.218 41.501C115.334 41.9195 110.026 43.3625 105.64 43.5645C105.125 43.5862 104.617 43.6006 104.117 43.6006ZM82.3222 26.6887C82.2932 26.7103 81.7132 27.1793 82.0829 29.4376C82.4744 31.8258 84.6931 34.8777 86.0707 36.1836C87.3033 37.3596 90.5732 40.2312 94.2564 41.5516C98.0774 42.9224 101.587 43.4563 105.625 43.2759C109.598 43.0956 114.659 41.8185 115.935 41.3135C115.558 40.7868 114.355 38.9037 113.963 36.1042V36.097C113.949 35.9022 113.941 35.5631 113.934 35.1735C113.912 34.2428 113.883 32.9657 113.738 32.4679C113.688 32.2803 113.622 31.9917 113.543 31.6454C113.325 30.693 113.006 29.2428 112.586 28.4564C112.542 28.3698 112.47 28.3048 112.383 28.2543C111.817 27.973 109.294 27.0639 100.695 27.3525C100.383 27.3597 100.057 27.3885 99.7305 27.4174C98.2442 27.5689 94.3942 27.8864 90.6675 27.6771C90.6457 27.6771 88.7678 27.5184 86.7015 26.9124C86.3099 26.7969 82.7645 26.3568 82.3439 26.6815L82.3222 26.6887Z" fill="black"/>
<path d="M105.568 40.7869C103.458 40.7869 101.058 40.5921 98.5564 40.0366C95.8447 39.4305 93.3361 38.3411 91.0884 36.7898C89.2903 35.5489 87.659 34.0193 86.2451 32.2372C83.8307 29.1997 82.8519 26.4508 82.8374 26.4219L83.1129 26.3281C83.1202 26.357 84.0917 29.0698 86.4771 32.0712C88.674 34.8346 92.5675 38.4132 98.6217 39.7624C103.182 40.7797 107.38 40.5705 110.099 40.2097C113.05 39.8201 114.95 39.1852 114.964 39.178L115.058 39.4522C115.037 39.4594 113.123 40.1015 110.143 40.4911C108.888 40.6571 107.329 40.7869 105.568 40.7869Z" fill="black"/>
<path d="M107.482 37.2155C105.633 37.2155 103.45 37.1145 100.985 36.8187C96.8307 36.3281 93.539 33.7379 91.5089 31.6528C89.312 29.4089 88.0794 27.2372 88.0649 27.2156L88.3187 27.0713C88.3332 27.0929 89.5513 29.2358 91.7264 31.458C93.7203 33.5071 96.9613 36.0467 101.022 36.5301C109.077 37.4897 114.094 36.4003 114.145 36.3858L114.21 36.6672C114.167 36.6816 111.709 37.2155 107.482 37.2155Z" fill="black"/>
<path d="M108.707 33.3695C107.04 33.3695 105.466 33.2541 104.009 33.0304C101.667 32.6697 99.6006 32.0203 97.8678 31.104C94.8951 29.5312 93.9308 27.7418 93.8945 27.6625L94.1483 27.5254C94.1628 27.5543 95.1271 29.3291 98.0273 30.8587C100.717 32.2728 105.655 33.7447 113.935 32.7418L113.971 33.0304C112.129 33.2613 110.368 33.3695 108.707 33.3695Z" fill="black"/>
<path d="M112.31 30.1734C108.33 30.1734 105.981 29.4446 104.69 28.8025C103.153 28.0449 102.725 27.2441 102.704 27.2152L102.957 27.0781C102.965 27.0853 103.378 27.8429 104.85 28.5644C106.213 29.2282 108.787 30.0002 113.282 29.8703L113.289 30.1589C112.956 30.1661 112.629 30.1734 112.31 30.1734Z" fill="black"/>
<mask id="mask1_7335_32090" style="mask-type:alpha" maskUnits="userSpaceOnUse" x="115" y="28" width="16" height="13">
<path d="M120.264 40.8003C120.264 40.7137 120.256 40.6272 120.256 40.5478C120.235 40.6993 120.264 40.8003 120.264 40.8003ZM115.768 28.7369C115.587 28.8523 115.167 29.278 115.841 30.6921C116.551 32.1856 118.937 34.3068 119.415 35.7931C119.452 35.9086 119.488 36.024 119.524 36.1394C119.698 36.6517 120.162 38.2173 120.264 40.5406C120.307 40.2231 120.59 39.682 121.859 39.3862C121.859 39.3862 128.428 37.4021 130.4 37.1928C130.4 37.1928 126.564 30.6849 115.913 28.708C115.899 28.708 115.884 28.708 115.877 28.708C115.841 28.708 115.805 28.7152 115.768 28.7369Z" fill="#47A09D"/>
</mask>
<g mask="url(#mask1_7335_32090)">
<path d="M117.067 28.7002L115.175 33.4693V28.7002H117.067Z" fill="white"/>
<path d="M117.335 28.7002L115.175 34.1403V33.4693L117.067 28.7002H117.335Z" fill="white"/>
<path d="M117.604 28.7002L115.175 34.8185V34.1403L117.335 28.7002H117.604Z" fill="white"/>
<path d="M117.872 28.7002L115.175 35.4895V34.8185L117.604 28.7002H117.872Z" fill="white"/>
<path d="M118.14 28.7002L115.175 36.1605V35.4895L117.872 28.7002H118.14Z" fill="white"/>
<path d="M118.409 28.7002L115.175 36.8387V36.1605L118.14 28.7002H118.409Z" fill="white"/>
<path d="M118.677 28.7002L115.175 37.5097V36.8387L118.409 28.7002H118.677Z" fill="white"/>
<path d="M118.945 28.7002L115.175 38.1879V37.5097L118.677 28.7002H118.945Z" fill="white"/>
<path d="M119.206 28.7002L115.175 38.8589V38.1879L118.945 28.7002H119.206Z" fill="white"/>
<path d="M119.474 28.7002L115.378 39.0248L115.175 38.9455V38.8589L119.206 28.7002H119.474Z" fill="white"/>
<path d="M119.743 28.7002L115.61 39.1186L115.378 39.0248L119.474 28.7002H119.743Z" fill="white"/>
<path d="M120.01 28.7002L115.841 39.2124L115.609 39.1186L119.742 28.7002H120.01Z" fill="white"/>
<path d="M120.278 28.7002L116.065 39.299L115.84 39.2124L120.009 28.7002H120.278Z" fill="white"/>
<path d="M120.547 28.7002L116.298 39.3928L116.066 39.299L120.279 28.7002H120.547Z" fill="white"/>
<path d="M120.815 28.7002L116.53 39.4794L116.298 39.3928L120.547 28.7002H120.815Z" fill="white"/>
<path d="M121.084 28.7002L116.762 39.5732L116.53 39.4794L120.815 28.7002H121.084Z" fill="white"/>
<path d="M121.352 28.7002L116.995 39.667L116.763 39.5732L121.084 28.7002H121.352Z" fill="white"/>
<path d="M121.62 28.7002L117.227 39.7535L116.995 39.667L121.352 28.7002H121.62Z" fill="white"/>
<path d="M121.889 28.7002L117.459 39.8473L117.227 39.7535L121.62 28.7002H121.889Z" fill="white"/>
<path d="M121.925 28.7002L122.121 28.7796L117.691 39.9411L117.459 39.8473L121.889 28.7002H121.925Z" fill="white"/>
<path d="M122.106 28.7765L117.673 39.9336L117.921 40.0313L122.355 28.8742L122.106 28.7765Z" fill="white"/>
<path d="M122.353 28.8722L117.919 40.0293L118.159 40.1235L122.592 28.9664L122.353 28.8722Z" fill="white"/>
<path d="M122.587 28.965L118.153 40.1221L118.383 40.2123L122.816 29.0552L122.587 28.965Z" fill="white"/>
<path d="M122.814 29.0539L118.381 40.2109L118.61 40.3011L123.043 29.144L122.814 29.0539Z" fill="white"/>
<path d="M123.043 29.1427L118.609 40.2998L118.85 40.3943L123.283 29.2372L123.043 29.1427Z" fill="white"/>
<path d="M123.283 29.2374L118.85 40.3945L119.079 40.4847L123.512 29.3276L123.283 29.2374Z" fill="white"/>
<path d="M123.511 29.3263L119.077 40.4834L119.314 40.5766L123.747 29.4195L123.511 29.3263Z" fill="white"/>
<path d="M123.744 29.4171L119.311 40.5742L119.547 40.6671L123.981 29.51L123.744 29.4171Z" fill="white"/>
<path d="M123.976 29.5148L119.542 40.6719L119.772 40.7621L124.205 29.605L123.976 29.5148Z" fill="white"/>
<path d="M124.202 29.6025L124.434 29.6963L120.025 40.8002H119.88L119.771 40.7569L124.202 29.6025Z" fill="white"/>
<path d="M124.434 29.6963L124.666 29.7829L120.294 40.8001H120.025L124.434 29.6963Z" fill="white"/>
<path d="M124.666 29.7822L124.898 29.876L120.562 40.7995H120.294L124.666 29.7822Z" fill="white"/>
<path d="M124.897 29.876L125.129 29.9626L120.823 40.7995H120.562L124.897 29.876Z" fill="white"/>
<path d="M125.13 29.9629L125.362 30.0567L121.092 40.7998H120.823L125.13 29.9629Z" fill="white"/>
<path d="M125.361 30.0566L125.593 30.1504L121.359 40.7997H121.091L125.361 30.0566Z" fill="white"/>
<path d="M125.594 30.1494L125.826 30.236L121.628 40.7987H121.359L125.594 30.1494Z" fill="white"/>
<path d="M125.826 30.2373L126.058 30.3311L121.896 40.8H121.628L125.826 30.2373Z" fill="white"/>
<path d="M126.058 30.3311L126.29 30.4176L122.164 40.8H121.896L126.058 30.3311Z" fill="white"/>
<path d="M126.289 30.417L126.521 30.5108L122.432 40.7993H122.164L126.289 30.417Z" fill="white"/>
<path d="M126.522 30.5107L126.754 30.6045L122.701 40.7993H122.433L126.522 30.5107Z" fill="white"/>
<path d="M126.754 30.6045L126.978 30.6911L122.969 40.7993H122.701L126.754 30.6045Z" fill="white"/>
<path d="M126.979 30.6914L127.211 30.7852L123.238 40.7996H122.969L126.979 30.6914Z" fill="white"/>
<path d="M127.211 30.7852L127.443 30.879L123.506 40.7995H123.238L127.211 30.7852Z" fill="white"/>
<path d="M127.442 30.8789L127.674 30.9655L123.766 40.7995H123.505L127.442 30.8789Z" fill="white"/>
<path d="M127.675 30.9658L127.907 31.0596L124.035 40.7998H123.767L127.675 30.9658Z" fill="white"/>
<path d="M127.906 31.0596L128.138 31.1461L124.303 40.7998H124.035L127.906 31.0596Z" fill="white"/>
<path d="M128.139 31.1455L128.371 31.2393L124.571 40.7992H124.303L128.139 31.1455Z" fill="white"/>
<path d="M128.371 31.2393L128.603 31.3331L124.84 40.7991H124.571L128.371 31.2393Z" fill="white"/>
<path d="M128.603 31.334L128.835 31.4206L125.108 40.8H124.84L128.603 31.334Z" fill="white"/>
<path d="M128.834 31.4209L129.066 31.5147L125.376 40.8004H125.107L128.834 31.4209Z" fill="white"/>
<path d="M129.066 31.5137L129.298 31.6075L125.644 40.7994H125.376L129.066 31.5137Z" fill="white"/>
<path d="M129.299 31.6084L129.531 31.695L125.913 40.8003H125.645L129.299 31.6084Z" fill="white"/>
<path d="M129.531 31.6953L129.756 31.7891L126.181 40.8006H125.913L129.531 31.6953Z" fill="white"/>
<path d="M129.756 31.7881L129.988 31.8747L126.449 40.7996H126.181L129.756 31.7881Z" fill="white"/>
<path d="M129.987 31.875L130.219 31.9688L126.71 40.7999H126.449L129.987 31.875Z" fill="white"/>
<path d="M130.219 31.9688L130.408 32.0409V32.1852L126.978 40.7999H126.71L130.219 31.9688Z" fill="white"/>
<path d="M130.408 32.8556L127.247 40.7993H126.979L130.408 32.1846V32.8556Z" fill="white"/>
<path d="M130.408 33.5265L127.515 40.7992H127.247L130.408 32.8555V33.5265Z" fill="white"/>
<path d="M130.408 34.2056L127.783 40.8H127.515L130.408 33.5273V34.2056Z" fill="white"/>
<path d="M130.408 34.8761L128.052 40.7996H127.784L130.408 34.2051V34.8761Z" fill="white"/>
<path d="M130.408 35.5479L128.32 40.8005H128.051L130.408 34.877V35.5479Z" fill="white"/>
<path d="M130.408 36.2251L128.588 40.7994H128.32L130.408 35.5469V36.2251Z" fill="white"/>
<path d="M130.408 36.8956L128.857 40.7989H128.588L130.408 36.2246V36.8956Z" fill="white"/>
<path d="M128.856 40.7998L130.408 36.8965V40.7998H128.856Z" fill="white"/>
</g>
<path d="M120.235 41.2834C120.213 41.1102 120.184 40.8288 120.163 40.6845C120.047 38.484 119.582 36.8245 119.394 36.2617C119.365 36.1824 119.343 36.103 119.314 36.0237L119.278 35.9154C119.024 35.129 118.205 34.1333 117.407 33.1737C116.704 32.3296 116.044 31.5287 115.718 30.8361C115 29.3282 115.471 28.8375 115.703 28.6932C115.776 28.6499 115.863 28.6355 115.95 28.6499C121.482 29.6745 125.151 31.94 127.253 33.6644C129.537 35.533 130.494 37.1348 130.538 37.2069L130.654 37.4017L130.429 37.4234C128.486 37.6254 121.975 39.5951 121.91 39.6167H121.903C121.004 39.826 120.648 40.1578 120.511 40.3959C120.46 40.4825 120.431 40.5691 120.424 40.6412C120.373 40.8793 120.322 41.1391 120.293 41.2978C120.279 41.3122 120.235 41.305 120.235 41.2834ZM115.877 28.9241C115.87 28.9241 115.856 28.9241 115.848 28.9313C115.718 29.0107 115.341 29.3714 115.972 30.7062C116.284 31.37 116.965 32.1925 117.625 32.9861C118.437 33.9674 119.285 34.9847 119.553 35.8289L119.59 35.9371C119.611 36.0164 119.64 36.0958 119.662 36.168C119.843 36.6946 120.235 38.0511 120.373 40.0568C120.648 39.7322 121.134 39.4868 121.816 39.3281C122.127 39.2343 127.971 37.4739 130.154 37.1564C129.827 36.6802 128.849 35.3454 127.05 33.8736C124.977 32.1781 121.359 29.9486 115.892 28.9313C115.892 28.9241 115.885 28.9241 115.877 28.9241Z" fill="black"/>
<path d="M127.602 34.3286C121.656 31.0603 115.849 30.6851 115.791 30.6851L115.805 30.3965C115.863 30.3965 121.736 30.7789 127.739 34.0761L127.602 34.3286Z" fill="black"/>
<path d="M129.182 35.8942C124.679 33.5421 117.871 33.5132 117.762 33.5132V33.2246C117.871 33.2246 124.752 33.2463 129.319 35.6344L129.182 35.8942Z" fill="black"/>
<path d="M129.646 36.3992C126.239 35.7715 119.554 36.1827 119.481 36.19L119.459 35.9014C119.525 35.8941 126.246 35.4757 129.69 36.1178L129.646 36.3992Z" fill="black"/>
<path d="M120.148 38.9816L120.076 38.7002C120.126 38.6858 124.962 37.3943 130.4 37.1201L130.415 37.4087C125.006 37.6829 120.199 38.9672 120.148 38.9816Z" fill="black"/>
</g>
<path d="M11.211 0.713582V3.06421H7.08619V15.5309H4.10365V3.06421H0V0.713582H11.211Z" fill="white"/>
<path d="M19.8332 3.73582C21.187 3.73582 22.2658 4.17656 23.0696 5.05804C23.8734 5.93953 24.2753 7.17781 24.2753 8.77287V15.5309H21.3139V9.10868C21.3139 8.18522 21.0742 7.47163 20.5947 6.96793C20.1153 6.45023 19.4595 6.19138 18.6275 6.19138C17.7814 6.19138 17.1045 6.46422 16.5969 7.0099C16.0892 7.55558 15.8354 8.33913 15.8354 9.36053V15.5309H12.8528V0H15.8354V6.23336C16.1456 5.44982 16.6533 4.84117 17.3584 4.40742C18.0776 3.95969 18.9025 3.73582 19.8332 3.73582Z" fill="white"/>
<path d="M37.9202 9.27658C37.9202 9.57041 37.885 9.90621 37.8145 10.284H29.2264C29.2687 11.3194 29.5508 12.0819 30.0725 12.5717C30.5943 13.0614 31.243 13.3062 32.0186 13.3062C32.7096 13.3062 33.2807 13.1383 33.732 12.8025C34.1973 12.4667 34.4935 12.012 34.6204 11.4383H37.7722C37.617 12.2498 37.2856 12.9774 36.778 13.621C36.2703 14.2647 35.6146 14.7684 34.8108 15.1322C34.0211 15.4959 33.1397 15.6778 32.1667 15.6778C31.0244 15.6778 30.0091 15.44 29.1207 14.9643C28.2322 14.4745 27.5412 13.7819 27.0477 12.8865C26.5541 11.991 26.3073 10.9346 26.3073 9.71732C26.3073 8.50003 26.5541 7.44365 27.0477 6.54817C27.5412 5.6387 28.2322 4.94611 29.1207 4.47039C30.0091 3.99467 31.0244 3.7568 32.1667 3.7568C33.323 3.7568 34.3313 3.99467 35.1915 4.47039C36.0658 4.94611 36.7357 5.60372 37.201 6.44323C37.6805 7.26875 37.9202 8.2132 37.9202 9.27658ZM34.9165 8.98275C34.9588 8.03131 34.705 7.31073 34.155 6.82101C33.6192 6.3313 32.9564 6.08644 32.1667 6.08644C31.3629 6.08644 30.686 6.3313 30.136 6.82101C29.586 7.31073 29.2828 8.03131 29.2264 8.98275H34.9165Z" fill="white"/>
<path d="M47.6266 13.2642H52.6398V15.5309H44.644V0.713582H47.6266V13.2642Z" fill="white"/>
<path d="M65.4354 9.27658C65.4354 9.57041 65.4002 9.90621 65.3296 10.284H56.7416C56.7839 11.3194 57.0659 12.0819 57.5877 12.5717C58.1095 13.0614 58.7582 13.3062 59.5338 13.3062C60.2248 13.3062 60.7959 13.1383 61.2472 12.8025C61.7125 12.4667 62.0087 12.012 62.1356 11.4383H65.2873C65.1322 12.2498 64.8008 12.9774 64.2932 13.621C63.7855 14.2647 63.1297 14.7684 62.3259 15.1322C61.5362 15.4959 60.6549 15.6778 59.6818 15.6778C58.5396 15.6778 57.5243 15.44 56.6358 14.9643C55.7474 14.4745 55.0564 13.7819 54.5629 12.8865C54.0693 11.991 53.8225 10.9346 53.8225 9.71732C53.8225 8.50003 54.0693 7.44365 54.5629 6.54817C55.0564 5.6387 55.7474 4.94611 56.6358 4.47039C57.5243 3.99467 58.5396 3.7568 59.6818 3.7568C60.8382 3.7568 61.8465 3.99467 62.7067 4.47039C63.581 4.94611 64.2508 5.60372 64.7162 6.44323C65.1957 7.26875 65.4354 8.2132 65.4354 9.27658ZM62.4317 8.98275C62.474 8.03131 62.2202 7.31073 61.6702 6.82101C61.1343 6.3313 60.4715 6.08644 59.6818 6.08644C58.878 6.08644 58.2011 6.3313 57.6512 6.82101C57.1012 7.31073 56.798 8.03131 56.7416 8.98275H62.4317Z" fill="white"/>
<path d="M72.1428 3.7568C73.13 3.7568 73.9761 3.98767 74.6812 4.4494C75.3863 4.91113 75.8869 5.53377 76.183 6.31731V3.90372H79.1444V15.5309H76.183V13.0963C75.8869 13.8799 75.3863 14.5095 74.6812 14.9852C73.9761 15.447 73.13 15.6778 72.1428 15.6778C71.1557 15.6778 70.2673 15.44 69.4776 14.9643C68.6879 14.4885 68.0674 13.8029 67.6161 12.9075C67.179 11.998 66.9604 10.9346 66.9604 9.71732C66.9604 8.50003 67.179 7.44365 67.6161 6.54817C68.0674 5.6387 68.6879 4.94611 69.4776 4.47039C70.2673 3.99467 71.1557 3.7568 72.1428 3.7568ZM73.0736 6.3383C72.1428 6.3383 71.3954 6.63912 70.8314 7.24077C70.2673 7.84242 69.9852 8.66794 69.9852 9.71732C69.9852 10.7667 70.2673 11.5922 70.8314 12.1939C71.3954 12.7815 72.1428 13.0754 73.0736 13.0754C73.9761 13.0754 74.7164 12.7745 75.2946 12.1729C75.8869 11.5572 76.183 10.7387 76.183 9.71732C76.183 8.68193 75.8869 7.86341 75.2946 7.26176C74.7164 6.64612 73.9761 6.3383 73.0736 6.3383Z" fill="white"/>
<path d="M84.8299 6.12842C85.2671 5.38685 85.8452 4.80619 86.5644 4.38644C87.2836 3.95269 88.0874 3.73582 88.9758 3.73582V6.90497H88.1086C85.9228 6.90497 84.8299 7.91238 84.8299 9.9272V15.5309H81.8473V3.90372H84.8299V6.12842Z" fill="white"/>
<path d="M97.607 3.73582C98.9608 3.73582 100.04 4.17656 100.843 5.05804C101.647 5.93953 102.049 7.17781 102.049 8.77287V15.5309H99.0877V9.10868C99.0877 8.18522 98.848 7.47163 98.3685 6.96793C97.8891 6.45023 97.2333 6.19138 96.4013 6.19138C95.5552 6.19138 94.8783 6.46422 94.3706 7.0099C93.863 7.55558 93.6091 8.33913 93.6091 9.36053V15.5309H90.6266V3.90372H93.6091V6.23336C93.9194 5.44982 94.427 4.84117 95.1321 4.40742C95.8513 3.95969 96.6763 3.73582 97.607 3.73582Z" fill="white"/>
<path d="M107.656 10.0321V15.5309H104.673V0.713582H110.11C111.872 0.713582 113.198 1.13334 114.086 1.97285C114.989 2.81236 115.44 3.95269 115.44 5.39385C115.44 6.80702 114.975 7.93336 114.044 8.77287C113.127 9.61238 111.816 10.0321 110.11 10.0321H107.656ZM109.792 7.66052C111.541 7.66052 112.415 6.90497 112.415 5.39385C112.415 4.65228 112.211 4.08561 111.802 3.69384C111.393 3.30207 110.723 3.10618 109.792 3.10618H107.656V7.66052H109.792Z" fill="white"/>
<path d="M121.968 3.7568C122.955 3.7568 123.801 3.98767 124.506 4.4494C125.211 4.91113 125.712 5.53377 126.008 6.31731V3.90372H128.969V15.5309H126.008V13.0963C125.712 13.8799 125.211 14.5095 124.506 14.9852C123.801 15.447 122.955 15.6778 121.968 15.6778C120.98 15.6778 120.092 15.44 119.302 14.9643C118.513 14.4885 117.892 13.8029 117.441 12.9075C117.004 11.998 116.785 10.9346 116.785 9.71732C116.785 8.50003 117.004 7.44365 117.441 6.54817C117.892 5.6387 118.513 4.94611 119.302 4.47039C120.092 3.99467 120.98 3.7568 121.968 3.7568ZM122.898 6.3383C121.968 6.3383 121.22 6.63912 120.656 7.24077C120.092 7.84242 119.81 8.66794 119.81 9.71732C119.81 10.7667 120.092 11.5922 120.656 12.1939C121.22 12.7815 121.968 13.0754 122.898 13.0754C123.801 13.0754 124.541 12.7745 125.119 12.1729C125.712 11.5572 126.008 10.7387 126.008 9.71732C126.008 8.68193 125.712 7.86341 125.119 7.26176C124.541 6.64612 123.801 6.3383 122.898 6.3383Z" fill="white"/>
<path d="M136.262 3.7568C137.249 3.7568 138.088 3.98767 138.779 4.4494C139.485 4.91113 139.992 5.53377 140.302 6.31731V0H143.264V15.5309H140.302V13.0963C139.992 13.8799 139.485 14.5095 138.779 14.9852C138.088 15.447 137.249 15.6778 136.262 15.6778C135.275 15.6778 134.387 15.44 133.597 14.9643C132.807 14.4885 132.187 13.8029 131.736 12.9075C131.298 11.998 131.08 10.9346 131.08 9.71732C131.08 8.50003 131.298 7.44365 131.736 6.54817C132.187 5.6387 132.807 4.94611 133.597 4.47039C134.387 3.99467 135.275 3.7568 136.262 3.7568ZM137.193 6.3383C136.262 6.3383 135.515 6.63912 134.951 7.24077C134.387 7.84242 134.105 8.66794 134.105 9.71732C134.105 10.7667 134.387 11.5922 134.951 12.1939C135.515 12.7815 136.262 13.0754 137.193 13.0754C138.096 13.0754 138.836 12.7745 139.414 12.1729C140.006 11.5572 140.302 10.7387 140.302 9.71732C140.302 8.68193 140.006 7.86341 139.414 7.26176C138.836 6.64612 138.096 6.3383 137.193 6.3383Z" fill="white"/>
<defs>
<clipPath id="clip0_7335_32090">
<rect width="66.523" height="29.6608" fill="white" transform="translate(81.5396 20.3389)"/>
</clipPath>
</defs>
</svg>
