<svg width="52" height="23" viewBox="0 0 52 23" fill="none" xmlns="http://www.w3.org/2000/svg">
<g clip-path="url(#clip0_1047_55030)">
<path d="M7.30762 3.58289C7.30762 3.58289 7.55008 4.33412 8.33806 4.69603C8.60807 4.81666 8.91115 4.86601 9.2032 4.8386C9.48974 4.81666 9.91955 4.75634 10.2116 4.60829C10.2116 4.60829 10.5367 5.27727 10.8729 5.59531C10.8729 5.59531 10.8508 4.61378 11.4129 4.04898C11.4129 4.04898 10.68 4.1751 10.2998 4.47669C10.2998 4.47669 9.52831 3.18808 8.3546 3.24291C8.3546 3.24291 7.65477 3.26485 7.30762 3.58289Z" fill="#CDD7D8"/>
<path d="M13.8159 2.92479C13.8159 2.92479 14.4717 3.62667 15.5186 3.6157C15.8768 3.61022 16.2295 3.50603 16.5436 3.32508C16.8466 3.14961 17.282 2.86447 17.5299 2.55739C17.5299 2.55739 18.2353 3.12767 18.7643 3.30314C18.7643 3.30314 18.2298 2.24484 18.5549 1.3291C18.5549 1.3291 17.822 1.84455 17.5575 2.36547C17.5575 2.36547 16.0476 1.35104 14.7858 2.01453C14.7858 2.01453 14.0308 2.39837 13.8159 2.92479Z" fill="#003042"/>
<path d="M19.2764 2.71707C19.2764 2.71707 19.5243 3.47379 20.3233 3.82473C20.5989 3.94537 20.8964 3.98924 21.194 3.96182C21.486 3.9344 21.9103 3.8686 22.2079 3.72055C22.2079 3.72055 22.544 4.38953 22.8802 4.70757C22.8802 4.70757 22.8471 3.72603 23.4037 3.14478C23.4037 3.14478 22.6708 3.28187 22.2906 3.58346C22.2906 3.58346 21.5026 2.29485 20.3233 2.36613C20.3289 2.36613 19.6235 2.39903 19.2764 2.71707Z" fill="#003042"/>
<path d="M30.2036 4.60282C30.2036 4.60282 30.4516 5.35953 31.2506 5.71047C31.5261 5.83111 31.8237 5.87498 32.1212 5.84756C32.4133 5.82014 32.8376 5.75434 33.1352 5.60629C33.1352 5.60629 33.4713 6.27527 33.8074 6.59331C33.8074 6.59331 33.7744 5.61177 34.3309 5.03053C34.3309 5.03053 33.598 5.16761 33.2178 5.4692C33.2178 5.4692 32.4298 4.18059 31.2506 4.25188C31.2561 4.25188 30.5508 4.28478 30.2036 4.60282Z" fill="#003042"/>
<path d="M34.3531 7.92076C34.3531 7.92076 34.298 8.82553 34.9923 9.52741C35.2292 9.76868 35.5323 9.93867 35.8574 10.0319C36.177 10.1251 36.6564 10.2348 37.0311 10.2019C37.0311 10.2019 37.1028 11.0518 37.3287 11.5234C37.3287 11.5234 37.7089 10.4651 38.5465 10.0922C38.5465 10.0922 37.7144 9.9277 37.1854 10.0922C37.1854 10.0922 36.8934 8.40331 35.615 7.98108C35.615 7.98656 34.8545 7.72884 34.3531 7.92076Z" fill="#003042"/>
<path d="M37.8408 10.9036C37.8408 10.9036 38.0502 11.6055 38.7776 11.951C39.0256 12.0716 39.3011 12.1155 39.5766 12.099C39.8466 12.0826 40.2434 12.0332 40.5134 11.9071C40.5134 11.9071 40.8054 12.5377 41.1085 12.8338C41.1085 12.8338 41.103 11.9235 41.6375 11.4081C41.6375 11.4081 40.9597 11.5123 40.6015 11.781C40.6015 11.781 39.9127 10.5746 38.8217 10.602C38.8217 10.6075 38.1714 10.6185 37.8408 10.9036Z" fill="#557583"/>
<path d="M47.495 12.9984C47.495 12.9984 47.3352 13.5357 47.6548 14.0567C47.765 14.2376 47.9248 14.3802 48.1067 14.4844C48.2885 14.5831 48.5585 14.7202 48.79 14.7476C48.79 14.7476 48.7128 15.2685 48.7845 15.5865C48.7845 15.5865 49.1592 14.9998 49.7212 14.8901C49.7212 14.8901 49.2418 14.6763 48.8947 14.7037C48.8947 14.7037 48.9553 13.6399 48.2444 13.2122C48.2444 13.2122 47.8257 12.949 47.495 12.9984Z" fill="#557583"/>
<path d="M45.2355 17.1768C45.2355 17.1768 44.7783 17.429 44.6406 17.9773C44.5965 18.1693 44.602 18.3667 44.6571 18.5531C44.7067 18.7341 44.8003 19.0027 44.9325 19.1727C44.9325 19.1727 44.5359 19.4688 44.3706 19.7211C44.3706 19.7211 45.0042 19.584 45.4449 19.8746C45.4449 19.8746 45.2686 19.4195 45.0262 19.2111C45.0262 19.2111 45.7699 18.5531 45.5826 17.8019C45.5881 17.8074 45.489 17.3632 45.2355 17.1768Z" fill="#557583"/>
<path d="M42.0398 14.2324C42.0398 14.2324 41.9075 15.022 42.4586 15.7129C42.6459 15.9487 42.8994 16.1242 43.1749 16.2393C43.4505 16.349 43.8582 16.4916 44.1944 16.4971C44.1944 16.4971 44.1778 17.2538 44.3321 17.6925C44.3321 17.6925 44.7619 16.7932 45.5389 16.5409C45.5389 16.5409 44.817 16.3216 44.3376 16.4203C44.3376 16.4203 44.2385 14.9014 43.1474 14.4134C43.1474 14.4024 42.5027 14.1008 42.0398 14.2324Z" fill="#003042"/>
<path d="M42.4313 16.2842C42.4313 16.2842 41.9023 17.1067 42.1834 18.1321C42.2825 18.483 42.4754 18.8011 42.7344 19.0643C42.9879 19.3165 43.3791 19.6729 43.7483 19.8375C43.7483 19.8375 43.3681 20.6764 43.3295 21.2412C43.3295 21.2412 44.2443 20.4461 45.2306 20.5284C45.2306 20.5284 44.5308 19.9416 43.9467 19.8155C43.9467 19.8155 44.5639 18.0718 43.583 17.008C43.583 17.008 43.0044 16.3664 42.4313 16.2842Z" fill="#003042"/>
<path d="M45.2637 14.7646C45.2637 14.7646 45.4069 15.2691 45.9249 15.5214C46.1013 15.6091 46.2996 15.642 46.498 15.6365C46.6909 15.6255 46.9719 15.5981 47.1703 15.5049C47.1703 15.5049 47.3742 15.9546 47.5836 16.1739C47.5836 16.1739 47.5891 15.5268 47.9748 15.1595C47.9748 15.1595 47.4899 15.2307 47.2309 15.4172C47.2309 15.4172 46.746 14.5453 45.969 14.5618C45.9635 14.5618 45.5006 14.5618 45.2637 14.7646Z" fill="#003042"/>
<path d="M4.39258 4.91614C4.39258 4.91614 4.90505 5.23966 5.54426 5.06967C5.76467 5.00936 5.96305 4.88872 6.12285 4.7297C6.28265 4.57616 6.50307 4.32941 6.60777 4.10459C6.60777 4.10459 7.13126 4.34038 7.48392 4.36779C7.48392 4.36779 6.98799 3.803 7.03758 3.19434C7.03758 3.19434 6.66838 3.62753 6.59124 3.98944C6.59124 3.98944 5.50568 3.60559 4.83892 4.20877C4.83892 4.20877 4.43666 4.55971 4.39258 4.91614Z" fill="#003042"/>
<path d="M2.19971 4.12612C2.19971 4.12612 2.34298 4.51544 2.76728 4.68543C2.91055 4.74575 3.07035 4.7622 3.22464 4.74026C3.37343 4.71833 3.59384 4.67994 3.74813 4.59769C3.74813 4.59769 3.93549 4.94315 4.11733 5.09669C4.11733 5.09669 4.07876 4.58673 4.35979 4.27417C4.35979 4.27417 3.97957 4.35642 3.78671 4.52641C3.78671 4.52641 3.35138 3.86839 2.73973 3.92871C2.73973 3.92323 2.37053 3.95613 2.19971 4.12612Z" fill="#003042"/>
<path d="M1.63184 4.21366C1.63184 4.21366 1.67591 4.32881 1.79711 4.37816C1.84119 4.39462 1.88526 4.4001 1.92933 4.39462C1.97341 4.38913 2.03952 4.37816 2.08359 4.35075C2.08359 4.35075 2.13868 4.44945 2.19378 4.4988C2.19378 4.4988 2.18276 4.35075 2.2654 4.25753C2.2654 4.25753 2.15521 4.27946 2.09461 4.32881C2.09461 4.32881 1.9679 4.13689 1.78609 4.15334C1.7916 4.15883 1.68693 4.16431 1.63184 4.21366Z" fill="#557583"/>
<path d="M1.59912 4.74578C1.59912 4.74578 1.7038 4.86093 1.87458 4.86093C1.93518 4.86093 1.99028 4.84448 2.03986 4.81706C2.08944 4.78965 2.16106 4.74578 2.19963 4.69643C2.19963 4.69643 2.30981 4.78965 2.39796 4.81706C2.39796 4.81706 2.31532 4.64708 2.3649 4.49902C2.3649 4.49902 2.2437 4.58128 2.19963 4.66353C2.19963 4.66353 1.95722 4.49902 1.75338 4.60321C1.75338 4.60321 1.63218 4.66353 1.59912 4.74578Z" fill="#003042"/>
<path d="M4.93262 3.53387C4.93262 3.53387 5.0428 3.69289 5.25215 3.72031C5.32377 3.73127 5.39539 3.72031 5.4615 3.69289C5.52761 3.66547 5.62127 3.6216 5.68187 3.57225C5.68187 3.57225 5.80307 3.70386 5.90224 3.75869C5.90224 3.75869 5.83062 3.53387 5.91877 3.3584C5.91877 3.3584 5.759 3.44065 5.68738 3.53387C5.68738 3.53387 5.41743 3.28711 5.14748 3.38033C5.15299 3.38033 4.99322 3.43517 4.93262 3.53387Z" fill="#003042"/>
<path d="M8.31592 5.55758C8.31592 5.55758 8.5694 5.82078 8.97166 5.80982C9.10942 5.80433 9.24167 5.76595 9.35739 5.69466C9.4731 5.62338 9.63291 5.51371 9.72658 5.39308C9.72658 5.39308 9.99659 5.60693 10.2005 5.66725C10.2005 5.66725 9.99108 5.26696 10.1068 4.91602C10.1068 4.91602 9.83128 5.1189 9.73761 5.31631C9.73761 5.31631 9.1535 4.93795 8.6796 5.20115C8.6796 5.20115 8.39306 5.35469 8.31592 5.55758Z" fill="#003042"/>
<path d="M9.94727 3.50103C9.94727 3.50103 10.1787 3.83552 10.625 3.89584C10.7793 3.91777 10.9336 3.89584 11.0769 3.83552C11.2147 3.78069 11.4185 3.68747 11.5398 3.57231C11.5398 3.57231 11.7988 3.85746 12.0137 3.96164C12.0137 3.96164 11.8539 3.4791 12.0467 3.11719C12.0467 3.11719 11.7051 3.28717 11.5618 3.49555C11.5618 3.49555 10.9887 2.97462 10.4157 3.17202C10.4157 3.17751 10.0685 3.29266 9.94727 3.50103Z" fill="#003042"/>
<path d="M16.1187 4.42794C16.1187 4.42794 16.2454 4.82823 16.6587 5.02015C16.8019 5.08595 16.9617 5.11337 17.116 5.09692C17.2703 5.08595 17.4963 5.05305 17.6505 4.98177C17.6505 4.98177 17.8214 5.33819 17.9977 5.50818C17.9977 5.50818 17.9867 4.98725 18.2898 4.69114C18.2898 4.69114 17.904 4.75695 17.7001 4.91597C17.7001 4.91597 17.2979 4.23053 16.6752 4.25247C16.6807 4.25247 16.306 4.25795 16.1187 4.42794Z" fill="#003042"/>
<path d="M17.601 4.44995C17.601 4.44995 18.0032 4.59801 18.422 4.38415C18.5653 4.31287 18.6865 4.19771 18.7747 4.06611C18.8628 3.93451 18.9786 3.7371 19.0171 3.56163C19.0171 3.56163 19.4139 3.64937 19.6619 3.61098C19.6619 3.61098 19.232 3.29294 19.1825 2.86523C19.1825 2.86523 18.9896 3.21618 18.9951 3.47938C18.9951 3.47938 18.1851 3.3752 17.8159 3.89064C17.8104 3.89064 17.5844 4.19771 17.601 4.44995Z" fill="#003042"/>
<path d="M24.2798 2.19616C24.2798 2.19616 24.5498 2.37163 24.8914 2.2839C25.0072 2.25648 25.1119 2.19068 25.2 2.10843C25.2827 2.02617 25.4039 1.90005 25.459 1.77942C25.459 1.77942 25.7345 1.90554 25.9219 1.92199C25.9219 1.92199 25.6629 1.6204 25.696 1.29688C25.696 1.29688 25.4976 1.5217 25.4535 1.71362C25.4535 1.71362 24.8804 1.50525 24.5222 1.82329C24.5222 1.82329 24.3128 2.00972 24.2798 2.19616Z" fill="#003042"/>
<path d="M16.2949 1.53885C16.2949 1.53885 16.609 1.7198 16.9837 1.60465C17.1105 1.56627 17.2262 1.4895 17.3199 1.39079C17.408 1.29758 17.5348 1.14404 17.5954 1.00695C17.5954 1.00695 17.9095 1.13856 18.1189 1.14404C18.1189 1.14404 17.8103 0.820516 17.8323 0.453125C17.8323 0.453125 17.6229 0.716331 17.5844 0.935669C17.5844 0.935669 16.9286 0.732781 16.5484 1.10566C16.5484 1.10566 16.317 1.32499 16.2949 1.53885Z" fill="#003042"/>
<path d="M21.8936 2.876C21.8936 2.876 22.2076 3.18856 22.6871 3.16114C22.8524 3.15566 23.0122 3.10083 23.1499 3.01309C23.2877 2.92536 23.4806 2.78827 23.5908 2.6457C23.5908 2.6457 23.9214 2.89245 24.1694 2.96374C24.1694 2.96374 23.9049 2.48668 24.0371 2.06445C24.0371 2.06445 23.712 2.31121 23.5963 2.55796C23.5963 2.55796 22.8854 2.11929 22.3234 2.44281C22.3234 2.44281 21.9817 2.63473 21.8936 2.876Z" fill="#003042"/>
<path d="M23.5854 3.19469C23.5854 3.19469 23.591 3.66079 23.9767 4.00076C24.1089 4.11591 24.2687 4.19268 24.4451 4.23106C24.6104 4.26945 24.8639 4.30783 25.0567 4.27493C25.0567 4.27493 25.1229 4.71361 25.2606 4.9494C25.2606 4.9494 25.4149 4.39008 25.8337 4.16526C25.8337 4.16526 25.3984 4.11043 25.1284 4.21461C25.1284 4.21461 24.9135 3.35371 24.2412 3.18373C24.2357 3.17824 23.8334 3.07406 23.5854 3.19469Z" fill="#003042"/>
<path d="M25.4316 4.86645C25.4316 4.86645 25.5529 5.23933 25.9386 5.4148C26.0708 5.47512 26.2196 5.49705 26.3684 5.48608C26.5117 5.47512 26.7211 5.4477 26.8699 5.37642C26.8699 5.37642 27.0297 5.71091 27.195 5.86444C27.195 5.86444 27.1839 5.3819 27.465 5.09676C27.465 5.09676 27.1013 5.15708 26.9139 5.30513C26.9139 5.30513 26.5337 4.66905 25.9551 4.69098C25.9496 4.69647 25.6025 4.70743 25.4316 4.86645Z" fill="#003042"/>
<path d="M27.542 5.73819C27.542 5.73819 27.6908 6.06719 28.0655 6.18235C28.1922 6.22073 28.33 6.22621 28.4622 6.1988C28.589 6.17138 28.7818 6.12203 28.9031 6.03978C28.9031 6.03978 29.0849 6.32492 29.2557 6.45104C29.2557 6.45104 29.1896 6.01236 29.4155 5.72174C29.4155 5.72174 29.0904 5.82044 28.9361 5.97397C28.9361 5.97397 28.5173 5.4366 27.9938 5.52433C27.9994 5.52981 27.6853 5.57917 27.542 5.73819Z" fill="#003042"/>
<path d="M30.9199 7.49794C30.9199 7.49794 31.1128 7.70631 31.4269 7.70631C31.5371 7.70631 31.6418 7.67341 31.7355 7.62406C31.8291 7.57471 31.9559 7.48698 32.033 7.39376C32.033 7.39376 32.2424 7.56375 32.4022 7.61858C32.4022 7.61858 32.2424 7.30054 32.3416 7.02637C32.3416 7.02637 32.1212 7.1799 32.044 7.33344C32.044 7.33344 31.5922 7.02637 31.2175 7.22377C31.212 7.22925 30.986 7.34441 30.9199 7.49794Z" fill="#003042"/>
<path d="M37.0361 6.77484C37.0361 6.77484 37.0582 6.90096 37.1794 6.97224C37.2179 6.99966 37.2675 7.01063 37.3171 7.01063C37.3667 7.01063 37.4328 7.01063 37.4824 6.99418C37.4824 6.99418 37.5209 7.10933 37.5705 7.16416C37.5705 7.16416 37.5871 7.00514 37.6862 6.92837C37.6862 6.92837 37.565 6.93386 37.4989 6.97773C37.4989 6.97773 37.3997 6.75839 37.2124 6.74194C37.2069 6.73645 37.0967 6.73097 37.0361 6.77484Z" fill="#003042"/>
<path d="M37.0142 9.01191C37.0142 9.01191 37.0693 9.18738 37.2566 9.26963C37.3227 9.29705 37.3888 9.30802 37.4604 9.30253C37.5265 9.29705 37.6257 9.2806 37.6973 9.2477C37.6973 9.2477 37.7744 9.40672 37.8516 9.478C37.8516 9.478 37.8461 9.2477 37.9728 9.1161C37.9728 9.1161 37.802 9.149 37.7138 9.22028C37.7138 9.22028 37.532 8.91869 37.2566 8.93514C37.2566 8.92966 37.0913 8.93514 37.0142 9.01191Z" fill="#003042"/>
<path d="M37.0361 11.7104C37.0361 11.7104 37.0636 11.7981 37.1572 11.842C37.1902 11.8585 37.2232 11.8639 37.2562 11.8585C37.2892 11.853 37.3387 11.8475 37.3717 11.831C37.3717 11.831 37.4102 11.9078 37.4488 11.9462C37.4488 11.9462 37.4433 11.831 37.5093 11.7652C37.5093 11.7652 37.4268 11.7817 37.3772 11.8146C37.3772 11.8146 37.2837 11.6665 37.1517 11.672C37.1572 11.672 37.0746 11.6775 37.0361 11.7104Z" fill="#003042"/>
<path d="M39.2349 12.3675C39.2349 12.3675 39.2513 12.4223 39.3063 12.4442C39.3228 12.4551 39.3448 12.4551 39.3667 12.4551C39.3887 12.4551 39.4162 12.4496 39.4382 12.4387C39.4382 12.4387 39.4602 12.488 39.4876 12.5099C39.4876 12.5099 39.4876 12.4387 39.5261 12.4004C39.5261 12.4004 39.4766 12.4113 39.4492 12.4332C39.4492 12.4332 39.3942 12.3402 39.3118 12.3456C39.3063 12.3402 39.2568 12.3402 39.2349 12.3675Z" fill="#003042"/>
<path d="M41.3677 13.9473C41.3677 13.9473 41.4834 14.057 41.6597 14.046C41.7203 14.0405 41.7754 14.0186 41.8249 13.9857C41.8745 13.9528 41.9406 13.9035 41.9792 13.8486C41.9792 13.8486 42.1004 13.9364 42.1886 13.9583C42.1886 13.9583 42.0894 13.7883 42.1335 13.6348C42.1335 13.6348 42.0178 13.728 41.9792 13.8157C41.9792 13.8157 41.7203 13.6622 41.5164 13.7883C41.5164 13.7883 41.3952 13.8596 41.3677 13.9473Z" fill="#003042"/>
<path d="M47.396 14.6383C47.396 14.6383 47.4511 14.7863 47.6109 14.8521C47.6659 14.8741 47.7265 14.8796 47.7871 14.8741C47.8422 14.8686 47.9304 14.8521 47.9855 14.8192C47.9855 14.8192 48.0571 14.9509 48.1287 15.0112C48.1287 15.0112 48.1177 14.8138 48.2224 14.6931C48.2224 14.6931 48.0791 14.726 48.002 14.7863C48.002 14.7863 47.8367 14.5341 47.5998 14.556C47.6053 14.5615 47.4676 14.5725 47.396 14.6383Z" fill="#003042"/>
<path d="M41.4556 13.4156C41.4556 13.4156 41.4831 13.4924 41.5711 13.5253C41.5986 13.5362 41.6316 13.5417 41.6646 13.5362C41.6921 13.5308 41.7416 13.5253 41.7692 13.5088C41.7692 13.5088 41.8077 13.5801 41.8462 13.6075C41.8462 13.6075 41.8352 13.5033 41.8957 13.443C41.8957 13.443 41.8187 13.4595 41.7802 13.4924C41.7802 13.4924 41.6921 13.3608 41.5711 13.3717C41.5601 13.3717 41.4886 13.3772 41.4556 13.4156Z" fill="#003042"/>
<path d="M38.0669 12.5596C38.0669 12.5596 37.9953 12.6747 38.0338 12.8173C38.0504 12.8666 38.0779 12.9105 38.1109 12.9434C38.1439 12.9763 38.1989 13.0257 38.2539 13.0476C38.2539 13.0476 38.2044 13.1628 38.1989 13.245C38.1989 13.245 38.3254 13.1353 38.463 13.1408C38.463 13.1408 38.3639 13.0586 38.2814 13.0421C38.2814 13.0421 38.3639 12.8008 38.2264 12.6528C38.2264 12.6583 38.1494 12.5651 38.0669 12.5596Z" fill="#003042"/>
<path d="M33.5044 8.79877C33.5044 8.79877 33.5485 9.00165 33.7468 9.11132C33.8129 9.14971 33.89 9.16616 33.9672 9.16616C34.0443 9.16616 34.1545 9.16067 34.2371 9.12777C34.2371 9.12777 34.3088 9.30873 34.3859 9.40195C34.3859 9.40195 34.4024 9.14422 34.5622 9.01262C34.5622 9.01262 34.3694 9.02907 34.2647 9.10036C34.2647 9.10036 34.0939 8.74393 33.7854 8.73296C33.7854 8.73296 33.6036 8.722 33.5044 8.79877Z" fill="#003042"/>
<path d="M34.292 5.5077C34.292 5.5077 34.3857 5.8038 34.6998 5.94637C34.8045 5.99572 34.9257 6.01217 35.0414 6.00121C35.1571 5.99024 35.3224 5.96831 35.4382 5.90799C35.4382 5.90799 35.5649 6.17119 35.6971 6.29731C35.6971 6.29731 35.6861 5.91347 35.9065 5.68865C35.9065 5.68865 35.62 5.738 35.4712 5.85864C35.4712 5.85864 35.1681 5.35416 34.7053 5.37609C34.7053 5.37061 34.4298 5.38158 34.292 5.5077Z" fill="#003042"/>
<path d="M28.1094 4.89351C28.1094 4.89351 28.3849 5.16769 28.8092 5.14575C28.9525 5.14027 29.0957 5.09092 29.217 5.01415C29.3382 4.93738 29.509 4.81674 29.6027 4.69062C29.6027 4.69062 29.8948 4.90996 30.1152 4.97576C30.1152 4.97576 29.8837 4.55354 29.9994 4.18066C29.9994 4.18066 29.7074 4.4 29.6137 4.61386C29.6137 4.61386 28.9855 4.22453 28.4896 4.51515C28.4841 4.51515 28.1865 4.67966 28.1094 4.89351Z" fill="#003042"/>
<path d="M29.6246 5.13599C29.6246 5.13599 29.4979 5.61305 29.7844 6.06269C29.8836 6.21623 30.0269 6.34235 30.1867 6.43008C30.3465 6.51233 30.5889 6.62749 30.7928 6.64942C30.7928 6.64942 30.7377 7.11003 30.8038 7.3842C30.8038 7.3842 31.1234 6.86327 31.6084 6.75909C31.6084 6.75909 31.1841 6.57813 30.881 6.61104C30.881 6.61104 30.914 5.67885 30.2803 5.31146C30.2859 5.31146 29.9111 5.08664 29.6246 5.13599Z" fill="#003042"/>
<path d="M32.7385 6.16602C32.7385 6.16602 32.4519 6.59373 32.5842 7.13659C32.6283 7.32302 32.7275 7.49301 32.8597 7.63558C32.9864 7.77267 33.1903 7.96459 33.3832 8.05781C33.3832 8.05781 33.1683 8.491 33.1407 8.78711C33.1407 8.78711 33.6312 8.38133 34.1491 8.43617C34.1491 8.43617 33.791 8.11813 33.4824 8.04684C33.4824 8.04684 33.8295 7.13659 33.3336 6.56631C33.3391 6.56082 33.0415 6.21537 32.7385 6.16602Z" fill="#003042"/>
<path d="M33.8955 6.68736C33.8955 6.68736 34.0718 7.2357 34.6449 7.49891C34.8433 7.58664 35.0637 7.61954 35.2786 7.60309C35.488 7.58664 35.8021 7.54277 36.017 7.43859C36.017 7.43859 36.254 7.92661 36.4964 8.15692C36.4964 8.15692 36.4799 7.44407 36.8877 7.02733C36.8877 7.02733 36.3531 7.12055 36.0776 7.33989C36.0776 7.33989 35.5156 6.40222 34.6559 6.4406C34.6615 6.4406 34.149 6.45705 33.8955 6.68736Z" fill="#003042"/>
<path d="M37.1132 7.33407C37.1132 7.33407 36.9149 7.78919 37.1353 8.28819C37.2124 8.45817 37.3336 8.60623 37.4879 8.71589C37.6367 8.82556 37.8626 8.97362 38.061 9.02297C38.061 9.02297 37.9343 9.47809 37.9618 9.76323C37.9618 9.76323 38.3586 9.28617 38.8655 9.25327C38.8655 9.25327 38.4633 9.012 38.1602 8.99555C38.1602 8.99555 38.331 8.06336 37.7524 7.60275C37.758 7.60275 37.4108 7.32858 37.1132 7.33407Z" fill="#003042"/>
<path d="M23.106 5.03639C23.106 5.03639 23.3705 5.2996 23.7727 5.27766C23.9105 5.27218 24.0427 5.22283 24.164 5.15155C24.2797 5.08026 24.4395 4.96511 24.5332 4.84447C24.5332 4.84447 24.8142 5.05284 25.0181 5.11316C25.0181 5.11316 24.7977 4.71287 24.9079 4.35645C24.9079 4.35645 24.6323 4.56482 24.5387 4.7677C24.5387 4.7677 23.9435 4.40031 23.4696 4.67449C23.4641 4.67449 23.1776 4.83351 23.106 5.03639Z" fill="#003042"/>
<path d="M24.4836 5.4539C24.4836 5.4539 24.4175 5.83774 24.6765 6.16675C24.7647 6.2819 24.8859 6.36964 25.0181 6.42447C25.1504 6.47931 25.3488 6.55059 25.5086 6.55059C25.5086 6.55059 25.4975 6.9125 25.5692 7.12636C25.5692 7.12636 25.7841 6.69865 26.1533 6.57801C26.1533 6.57801 25.8061 6.46834 25.5747 6.51221C25.5747 6.51221 25.5361 5.77742 25.0126 5.54164C25.0181 5.54164 24.7096 5.39358 24.4836 5.4539Z" fill="#003042"/>
<path d="M26.1862 7.08203C26.1862 7.08203 25.8722 7.2246 25.7565 7.57554C25.7179 7.69618 25.7124 7.82778 25.74 7.9539C25.7675 8.07454 25.8116 8.25549 25.8887 8.37613C25.8887 8.37613 25.6133 8.54611 25.4976 8.70513C25.4976 8.70513 25.9218 8.64481 26.1917 8.85867C26.1917 8.85867 26.1036 8.5516 25.9548 8.40354C25.9548 8.40354 26.4727 8.00873 26.39 7.50974C26.3845 7.51522 26.335 7.21363 26.1862 7.08203Z" fill="#003042"/>
<path d="M27.586 9.58789C27.586 9.58789 27.4816 9.67563 27.4761 9.82368C27.4761 9.87303 27.4871 9.92238 27.509 9.97173C27.531 10.0156 27.5695 10.0814 27.6135 10.1143C27.6135 10.1143 27.5255 10.2075 27.4981 10.2843C27.4981 10.2843 27.6519 10.2185 27.7783 10.2678C27.7783 10.2678 27.7124 10.1637 27.6354 10.1198C27.6354 10.1198 27.7893 9.9169 27.7014 9.73046C27.7069 9.73046 27.6574 9.62079 27.586 9.58789Z" fill="#003042"/>
<path d="M26.6492 8.31055C26.6492 8.31055 26.4343 8.54085 26.4729 8.88631C26.4839 9.00146 26.528 9.11661 26.5941 9.20983C26.6602 9.30305 26.7649 9.44014 26.8751 9.51142C26.8751 9.51142 26.7098 9.75818 26.6657 9.93365C26.6657 9.93365 27.0018 9.73076 27.3103 9.80753C27.3103 9.80753 27.123 9.58271 26.9412 9.51142C26.9412 9.51142 27.2332 8.99049 26.9797 8.60117C26.9742 8.60117 26.8255 8.36538 26.6492 8.31055Z" fill="#003042"/>
<path d="M27.1176 10.3552C27.1176 10.3552 27.0846 10.6349 27.2939 10.8707C27.3655 10.9529 27.4537 11.0078 27.5584 11.0461C27.6575 11.079 27.8063 11.1229 27.922 11.1174C27.922 11.1174 27.9275 11.3861 27.9936 11.5342C27.9936 11.5342 28.1313 11.2106 28.3958 11.1065C28.3958 11.1065 28.1368 11.0407 27.9716 11.0845C27.9716 11.0845 27.911 10.5526 27.5143 10.3991C27.5088 10.3991 27.2774 10.3059 27.1176 10.3552Z" fill="#003042"/>
<path d="M29.2388 12.5596C29.2388 12.5596 29.0019 12.7954 29.0184 13.1573C29.0239 13.2834 29.0625 13.404 29.1286 13.5082C29.1947 13.6124 29.2994 13.7604 29.4096 13.8427C29.4096 13.8427 29.2167 14.0949 29.1616 14.2814C29.1616 14.2814 29.5252 14.084 29.8503 14.1827C29.8503 14.1827 29.663 13.9359 29.4757 13.8482C29.4757 13.8482 29.8117 13.3108 29.5693 12.8831C29.5693 12.8831 29.4261 12.6254 29.2388 12.5596Z" fill="#003042"/>
<path d="M26.9358 10.7402C26.9358 10.7402 26.451 11.0254 26.3243 11.6176C26.2802 11.8205 26.2968 12.0343 26.3574 12.2317C26.418 12.4237 26.5281 12.7088 26.6714 12.8897C26.6714 12.8897 26.2582 13.2188 26.0874 13.4929C26.0874 13.4929 26.7595 13.3229 27.2443 13.6245C27.2443 13.6245 27.046 13.142 26.7761 12.9281C26.7761 12.9281 27.5473 12.1988 27.327 11.4037C27.3325 11.4037 27.2058 10.9267 26.9358 10.7402Z" fill="#003042"/>
<path d="M27.3658 12.5327C27.3658 12.5327 27.206 13.1688 27.6027 13.7665C27.7405 13.9694 27.9334 14.1339 28.1538 14.2436C28.3687 14.3533 28.6938 14.4958 28.9638 14.5232C28.9638 14.5232 28.8977 15.1374 28.9914 15.5103C28.9914 15.5103 29.4046 14.8084 30.0549 14.6548C30.0549 14.6548 29.4818 14.4245 29.085 14.4684C29.085 14.4684 29.1071 13.2237 28.2585 12.7466C28.253 12.7521 27.746 12.4615 27.3658 12.5327Z" fill="#557583"/>
<path d="M27.0737 15.2146C27.0737 15.2146 27.2225 15.6752 27.7074 15.8946C27.8727 15.9713 28.0601 15.9987 28.2419 15.9823C28.4183 15.9658 28.6773 15.9275 28.8591 15.8397C28.8591 15.8397 29.063 16.251 29.2669 16.4429C29.2669 16.4429 29.2504 15.8397 29.592 15.4943C29.592 15.4943 29.1457 15.571 28.9142 15.7575C28.9142 15.7575 28.4403 14.9679 27.7185 15.0062C27.7129 15.0008 27.2831 15.0172 27.0737 15.2146Z" fill="#003042"/>
<path d="M27.3989 14.4579C27.3989 14.4579 27.4871 14.7266 27.7681 14.8527C27.8673 14.8966 27.972 14.9131 28.0767 14.9021C28.1814 14.8911 28.3302 14.8692 28.4349 14.8198C28.4349 14.8198 28.5506 15.0611 28.6718 15.1708C28.6718 15.1708 28.6608 14.8198 28.8647 14.617C28.8647 14.617 28.6057 14.6608 28.4679 14.7705C28.4679 14.7705 28.1924 14.3099 27.7736 14.3318C27.7736 14.3318 27.5257 14.3428 27.3989 14.4579Z" fill="#003042"/>
<path d="M27.4315 16.0033C27.4315 16.0033 27.3654 16.261 27.5252 16.5022C27.5803 16.5845 27.6574 16.6503 27.7455 16.6942C27.8337 16.738 27.9659 16.7984 28.0706 16.8093C28.0706 16.8093 28.043 17.0561 28.0816 17.2041C28.0816 17.2041 28.2524 16.9245 28.5113 16.8587C28.5113 16.8587 28.2799 16.7654 28.1202 16.7819C28.1202 16.7819 28.1312 16.2774 27.7896 16.0855C27.7896 16.091 27.5858 15.9758 27.4315 16.0033Z" fill="#CDD7D8"/>
<path d="M26.1086 10.1855C26.1086 10.1855 25.9106 10.3171 25.8665 10.5749C25.85 10.6626 25.8665 10.7503 25.894 10.8381C25.9271 10.9203 25.9766 11.0355 26.0426 11.1122C26.0426 11.1122 25.872 11.2603 25.8115 11.3809C25.8115 11.3809 26.0921 11.2932 26.3067 11.4084C26.3067 11.4084 26.2131 11.2055 26.0921 11.1232C26.0921 11.1232 26.4057 10.7942 26.2902 10.4597C26.2957 10.4597 26.2296 10.2623 26.1086 10.1855Z" fill="#003042"/>
<path d="M28.7433 11.2051C28.7433 11.2051 28.5945 11.3751 28.6221 11.6163C28.6331 11.6986 28.6661 11.7808 28.7157 11.8466C28.7653 11.9124 28.8424 12.0057 28.9196 12.055C28.9196 12.055 28.8039 12.2305 28.7763 12.3621C28.7763 12.3621 29.0132 12.214 29.2336 12.2634C29.2336 12.2634 29.0958 12.1044 28.9636 12.0605C28.9636 12.0605 29.162 11.6821 28.9746 11.408C28.9802 11.408 28.87 11.238 28.7433 11.2051Z" fill="#CDD7D8"/>
<path d="M27.955 11.6822C27.955 11.6822 27.8723 11.9508 28.0321 12.2086C28.0872 12.2963 28.1643 12.3731 28.258 12.4224C28.3461 12.4718 28.4838 12.5376 28.5995 12.554C28.5995 12.554 28.561 12.8117 28.594 12.9708C28.594 12.9708 28.7813 12.6801 29.0623 12.6253C29.0623 12.6253 28.8254 12.5156 28.6546 12.5266C28.6546 12.5266 28.6877 12.0002 28.3351 11.7809C28.3296 11.7918 28.1202 11.6602 27.955 11.6822Z" fill="#003042"/>
<path d="M26.9521 13.6455C26.9521 13.6455 26.7263 13.7936 26.6822 14.0787C26.6657 14.1774 26.6822 14.2761 26.7152 14.3693C26.7483 14.4625 26.8089 14.5941 26.8805 14.6764C26.8805 14.6764 26.6932 14.8409 26.6216 14.978C26.6216 14.978 26.9411 14.8793 27.178 15.0109C27.178 15.0109 27.0678 14.7861 26.9356 14.6928C26.9356 14.6928 27.2827 14.3255 27.1615 13.9526C27.156 13.9526 27.0844 13.7278 26.9521 13.6455Z" fill="#003042"/>
<path d="M29.9058 15.0713C29.9058 15.0713 29.6799 15.2193 29.6358 15.5045C29.6193 15.6032 29.6358 15.7019 29.6689 15.7951C29.7019 15.8883 29.7625 16.0199 29.8341 16.1022C29.8341 16.1022 29.6468 16.2667 29.5752 16.4038C29.5752 16.4038 29.8947 16.3051 30.1316 16.4367C30.1316 16.4367 30.0214 16.2118 29.8892 16.1186C29.8892 16.1186 30.2363 15.7512 30.1151 15.3784C30.1096 15.3784 30.038 15.1535 29.9058 15.0713Z" fill="#003042"/>
<path d="M29.7184 16.6291C29.7184 16.6291 29.5421 16.6181 29.4043 16.7552C29.3548 16.7991 29.3217 16.8594 29.3052 16.9197C29.2886 16.9801 29.2666 17.0733 29.2721 17.1446C29.2721 17.1446 29.1068 17.1555 29.0132 17.1994C29.0132 17.1994 29.217 17.2707 29.2942 17.4352C29.2942 17.4352 29.3272 17.2762 29.2942 17.172C29.2942 17.172 29.6247 17.1171 29.7018 16.8704C29.7073 16.8704 29.7569 16.7223 29.7184 16.6291Z" fill="#003042"/>
<path d="M28.5832 16.1348C28.5832 16.1348 28.5116 16.2719 28.5722 16.4254C28.5942 16.4802 28.6272 16.5241 28.6713 16.5625C28.7154 16.6009 28.7814 16.6502 28.842 16.6667C28.842 16.6667 28.7924 16.8037 28.7979 16.8915C28.7979 16.8915 28.9301 16.7544 29.0843 16.7544C29.0843 16.7544 28.9686 16.6721 28.875 16.6612C28.875 16.6612 28.9466 16.3815 28.7759 16.228C28.7759 16.228 28.6768 16.1348 28.5832 16.1348Z" fill="#003042"/>
<path d="M28.6374 16.9414C28.6374 16.9414 28.555 16.9633 28.5055 17.0401C28.489 17.0675 28.4835 17.1004 28.4835 17.1333C28.4835 17.1662 28.489 17.2101 28.5 17.243C28.5 17.243 28.4231 17.2704 28.3901 17.3033C28.3901 17.3033 28.4945 17.3088 28.555 17.3746C28.555 17.3746 28.5495 17.2978 28.5165 17.254C28.5165 17.254 28.6649 17.1827 28.6649 17.0566C28.6649 17.0566 28.6704 16.9798 28.6374 16.9414Z" fill="#003042"/>
<path d="M25.7677 8.99035C25.7677 8.99035 25.6299 9.31935 25.7952 9.67578C25.8503 9.79641 25.944 9.9006 26.0541 9.97737C26.1588 10.0541 26.3241 10.1583 26.4673 10.1967C26.4673 10.1967 26.3792 10.5257 26.4012 10.7341C26.4012 10.7341 26.6822 10.3886 27.0458 10.3557C27.0458 10.3557 26.7538 10.1857 26.5334 10.1748C26.5334 10.1748 26.6491 9.50579 26.2249 9.17678C26.2304 9.18227 25.9825 8.98486 25.7677 8.99035Z" fill="#CDD7D8"/>
<path d="M18.6367 2.15229C18.6367 2.15229 18.9618 2.43195 19.4302 2.38259C19.59 2.36614 19.7443 2.30034 19.8711 2.20712C19.9978 2.11391 20.1796 1.97134 20.2733 1.8178C20.2733 1.8178 20.615 2.03714 20.8574 2.09197C20.8574 2.09197 20.5709 1.64233 20.6701 1.22559C20.6701 1.22559 20.367 1.48879 20.2733 1.73555C20.2733 1.73555 19.5514 1.35171 19.0224 1.70813C19.028 1.69716 18.7084 1.90553 18.6367 2.15229Z" fill="#003042"/>
<path d="M21.1831 0.984786C21.1831 0.984786 21.3098 1.4125 21.7507 1.62635C21.8995 1.69764 22.0703 1.73054 22.2356 1.71957C22.4009 1.7086 22.6379 1.68118 22.8087 1.60442C22.8087 1.60442 22.985 1.98826 23.1669 2.16921C23.1669 2.16921 23.1669 1.61538 23.492 1.30283C23.492 1.30283 23.0787 1.36314 22.8583 1.52765C22.8583 1.52765 22.4395 0.792866 21.7782 0.803832C21.7782 0.803832 21.3815 0.809316 21.1831 0.984786Z" fill="#003042"/>
<path d="M12.1953 4.02768C12.1953 4.02768 12.4653 4.29637 12.8841 4.27443C13.0274 4.26895 13.1651 4.2196 13.2864 4.14283C13.4021 4.06606 13.5729 3.95091 13.6666 3.82479C13.6666 3.82479 13.9531 4.03864 14.168 4.09896C14.168 4.09896 13.9421 3.6877 14.0523 3.32031C14.0523 3.32031 13.7713 3.53417 13.6721 3.74802C13.6721 3.74802 13.0549 3.36966 12.57 3.64932C12.5645 3.64932 12.2725 3.81382 12.1953 4.02768Z" fill="#003042"/>
<path d="M14.4106 3.97844C14.4106 3.97844 14.5043 4.2581 14.8074 4.3897C14.9121 4.43357 15.0223 4.45002 15.1325 4.43905C15.2427 4.42809 15.4025 4.40067 15.5127 4.34584C15.5127 4.34584 15.6395 4.59807 15.7662 4.71323C15.7662 4.71323 15.7497 4.34584 15.9591 4.1265C15.9591 4.1265 15.6836 4.18133 15.5458 4.29648C15.5458 4.29648 15.2482 3.81942 14.8074 3.84684C14.8019 3.84136 14.5374 3.85781 14.4106 3.97844Z" fill="#003042"/>
<path d="M16.8076 3.8304C16.8076 3.8304 17.039 3.94007 17.2924 3.83589C17.3806 3.80299 17.4577 3.74267 17.5183 3.6659C17.5734 3.59462 17.656 3.47946 17.6891 3.38076C17.6891 3.38076 17.915 3.45205 18.0637 3.44656C18.0637 3.44656 17.8268 3.23819 17.8213 2.98047C17.8213 2.98047 17.6891 3.17787 17.6781 3.33141C17.6781 3.33141 17.2098 3.22722 16.9619 3.51236C16.9619 3.51236 16.8131 3.68235 16.8076 3.8304Z" fill="#003042"/>
<path d="M20.5933 4.63593C20.5933 4.63593 20.8357 4.86623 21.1994 4.83882C21.3261 4.82785 21.4419 4.78398 21.5466 4.71818C21.6458 4.65238 21.7945 4.54271 21.8717 4.43304C21.8717 4.43304 22.1252 4.614 22.3125 4.66335C22.3125 4.66335 22.1031 4.30692 22.1968 3.9834C22.1968 3.9834 21.9543 4.17532 21.8772 4.36176C21.8772 4.36176 21.3317 4.04372 20.9129 4.30144C20.9074 4.30144 20.6539 4.44949 20.5933 4.63593Z" fill="#003042"/>
<path d="M26.4946 2.11945C26.4946 2.11945 26.5718 2.34975 26.8197 2.45394C26.9023 2.49232 26.996 2.50329 27.0896 2.49232C27.1778 2.48135 27.31 2.45942 27.3981 2.41555C27.3981 2.41555 27.5028 2.61844 27.6075 2.71714C27.6075 2.71714 27.5965 2.41555 27.7617 2.2346C27.7617 2.2346 27.5359 2.27847 27.4202 2.37169C27.4202 2.37169 27.1723 1.97688 26.8142 2.00429C26.8197 2.00978 26.6048 2.02074 26.4946 2.11945Z" fill="#003042"/>
<path d="M21.6128 2.53618C21.6128 2.53618 21.756 2.60746 21.9158 2.54166C21.9709 2.51973 22.0205 2.48134 22.0535 2.43747C22.0921 2.39361 22.1417 2.32232 22.1582 2.262C22.1582 2.262 22.3014 2.30587 22.3951 2.30039C22.3951 2.30039 22.2464 2.16879 22.2408 2.00977C22.2408 2.00977 22.1582 2.1304 22.1527 2.2291C22.1527 2.2291 21.8552 2.1633 21.7064 2.33877C21.7064 2.33877 21.6183 2.44296 21.6128 2.53618Z" fill="#003042"/>
<path d="M23.1445 4.08232C23.1445 4.08232 23.2106 4.25779 23.4035 4.33455C23.4696 4.36197 23.5412 4.36746 23.6128 4.35649C23.6789 4.34552 23.7836 4.32907 23.8497 4.29069C23.8497 4.29069 23.9379 4.44422 24.0205 4.51551C24.0205 4.51551 24.004 4.2852 24.1252 4.14263C24.1252 4.14263 23.9544 4.18102 23.8662 4.25779C23.8662 4.25779 23.6679 3.96168 23.3869 3.9891C23.3869 3.9891 23.2217 4.00555 23.1445 4.08232Z" fill="#003042"/>
<path d="M23.646 1.31939C23.646 1.31939 23.7286 1.47293 23.9104 1.52228C23.971 1.53873 24.0372 1.53873 24.1033 1.52228C24.1639 1.50583 24.252 1.47841 24.3126 1.43454C24.3126 1.43454 24.4063 1.56615 24.4944 1.62098C24.4944 1.62098 24.4503 1.41261 24.555 1.26456C24.555 1.26456 24.4008 1.31939 24.3291 1.39616C24.3291 1.39616 24.1143 1.14941 23.8609 1.20424C23.8609 1.20424 23.7066 1.23714 23.646 1.31939Z" fill="#003042"/>
<path d="M15.4023 0.80812C15.4023 0.80812 15.518 0.978107 15.7384 1.01101C15.8155 1.02197 15.8927 1.01101 15.9643 0.98359C16.0359 0.956173 16.1351 0.912305 16.1957 0.851987C16.1957 0.851987 16.3279 0.994557 16.4326 1.04939C16.4326 1.04939 16.3554 0.80812 16.4546 0.627166C16.4546 0.627166 16.2838 0.709418 16.2122 0.813603C16.2122 0.813603 15.9257 0.550397 15.6392 0.6491C15.6392 0.6491 15.4629 0.703934 15.4023 0.80812Z" fill="#557583"/>
<path d="M19.4307 4.02276C19.4307 4.02276 19.4968 4.24758 19.7337 4.35725C19.8163 4.39563 19.9045 4.4066 19.9926 4.40112C20.0808 4.39563 20.2075 4.37918 20.2956 4.33532C20.2956 4.33532 20.3893 4.5382 20.4884 4.63142C20.4884 4.63142 20.4829 4.3408 20.6537 4.1763C20.6537 4.1763 20.4389 4.2092 20.3232 4.29693C20.3232 4.29693 20.0973 3.91309 19.7502 3.92406C19.7392 3.92954 19.5353 3.92954 19.4307 4.02276Z" fill="#003042"/>
<path d="M25.7734 4.37384C25.7734 4.37384 25.9718 4.53286 26.2417 4.49448C26.3354 4.47803 26.4235 4.43964 26.5006 4.38481C26.5723 4.32997 26.6769 4.23675 26.732 4.14902C26.732 4.14902 26.9359 4.26965 27.0791 4.29707C27.0791 4.29707 26.9028 4.03935 26.9524 3.78711C26.9524 3.78711 26.7816 3.94613 26.732 4.09418C26.732 4.09418 26.3023 3.88581 25.9938 4.09967C25.9938 4.10515 25.812 4.23127 25.7734 4.37384Z" fill="#003042"/>
<path d="M28.4673 6.75877C28.4673 6.75877 28.6215 6.96166 28.897 6.98908C28.9907 7.00004 29.0843 6.97811 29.1725 6.93973C29.2551 6.90134 29.3818 6.84102 29.4534 6.76426C29.4534 6.76426 29.6242 6.93424 29.7564 6.99456C29.7564 6.99456 29.6463 6.70394 29.7564 6.47363C29.7564 6.47363 29.5471 6.58879 29.4645 6.7149C29.4645 6.7149 29.0953 6.40783 28.7483 6.54492C28.7483 6.5504 28.5389 6.62717 28.4673 6.75877Z" fill="#003042"/>
<path d="M32.0054 7.94818C32.0054 7.94818 32.066 8.14558 32.2698 8.24428C32.3414 8.27719 32.4186 8.28815 32.4957 8.28815C32.5728 8.28267 32.683 8.2717 32.7601 8.23332C32.7601 8.23332 32.8428 8.40879 32.9309 8.49652C32.9309 8.49652 32.9309 8.2388 33.0797 8.09075C33.0797 8.09075 32.8868 8.11817 32.7877 8.20042C32.7877 8.20042 32.5893 7.86044 32.2863 7.87141C32.2808 7.86044 32.0935 7.86593 32.0054 7.94818Z" fill="#557583"/>
<path d="M35.9288 6.02913C35.9288 6.02913 35.8627 6.22653 35.9674 6.42394C36.0059 6.48974 36.061 6.55006 36.1271 6.58844C36.1932 6.62683 36.2924 6.68166 36.375 6.69811C36.375 6.69811 36.3365 6.89003 36.3585 7.01067C36.3585 7.01067 36.5073 6.8023 36.7166 6.7694C36.7166 6.7694 36.5458 6.68166 36.4191 6.68714C36.4191 6.68714 36.4632 6.29782 36.2043 6.12235C36.2043 6.12235 36.0555 6.01816 35.9288 6.02913Z" fill="#557583"/>
<path d="M38.3369 8.44758C38.3369 8.44758 38.4251 8.74369 38.7282 8.88626C38.8329 8.93561 38.9486 8.95754 39.0643 8.94658C39.1745 8.94109 39.3453 8.91916 39.461 8.86433C39.461 8.86433 39.5823 9.12753 39.709 9.25365C39.709 9.25365 39.7035 8.86981 39.9294 8.65596C39.9294 8.65596 39.6429 8.69982 39.4941 8.81497C39.4941 8.81497 39.2021 8.3105 38.7447 8.32147C38.7502 8.32147 38.4747 8.32147 38.3369 8.44758Z" fill="#003042"/>
<path d="M37.6482 11.6666C37.6482 11.6666 37.5986 11.9902 37.8245 12.2698C37.9016 12.363 38.0063 12.4398 38.1221 12.4837C38.2323 12.5275 38.4031 12.5824 38.5409 12.5824C38.5409 12.5824 38.5353 12.8949 38.6015 13.0704C38.6015 13.0704 38.7723 12.703 39.0919 12.5933C39.0919 12.5933 38.7943 12.5056 38.6015 12.5495C38.6015 12.5495 38.5574 11.9298 38.1055 11.7324C38.1 11.7324 37.8355 11.6118 37.6482 11.6666Z" fill="#003042"/>
<path d="M39.2515 12.8727C39.2515 12.8727 39.3837 13.2566 39.797 13.432C39.9403 13.4924 40.0946 13.5143 40.2433 13.4978C40.3921 13.4814 40.6125 13.4485 40.7613 13.3662C40.7613 13.3662 40.9377 13.7062 41.114 13.8652C41.114 13.8652 41.0919 13.3608 41.373 13.0592C41.373 13.0592 40.9983 13.1359 40.8054 13.295C40.8054 13.295 40.3921 12.6369 39.786 12.6808C39.7915 12.6808 39.4278 12.7027 39.2515 12.8727Z" fill="#003042"/>
<path d="M42.894 12.6866C42.894 12.6866 43.0153 13.1088 43.4396 13.3172C43.5884 13.3885 43.7482 13.4214 43.9135 13.4104C44.0733 13.405 44.3102 13.3775 44.4755 13.3063C44.4755 13.3063 44.6409 13.6846 44.8227 13.8656C44.8227 13.8656 44.8282 13.3227 45.1478 13.0211C45.1478 13.0211 44.74 13.0759 44.5251 13.235C44.5251 13.235 44.1229 12.5111 43.4782 12.5166C43.4782 12.5221 43.0869 12.5221 42.894 12.6866Z" fill="#003042"/>
<path d="M45.4014 13.7777C45.4014 13.7777 45.5281 14.1342 45.9028 14.2932C46.0351 14.348 46.1728 14.3645 46.3161 14.348C46.4539 14.3316 46.6522 14.2987 46.79 14.2274C46.79 14.2274 46.9553 14.5399 47.1151 14.688C47.1151 14.688 47.0931 14.2219 47.3521 13.9477C47.3521 13.9477 47.0049 14.019 46.8286 14.1671C46.8286 14.1671 46.4483 13.5639 45.8918 13.6078C45.8973 13.6023 45.5667 13.6242 45.4014 13.7777Z" fill="#003042"/>
<path d="M44.3651 20.9336C44.3651 20.9336 44.1502 21.2791 44.2714 21.7068C44.3155 21.8548 44.3982 21.9864 44.5028 22.0961C44.6075 22.2003 44.7728 22.3483 44.9325 22.4141C44.9325 22.4141 44.7783 22.7651 44.7618 23.0009C44.7618 23.0009 45.1419 22.6664 45.5551 22.6938C45.5551 22.6938 45.2631 22.4525 45.0152 22.4032C45.0152 22.4032 45.2686 21.6684 44.8554 21.2297C44.8499 21.2297 44.6075 20.961 44.3651 20.9336Z" fill="#003042"/>
<path d="M45.3022 13.1794C45.3022 13.1794 45.5447 13.4152 45.9084 13.3933C46.0351 13.3878 46.1564 13.3439 46.2611 13.2781C46.3658 13.2123 46.5145 13.1027 46.5917 12.993C46.5917 12.993 46.8507 13.1794 47.038 13.2343C47.038 13.2343 46.8341 12.8724 46.9333 12.5488C46.9333 12.5488 46.6854 12.7407 46.6027 12.9272C46.6027 12.9272 46.0572 12.5982 45.6274 12.8504C45.6274 12.8449 45.3684 12.993 45.3022 13.1794Z" fill="#003042"/>
<path d="M45.5943 15.6143C45.5943 15.6143 45.4731 15.7678 45.5062 15.9762C45.5172 16.0475 45.5503 16.1133 45.5943 16.1736C45.6384 16.2284 45.71 16.3052 45.7762 16.349C45.7762 16.349 45.6825 16.5081 45.666 16.6177C45.666 16.6177 45.8643 16.4806 46.0571 16.5135C46.0571 16.5135 45.9304 16.3819 45.8202 16.349C45.8202 16.349 45.98 16.0146 45.8092 15.7842C45.8092 15.7842 45.71 15.6417 45.5943 15.6143Z" fill="#003042"/>
<path d="M45.5613 16.6728C45.5613 16.6728 45.5007 16.8702 45.6164 17.0621C45.6549 17.1279 45.7155 17.1827 45.7816 17.2211C45.8478 17.2595 45.9469 17.3088 46.0296 17.3253C46.0296 17.3253 45.9965 17.5172 46.024 17.6324C46.024 17.6324 46.1673 17.4185 46.3711 17.3801C46.3711 17.3801 46.1948 17.2979 46.0681 17.3033C46.0681 17.3033 46.0957 16.914 45.8367 16.7495C45.8367 16.755 45.6825 16.6563 45.5613 16.6728Z" fill="#003042"/>
<path d="M44.3099 13.8438C44.3099 13.8438 44.0289 14.1782 44.1006 14.6498C44.1226 14.8088 44.1942 14.9624 44.2934 15.094C44.3925 15.2201 44.5468 15.4011 44.7011 15.4888C44.7011 15.4888 44.4862 15.8397 44.4366 16.0865C44.4366 16.0865 44.8884 15.7849 45.3181 15.8726C45.3181 15.8726 45.0426 15.571 44.7892 15.4888C44.7892 15.4888 45.1583 14.7485 44.7837 14.2221C44.7837 14.2221 44.5633 13.9096 44.3099 13.8438Z" fill="#CDD7D8"/>
<path d="M40.2764 10.5917C40.2764 10.5917 40.3866 10.9482 40.7558 11.1236C40.8825 11.1839 41.0258 11.2059 41.1635 11.2004C41.3013 11.1894 41.4997 11.1675 41.6429 11.1017C41.6429 11.1017 41.7917 11.4197 41.946 11.5733C41.946 11.5733 41.9405 11.1127 42.216 10.8495C42.216 10.8495 41.8689 10.9043 41.687 11.0414C41.687 11.0414 41.3344 10.4272 40.7778 10.4437C40.7723 10.4382 40.4417 10.4437 40.2764 10.5917Z" fill="#003042"/>
<path d="M41.8194 11.7871C41.8194 11.7871 41.6211 12.0668 41.7037 12.4287C41.7313 12.5548 41.7974 12.6699 41.88 12.7632C41.9627 12.8564 42.0949 12.988 42.2216 13.0483C42.2216 13.0483 42.0728 13.3334 42.0508 13.5308C42.0508 13.5308 42.3814 13.2676 42.7284 13.3115C42.7284 13.3115 42.4915 13.0977 42.2877 13.0428C42.2877 13.0428 42.5301 12.4451 42.2051 12.0558C42.2106 12.0558 42.0178 11.82 41.8194 11.7871Z" fill="#003042"/>
<path d="M42.3594 13.5632C42.3594 13.5632 42.4586 13.8813 42.7837 14.0403C42.8994 14.0951 43.0206 14.1171 43.1474 14.1061C43.2686 14.0951 43.4504 14.0732 43.5772 14.0184C43.5772 14.0184 43.7094 14.3035 43.8472 14.4406C43.8472 14.4406 43.8417 14.0293 44.0841 13.7881C44.0841 13.7881 43.7756 13.8374 43.6102 13.958C43.6102 13.958 43.2961 13.4097 42.8002 13.4261C42.8057 13.4316 42.5082 13.4371 42.3594 13.5632Z" fill="#003042"/>
<path d="M40.0063 12.4067C40.0063 12.4067 40.0504 12.5273 40.1826 12.5767C40.2267 12.5931 40.2763 12.5986 40.3259 12.5931C40.37 12.5877 40.4416 12.5712 40.4857 12.5493C40.4857 12.5493 40.5463 12.6535 40.6013 12.7028C40.6013 12.7028 40.5903 12.5438 40.673 12.4506C40.673 12.4506 40.5573 12.478 40.4967 12.5273C40.4967 12.5273 40.3589 12.3245 40.1716 12.3464C40.1716 12.3409 40.0559 12.3519 40.0063 12.4067Z" fill="#003042"/>
<path d="M42.4917 12.0503C42.4917 12.0503 42.5358 12.1709 42.668 12.2202C42.7121 12.2367 42.7616 12.2422 42.8112 12.2367C42.8553 12.2312 42.9269 12.2148 42.971 12.1928C42.971 12.1928 43.0316 12.297 43.0867 12.3464C43.0867 12.3464 43.0757 12.1873 43.1583 12.0941C43.1583 12.0941 43.0426 12.1215 42.982 12.1709C42.982 12.1709 42.8443 11.968 42.657 11.9899C42.657 11.9845 42.5413 11.9954 42.4917 12.0503Z" fill="#003042"/>
<path d="M41.4063 12.291C41.4063 12.291 41.2852 12.4391 41.3182 12.642C41.3292 12.7132 41.3623 12.779 41.4063 12.8339C41.4504 12.8887 41.5164 12.9655 41.5825 13.0039C41.5825 13.0039 41.4889 13.1574 41.4724 13.2671C41.4724 13.2671 41.6651 13.1355 41.8523 13.1684C41.8523 13.1684 41.7312 13.0422 41.6211 13.0039C41.6211 13.0039 41.7752 12.6803 41.61 12.4555C41.6156 12.45 41.5164 12.3184 41.4063 12.291Z" fill="#003042"/>
<path d="M44.7065 12.7352C44.7065 12.7352 44.8553 12.8558 45.0591 12.8229C45.1308 12.8119 45.1969 12.779 45.252 12.7352C45.307 12.6913 45.3842 12.6255 45.4227 12.5597C45.4227 12.5597 45.577 12.6529 45.6872 12.6694C45.6872 12.6694 45.555 12.4775 45.588 12.291C45.588 12.291 45.4613 12.4117 45.4227 12.5213C45.4227 12.5213 45.0977 12.3678 44.8718 12.5323C44.8718 12.5323 44.7341 12.6255 44.7065 12.7352Z" fill="#003042"/>
<path d="M48.4369 14.9453C48.4369 14.9453 48.2884 15.0385 48.2498 15.2305C48.2388 15.2963 48.2443 15.3621 48.2663 15.4224C48.2884 15.4827 48.3269 15.5704 48.3709 15.6253C48.3709 15.6253 48.2443 15.7349 48.1948 15.8227C48.1948 15.8227 48.4039 15.7623 48.5634 15.8556C48.5634 15.8556 48.4974 15.7075 48.4094 15.6417C48.4094 15.6417 48.646 15.4059 48.5689 15.1537C48.5689 15.1537 48.5249 15.0056 48.4369 14.9453Z" fill="#003042"/>
<path d="M49.0435 14.1559C49.0435 14.1559 49.0985 14.3369 49.2804 14.4246C49.341 14.4575 49.4126 14.4685 49.4842 14.463C49.5503 14.4575 49.655 14.4466 49.7211 14.4137C49.7211 14.4137 49.7927 14.5727 49.8699 14.6495C49.8699 14.6495 49.8698 14.4192 50.0021 14.2875C50.0021 14.2875 49.8313 14.315 49.7376 14.3808C49.7376 14.3808 49.5613 14.0737 49.2859 14.0792C49.2914 14.0847 49.1261 14.0847 49.0435 14.1559Z" fill="#003042"/>
<path d="M49.2417 15.4169C49.2417 15.4169 49.3133 15.6637 49.5667 15.7843C49.6549 15.8282 49.7485 15.8446 49.8477 15.8336C49.9414 15.8282 50.0791 15.8117 50.1783 15.7678C50.1783 15.7678 50.2774 15.9872 50.3876 16.0914C50.3876 16.0914 50.3876 15.7733 50.5749 15.5924C50.5749 15.5924 50.338 15.6308 50.2113 15.724C50.2113 15.724 49.9689 15.3017 49.5888 15.3127C49.5833 15.3127 49.3574 15.3182 49.2417 15.4169Z" fill="#003042"/>
<path d="M50.0244 14.9674C50.0244 14.9674 50.2173 15.1867 50.5369 15.1977C50.6471 15.2032 50.7573 15.1703 50.851 15.1209C50.9447 15.0716 51.0824 14.9893 51.1596 14.8961C51.1596 14.8961 51.369 15.077 51.5288 15.1374C51.5288 15.1374 51.38 14.8084 51.4847 14.5342C51.4847 14.5342 51.2532 14.6822 51.1706 14.8413C51.1706 14.8413 50.7242 14.5122 50.333 14.7042C50.333 14.7042 50.096 14.8138 50.0244 14.9674Z" fill="#003042"/>
<path d="M38.7612 10.1362C38.7612 10.1362 39.0368 10.4323 39.4776 10.4268C39.6264 10.4268 39.7751 10.3829 39.9074 10.3061C40.0341 10.2349 40.216 10.1142 40.3207 9.9881C40.3207 9.9881 40.6127 10.2294 40.8387 10.3007C40.8387 10.3007 40.6182 9.8565 40.756 9.47266C40.756 9.47266 40.4474 9.68651 40.3372 9.90585C40.3372 9.90585 39.7035 9.47814 39.1745 9.75231C39.169 9.7578 38.8494 9.91682 38.7612 10.1362Z" fill="#003042"/>
<path d="M36.3476 10.3447C36.3476 10.3447 36.2595 10.5421 36.3586 10.7505C36.3917 10.8218 36.4468 10.8876 36.5074 10.9315C36.568 10.9753 36.6672 11.0411 36.7553 11.0631C36.7553 11.0631 36.7002 11.255 36.7112 11.3811C36.7112 11.3811 36.882 11.1782 37.0969 11.1618C37.0969 11.1618 36.9261 11.0576 36.7939 11.0521C36.7939 11.0521 36.871 10.6518 36.6176 10.4544C36.6231 10.4654 36.4743 10.3447 36.3476 10.3447Z" fill="#003042"/>
<path d="M27.7515 3.66126C27.7515 3.66126 27.8231 3.90253 28.0655 4.01768C28.1481 4.05607 28.2418 4.078 28.3354 4.07252C28.4291 4.06703 28.5613 4.05058 28.655 4.00671C28.655 4.00671 28.7541 4.22057 28.8533 4.32475C28.8533 4.32475 28.8533 4.01768 29.0351 3.84221C29.0351 3.84221 28.8037 3.87511 28.6825 3.96833C28.6825 3.96833 28.4511 3.55707 28.082 3.56255C28.082 3.56255 27.8616 3.56255 27.7515 3.66126Z" fill="#003042"/>
<path d="M21.7285 4.97589C21.7285 4.97589 21.7946 5.20071 22.0315 5.31038C22.1142 5.34876 22.2023 5.36521 22.2905 5.35424C22.3786 5.34876 22.5053 5.33231 22.5935 5.28844C22.5935 5.28844 22.6871 5.49133 22.7863 5.58455C22.7863 5.58455 22.7808 5.29393 22.9516 5.12942C22.9516 5.12942 22.7367 5.16232 22.621 5.25006C22.621 5.25006 22.3951 4.86622 22.048 4.87718C22.0425 4.88267 21.8332 4.88815 21.7285 4.97589Z" fill="#003042"/>
<path d="M27.0298 4.75734C27.0298 4.75734 27.1785 4.89442 27.3934 4.87249C27.465 4.86701 27.5366 4.83959 27.6027 4.79572C27.6634 4.75734 27.746 4.69154 27.7956 4.62025C27.7956 4.62025 27.9498 4.72444 28.06 4.75734C28.06 4.75734 27.9333 4.54897 27.9829 4.35156C27.9829 4.35156 27.8396 4.46671 27.7956 4.58187C27.7956 4.58187 27.4705 4.39543 27.2171 4.55445C27.2116 4.55445 27.0628 4.64767 27.0298 4.75734Z" fill="#003042"/>
<path d="M30.6445 3.94483C30.6445 3.94483 30.8263 4.09288 31.0798 4.04902C31.1679 4.03256 31.245 3.99966 31.3167 3.94483C31.3828 3.89 31.4764 3.80774 31.526 3.72549C31.526 3.72549 31.7133 3.83516 31.851 3.86258C31.851 3.86258 31.6858 3.62679 31.7298 3.39648C31.7298 3.39648 31.5701 3.54454 31.526 3.68162C31.526 3.68162 31.1238 3.4897 30.8484 3.69259C30.8484 3.69259 30.6776 3.81323 30.6445 3.94483Z" fill="#557583"/>
<path d="M31.311 6.17735C31.311 6.17735 31.3606 6.36928 31.5534 6.46798C31.6196 6.50088 31.6967 6.51733 31.7683 6.51185C31.8399 6.51185 31.9501 6.50088 32.0217 6.46798C32.0217 6.46798 32.0933 6.63797 32.176 6.7257C32.176 6.7257 32.1815 6.47895 32.3302 6.34186C32.3302 6.34186 32.1484 6.36379 32.0493 6.43508C32.0493 6.43508 31.873 6.10059 31.5755 6.10059C31.581 6.10607 31.4047 6.10059 31.311 6.17735Z" fill="#CDD7D8"/>
<path d="M15.5127 5.20694C15.5127 5.20694 15.6284 5.30564 15.7882 5.28371C15.8432 5.27822 15.8983 5.25629 15.9424 5.22339C15.9865 5.19049 16.0526 5.14114 16.0857 5.0863C16.0857 5.0863 16.2069 5.16307 16.2895 5.17952C16.2895 5.17952 16.1903 5.0205 16.2234 4.87793C16.2234 4.87793 16.1187 4.97115 16.0857 5.05888C16.0857 5.05888 15.8322 4.92728 15.6504 5.04792C15.6449 5.04792 15.5347 5.12469 15.5127 5.20694Z" fill="#003042"/>
<path d="M20.2959 0.721212C20.2959 0.721212 20.3951 0.863782 20.5769 0.891199C20.643 0.902166 20.7036 0.891199 20.7642 0.869265C20.8248 0.847332 20.9074 0.808947 20.9625 0.759596C20.9625 0.759596 21.0727 0.880232 21.1608 0.9241C21.1608 0.9241 21.0947 0.721212 21.1774 0.567676C21.1774 0.567676 21.0341 0.63896 20.9735 0.721212C20.9735 0.721212 20.7366 0.496391 20.4942 0.578642C20.4942 0.584126 20.351 0.633477 20.2959 0.721212Z" fill="#003042"/>
<path d="M13.6943 1.98271C13.6943 1.98271 13.788 2.10335 13.9478 2.11431C14.0029 2.1198 14.0579 2.10883 14.113 2.0869C14.1626 2.06496 14.2342 2.02658 14.2783 1.98271C14.2783 1.98271 14.3775 2.08141 14.4601 2.11431C14.4601 2.11431 14.394 1.93884 14.4546 1.80176C14.4546 1.80176 14.3334 1.87304 14.2838 1.94981C14.2838 1.94981 14.0635 1.76886 13.8541 1.85659C13.8596 1.85659 13.7329 1.90594 13.6943 1.98271Z" fill="#003042"/>
<path d="M11.1704 5.46982C11.1704 5.46982 11.468 5.66722 11.8482 5.574C11.9804 5.5411 12.0962 5.4753 12.1953 5.38208C12.289 5.29435 12.4213 5.15178 12.4874 5.02018C12.4874 5.02018 12.7905 5.16823 12.9999 5.18468C12.9999 5.18468 12.7133 4.84471 12.7519 4.48828C12.7519 4.48828 12.5315 4.73504 12.4819 4.94889C12.4819 4.94889 11.8482 4.70762 11.4459 5.05856C11.4459 5.05856 11.2035 5.26145 11.1704 5.46982Z" fill="#003042"/>
<path d="M12.5864 1.97177C12.5864 1.97177 12.884 2.16918 13.2642 2.07596C13.3965 2.04306 13.5122 1.97726 13.6114 1.88404C13.705 1.7963 13.8373 1.65373 13.9034 1.52213C13.9034 1.52213 14.2065 1.67018 14.4159 1.68663C14.4159 1.68663 14.1293 1.34666 14.1679 0.990234C14.1679 0.990234 13.9475 1.23699 13.8979 1.45084C13.8979 1.45084 13.2642 1.21506 12.8619 1.56051C12.8564 1.55503 12.6195 1.7634 12.5864 1.97177Z" fill="#CDD7D8"/>
<path d="M18.6313 0.688946C18.6313 0.688946 18.725 0.979569 19.0336 1.11665C19.1383 1.16601 19.254 1.18246 19.3697 1.17149C19.4799 1.16052 19.6453 1.13859 19.761 1.08375C19.761 1.08375 19.8877 1.34148 20.02 1.4676C20.02 1.4676 20.0089 1.08924 20.2294 0.864416C20.2294 0.864416 19.9483 0.913767 19.7996 1.0344C19.7996 1.0344 19.4965 0.535409 19.0391 0.557343C19.0391 0.557343 18.7636 0.56831 18.6313 0.688946Z" fill="#CDD7D8"/>
<path d="M10.9834 2.09208C10.9834 2.09208 11.1542 2.61301 11.7053 2.85976C11.8926 2.94201 12.102 2.97491 12.3059 2.95298C12.5043 2.93653 12.8018 2.88718 13.0057 2.78848C13.0057 2.78848 13.2372 3.25457 13.4686 3.46842C13.4686 3.46842 13.4466 2.78848 13.8323 2.38818C13.8323 2.38818 13.3253 2.4814 13.0608 2.68977C13.0608 2.68977 12.5153 1.80146 11.6998 1.84532C11.7108 1.84532 11.2203 1.86726 10.9834 2.09208Z" fill="#003042"/>
<path d="M9.28076 3.11172C9.28076 3.11172 9.5673 3.26526 9.89793 3.14462C10.0136 3.10624 10.1128 3.03495 10.19 2.94173C10.2671 2.854 10.3718 2.71691 10.4214 2.59079C10.4214 2.59079 10.708 2.69498 10.8953 2.69498C10.8953 2.69498 10.6088 2.41532 10.6143 2.0918C10.6143 2.0918 10.4379 2.33307 10.4104 2.53047C10.4104 2.53047 9.82078 2.37145 9.49567 2.71691C9.49016 2.72239 9.29178 2.92528 9.28076 3.11172Z" fill="#003042"/>
<path d="M14.4272 1.11613C14.4272 1.11613 14.4989 1.34643 14.7413 1.46159C14.8239 1.49997 14.9176 1.51642 15.0057 1.50545C15.0939 1.49997 15.2261 1.48352 15.3142 1.43965C15.3142 1.43965 15.4134 1.64802 15.5126 1.74673C15.5126 1.74673 15.5071 1.44514 15.6833 1.26967C15.6833 1.26967 15.4575 1.30805 15.3418 1.39578C15.3418 1.39578 15.1104 1.00098 14.7468 1.01194C14.7468 1.01194 14.5319 1.01743 14.4272 1.11613Z" fill="#003042"/>
<path d="M11.4072 4.32903C11.4072 4.32903 11.4623 4.49902 11.6441 4.57579C11.7047 4.6032 11.7708 4.61417 11.8369 4.6032C11.9031 4.59772 11.9967 4.58127 12.0628 4.54837C12.0628 4.54837 12.14 4.69642 12.2116 4.76771C12.2116 4.76771 12.2006 4.54837 12.3273 4.41677C12.3273 4.41677 12.162 4.44967 12.0794 4.51547C12.0794 4.51547 11.9031 4.23033 11.6386 4.24678C11.6386 4.24678 11.4788 4.25775 11.4072 4.32903Z" fill="#003042"/>
<path d="M7.18652 2.96942C7.18652 2.96942 7.29671 3.12843 7.50606 3.15585C7.57768 3.16682 7.6493 3.15585 7.71541 3.12843C7.78152 3.10102 7.87518 3.05715 7.93578 3.0078C7.93578 3.0078 8.05698 3.1394 8.15615 3.19424C8.15615 3.19424 8.08453 2.96942 8.17267 2.79395C8.17267 2.79395 8.01291 2.8762 7.94129 2.96942C7.94129 2.96942 7.67133 2.72266 7.40138 2.81588C7.40689 2.81588 7.24712 2.87071 7.18652 2.96942Z" fill="#003042"/>
<path d="M8.31104 2.71131C8.31104 2.71131 8.35511 2.88678 8.5314 2.97451C8.59201 3.00742 8.65812 3.01838 8.72423 3.01838C8.79034 3.01838 8.8895 3.00742 8.95561 2.98C8.95561 2.98 9.02173 3.13353 9.09334 3.2103C9.09334 3.2103 9.09885 2.99097 9.23659 2.86485C9.23659 2.86485 9.07131 2.88678 8.97765 2.9471C8.97765 2.9471 8.81788 2.64551 8.55344 2.64551C8.55344 2.64551 8.39367 2.64551 8.31104 2.71131Z" fill="#557583"/>
<path d="M6.14502 5.03638C6.14502 5.03638 6.33237 5.3928 6.75668 5.50795C6.90546 5.54634 7.05975 5.54634 7.20302 5.50795C7.34629 5.46957 7.55569 5.40377 7.68794 5.31055C7.68794 5.31055 7.90835 5.61762 8.10122 5.74922C8.10122 5.74922 8.00754 5.2612 8.23898 4.92671C8.23898 4.92671 7.8808 5.05283 7.71549 5.23378C7.71549 5.23378 7.21955 4.65253 6.63545 4.77865C6.64096 4.77317 6.2938 4.84445 6.14502 5.03638Z" fill="#557583"/>
<path d="M13.0493 4.52101C13.0493 4.52101 13.1816 4.9213 13.6004 5.10226C13.7436 5.16806 13.9034 5.18999 14.0577 5.17354C14.212 5.15709 14.4379 5.12419 14.5922 5.04742C14.5922 5.04742 14.7686 5.40385 14.9449 5.56835C14.9449 5.56835 14.9284 5.04742 15.2204 4.74583C15.2204 4.74583 14.8347 4.81712 14.6363 4.97614C14.6363 4.97614 14.223 4.29619 13.6004 4.33457C13.6004 4.33457 13.2312 4.35102 13.0493 4.52101Z" fill="#557583"/>
<path d="M18.6367 4.66443C18.6367 4.66443 18.78 4.92764 19.0996 4.99892C19.2098 5.02634 19.3255 5.02086 19.4302 4.98795C19.5349 4.96054 19.6892 4.9057 19.7884 4.82893C19.7884 4.82893 19.9592 5.05376 20.1025 5.14697C20.1025 5.14697 20.0198 4.78507 20.1907 4.53283C20.1907 4.53283 19.9317 4.63153 19.8104 4.7741C19.8104 4.7741 19.4302 4.35187 19.0004 4.46154C19.0004 4.46154 18.7414 4.52186 18.6367 4.66443Z" fill="#557583"/>
<path d="M24.5439 2.68996C24.5439 2.68996 24.7368 3.31507 25.387 3.61118C25.6075 3.71537 25.8554 3.75375 26.0979 3.7373C26.3348 3.72085 26.6875 3.6715 26.93 3.55635C26.93 3.55635 27.1945 4.11017 27.4645 4.37338C27.4645 4.37338 27.4534 3.56731 27.9218 3.10122C27.9218 3.10122 27.3212 3.19992 27.0016 3.44668C27.0016 3.44668 26.3734 2.38289 25.4091 2.41579C25.4091 2.41579 24.8305 2.43224 24.5439 2.68996Z" fill="#557583"/>
<path d="M25.7456 5.84885C25.7456 5.84885 25.8007 6.12303 26.0652 6.28205C26.1589 6.33688 26.2581 6.3643 26.3683 6.3643C26.473 6.3643 26.6218 6.35882 26.732 6.32043C26.732 6.32043 26.8201 6.56719 26.9248 6.69331C26.9248 6.69331 26.9524 6.34785 27.1728 6.16689C27.1728 6.16689 26.9083 6.18334 26.765 6.27656C26.765 6.27656 26.5391 5.79402 26.1258 5.7666C26.1258 5.77209 25.8779 5.75015 25.7456 5.84885Z" fill="#CDD7D8"/>
<path d="M28.1426 2.9202C28.1426 2.9202 28.3134 3.40822 28.8314 3.62756C29.0077 3.70433 29.2061 3.72626 29.3989 3.70433C29.5863 3.68239 29.8618 3.63853 30.0547 3.53983C30.0547 3.53983 30.2806 3.97302 30.501 4.17042C30.501 4.17042 30.468 3.53434 30.8261 3.1505C30.8261 3.1505 30.3522 3.24372 30.1098 3.44661C30.1098 3.44661 29.5863 2.61861 28.8204 2.67892C28.8204 2.67892 28.363 2.70634 28.1426 2.9202Z" fill="#CDD7D8"/>
<path d="M6.01807 3.38629C6.01807 3.38629 6.0401 3.50144 6.14478 3.56724C6.18334 3.58918 6.22191 3.60014 6.26598 3.60563C6.31005 3.60563 6.37066 3.60563 6.41473 3.59466C6.41473 3.59466 6.44778 3.69885 6.49186 3.7482C6.49186 3.7482 6.50839 3.60563 6.59653 3.53434C6.59653 3.53434 6.49186 3.53983 6.43126 3.57273C6.43126 3.57273 6.34311 3.37532 6.17783 3.35887C6.17783 3.35887 6.07867 3.34791 6.01807 3.38629Z" fill="#003042"/>
<path d="M3.62109 3.9344C3.62109 3.9344 3.78086 4.10987 4.03979 4.10987C4.12794 4.10987 4.21609 4.08245 4.29322 4.04407C4.37035 4.0002 4.47502 3.9344 4.53562 3.85763C4.53562 3.85763 4.70641 4.0002 4.83863 4.04407C4.83863 4.04407 4.71192 3.78086 4.78905 3.56152C4.78905 3.56152 4.60724 3.68764 4.54113 3.81376C4.54113 3.81376 4.17202 3.56152 3.8635 3.72054C3.8635 3.71506 3.67619 3.80828 3.62109 3.9344Z" fill="#CDD7D8"/>
<mask id="mask0_1047_55030" style="mask-type:alpha" maskUnits="userSpaceOnUse" x="1" y="5" width="27" height="13">
<path d="M1.51489 5.11846C1.51489 5.11846 0.980379 5.44198 1.28345 7.31732C1.58652 9.19266 3.31128 11.5231 4.34173 12.5102C5.37769 13.4972 7.83533 15.6193 10.6016 16.6118C13.3678 17.6043 16.0293 18.0759 19.286 17.9278C22.5426 17.7797 26.5928 16.705 27.2871 16.3705C27.2871 16.3705 26.0748 14.8242 25.7221 12.3511C25.6836 11.8631 25.7056 10.1248 25.5458 9.57102C25.397 9.04461 25.105 7.33377 24.6586 6.50029C24.6145 6.41255 24.5429 6.34675 24.4547 6.30288C23.9698 6.06161 22.0247 5.39263 15.5224 5.60649C15.2744 5.61745 15.0264 5.6339 14.784 5.65584C13.7976 5.75454 10.7834 6.01774 7.91248 5.84776C7.91248 5.84776 6.50181 5.73809 4.92584 5.27199C4.73848 5.22264 3.2121 5.00879 2.25328 5.00879C1.89511 5.00879 1.61959 5.03621 1.51489 5.11846Z" fill="#47A09D"/>
</mask>
<g mask="url(#mask0_1047_55030)">
<path d="M1.54366 4.84961L0.970703 6.73043V4.84961H1.54366Z" fill="#003042"/>
<path d="M8.87264 4.84961L5.66007 15.4162L0.970703 14.007V6.73043L1.54379 4.84961H8.87264Z" fill="#003042"/>
<path d="M16.2016 4.84863L12.3718 17.4386L5.66016 15.4152L8.87273 4.84863H16.2016Z" fill="#002F41"/>
<path d="M16.3997 4.84863L12.5534 17.4935L12.3716 17.4386L16.2013 4.84863H16.3997Z" fill="#002F41"/>
<path d="M16.5984 4.84863L12.7356 17.5483L12.5537 17.4935L16.4 4.84863H16.5984Z" fill="#002F41"/>
<path d="M16.791 4.84863L12.9117 17.6031L12.7354 17.5483L16.5982 4.84863H16.791Z" fill="#002F40"/>
<path d="M16.9893 4.84863L13.0935 17.658L12.9116 17.6031L16.791 4.84863H16.9893Z" fill="#002E3F"/>
<path d="M17.188 4.84863L13.2756 17.7128L13.0938 17.658L16.9896 4.84863H17.188Z" fill="#002E3F"/>
<path d="M17.4588 4.70045L13.3419 18.2419L13.0658 18.2286L17.1728 4.73815L17.4588 4.70045Z" fill="#002E3F"/>
<path d="M17.5788 4.84863L13.6334 17.817L13.457 17.7622L17.386 4.84863H17.5788Z" fill="#002D3E"/>
<path d="M17.7776 4.84863L13.8156 17.8718L13.6338 17.817L17.5793 4.84863H17.7776Z" fill="#002D3E"/>
<path d="M17.9763 4.84863L13.9978 17.9267L13.8159 17.8718L17.7779 4.84863H17.9763Z" fill="#002C3D"/>
<path d="M18.1685 4.84863L14.1734 17.9815L13.9971 17.9267L17.9756 4.84863H18.1685Z" fill="#002C3D"/>
<path d="M18.3673 4.84863L14.3557 18.0363L14.1738 17.9815L18.1689 4.84863H18.3673Z" fill="#002B3B"/>
<path d="M18.5654 4.84863L14.5373 18.0912L14.3555 18.0363L18.3671 4.84863H18.5654Z" fill="#002B3A"/>
<path d="M18.7581 4.84863L14.73 18.0912H14.5426H14.5371L18.5652 4.84863H18.7581Z" fill="#002A3A"/>
<path d="M18.9565 4.84863L14.9284 18.0912H14.73L18.7581 4.84863H18.9565Z" fill="#002A39"/>
<path d="M19.1552 4.84863L15.1271 18.0912H14.9287L18.9568 4.84863H19.1552Z" fill="#002939"/>
<path d="M19.3479 4.84863L15.3198 18.0912H15.127L19.1551 4.84863H19.3479Z" fill="#002938"/>
<path d="M19.5463 4.84863L15.5182 18.0912H15.3198L19.3479 4.84863H19.5463Z" fill="#002838"/>
<path d="M19.7446 4.84863L15.7164 18.0912H15.5181L19.5462 4.84863H19.7446Z" fill="#002737"/>
<path d="M19.9373 4.84863L15.9092 18.0912H15.7163L19.7444 4.84863H19.9373Z" fill="#002736"/>
<path d="M20.1362 4.84863L16.108 18.0912H15.9097L19.9378 4.84863H20.1362Z" fill="#012635"/>
<path d="M20.3344 4.84863L16.3063 18.0912H16.1079L20.136 4.84863H20.3344Z" fill="#032533"/>
<path d="M20.5271 4.84863L16.499 18.0912H16.3062L20.3343 4.84863H20.5271Z" fill="#032532"/>
<path d="M20.5382 4.84863L20.709 4.89798L16.6974 18.0912H16.499L20.5271 4.84863H20.5382Z" fill="#042431"/>
<path d="M20.7089 4.89941L20.8907 4.95425L16.8956 18.0926H16.6973L20.7089 4.89941Z" fill="#052330"/>
<path d="M20.891 4.9541L21.0729 5.00894L17.0889 18.0925H16.896L20.891 4.9541Z" fill="#06232F"/>
<path d="M21.0724 5.00879L21.2487 5.06362L17.2868 18.0923H17.0884L21.0724 5.00879Z" fill="#07222E"/>
<path d="M21.2491 5.06348L21.4309 5.11831L17.4855 18.0922H17.2871L21.2491 5.06348Z" fill="#07212D"/>
<path d="M21.4308 5.11816L21.6127 5.173L17.6837 18.092H17.4854L21.4308 5.11816Z" fill="#07202C"/>
<path d="M21.6125 5.17285L21.7889 5.22769L17.8765 18.0919H17.6836L21.6125 5.17285Z" fill="#07202B"/>
<path d="M21.7889 5.22754L21.9707 5.28237L18.0748 18.0917H17.8765L21.7889 5.22754Z" fill="#07202A"/>
<path d="M21.9711 5.2832L22.1529 5.33804L18.2736 18.0925H18.0752L21.9711 5.2832Z" fill="#071F29"/>
<path d="M22.1528 5.33789L22.3291 5.39273L18.4663 18.0924H18.2734L22.1528 5.33789Z" fill="#071E28"/>
<path d="M22.3291 5.39258L22.5109 5.44193L18.6647 18.0923H18.4663L22.3291 5.39258Z" fill="#061D27"/>
<path d="M22.5108 5.44141L22.6927 5.49624L18.8629 18.0917H18.6646L22.5108 5.44141Z" fill="#061D26"/>
<path d="M22.6925 5.49609L22.8744 5.55093L19.0557 18.0916H18.8628L22.6925 5.49609Z" fill="#061C26"/>
<path d="M22.8749 5.55176L23.0512 5.60659L19.2545 18.0924H19.0562L22.8749 5.55176Z" fill="#071C24"/>
<path d="M23.0511 5.60645L23.2329 5.66128L19.4528 18.0923H19.2544L23.0511 5.60645Z" fill="#071B23"/>
<path d="M23.2328 5.66113L23.4146 5.71597L19.6455 18.0921H19.4526L23.2328 5.66113Z" fill="#071A23"/>
<path d="M23.4146 5.71582L23.591 5.77065L19.8439 18.092H19.6455L23.4146 5.71582Z" fill="#071922"/>
<path d="M23.5908 5.77051L23.7727 5.82534L20.0421 18.0918H19.8438L23.5908 5.77051Z" fill="#081821"/>
<path d="M23.773 5.82617L23.9549 5.88101L20.2353 18.0927H20.0425L23.773 5.82617Z" fill="#081820"/>
<path d="M23.9549 5.88086L24.1312 5.93021L20.4337 18.0925H20.2354L23.9549 5.88086Z" fill="#08171F"/>
<path d="M24.1306 5.92969L24.3124 5.98452L20.6315 18.092H20.4331L24.1306 5.92969Z" fill="#09171E"/>
<path d="M24.3128 5.98438L24.4946 6.03921L20.8247 18.0918H20.6318L24.3128 5.98438Z" fill="#09161D"/>
<path d="M24.4946 6.04004L24.671 6.09487L21.0231 18.0927H20.8247L24.4946 6.04004Z" fill="#09161C"/>
<path d="M24.6709 6.09473L24.8527 6.14956L21.2213 18.0925H21.0229L24.6709 6.09473Z" fill="#09151A"/>
<path d="M24.8526 6.14844L25.0344 6.20327L21.4196 18.0914H21.2212L24.8526 6.14844Z" fill="#091419"/>
<path d="M25.0348 6.2041L25.2111 6.25894L21.6128 18.0922H21.4199L25.0348 6.2041Z" fill="#0A1318"/>
<path d="M25.2111 6.25879L25.3929 6.31362L21.8112 18.0921H21.6128L25.2111 6.25879Z" fill="#0A1217"/>
<path d="M25.3928 6.31348L25.5746 6.36831L22.0094 18.0919H21.811L25.3928 6.31348Z" fill="#0A1216"/>
<path d="M25.5745 6.36816L25.7564 6.423L22.2021 18.0918H22.0093L25.5745 6.36816Z" fill="#0A1115"/>
<path d="M25.7564 6.42285L25.9327 6.4722L22.4005 18.0916H22.2021L25.7564 6.42285Z" fill="#091013"/>
<path d="M25.9326 6.47266L26.1144 6.52749L22.5988 18.0921H22.4004L25.9326 6.47266Z" fill="#090F12"/>
<path d="M26.1148 6.52734L26.2966 6.58218L22.792 18.092H22.5991L26.1148 6.52734Z" fill="#080E11"/>
<path d="M26.2966 6.58203L26.473 6.63687L22.9904 18.0918H22.792L26.2966 6.58203Z" fill="#080D0F"/>
<path d="M26.4728 6.6377L26.6547 6.69253L23.1886 18.0926H22.9902L26.4728 6.6377Z" fill="#070C0E"/>
<path d="M26.655 6.69238L26.8369 6.74722L23.3818 18.0925H23.189L26.655 6.69238Z" fill="#070B0D"/>
<path d="M26.8369 6.74707L27.0132 6.8019L23.5802 18.0923H23.3818L26.8369 6.74707Z" fill="#06090B"/>
<path d="M27.0131 6.80176L27.1949 6.85659L23.7785 18.0922H23.5801L27.0131 6.80176Z" fill="#050709"/>
<path d="M27.1948 6.85645L27.2829 6.87838V7.21835L23.9712 18.092H23.7783L27.1948 6.85645Z" fill="#040507"/>
<path d="M27.283 7.86482L24.1696 18.0915H23.9712L27.283 7.21777V7.86482Z" fill="#030405"/>
<path d="M24.1699 18.0919L27.2833 7.86523V18.0919H24.1699Z" fill="#030405"/>
</g>
<path d="M18.1298 18.1371C15.5013 18.1371 13.1263 17.7093 10.564 16.7881C7.7261 15.7682 5.21335 13.5639 4.26556 12.6591C3.16348 11.6117 1.47729 9.29224 1.17422 7.40593C0.871143 5.55801 1.36708 5.15223 1.44974 5.0974C1.91261 4.76291 4.7615 5.18513 4.95436 5.23997C6.50279 5.69509 7.90795 5.81025 7.91897 5.81025C10.8064 5.98023 13.8923 5.70606 14.7684 5.61833C15.0219 5.59091 15.2754 5.57446 15.5178 5.56897C21.9209 5.35512 23.9377 5.9912 24.5053 6.27634C24.6155 6.33117 24.7037 6.41343 24.7588 6.5231C25.0949 7.14821 25.3429 8.26683 25.5082 9.00162C25.5633 9.25934 25.6129 9.47868 25.6515 9.61028C25.7672 10.0106 25.7892 10.9976 25.8058 11.7214C25.8113 12.012 25.8168 12.2643 25.8278 12.4068C26.1695 14.825 27.3542 16.3549 27.3652 16.3714L27.4479 16.481L27.3267 16.5414C26.6544 16.8594 22.6208 17.9561 19.287 18.1096C18.8957 18.1261 18.51 18.1371 18.1298 18.1371ZM1.56546 5.28384C1.54341 5.30029 1.10258 5.65671 1.38361 7.37303C1.68117 9.18805 3.36736 11.5076 4.41434 12.5001C5.35111 13.3939 7.83631 15.5763 10.6356 16.5798C13.5396 17.6216 16.2066 18.0274 19.2759 17.8903C22.2956 17.7532 26.1419 16.7826 27.1117 16.3988C26.8252 15.9985 25.9105 14.5673 25.6129 12.4397V12.4343C25.6019 12.2862 25.5964 12.0285 25.5909 11.7324C25.5743 11.025 25.5523 10.0544 25.4421 9.67608C25.4035 9.53351 25.3539 9.31417 25.2933 9.05097C25.128 8.32715 24.8855 7.22498 24.5659 6.62728C24.5329 6.56148 24.4778 6.51213 24.4116 6.47374C23.9818 6.25989 22.0642 5.56897 15.5289 5.78831C15.2919 5.7938 15.0439 5.81573 14.796 5.83766C13.6663 5.95282 10.7403 6.19409 7.90795 6.03507C7.89141 6.03507 6.46422 5.91443 4.89375 5.45382C4.59618 5.36609 1.90159 5.0316 1.58199 5.27835L1.56546 5.28384Z" fill="black"/>
<path d="M19.2322 15.9986C17.6287 15.9986 15.8047 15.8505 13.9036 15.4283C11.8427 14.9677 9.93612 14.1397 8.22789 12.9608C6.8613 12.0176 5.62146 10.8551 4.54693 9.50071C2.71196 7.19218 1.96805 5.10298 1.95703 5.08105L2.16643 5.00977C2.17194 5.0317 2.91033 7.09348 4.72326 9.37459C6.39292 11.4748 9.35201 14.1945 13.9532 15.22C17.4193 15.9931 20.6098 15.8341 22.6762 15.5599C24.9189 15.2638 26.3627 14.7813 26.3737 14.7758L26.4453 14.9842C26.4288 14.9896 24.974 15.4777 22.7093 15.7738C21.756 15.8999 20.5712 15.9986 19.2322 15.9986Z" fill="black"/>
<path d="M20.6871 13.2839C19.2819 13.2839 17.6233 13.2072 15.7497 12.9824C12.5923 12.6095 10.0905 10.6409 8.54762 9.05621C6.87797 7.35086 5.9412 5.70034 5.93018 5.68389L6.12304 5.57422C6.13406 5.59067 7.05981 7.21925 8.71294 8.90816C10.2283 10.4655 12.6915 12.3956 15.7773 12.763C21.8994 13.4923 25.7126 12.6643 25.7511 12.6534L25.8007 12.8672C25.7677 12.8782 23.8996 13.2839 20.6871 13.2839Z" fill="black"/>
<path d="M21.6186 10.3615C20.3512 10.3615 19.1555 10.2738 18.0479 10.1038C16.268 9.82962 14.6975 9.33611 13.3805 8.63972C11.1213 7.44432 10.3884 6.08443 10.3608 6.02411L10.5537 5.91992C10.5647 5.94186 11.2976 7.29079 13.5018 8.45328C15.5461 9.52804 19.2987 10.6467 25.5916 9.88446L25.6192 10.1038C24.2195 10.2793 22.8805 10.3615 21.6186 10.3615Z" fill="black"/>
<path d="M24.357 7.93248C21.3317 7.93248 19.5464 7.37865 18.5655 6.89062C17.3973 6.31486 17.0722 5.7062 17.0557 5.68426L17.2485 5.58008C17.254 5.58556 17.5681 6.16132 18.6867 6.70967C19.7227 7.21415 21.6789 7.80088 25.0954 7.70217L25.1009 7.92151C24.8474 7.927 24.5994 7.93248 24.357 7.93248Z" fill="black"/>
<mask id="mask1_1047_55030" style="mask-type:alpha" maskUnits="userSpaceOnUse" x="26" y="6" width="13" height="11">
<path d="M30.4012 16.0086C30.4012 15.9428 30.3957 15.877 30.3957 15.8167C30.3792 15.9319 30.4012 16.0086 30.4012 16.0086ZM26.9848 6.84029C26.847 6.92803 26.5274 7.25155 27.0399 8.32631C27.5799 9.46138 29.3928 11.0735 29.7565 12.2031C29.7841 12.2908 29.8116 12.3786 29.8392 12.4663C29.9714 12.8556 30.3241 14.0455 30.4012 15.8112C30.4343 15.5699 30.6492 15.1587 31.6135 14.9339C31.6135 14.9339 36.606 13.4259 38.1048 13.2669C38.1048 13.2669 35.1898 8.32082 27.095 6.81836C27.084 6.81836 27.0729 6.81836 27.0674 6.81836C27.0399 6.81836 27.0123 6.82384 26.9848 6.84029Z" fill="#47A09D"/>
</mask>
<g mask="url(#mask1_1047_55030)">
<path d="M27.9714 6.8125L26.5332 10.4371V6.8125H27.9714Z" fill="#003042"/>
<path d="M28.1753 6.8125L26.5332 10.947V10.4371L27.9714 6.8125H28.1753Z" fill="#003042"/>
<path d="M28.3792 6.8125L26.5332 11.4625V10.947L28.1753 6.8125H28.3792Z" fill="#002F41"/>
<path d="M28.5831 6.8125L26.5332 11.9724V11.4625L28.3792 6.8125H28.5831Z" fill="#002E3F"/>
<path d="M28.787 6.8125L26.5332 12.4824V11.9724L28.5831 6.8125H28.787Z" fill="#002E3F"/>
<path d="M28.9909 6.8125L26.5332 12.9978V12.4824L28.787 6.8125H28.9909Z" fill="#002D3E"/>
<path d="M29.1948 6.8125L26.5332 13.5078V12.9978L28.9909 6.8125H29.1948Z" fill="#002C3D"/>
<path d="M29.3986 6.8125L26.5332 14.0232V13.5078L29.1947 6.8125H29.3986Z" fill="#002B3B"/>
<path d="M29.597 6.8125L26.5332 14.5332V14.0232L29.3986 6.8125H29.597Z" fill="#002B3A"/>
<path d="M29.8009 6.8125L26.6875 14.6593L26.5332 14.599V14.5332L29.597 6.8125H29.8009Z" fill="#002A39"/>
<path d="M30.0048 6.8125L26.8638 14.7306L26.6875 14.6593L29.8009 6.8125H30.0048Z" fill="#002939"/>
<path d="M30.2076 6.8125L27.0391 14.8019L26.8628 14.7306L30.0037 6.8125H30.2076Z" fill="#002838"/>
<path d="M30.4114 6.8125L27.2099 14.8677L27.0391 14.8019L30.2076 6.8125H30.4114Z" fill="#002837"/>
<path d="M30.6164 6.8125L27.3873 14.939L27.2109 14.8677L30.4125 6.8125H30.6164Z" fill="#002736"/>
<path d="M30.8202 6.8125L27.5635 15.0048L27.3872 14.939L30.6163 6.8125H30.8202Z" fill="#022635"/>
<path d="M31.024 6.8125L27.7398 15.0761L27.5635 15.0048L30.8201 6.8125H31.024Z" fill="#032533"/>
<path d="M31.2278 6.8125L27.9161 15.1473L27.7397 15.0761L31.0239 6.8125H31.2278Z" fill="#042532"/>
<path d="M31.4317 6.8125L28.0924 15.2131L27.916 15.1473L31.2278 6.8125H31.4317Z" fill="#052431"/>
<path d="M31.636 6.8125L28.2691 15.2844L28.0928 15.2131L31.4321 6.8125H31.636Z" fill="#062330"/>
<path d="M31.6635 6.8125L31.8123 6.87282L28.4454 15.3557L28.269 15.2844L31.6359 6.8125H31.6635Z" fill="#07222F"/>
<path d="M31.8011 6.87012L28.4316 15.3496L28.6203 15.4239L31.9898 6.94436L31.8011 6.87012Z" fill="#07222E"/>
<path d="M31.9886 6.94336L28.6191 15.4229L28.8011 15.4945L32.1706 7.01498L31.9886 6.94336Z" fill="#07212D"/>
<path d="M32.1663 7.01367L28.7969 15.4932L28.9711 15.5617L32.3405 7.08221L32.1663 7.01367Z" fill="#07202C"/>
<path d="M32.3392 7.08106L28.9697 15.5605L29.1439 15.6291L32.5134 7.1496L32.3392 7.08106Z" fill="#07202B"/>
<path d="M32.513 7.14844L29.1436 15.6279L29.3261 15.6998L32.6955 7.22027L32.513 7.14844Z" fill="#07202A"/>
<path d="M32.6956 7.22071L29.3262 15.7002L29.5004 15.7687L32.8698 7.28925L32.6956 7.22071Z" fill="#071F29"/>
<path d="M32.8685 7.28809L29.499 15.7676L29.679 15.8384L33.0484 7.3589L32.8685 7.28809Z" fill="#071E28"/>
<path d="M33.0462 7.35743L29.6768 15.8369L29.8562 15.9075L33.2256 7.42803L33.0462 7.35743Z" fill="#071D27"/>
<path d="M33.2224 7.43164L29.853 15.9111L30.0272 15.9797L33.3966 7.50018L33.2224 7.43164Z" fill="#071D26"/>
<path d="M33.3937 7.49805L33.57 7.56933L30.2197 16.0084H30.1095L30.0269 15.9755L33.3937 7.49805Z" fill="#071C26"/>
<path d="M33.5701 7.56934L33.7464 7.63514L30.4236 16.0084H30.2197L33.5701 7.56934Z" fill="#071C25"/>
<path d="M33.7461 7.63477L33.9224 7.70605L30.6272 16.008H30.4233L33.7461 7.63477Z" fill="#081B24"/>
<path d="M33.9227 7.70605L34.099 7.77186L30.8258 16.008H30.6274L33.9227 7.70605Z" fill="#071B22"/>
<path d="M34.0989 7.77246L34.2752 7.84375L31.0296 16.0086H30.8257L34.0989 7.77246Z" fill="#071A22"/>
<path d="M34.2754 7.84375L34.4517 7.91504L31.2337 16.0086H31.0298L34.2754 7.84375Z" fill="#071921"/>
<path d="M34.4515 7.91406L34.6278 7.97986L31.4373 16.0076H31.2334L34.4515 7.91406Z" fill="#081820"/>
<path d="M34.628 7.98047L34.8044 8.05175L31.6414 16.0082H31.4375L34.628 7.98047Z" fill="#07181F"/>
<path d="M34.8041 8.05176L34.9804 8.11756L31.845 16.0082H31.6411L34.8041 8.05176Z" fill="#08171F"/>
<path d="M34.9806 8.11719L35.157 8.18847L32.0491 16.0079H31.8452L34.9806 8.11719Z" fill="#09171E"/>
<path d="M35.1572 8.18848L35.3335 8.25976L32.2532 16.0079H32.0493L35.1572 8.18848Z" fill="#09161D"/>
<path d="M35.3337 8.25977L35.5046 8.32557L32.4573 16.0079H32.2534L35.3337 8.25977Z" fill="#08161C"/>
<path d="M35.5043 8.32617L35.6806 8.39746L32.6609 16.0085H32.457L35.5043 8.32617Z" fill="#09151B"/>
<path d="M35.6808 8.39746L35.8572 8.46875L32.865 16.0085H32.6611L35.6808 8.39746Z" fill="#09151A"/>
<path d="M35.8569 8.46777L36.0332 8.53357L33.0631 16.0075H32.8647L35.8569 8.46777Z" fill="#091419"/>
<path d="M36.0331 8.53418L36.2094 8.60546L33.2669 16.0081H33.063L36.0331 8.53418Z" fill="#091418"/>
<path d="M36.2092 8.60547L36.3855 8.67127L33.4705 16.0081H33.2666L36.2092 8.60547Z" fill="#0A1317"/>
<path d="M36.3862 8.6709L36.5625 8.74218L33.6751 16.0078H33.4712L36.3862 8.6709Z" fill="#0A1217"/>
<path d="M36.5623 8.74219L36.7386 8.81347L33.8787 16.0078H33.6748L36.5623 8.74219Z" fill="#0A1216"/>
<path d="M36.7383 8.81445L36.9147 8.88026L34.0823 16.0087H33.8784L36.7383 8.81445Z" fill="#0A1215"/>
<path d="M36.9149 8.87988L37.0912 8.95117L34.2864 16.0084H34.0825L36.9149 8.87988Z" fill="#091114"/>
<path d="M37.0909 8.95117L37.2673 9.02246L34.49 16.0084H34.2861L37.0909 8.95117Z" fill="#091013"/>
<path d="M37.2675 9.02246L37.4438 9.08826L34.6941 16.0084H34.4902L37.2675 9.02246Z" fill="#090F12"/>
<path d="M37.444 9.08887L37.6149 9.16015L34.8982 16.009H34.6943L37.444 9.08887Z" fill="#080F11"/>
<path d="M37.6146 9.15918L37.7909 9.22498L35.1018 16.008H34.8979L37.6146 9.15918Z" fill="#080E10"/>
<path d="M37.7911 9.22559L37.9675 9.29687L35.3004 16.0086H35.1021L37.7911 9.22559Z" fill="#080D0F"/>
<path d="M37.9673 9.29688L38.1106 9.35171V9.46138L35.5042 16.0086H35.3003L37.9673 9.29688Z" fill="#070C0E"/>
<path d="M38.1108 9.9709L35.7083 16.0082H35.5044L38.1108 9.46094V9.9709Z" fill="#070B0D"/>
<path d="M38.1105 10.4807L35.9119 16.008H35.708L38.1105 9.9707V10.4807Z" fill="#060A0C"/>
<path d="M38.1103 10.9969L36.1155 16.0088H35.9116L38.1103 10.4814V10.9969Z" fill="#06090B"/>
<path d="M38.1105 11.5061L36.3196 16.008H36.1157L38.1105 10.9961V11.5061Z" fill="#050709"/>
<path d="M38.1107 12.0168L36.5237 16.0088H36.3198L38.1107 11.5068V12.0168Z" fill="#050708"/>
<path d="M38.1109 12.5311L36.7278 16.0076H36.5239L38.1109 12.0156V12.5311Z" fill="#040507"/>
<path d="M38.1104 13.0412L36.9314 16.0078H36.7275L38.1104 12.5312V13.0412Z" fill="#030405"/>
<path d="M36.9312 16.0085L38.1101 13.042V16.0085H36.9312Z" fill="#030405"/>
</g>
<path d="M30.3796 16.3761C30.3631 16.2445 30.341 16.0307 30.3245 15.921C30.2363 14.2486 29.8837 12.9874 29.7404 12.5597C29.7183 12.4993 29.7018 12.439 29.6798 12.3787L29.6522 12.2965C29.4594 11.6988 28.8367 10.942 28.2305 10.2127C27.696 9.57118 27.1946 8.96252 26.9466 8.43611C26.4011 7.29007 26.7593 6.91719 26.9356 6.80752C26.9907 6.77462 27.0568 6.76365 27.1229 6.77462C31.3274 7.55327 34.1157 9.27508 35.7137 10.5856C37.4495 12.0058 38.1768 13.2232 38.2099 13.278L38.2981 13.4261L38.1272 13.4425C36.6504 13.596 31.7021 15.093 31.6525 15.1095H31.647C30.9637 15.2685 30.6937 15.5207 30.589 15.7017C30.5504 15.7675 30.5284 15.8333 30.5229 15.8881C30.4843 16.0691 30.4457 16.2665 30.4237 16.3871C30.4127 16.3981 30.3796 16.3926 30.3796 16.3761ZM27.0678 6.98299C27.0623 6.98299 27.0513 6.98299 27.0458 6.98848C26.9466 7.04879 26.6601 7.32297 27.1395 8.3374C27.3764 8.84188 27.8944 9.467 28.3958 10.0702C29.013 10.8159 29.6577 11.5891 29.8616 12.2307L29.8892 12.3129C29.9057 12.3732 29.9277 12.4335 29.9443 12.4884C30.082 12.8887 30.3796 13.9196 30.4843 15.444C30.6937 15.1972 31.0629 15.0108 31.5809 14.8901C31.8178 14.8188 36.2592 13.4809 37.9178 13.2396C37.6699 12.8777 36.926 11.8633 35.5594 10.7446C33.9834 9.45603 31.2337 7.76164 27.0789 6.98848C27.0789 6.98299 27.0733 6.98299 27.0678 6.98299Z" fill="black"/>
<path d="M35.9779 11.091C31.4594 8.60702 27.0455 8.32188 27.0015 8.32188L27.0125 8.10254C27.0566 8.10254 31.52 8.39316 36.0826 10.8991L35.9779 11.091Z" fill="black"/>
<path d="M37.1794 12.2808C33.7574 10.4932 28.5831 10.4713 28.5005 10.4713V10.252C28.5831 10.252 33.8125 10.2684 37.2841 12.0834L37.1794 12.2808Z" fill="black"/>
<path d="M37.5322 12.6639C34.9423 12.1869 29.8617 12.4994 29.8066 12.5049L29.79 12.2856C29.8396 12.2801 34.9478 11.9621 37.5652 12.4501L37.5322 12.6639Z" fill="black"/>
<path d="M30.3134 14.6266L30.2583 14.4128C30.2969 14.4018 33.9723 13.4203 38.1051 13.2119L38.1161 13.4313C34.0054 13.6396 30.352 14.6157 30.3134 14.6266Z" fill="black"/>
</g>
<defs>
<clipPath id="clip0_1047_55030">
<rect width="50.5581" height="22.5425" fill="white" transform="translate(0.970703 0.458008)"/>
</clipPath>
</defs>
</svg>
