<svg width="113" height="38" viewBox="0 0 113 38" fill="none" xmlns="http://www.w3.org/2000/svg">
<path d="M6.93646 23.6163C7.54284 23.6163 8.08276 23.7568 8.55623 24.0378C9.02971 24.3188 9.39935 24.7238 9.66516 25.2528C9.93927 25.7818 10.0763 26.4018 10.0763 27.1126C10.0763 27.8234 9.93927 28.4434 9.66516 28.9723C9.39935 29.4931 9.02971 29.894 8.55623 30.175C8.08276 30.456 7.54284 30.5965 6.93646 30.5965C6.27193 30.5965 5.70709 30.4312 5.24192 30.1006C4.78506 29.7617 4.46941 29.3195 4.29498 28.774V30.5097H3.16113V21.335H4.29498V25.4388C4.46941 24.8933 4.78506 24.4552 5.24192 24.1246C5.70709 23.7857 6.27193 23.6163 6.93646 23.6163ZM6.6125 24.6205C6.17226 24.6205 5.77354 24.7238 5.41636 24.9305C5.05918 25.1289 4.78091 25.4182 4.58155 25.7984C4.38219 26.1786 4.28252 26.6167 4.28252 27.1126C4.28252 27.6085 4.38219 28.0466 4.58155 28.4268C4.78091 28.7988 5.05918 29.0881 5.41636 29.2947C5.77354 29.5013 6.17226 29.6047 6.6125 29.6047C7.31856 29.6047 7.87925 29.3856 8.29458 28.9476C8.71821 28.5012 8.93003 27.8896 8.93003 27.1126C8.93003 26.3356 8.71821 25.7281 8.29458 25.29C7.87925 24.8437 7.31856 24.6205 6.6125 24.6205Z" fill="#003042"/>
<path d="M12.0304 23.703L14.2482 29.0591L16.3041 23.703H17.5625L13.5006 33.7333H12.2173L13.6377 30.3982L10.7595 23.703H12.0304Z" fill="#003042"/>
<path d="M25.6676 21.6821C26.6894 21.6821 27.5449 21.9342 28.2344 22.4384C28.9321 22.9426 29.4014 23.6287 29.6423 24.4965H28.4462C28.2385 23.9675 27.8896 23.5419 27.3996 23.2195C26.9178 22.8972 26.3446 22.736 25.6801 22.736C25.082 22.736 24.5463 22.8765 24.0728 23.1575C23.5993 23.4303 23.2255 23.8229 22.9514 24.3354C22.6856 24.8478 22.5527 25.4512 22.5527 26.1455C22.5527 26.8564 22.6898 27.4721 22.9639 27.9929C23.238 28.5053 23.6159 28.9021 24.0977 29.1831C24.5878 29.4559 25.1485 29.5923 25.7798 29.5923C26.3197 29.5923 26.814 29.4765 27.2625 29.2451C27.7111 29.0137 28.0765 28.6789 28.359 28.2408C28.6497 27.7945 28.8241 27.2738 28.8823 26.6787H25.4309V25.8356H29.8417V26.877C29.7669 27.5713 29.551 28.1995 29.1938 28.7616C28.8366 29.3236 28.3548 29.77 27.7484 30.1006C27.1421 30.4312 26.4526 30.5965 25.6801 30.5965C24.8328 30.5965 24.0853 30.4106 23.4373 30.0386C22.7894 29.6584 22.2827 29.1335 21.9172 28.464C21.5601 27.7862 21.3815 27.0134 21.3815 26.1455C21.3815 25.2776 21.5601 24.5089 21.9172 23.8394C22.2827 23.1617 22.7894 22.6327 23.4373 22.2524C24.0853 21.8722 24.8287 21.6821 25.6676 21.6821Z" fill="#003042"/>
<path d="M36.5241 28.4888H32.6616L31.9265 30.5097H30.7054L33.9574 21.9301H35.2408L38.4803 30.5097H37.2593L36.5241 28.4888ZM36.2002 27.6085L34.5929 23.1947L32.9855 27.6085H36.2002Z" fill="#003042"/>
<path d="M40.7618 21.7689V30.5097H39.628V21.7689H40.7618Z" fill="#003042"/>
<path d="M49.4127 30.5097H48.2789L43.7186 23.6039V30.5097H42.5848V21.7689H43.7186L48.2789 28.6872V21.7689H49.4127V30.5097Z" fill="#003042"/>
<path d="M56.7931 28.2408C56.7931 28.6541 56.6935 29.0385 56.4941 29.3939C56.2948 29.7493 55.9916 30.0386 55.5845 30.2618C55.1775 30.4849 54.675 30.5965 54.0769 30.5965C53.4954 30.5965 52.9763 30.4932 52.5194 30.2866C52.0709 30.0717 51.7095 29.7824 51.4354 29.4187C51.1696 29.0467 51.0159 28.6252 50.9744 28.1541H52.183C52.2079 28.402 52.291 28.6459 52.4322 28.8856C52.5817 29.117 52.7894 29.3112 53.0552 29.4683C53.3293 29.6171 53.6574 29.6915 54.0395 29.6915C54.5379 29.6915 54.92 29.5592 55.1858 29.2947C55.4516 29.0302 55.5845 28.6913 55.5845 28.278C55.5845 27.9226 55.489 27.6333 55.298 27.4102C55.1152 27.187 54.8868 27.0134 54.6127 26.8894C54.3386 26.7572 53.9648 26.6167 53.4913 26.4679C52.9348 26.286 52.4862 26.1166 52.1456 25.9595C51.8134 25.7942 51.5268 25.5504 51.2859 25.228C51.0533 24.9057 50.937 24.48 50.937 23.951C50.937 23.4964 51.045 23.0955 51.261 22.7484C51.4853 22.4012 51.8009 22.1326 52.2079 21.9425C52.6233 21.7524 53.1092 21.6573 53.6657 21.6573C54.5296 21.6573 55.2149 21.8681 55.7216 22.2896C56.2283 22.7029 56.5232 23.2319 56.6062 23.8766H55.3852C55.3187 23.5295 55.1401 23.2236 54.8494 22.9591C54.5587 22.6946 54.1641 22.5624 53.6657 22.5624C53.2089 22.5624 52.8434 22.6822 52.5693 22.9219C52.2951 23.1534 52.1581 23.484 52.1581 23.9138C52.1581 24.2527 52.2453 24.5296 52.4197 24.7445C52.6025 24.9511 52.8268 25.1165 53.0926 25.2404C53.3584 25.3562 53.7239 25.4884 54.189 25.6372C54.7539 25.819 55.2066 25.9926 55.5472 26.1579C55.896 26.3232 56.1909 26.5753 56.4318 26.9142C56.6727 27.2448 56.7931 27.6871 56.7931 28.2408Z" fill="#003042"/>
<g clip-path="url(#clip0_1047_55028)">
<path d="M68.3076 18.5829C68.3076 18.5829 68.5501 19.3341 69.3381 19.696C69.6081 19.8167 69.9111 19.866 70.2032 19.8386C70.4897 19.8167 70.9196 19.7563 71.2116 19.6083C71.2116 19.6083 71.5367 20.2773 71.8729 20.5953C71.8729 20.5953 71.8508 19.6138 72.4129 19.049C72.4129 19.049 71.68 19.1751 71.2998 19.4767C71.2998 19.4767 70.5283 18.1881 69.3546 18.2429C69.3546 18.2429 68.6548 18.2648 68.3076 18.5829Z" fill="#CDD7D8"/>
<path d="M74.8159 17.9248C74.8159 17.9248 75.4717 18.6267 76.5186 18.6157C76.8768 18.6102 77.2295 18.506 77.5436 18.3251C77.8466 18.1496 78.282 17.8645 78.5299 17.5574C78.5299 17.5574 79.2353 18.1277 79.7643 18.3031C79.7643 18.3031 79.2298 17.2448 79.5549 16.3291C79.5549 16.3291 78.822 16.8445 78.5575 17.3655C78.5575 17.3655 77.0476 16.351 75.7858 17.0145C75.7858 17.0145 75.0308 17.3984 74.8159 17.9248Z" fill="#003042"/>
<path d="M80.2764 17.7171C80.2764 17.7171 80.5243 18.4738 81.3233 18.8247C81.5989 18.9454 81.8964 18.9892 82.194 18.9618C82.486 18.9344 82.9103 18.8686 83.2079 18.7205C83.2079 18.7205 83.544 19.3895 83.8802 19.7076C83.8802 19.7076 83.8471 18.726 84.4037 18.1448C84.4037 18.1448 83.6708 18.2819 83.2906 18.5835C83.2906 18.5835 82.5026 17.2948 81.3233 17.3661C81.3289 17.3661 80.6235 17.399 80.2764 17.7171Z" fill="#003042"/>
<path d="M91.2036 19.6028C91.2036 19.6028 91.4516 20.3595 92.2506 20.7105C92.5261 20.8311 92.8237 20.875 93.1212 20.8476C93.4133 20.8201 93.8376 20.7543 94.1352 20.6063C94.1352 20.6063 94.4713 21.2753 94.8074 21.5933C94.8074 21.5933 94.7744 20.6118 95.3309 20.0305C95.3309 20.0305 94.598 20.1676 94.2178 20.4692C94.2178 20.4692 93.4298 19.1806 92.2506 19.2519C92.2561 19.2519 91.5508 19.2848 91.2036 19.6028Z" fill="#003042"/>
<path d="M95.3531 22.9208C95.3531 22.9208 95.298 23.8255 95.9923 24.5274C96.2292 24.7687 96.5323 24.9387 96.8574 25.0319C97.177 25.1251 97.6564 25.2348 98.0311 25.2019C98.0311 25.2019 98.1028 26.0518 98.3287 26.5234C98.3287 26.5234 98.7089 25.4651 99.5465 25.0922C99.5465 25.0922 98.7144 24.9277 98.1854 25.0922C98.1854 25.0922 97.8934 23.4033 96.615 22.9811C96.615 22.9866 95.8545 22.7288 95.3531 22.9208Z" fill="#003042"/>
<path d="M98.8408 25.9036C98.8408 25.9036 99.0502 26.6055 99.7776 26.951C100.026 27.0716 100.301 27.1155 100.577 27.099C100.847 27.0826 101.243 27.0332 101.513 26.9071C101.513 26.9071 101.805 27.5377 102.108 27.8338C102.108 27.8338 102.103 26.9235 102.637 26.4081C102.637 26.4081 101.96 26.5123 101.602 26.781C101.602 26.781 100.913 25.5746 99.8217 25.602C99.8217 25.6075 99.1714 25.6185 98.8408 25.9036Z" fill="#557583"/>
<path d="M108.495 27.9984C108.495 27.9984 108.335 28.5357 108.655 29.0567C108.765 29.2376 108.925 29.3802 109.107 29.4844C109.289 29.5831 109.559 29.7202 109.79 29.7476C109.79 29.7476 109.713 30.2685 109.784 30.5865C109.784 30.5865 110.159 29.9998 110.721 29.8901C110.721 29.8901 110.242 29.6763 109.895 29.7037C109.895 29.7037 109.955 28.6399 109.244 28.2122C109.244 28.2122 108.826 27.949 108.495 27.9984Z" fill="#557583"/>
<path d="M106.236 32.1768C106.236 32.1768 105.778 32.429 105.641 32.9773C105.596 33.1693 105.602 33.3667 105.657 33.5531C105.707 33.7341 105.8 34.0027 105.933 34.1727C105.933 34.1727 105.536 34.4688 105.371 34.7211C105.371 34.7211 106.004 34.584 106.445 34.8746C106.445 34.8746 106.269 34.4195 106.026 34.2111C106.026 34.2111 106.77 33.5531 106.583 32.8019C106.588 32.8074 106.489 32.3632 106.236 32.1768Z" fill="#557583"/>
<path d="M103.04 29.2324C103.04 29.2324 102.908 30.022 103.459 30.7129C103.646 30.9487 103.899 31.1242 104.175 31.2393C104.45 31.349 104.858 31.4916 105.194 31.4971C105.194 31.4971 105.178 32.2538 105.332 32.6925C105.332 32.6925 105.762 31.7932 106.539 31.5409C106.539 31.5409 105.817 31.3216 105.338 31.4203C105.338 31.4203 105.238 29.9014 104.147 29.4134C104.147 29.4024 103.503 29.1008 103.04 29.2324Z" fill="#003042"/>
<path d="M103.431 31.2842C103.431 31.2842 102.902 32.1067 103.183 33.1321C103.283 33.483 103.475 33.8011 103.734 34.0643C103.988 34.3165 104.379 34.6729 104.748 34.8375C104.748 34.8375 104.368 35.6764 104.33 36.2412C104.33 36.2412 105.244 35.4461 106.231 35.5284C106.231 35.5284 105.531 34.9416 104.947 34.8155C104.947 34.8155 105.564 33.0718 104.583 32.008C104.583 32.008 104.004 31.3664 103.431 31.2842Z" fill="#003042"/>
<path d="M106.264 29.7646C106.264 29.7646 106.407 30.2691 106.925 30.5214C107.101 30.6091 107.3 30.642 107.498 30.6365C107.691 30.6255 107.972 30.5981 108.17 30.5049C108.17 30.5049 108.374 30.9546 108.584 31.1739C108.584 31.1739 108.589 30.5268 108.975 30.1595C108.975 30.1595 108.49 30.2307 108.231 30.4172C108.231 30.4172 107.746 29.5453 106.969 29.5618C106.963 29.5618 106.501 29.5618 106.264 29.7646Z" fill="#003042"/>
<path d="M65.3926 19.9161C65.3926 19.9161 65.905 20.2397 66.5443 20.0697C66.7647 20.0094 66.963 19.8887 67.1228 19.7297C67.2827 19.5762 67.5031 19.3294 67.6078 19.1046C67.6078 19.1046 68.1313 19.3404 68.4839 19.3678C68.4839 19.3678 67.988 18.803 68.0376 18.1943C68.0376 18.1943 67.6684 18.6275 67.5912 18.9894C67.5912 18.9894 66.5057 18.6056 65.8389 19.2088C65.8389 19.2088 65.4367 19.5597 65.3926 19.9161Z" fill="#003042"/>
<path d="M63.1997 19.1261C63.1997 19.1261 63.343 19.5154 63.7673 19.6854C63.9106 19.7457 64.0704 19.7622 64.2246 19.7403C64.3734 19.7183 64.5938 19.6799 64.7481 19.5977C64.7481 19.5977 64.9355 19.9431 65.1173 20.0967C65.1173 20.0967 65.0788 19.5867 65.3598 19.2742C65.3598 19.2742 64.9796 19.3564 64.7867 19.5264C64.7867 19.5264 64.3514 18.8684 63.7397 18.9287C63.7397 18.9232 63.3705 18.9561 63.1997 19.1261Z" fill="#003042"/>
<path d="M62.6318 19.2137C62.6318 19.2137 62.6759 19.3288 62.7971 19.3782C62.8412 19.3946 62.8853 19.4001 62.9293 19.3946C62.9734 19.3891 63.0395 19.3782 63.0836 19.3507C63.0836 19.3507 63.1387 19.4494 63.1938 19.4988C63.1938 19.4988 63.1828 19.3507 63.2654 19.2575C63.2654 19.2575 63.1552 19.2795 63.0946 19.3288C63.0946 19.3288 62.9679 19.1369 62.7861 19.1533C62.7916 19.1588 62.6869 19.1643 62.6318 19.2137Z" fill="#557583"/>
<path d="M62.5991 19.7458C62.5991 19.7458 62.7038 19.8609 62.8746 19.8609C62.9352 19.8609 62.9903 19.8445 63.0399 19.8171C63.0894 19.7896 63.1611 19.7458 63.1996 19.6964C63.1996 19.6964 63.3098 19.7896 63.398 19.8171C63.398 19.8171 63.3153 19.6471 63.3649 19.499C63.3649 19.499 63.2437 19.5813 63.1996 19.6635C63.1996 19.6635 62.9572 19.499 62.7534 19.6032C62.7534 19.6032 62.6322 19.6635 62.5991 19.7458Z" fill="#003042"/>
<path d="M65.9326 18.5339C65.9326 18.5339 66.0428 18.6929 66.2522 18.7203C66.3238 18.7313 66.3954 18.7203 66.4615 18.6929C66.5276 18.6655 66.6213 18.6216 66.6819 18.5723C66.6819 18.5723 66.8031 18.7039 66.9022 18.7587C66.9022 18.7587 66.8306 18.5339 66.9188 18.3584C66.9188 18.3584 66.759 18.4406 66.6874 18.5339C66.6874 18.5339 66.4174 18.2871 66.1475 18.3803C66.153 18.3803 65.9932 18.4352 65.9326 18.5339Z" fill="#003042"/>
<path d="M69.3159 20.5576C69.3159 20.5576 69.5694 20.8208 69.9717 20.8098C70.1094 20.8043 70.2417 20.7659 70.3574 20.6947C70.4731 20.6234 70.6329 20.5137 70.7266 20.3931C70.7266 20.3931 70.9966 20.6069 71.2005 20.6672C71.2005 20.6672 70.9911 20.267 71.1068 19.916C71.1068 19.916 70.8313 20.1189 70.7376 20.3163C70.7376 20.3163 70.1535 19.9379 69.6796 20.2012C69.6796 20.2012 69.3931 20.3547 69.3159 20.5576Z" fill="#003042"/>
<path d="M70.9473 18.501C70.9473 18.501 71.1787 18.8355 71.625 18.8958C71.7793 18.9178 71.9336 18.8958 72.0769 18.8355C72.2147 18.7807 72.4185 18.6875 72.5398 18.5723C72.5398 18.5723 72.7988 18.8575 73.0137 18.9616C73.0137 18.9616 72.8539 18.4791 73.0467 18.1172C73.0467 18.1172 72.7051 18.2872 72.5618 18.4955C72.5618 18.4955 71.9887 17.9746 71.4157 18.172C71.4157 18.1775 71.0685 18.2927 70.9473 18.501Z" fill="#003042"/>
<path d="M77.1187 19.4279C77.1187 19.4279 77.2454 19.8282 77.6587 20.0202C77.8019 20.086 77.9617 20.1134 78.116 20.0969C78.2703 20.086 78.4963 20.0531 78.6505 19.9818C78.6505 19.9818 78.8214 20.3382 78.9977 20.5082C78.9977 20.5082 78.9867 19.9873 79.2898 19.6911C79.2898 19.6911 78.904 19.7569 78.7001 19.916C78.7001 19.916 78.2979 19.2305 77.6752 19.2525C77.6807 19.2525 77.306 19.258 77.1187 19.4279Z" fill="#003042"/>
<path d="M78.601 19.45C78.601 19.45 79.0032 19.598 79.422 19.3842C79.5653 19.3129 79.6865 19.1977 79.7747 19.0661C79.8628 18.9345 79.9786 18.7371 80.0171 18.5616C80.0171 18.5616 80.4139 18.6494 80.6619 18.611C80.6619 18.611 80.232 18.2929 80.1825 17.8652C80.1825 17.8652 79.9896 18.2162 79.9951 18.4794C79.9951 18.4794 79.1851 18.3752 78.8159 18.8906C78.8104 18.8906 78.5844 19.1977 78.601 19.45Z" fill="#003042"/>
<path d="M85.2798 17.1962C85.2798 17.1962 85.5498 17.3716 85.8914 17.2839C86.0072 17.2565 86.1119 17.1907 86.2 17.1084C86.2827 17.0262 86.4039 16.9001 86.459 16.7794C86.459 16.7794 86.7345 16.9055 86.9219 16.922C86.9219 16.922 86.6629 16.6204 86.696 16.2969C86.696 16.2969 86.4976 16.5217 86.4535 16.7136C86.4535 16.7136 85.8804 16.5052 85.5222 16.8233C85.5222 16.8233 85.3128 17.0097 85.2798 17.1962Z" fill="#003042"/>
<path d="M77.2949 16.5388C77.2949 16.5388 77.609 16.7198 77.9837 16.6046C78.1105 16.5663 78.2262 16.4895 78.3199 16.3908C78.408 16.2976 78.5348 16.144 78.5954 16.007C78.5954 16.007 78.9095 16.1386 79.1189 16.144C79.1189 16.144 78.8103 15.8205 78.8323 15.4531C78.8323 15.4531 78.6229 15.7163 78.5844 15.9357C78.5844 15.9357 77.9286 15.7328 77.5484 16.1057C77.5484 16.1057 77.317 16.325 77.2949 16.5388Z" fill="#003042"/>
<path d="M82.8936 17.876C82.8936 17.876 83.2076 18.1886 83.6871 18.1611C83.8524 18.1557 84.0122 18.1008 84.1499 18.0131C84.2877 17.9254 84.4806 17.7883 84.5908 17.6457C84.5908 17.6457 84.9214 17.8925 85.1694 17.9637C85.1694 17.9637 84.9049 17.4867 85.0371 17.0645C85.0371 17.0645 84.712 17.3112 84.5963 17.558C84.5963 17.558 83.8854 17.1193 83.3234 17.4428C83.3234 17.4428 82.9817 17.6347 82.8936 17.876Z" fill="#003042"/>
<path d="M84.5854 18.1947C84.5854 18.1947 84.591 18.6608 84.9767 19.0008C85.1089 19.1159 85.2687 19.1927 85.4451 19.2311C85.6104 19.2694 85.8639 19.3078 86.0567 19.2749C86.0567 19.2749 86.1229 19.7136 86.2606 19.9494C86.2606 19.9494 86.4149 19.3901 86.8337 19.1653C86.8337 19.1653 86.3984 19.1104 86.1284 19.2146C86.1284 19.2146 85.9135 18.3537 85.2412 18.1837C85.2357 18.1782 84.8334 18.0741 84.5854 18.1947Z" fill="#003042"/>
<path d="M86.4316 19.8665C86.4316 19.8665 86.5529 20.2393 86.9386 20.4148C87.0708 20.4751 87.2196 20.4971 87.3684 20.4861C87.5117 20.4751 87.7211 20.4477 87.8699 20.3764C87.8699 20.3764 88.0297 20.7109 88.195 20.8644C88.195 20.8644 88.1839 20.3819 88.465 20.0968C88.465 20.0968 88.1013 20.1571 87.9139 20.3051C87.9139 20.3051 87.5337 19.6691 86.9551 19.691C86.9496 19.6965 86.6025 19.7074 86.4316 19.8665Z" fill="#003042"/>
<path d="M88.542 20.7382C88.542 20.7382 88.6908 21.0672 89.0655 21.1823C89.1922 21.2207 89.33 21.2262 89.4622 21.1988C89.589 21.1714 89.7818 21.122 89.9031 21.0398C89.9031 21.0398 90.0849 21.3249 90.2557 21.451C90.2557 21.451 90.1896 21.0124 90.4155 20.7217C90.4155 20.7217 90.0904 20.8204 89.9361 20.974C89.9361 20.974 89.5173 20.4366 88.9938 20.5243C88.9994 20.5298 88.6853 20.5792 88.542 20.7382Z" fill="#003042"/>
<path d="M91.9199 22.4979C91.9199 22.4979 92.1128 22.7063 92.4269 22.7063C92.5371 22.7063 92.6418 22.6734 92.7355 22.6241C92.8291 22.5747 92.9559 22.487 93.033 22.3938C93.033 22.3938 93.2424 22.5637 93.4022 22.6186C93.4022 22.6186 93.2424 22.3005 93.3416 22.0264C93.3416 22.0264 93.1212 22.1799 93.044 22.3334C93.044 22.3334 92.5922 22.0264 92.2175 22.2238C92.212 22.2293 91.986 22.3444 91.9199 22.4979Z" fill="#003042"/>
<path d="M98.0361 21.7748C98.0361 21.7748 98.0582 21.901 98.1794 21.9722C98.2179 21.9997 98.2675 22.0106 98.3171 22.0106C98.3667 22.0106 98.4328 22.0106 98.4824 21.9942C98.4824 21.9942 98.5209 22.1093 98.5705 22.1642C98.5705 22.1642 98.5871 22.0051 98.6862 21.9284C98.6862 21.9284 98.565 21.9339 98.4989 21.9777C98.4989 21.9777 98.3997 21.7584 98.2124 21.7419C98.2069 21.7365 98.0967 21.731 98.0361 21.7748Z" fill="#003042"/>
<path d="M98.0142 24.0119C98.0142 24.0119 98.0693 24.1874 98.2566 24.2696C98.3227 24.2971 98.3888 24.308 98.4604 24.3025C98.5265 24.2971 98.6257 24.2806 98.6973 24.2477C98.6973 24.2477 98.7744 24.4067 98.8516 24.478C98.8516 24.478 98.8461 24.2477 98.9728 24.1161C98.9728 24.1161 98.802 24.149 98.7138 24.2203C98.7138 24.2203 98.532 23.9187 98.2566 23.9351C98.2566 23.9297 98.0913 23.9351 98.0142 24.0119Z" fill="#003042"/>
<path d="M98.0361 26.7104C98.0361 26.7104 98.0636 26.7981 98.1572 26.842C98.1902 26.8585 98.2232 26.8639 98.2562 26.8585C98.2892 26.853 98.3387 26.8475 98.3717 26.831C98.3717 26.831 98.4102 26.9078 98.4488 26.9462C98.4488 26.9462 98.4433 26.831 98.5093 26.7652C98.5093 26.7652 98.4268 26.7817 98.3772 26.8146C98.3772 26.8146 98.2837 26.6665 98.1517 26.672C98.1572 26.672 98.0746 26.6775 98.0361 26.7104Z" fill="#003042"/>
<path d="M100.235 27.3675C100.235 27.3675 100.251 27.4223 100.306 27.4442C100.323 27.4551 100.345 27.4551 100.367 27.4551C100.389 27.4551 100.416 27.4496 100.438 27.4387C100.438 27.4387 100.46 27.488 100.488 27.5099C100.488 27.5099 100.488 27.4387 100.526 27.4004C100.526 27.4004 100.477 27.4113 100.449 27.4332C100.449 27.4332 100.394 27.3402 100.312 27.3456C100.306 27.3402 100.257 27.3402 100.235 27.3675Z" fill="#003042"/>
<path d="M102.368 28.9473C102.368 28.9473 102.483 29.057 102.66 29.046C102.72 29.0405 102.775 29.0186 102.825 28.9857C102.875 28.9528 102.941 28.9035 102.979 28.8486C102.979 28.8486 103.1 28.9364 103.189 28.9583C103.189 28.9583 103.089 28.7883 103.133 28.6348C103.133 28.6348 103.018 28.728 102.979 28.8157C102.979 28.8157 102.72 28.6622 102.516 28.7883C102.516 28.7883 102.395 28.8596 102.368 28.9473Z" fill="#003042"/>
<path d="M108.396 29.6383C108.396 29.6383 108.451 29.7863 108.611 29.8521C108.666 29.8741 108.727 29.8796 108.787 29.8741C108.842 29.8686 108.93 29.8521 108.985 29.8192C108.985 29.8192 109.057 29.9509 109.129 30.0112C109.129 30.0112 109.118 29.8138 109.222 29.6931C109.222 29.6931 109.079 29.726 109.002 29.7863C109.002 29.7863 108.837 29.5341 108.6 29.556C108.605 29.5615 108.468 29.5725 108.396 29.6383Z" fill="#003042"/>
<path d="M102.456 28.4156C102.456 28.4156 102.483 28.4924 102.571 28.5253C102.599 28.5362 102.632 28.5417 102.665 28.5362C102.692 28.5308 102.742 28.5253 102.769 28.5088C102.769 28.5088 102.808 28.5801 102.846 28.6075C102.846 28.6075 102.835 28.5033 102.896 28.443C102.896 28.443 102.819 28.4595 102.78 28.4924C102.78 28.4924 102.692 28.3608 102.571 28.3717C102.56 28.3717 102.489 28.3772 102.456 28.4156Z" fill="#003042"/>
<path d="M99.0669 27.5596C99.0669 27.5596 98.9953 27.6747 99.0338 27.8173C99.0504 27.8666 99.0779 27.9105 99.1109 27.9434C99.1439 27.9763 99.1989 28.0257 99.2539 28.0476C99.2539 28.0476 99.2044 28.1628 99.1989 28.245C99.1989 28.245 99.3254 28.1353 99.463 28.1408C99.463 28.1408 99.3639 28.0586 99.2814 28.0421C99.2814 28.0421 99.3639 27.8008 99.2264 27.6528C99.2264 27.6583 99.1494 27.5651 99.0669 27.5596Z" fill="#003042"/>
<path d="M94.5044 23.7988C94.5044 23.7988 94.5485 24.0017 94.7468 24.1113C94.8129 24.1497 94.89 24.1662 94.9672 24.1662C95.0443 24.1662 95.1545 24.1607 95.2371 24.1278C95.2371 24.1278 95.3088 24.3087 95.3859 24.4019C95.3859 24.4019 95.4024 24.1442 95.5622 24.0126C95.5622 24.0126 95.3694 24.0291 95.2647 24.1004C95.2647 24.1004 95.0939 23.7439 94.7854 23.733C94.7854 23.733 94.6036 23.722 94.5044 23.7988Z" fill="#003042"/>
<path d="M95.292 20.5077C95.292 20.5077 95.3857 20.8038 95.6998 20.9464C95.8045 20.9957 95.9257 21.0122 96.0414 21.0012C96.1571 20.9902 96.3224 20.9683 96.4382 20.908C96.4382 20.908 96.5649 21.1712 96.6971 21.2973C96.6971 21.2973 96.6861 20.9135 96.9065 20.6886C96.9065 20.6886 96.62 20.738 96.4712 20.8586C96.4712 20.8586 96.1681 20.3542 95.7053 20.3761C95.7053 20.3706 95.4298 20.3816 95.292 20.5077Z" fill="#003042"/>
<path d="M89.1094 19.8935C89.1094 19.8935 89.3849 20.1677 89.8092 20.1458C89.9525 20.1403 90.0957 20.0909 90.217 20.0141C90.3382 19.9374 90.509 19.8167 90.6027 19.6906C90.6027 19.6906 90.8948 19.91 91.1152 19.9758C91.1152 19.9758 90.8837 19.5535 90.9994 19.1807C90.9994 19.1807 90.7074 19.4 90.6137 19.6139C90.6137 19.6139 89.9855 19.2245 89.4896 19.5152C89.4841 19.5152 89.1865 19.6797 89.1094 19.8935Z" fill="#003042"/>
<path d="M90.6246 20.136C90.6246 20.136 90.4979 20.613 90.7844 21.0627C90.8836 21.2162 91.0269 21.3423 91.1867 21.4301C91.3465 21.5123 91.5889 21.6275 91.7928 21.6494C91.7928 21.6494 91.7377 22.11 91.8038 22.3842C91.8038 22.3842 92.1234 21.8633 92.6084 21.7591C92.6084 21.7591 92.1841 21.5781 91.881 21.611C91.881 21.611 91.914 20.6788 91.2803 20.3115C91.2859 20.3115 90.9111 20.0866 90.6246 20.136Z" fill="#003042"/>
<path d="M93.7385 21.166C93.7385 21.166 93.4519 21.5937 93.5842 22.1366C93.6283 22.323 93.7275 22.493 93.8597 22.6356C93.9864 22.7727 94.1903 22.9646 94.3832 23.0578C94.3832 23.0578 94.1683 23.491 94.1407 23.7871C94.1407 23.7871 94.6312 23.3813 95.1491 23.4362C95.1491 23.4362 94.791 23.1181 94.4824 23.0468C94.4824 23.0468 94.8295 22.1366 94.3336 21.5663C94.3391 21.5608 94.0415 21.2154 93.7385 21.166Z" fill="#003042"/>
<path d="M94.8955 21.6874C94.8955 21.6874 95.0718 22.2357 95.6449 22.4989C95.8433 22.5866 96.0637 22.6195 96.2786 22.6031C96.488 22.5866 96.8021 22.5428 97.017 22.4386C97.017 22.4386 97.254 22.9266 97.4964 23.1569C97.4964 23.1569 97.4799 22.4441 97.8877 22.0273C97.8877 22.0273 97.3531 22.1205 97.0776 22.3399C97.0776 22.3399 96.5156 21.4022 95.6559 21.4406C95.6615 21.4406 95.149 21.4571 94.8955 21.6874Z" fill="#003042"/>
<path d="M98.1132 22.3341C98.1132 22.3341 97.9149 22.7892 98.1353 23.2882C98.2124 23.4582 98.3336 23.6062 98.4879 23.7159C98.6367 23.8256 98.8626 23.9736 99.061 24.023C99.061 24.023 98.9343 24.4781 98.9618 24.7632C98.9618 24.7632 99.3586 24.2862 99.8655 24.2533C99.8655 24.2533 99.4633 24.012 99.1602 23.9956C99.1602 23.9956 99.331 23.0634 98.7524 22.6028C98.758 22.6028 98.4108 22.3286 98.1132 22.3341Z" fill="#003042"/>
<path d="M84.106 20.0364C84.106 20.0364 84.3705 20.2996 84.7727 20.2777C84.9105 20.2722 85.0427 20.2228 85.164 20.1515C85.2797 20.0803 85.4395 19.9651 85.5332 19.8445C85.5332 19.8445 85.8142 20.0528 86.0181 20.1132C86.0181 20.1132 85.7977 19.7129 85.9079 19.3564C85.9079 19.3564 85.6323 19.5648 85.5387 19.7677C85.5387 19.7677 84.9435 19.4003 84.4696 19.6745C84.4641 19.6745 84.1776 19.8335 84.106 20.0364Z" fill="#003042"/>
<path d="M85.4836 20.4539C85.4836 20.4539 85.4175 20.8377 85.6765 21.1668C85.7647 21.2819 85.8859 21.3696 86.0181 21.4245C86.1504 21.4793 86.3488 21.5506 86.5086 21.5506C86.5086 21.5506 86.4975 21.9125 86.5692 22.1264C86.5692 22.1264 86.7841 21.6986 87.1533 21.578C87.1533 21.578 86.8061 21.4683 86.5747 21.5122C86.5747 21.5122 86.5361 20.7774 86.0126 20.5416C86.0181 20.5416 85.7096 20.3936 85.4836 20.4539Z" fill="#003042"/>
<path d="M87.1862 22.082C87.1862 22.082 86.8722 22.2246 86.7565 22.5755C86.7179 22.6962 86.7124 22.8278 86.74 22.9539C86.7675 23.0745 86.8116 23.2555 86.8887 23.3761C86.8887 23.3761 86.6133 23.5461 86.4976 23.7051C86.4976 23.7051 86.9218 23.6448 87.1917 23.8587C87.1917 23.8587 87.1036 23.5516 86.9548 23.4035C86.9548 23.4035 87.4727 23.0087 87.39 22.5097C87.3845 22.5152 87.335 22.2136 87.1862 22.082Z" fill="#003042"/>
<path d="M88.586 24.5879C88.586 24.5879 88.4816 24.6756 88.4761 24.8237C88.4761 24.873 88.4871 24.9224 88.509 24.9717C88.531 25.0156 88.5695 25.0814 88.6135 25.1143C88.6135 25.1143 88.5255 25.2075 88.4981 25.2843C88.4981 25.2843 88.6519 25.2185 88.7783 25.2678C88.7783 25.2678 88.7124 25.1637 88.6354 25.1198C88.6354 25.1198 88.7893 24.9169 88.7014 24.7305C88.7069 24.7305 88.6574 24.6208 88.586 24.5879Z" fill="#003042"/>
<path d="M87.6492 23.3105C87.6492 23.3105 87.4343 23.5409 87.4729 23.8863C87.4839 24.0015 87.528 24.1166 87.5941 24.2098C87.6602 24.3031 87.7649 24.4401 87.8751 24.5114C87.8751 24.5114 87.7098 24.7582 87.6657 24.9336C87.6657 24.9336 88.0018 24.7308 88.3103 24.8075C88.3103 24.8075 88.123 24.5827 87.9412 24.5114C87.9412 24.5114 88.2332 23.9905 87.9797 23.6012C87.9742 23.6012 87.8255 23.3654 87.6492 23.3105Z" fill="#003042"/>
<path d="M88.1176 25.3552C88.1176 25.3552 88.0846 25.6349 88.2939 25.8707C88.3655 25.9529 88.4537 26.0078 88.5584 26.0461C88.6575 26.079 88.8063 26.1229 88.922 26.1174C88.922 26.1174 88.9275 26.3861 88.9936 26.5342C88.9936 26.5342 89.1313 26.2106 89.3958 26.1065C89.3958 26.1065 89.1368 26.0407 88.9716 26.0845C88.9716 26.0845 88.911 25.5526 88.5143 25.3991C88.5088 25.3991 88.2774 25.3059 88.1176 25.3552Z" fill="#003042"/>
<path d="M90.2388 27.5596C90.2388 27.5596 90.0019 27.7954 90.0184 28.1573C90.0239 28.2834 90.0625 28.404 90.1286 28.5082C90.1947 28.6124 90.2994 28.7604 90.4096 28.8427C90.4096 28.8427 90.2167 29.0949 90.1616 29.2814C90.1616 29.2814 90.5252 29.084 90.8503 29.1827C90.8503 29.1827 90.663 28.9359 90.4757 28.8482C90.4757 28.8482 90.8117 28.3108 90.5693 27.8831C90.5693 27.8831 90.4261 27.6254 90.2388 27.5596Z" fill="#003042"/>
<path d="M87.9358 25.7402C87.9358 25.7402 87.451 26.0254 87.3243 26.6176C87.2802 26.8205 87.2968 27.0343 87.3574 27.2317C87.418 27.4237 87.5281 27.7088 87.6714 27.8897C87.6714 27.8897 87.2582 28.2188 87.0874 28.4929C87.0874 28.4929 87.7595 28.3229 88.2443 28.6245C88.2443 28.6245 88.046 28.142 87.7761 27.9281C87.7761 27.9281 88.5473 27.1988 88.327 26.4037C88.3325 26.4037 88.2058 25.9267 87.9358 25.7402Z" fill="#003042"/>
<path d="M88.3658 27.5327C88.3658 27.5327 88.206 28.1688 88.6027 28.7665C88.7405 28.9694 88.9334 29.1339 89.1538 29.2436C89.3687 29.3533 89.6938 29.4958 89.9638 29.5232C89.9638 29.5232 89.8977 30.1374 89.9914 30.5103C89.9914 30.5103 90.4046 29.8084 91.0549 29.6548C91.0549 29.6548 90.4818 29.4245 90.085 29.4684C90.085 29.4684 90.1071 28.2237 89.2585 27.7466C89.253 27.7521 88.746 27.4615 88.3658 27.5327Z" fill="#557583"/>
<path d="M88.0737 30.2146C88.0737 30.2146 88.2225 30.6752 88.7074 30.8946C88.8727 30.9713 89.0601 30.9987 89.2419 30.9823C89.4183 30.9658 89.6773 30.9275 89.8591 30.8397C89.8591 30.8397 90.063 31.251 90.2669 31.4429C90.2669 31.4429 90.2504 30.8397 90.592 30.4943C90.592 30.4943 90.1457 30.571 89.9142 30.7575C89.9142 30.7575 89.4403 29.9679 88.7185 30.0062C88.7129 30.0008 88.2831 30.0172 88.0737 30.2146Z" fill="#003042"/>
<path d="M88.3989 29.4579C88.3989 29.4579 88.4871 29.7266 88.7681 29.8527C88.8673 29.8966 88.972 29.9131 89.0767 29.9021C89.1814 29.8911 89.3302 29.8692 89.4349 29.8198C89.4349 29.8198 89.5506 30.0611 89.6718 30.1708C89.6718 30.1708 89.6608 29.8198 89.8647 29.617C89.8647 29.617 89.6057 29.6608 89.4679 29.7705C89.4679 29.7705 89.1924 29.3099 88.7736 29.3318C88.7736 29.3318 88.5257 29.3428 88.3989 29.4579Z" fill="#003042"/>
<path d="M88.4315 31.0033C88.4315 31.0033 88.3654 31.261 88.5252 31.5022C88.5803 31.5845 88.6574 31.6503 88.7455 31.6942C88.8337 31.738 88.9659 31.7984 89.0706 31.8093C89.0706 31.8093 89.043 32.0561 89.0816 32.2041C89.0816 32.2041 89.2524 31.9245 89.5113 31.8587C89.5113 31.8587 89.2799 31.7654 89.1202 31.7819C89.1202 31.7819 89.1312 31.2774 88.7896 31.0855C88.7896 31.091 88.5858 30.9758 88.4315 31.0033Z" fill="#CDD7D8"/>
<path d="M87.1086 25.1855C87.1086 25.1855 86.9106 25.3171 86.8665 25.5749C86.85 25.6626 86.8665 25.7503 86.894 25.8381C86.9271 25.9203 86.9766 26.0355 87.0426 26.1122C87.0426 26.1122 86.872 26.2603 86.8115 26.3809C86.8115 26.3809 87.0921 26.2932 87.3067 26.4084C87.3067 26.4084 87.2131 26.2055 87.0921 26.1232C87.0921 26.1232 87.4057 25.7942 87.2902 25.4597C87.2957 25.4597 87.2296 25.2623 87.1086 25.1855Z" fill="#003042"/>
<path d="M89.7433 26.2051C89.7433 26.2051 89.5945 26.3751 89.6221 26.6163C89.6331 26.6986 89.6661 26.7808 89.7157 26.8466C89.7653 26.9124 89.8424 27.0057 89.9196 27.055C89.9196 27.055 89.8039 27.2305 89.7763 27.3621C89.7763 27.3621 90.0132 27.214 90.2336 27.2634C90.2336 27.2634 90.0958 27.1044 89.9636 27.0605C89.9636 27.0605 90.162 26.6821 89.9746 26.408C89.9802 26.408 89.87 26.238 89.7433 26.2051Z" fill="#CDD7D8"/>
<path d="M88.955 26.6822C88.955 26.6822 88.8723 26.9508 89.0321 27.2086C89.0872 27.2963 89.1643 27.3731 89.258 27.4224C89.3461 27.4718 89.4838 27.5376 89.5995 27.554C89.5995 27.554 89.561 27.8117 89.594 27.9708C89.594 27.9708 89.7813 27.6801 90.0623 27.6253C90.0623 27.6253 89.8254 27.5156 89.6546 27.5266C89.6546 27.5266 89.6877 27.0002 89.3351 26.7809C89.3296 26.7918 89.1202 26.6602 88.955 26.6822Z" fill="#003042"/>
<path d="M87.9521 28.6455C87.9521 28.6455 87.7263 28.7936 87.6822 29.0787C87.6657 29.1774 87.6822 29.2761 87.7152 29.3693C87.7483 29.4625 87.8089 29.5941 87.8805 29.6764C87.8805 29.6764 87.6932 29.8409 87.6216 29.978C87.6216 29.978 87.9411 29.8793 88.178 30.0109C88.178 30.0109 88.0678 29.7861 87.9356 29.6928C87.9356 29.6928 88.2827 29.3255 88.1615 28.9526C88.156 28.9526 88.0844 28.7278 87.9521 28.6455Z" fill="#003042"/>
<path d="M90.9058 30.0713C90.9058 30.0713 90.6799 30.2193 90.6358 30.5045C90.6193 30.6032 90.6358 30.7019 90.6689 30.7951C90.7019 30.8883 90.7625 31.0199 90.8341 31.1022C90.8341 31.1022 90.6468 31.2667 90.5752 31.4038C90.5752 31.4038 90.8947 31.3051 91.1316 31.4367C91.1316 31.4367 91.0214 31.2118 90.8892 31.1186C90.8892 31.1186 91.2363 30.7512 91.1151 30.3784C91.1096 30.3784 91.038 30.1535 90.9058 30.0713Z" fill="#003042"/>
<path d="M90.7184 31.6291C90.7184 31.6291 90.5421 31.6181 90.4043 31.7552C90.3548 31.7991 90.3217 31.8594 90.3052 31.9197C90.2886 31.9801 90.2666 32.0733 90.2721 32.1446C90.2721 32.1446 90.1068 32.1555 90.0132 32.1994C90.0132 32.1994 90.217 32.2707 90.2942 32.4352C90.2942 32.4352 90.3272 32.2762 90.2942 32.172C90.2942 32.172 90.6247 32.1171 90.7018 31.8704C90.7073 31.8704 90.7569 31.7223 90.7184 31.6291Z" fill="#003042"/>
<path d="M89.5832 31.1348C89.5832 31.1348 89.5116 31.2719 89.5722 31.4254C89.5942 31.4802 89.6272 31.5241 89.6713 31.5625C89.7154 31.6009 89.7814 31.6502 89.842 31.6667C89.842 31.6667 89.7924 31.8037 89.7979 31.8915C89.7979 31.8915 89.9301 31.7544 90.0843 31.7544C90.0843 31.7544 89.9686 31.6721 89.875 31.6612C89.875 31.6612 89.9466 31.3815 89.7759 31.228C89.7759 31.228 89.6768 31.1348 89.5832 31.1348Z" fill="#003042"/>
<path d="M89.6374 31.9414C89.6374 31.9414 89.555 31.9633 89.5055 32.0401C89.489 32.0675 89.4835 32.1004 89.4835 32.1333C89.4835 32.1662 89.489 32.2101 89.5 32.243C89.5 32.243 89.4231 32.2704 89.3901 32.3033C89.3901 32.3033 89.4945 32.3088 89.555 32.3746C89.555 32.3746 89.5495 32.2978 89.5165 32.254C89.5165 32.254 89.6649 32.1827 89.6649 32.0566C89.6649 32.0566 89.6704 31.9798 89.6374 31.9414Z" fill="#003042"/>
<path d="M86.7677 23.9903C86.7677 23.9903 86.6299 24.3194 86.7952 24.6758C86.8503 24.7964 86.944 24.9006 87.0541 24.9774C87.1588 25.0541 87.3241 25.1583 87.4673 25.1967C87.4673 25.1967 87.3792 25.5257 87.4012 25.7341C87.4012 25.7341 87.6822 25.3886 88.0458 25.3557C88.0458 25.3557 87.7538 25.1857 87.5334 25.1748C87.5334 25.1748 87.6491 24.5058 87.2249 24.1768C87.2304 24.1823 86.9825 23.9849 86.7677 23.9903Z" fill="#CDD7D8"/>
<path d="M79.6367 17.1523C79.6367 17.1523 79.9618 17.4319 80.4302 17.3826C80.59 17.3661 80.7443 17.3003 80.8711 17.2071C80.9978 17.1139 81.1796 16.9713 81.2733 16.8178C81.2733 16.8178 81.615 17.0371 81.8574 17.092C81.8574 17.092 81.5709 16.6423 81.6701 16.2256C81.6701 16.2256 81.367 16.4888 81.2733 16.7355C81.2733 16.7355 80.5514 16.3517 80.0224 16.7081C80.028 16.6972 79.7084 16.9055 79.6367 17.1523Z" fill="#003042"/>
<path d="M82.1831 15.9848C82.1831 15.9848 82.3098 16.4125 82.7507 16.6264C82.8995 16.6976 83.0703 16.7305 83.2356 16.7196C83.4009 16.7086 83.6379 16.6812 83.8087 16.6044C83.8087 16.6044 83.985 16.9883 84.1669 17.1692C84.1669 17.1692 84.1669 16.6154 84.492 16.3028C84.492 16.3028 84.0787 16.3631 83.8583 16.5276C83.8583 16.5276 83.4395 15.7929 82.7782 15.8038C82.7782 15.8038 82.3815 15.8093 82.1831 15.9848Z" fill="#003042"/>
<path d="M73.1953 19.0277C73.1953 19.0277 73.4653 19.2964 73.8841 19.2744C74.0274 19.2689 74.1651 19.2196 74.2864 19.1428C74.4021 19.0661 74.5729 18.9509 74.6666 18.8248C74.6666 18.8248 74.9531 19.0386 75.168 19.099C75.168 19.099 74.9421 18.6877 75.0523 18.3203C75.0523 18.3203 74.7713 18.5342 74.6721 18.748C74.6721 18.748 74.0549 18.3697 73.57 18.6493C73.5645 18.6493 73.2725 18.8138 73.1953 19.0277Z" fill="#003042"/>
<path d="M75.4106 18.9784C75.4106 18.9784 75.5043 19.2581 75.8074 19.3897C75.9121 19.4336 76.0223 19.45 76.1325 19.4391C76.2427 19.4281 76.4025 19.4007 76.5127 19.3458C76.5127 19.3458 76.6395 19.5981 76.7662 19.7132C76.7662 19.7132 76.7497 19.3458 76.9591 19.1265C76.9591 19.1265 76.6836 19.1813 76.5458 19.2965C76.5458 19.2965 76.2482 18.8194 75.8074 18.8468C75.8019 18.8414 75.5374 18.8578 75.4106 18.9784Z" fill="#003042"/>
<path d="M77.8076 18.8304C77.8076 18.8304 78.039 18.9401 78.2924 18.8359C78.3806 18.803 78.4577 18.7427 78.5183 18.6659C78.5734 18.5946 78.656 18.4795 78.6891 18.3808C78.6891 18.3808 78.915 18.452 79.0637 18.4466C79.0637 18.4466 78.8268 18.2382 78.8213 17.9805C78.8213 17.9805 78.6891 18.1779 78.6781 18.3314C78.6781 18.3314 78.2098 18.2272 77.9619 18.5124C77.9619 18.5124 77.8131 18.6824 77.8076 18.8304Z" fill="#003042"/>
<path d="M81.5933 19.6359C81.5933 19.6359 81.8357 19.8662 82.1994 19.8388C82.3261 19.8279 82.4419 19.784 82.5466 19.7182C82.6458 19.6524 82.7945 19.5427 82.8717 19.433C82.8717 19.433 83.1252 19.614 83.3125 19.6633C83.3125 19.6633 83.1031 19.3069 83.1968 18.9834C83.1968 18.9834 82.9543 19.1753 82.8772 19.3618C82.8772 19.3618 82.3317 19.0437 81.9129 19.3014C81.9074 19.3014 81.6539 19.4495 81.5933 19.6359Z" fill="#003042"/>
<path d="M87.4946 17.1194C87.4946 17.1194 87.5718 17.3498 87.8197 17.4539C87.9023 17.4923 87.996 17.5033 88.0896 17.4923C88.1778 17.4814 88.31 17.4594 88.3981 17.4156C88.3981 17.4156 88.5028 17.6184 88.6075 17.7171C88.6075 17.7171 88.5965 17.4156 88.7617 17.2346C88.7617 17.2346 88.5359 17.2785 88.4202 17.3717C88.4202 17.3717 88.1723 16.9769 87.8142 17.0043C87.8197 17.0098 87.6048 17.0207 87.4946 17.1194Z" fill="#003042"/>
<path d="M82.6128 17.5362C82.6128 17.5362 82.756 17.6075 82.9158 17.5417C82.9709 17.5197 83.0205 17.4813 83.0535 17.4375C83.0921 17.3936 83.1417 17.3223 83.1582 17.262C83.1582 17.262 83.3014 17.3059 83.3951 17.3004C83.3951 17.3004 83.2464 17.1688 83.2408 17.0098C83.2408 17.0098 83.1582 17.1304 83.1527 17.2291C83.1527 17.2291 82.8552 17.1633 82.7064 17.3388C82.7064 17.3388 82.6183 17.443 82.6128 17.5362Z" fill="#003042"/>
<path d="M84.1445 19.0823C84.1445 19.0823 84.2106 19.2578 84.4035 19.3346C84.4696 19.362 84.5412 19.3675 84.6128 19.3565C84.6789 19.3455 84.7836 19.3291 84.8497 19.2907C84.8497 19.2907 84.9379 19.4442 85.0205 19.5155C85.0205 19.5155 85.004 19.2852 85.1252 19.1426C85.1252 19.1426 84.9544 19.181 84.8662 19.2578C84.8662 19.2578 84.6679 18.9617 84.3869 18.9891C84.3869 18.9891 84.2217 19.0055 84.1445 19.0823Z" fill="#003042"/>
<path d="M84.646 16.3194C84.646 16.3194 84.7286 16.4729 84.9104 16.5223C84.971 16.5387 85.0372 16.5387 85.1033 16.5223C85.1639 16.5058 85.252 16.4784 85.3126 16.4345C85.3126 16.4345 85.4063 16.5661 85.4944 16.621C85.4944 16.621 85.4503 16.4126 85.555 16.2646C85.555 16.2646 85.4008 16.3194 85.3291 16.3962C85.3291 16.3962 85.1143 16.1494 84.8609 16.2042C84.8609 16.2042 84.7066 16.2371 84.646 16.3194Z" fill="#003042"/>
<path d="M76.4023 15.8081C76.4023 15.8081 76.518 15.9781 76.7384 16.011C76.8155 16.022 76.8927 16.011 76.9643 15.9836C77.0359 15.9562 77.1351 15.9123 77.1957 15.852C77.1957 15.852 77.3279 15.9946 77.4326 16.0494C77.4326 16.0494 77.3554 15.8081 77.4546 15.6272C77.4546 15.6272 77.2838 15.7094 77.2122 15.8136C77.2122 15.8136 76.9257 15.5504 76.6392 15.6491C76.6392 15.6491 76.4629 15.7039 76.4023 15.8081Z" fill="#557583"/>
<path d="M80.4307 19.0228C80.4307 19.0228 80.4968 19.2476 80.7337 19.3573C80.8163 19.3956 80.9045 19.4066 80.9926 19.4011C81.0808 19.3956 81.2075 19.3792 81.2956 19.3353C81.2956 19.3353 81.3893 19.5382 81.4884 19.6314C81.4884 19.6314 81.4829 19.3408 81.6537 19.1763C81.6537 19.1763 81.4389 19.2092 81.3232 19.2969C81.3232 19.2969 81.0973 18.9131 80.7502 18.9241C80.7392 18.9295 80.5353 18.9295 80.4307 19.0228Z" fill="#003042"/>
<path d="M86.7734 19.3738C86.7734 19.3738 86.9718 19.5329 87.2417 19.4945C87.3354 19.478 87.4235 19.4396 87.5006 19.3848C87.5723 19.33 87.6769 19.2368 87.732 19.149C87.732 19.149 87.9359 19.2697 88.0791 19.2971C88.0791 19.2971 87.9028 19.0393 87.9524 18.7871C87.9524 18.7871 87.7816 18.9461 87.732 19.0942C87.732 19.0942 87.3023 18.8858 86.9938 19.0997C86.9938 19.1052 86.812 19.2313 86.7734 19.3738Z" fill="#003042"/>
<path d="M89.4673 21.7588C89.4673 21.7588 89.6215 21.9617 89.897 21.9891C89.9907 22 90.0843 21.9781 90.1725 21.9397C90.2551 21.9013 90.3818 21.841 90.4534 21.7643C90.4534 21.7643 90.6242 21.9342 90.7564 21.9946C90.7564 21.9946 90.6463 21.7039 90.7564 21.4736C90.7564 21.4736 90.5471 21.5888 90.4645 21.7149C90.4645 21.7149 90.0953 21.4078 89.7483 21.5449C89.7483 21.5504 89.5389 21.6272 89.4673 21.7588Z" fill="#003042"/>
<path d="M93.0054 22.9482C93.0054 22.9482 93.066 23.1456 93.2698 23.2443C93.3414 23.2772 93.4186 23.2882 93.4957 23.2882C93.5728 23.2827 93.683 23.2717 93.7601 23.2333C93.7601 23.2333 93.8428 23.4088 93.9309 23.4965C93.9309 23.4965 93.9309 23.2388 94.0797 23.0907C94.0797 23.0907 93.8868 23.1182 93.7877 23.2004C93.7877 23.2004 93.5893 22.8604 93.2863 22.8714C93.2808 22.8604 93.0935 22.8659 93.0054 22.9482Z" fill="#557583"/>
<path d="M96.9288 21.0291C96.9288 21.0291 96.8627 21.2265 96.9674 21.4239C97.0059 21.4897 97.061 21.5501 97.1271 21.5884C97.1932 21.6268 97.2924 21.6817 97.375 21.6981C97.375 21.6981 97.3365 21.89 97.3585 22.0107C97.3585 22.0107 97.5073 21.8023 97.7166 21.7694C97.7166 21.7694 97.5458 21.6817 97.4191 21.6871C97.4191 21.6871 97.4632 21.2978 97.2043 21.1223C97.2043 21.1223 97.0555 21.0182 96.9288 21.0291Z" fill="#557583"/>
<path d="M99.3369 23.4476C99.3369 23.4476 99.4251 23.7437 99.7282 23.8863C99.8329 23.9356 99.9486 23.9575 100.064 23.9466C100.174 23.9411 100.345 23.9192 100.461 23.8643C100.461 23.8643 100.582 24.1275 100.709 24.2536C100.709 24.2536 100.704 23.8698 100.929 23.656C100.929 23.656 100.643 23.6998 100.494 23.815C100.494 23.815 100.202 23.3105 99.7447 23.3215C99.7502 23.3215 99.4747 23.3215 99.3369 23.4476Z" fill="#003042"/>
<path d="M98.6482 26.6666C98.6482 26.6666 98.5986 26.9902 98.8245 27.2698C98.9016 27.363 99.0063 27.4398 99.1221 27.4837C99.2323 27.5275 99.4031 27.5824 99.5409 27.5824C99.5409 27.5824 99.5353 27.8949 99.6015 28.0704C99.6015 28.0704 99.7723 27.703 100.092 27.5933C100.092 27.5933 99.7943 27.5056 99.6015 27.5495C99.6015 27.5495 99.5574 26.9298 99.1055 26.7324C99.1 26.7324 98.8355 26.6118 98.6482 26.6666Z" fill="#003042"/>
<path d="M100.251 27.8727C100.251 27.8727 100.384 28.2566 100.797 28.432C100.94 28.4924 101.095 28.5143 101.243 28.4978C101.392 28.4814 101.613 28.4485 101.761 28.3662C101.761 28.3662 101.938 28.7062 102.114 28.8652C102.114 28.8652 102.092 28.3608 102.373 28.0592C102.373 28.0592 101.998 28.1359 101.805 28.295C101.805 28.295 101.392 27.6369 100.786 27.6808C100.791 27.6808 100.428 27.7027 100.251 27.8727Z" fill="#003042"/>
<path d="M103.894 27.6866C103.894 27.6866 104.015 28.1088 104.44 28.3172C104.588 28.3885 104.748 28.4214 104.913 28.4104C105.073 28.405 105.31 28.3775 105.476 28.3063C105.476 28.3063 105.641 28.6846 105.823 28.8656C105.823 28.8656 105.828 28.3227 106.148 28.0211C106.148 28.0211 105.74 28.0759 105.525 28.235C105.525 28.235 105.123 27.5111 104.478 27.5166C104.478 27.5221 104.087 27.5221 103.894 27.6866Z" fill="#003042"/>
<path d="M106.401 28.7777C106.401 28.7777 106.528 29.1342 106.903 29.2932C107.035 29.348 107.173 29.3645 107.316 29.348C107.454 29.3316 107.652 29.2987 107.79 29.2274C107.79 29.2274 107.955 29.5399 108.115 29.688C108.115 29.688 108.093 29.2219 108.352 28.9477C108.352 28.9477 108.005 29.019 107.829 29.1671C107.829 29.1671 107.448 28.5639 106.892 28.6078C106.897 28.6023 106.567 28.6242 106.401 28.7777Z" fill="#003042"/>
<path d="M105.365 35.9336C105.365 35.9336 105.15 36.2791 105.271 36.7068C105.316 36.8548 105.398 36.9864 105.503 37.0961C105.607 37.2003 105.773 37.3483 105.933 37.4141C105.933 37.4141 105.778 37.7651 105.762 38.0009C105.762 38.0009 106.142 37.6664 106.555 37.6938C106.555 37.6938 106.263 37.4525 106.015 37.4032C106.015 37.4032 106.269 36.6684 105.855 36.2297C105.85 36.2297 105.607 35.961 105.365 35.9336Z" fill="#003042"/>
<path d="M106.302 28.1794C106.302 28.1794 106.545 28.4152 106.908 28.3933C107.035 28.3878 107.156 28.3439 107.261 28.2781C107.366 28.2123 107.515 28.1027 107.592 27.993C107.592 27.993 107.851 28.1794 108.038 28.2343C108.038 28.2343 107.834 27.8724 107.933 27.5488C107.933 27.5488 107.685 27.7407 107.603 27.9272C107.603 27.9272 107.057 27.5982 106.627 27.8504C106.627 27.8449 106.368 27.993 106.302 28.1794Z" fill="#003042"/>
<path d="M106.594 30.6143C106.594 30.6143 106.473 30.7678 106.506 30.9762C106.517 31.0475 106.55 31.1133 106.594 31.1736C106.638 31.2284 106.71 31.3052 106.776 31.349C106.776 31.349 106.682 31.5081 106.666 31.6177C106.666 31.6177 106.864 31.4806 107.057 31.5135C107.057 31.5135 106.93 31.3819 106.82 31.349C106.82 31.349 106.98 31.0146 106.809 30.7842C106.809 30.7842 106.71 30.6417 106.594 30.6143Z" fill="#003042"/>
<path d="M106.561 31.6728C106.561 31.6728 106.501 31.8702 106.616 32.0621C106.655 32.1279 106.716 32.1827 106.782 32.2211C106.848 32.2595 106.947 32.3088 107.03 32.3253C107.03 32.3253 106.996 32.5172 107.024 32.6324C107.024 32.6324 107.167 32.4185 107.371 32.3801C107.371 32.3801 107.195 32.2979 107.068 32.3033C107.068 32.3033 107.096 31.914 106.837 31.7495C106.837 31.755 106.682 31.6563 106.561 31.6728Z" fill="#003042"/>
<path d="M105.31 28.8438C105.31 28.8438 105.029 29.1782 105.101 29.6498C105.123 29.8088 105.194 29.9624 105.293 30.094C105.393 30.2201 105.547 30.4011 105.701 30.4888C105.701 30.4888 105.486 30.8397 105.437 31.0865C105.437 31.0865 105.888 30.7849 106.318 30.8726C106.318 30.8726 106.043 30.571 105.789 30.4888C105.789 30.4888 106.158 29.7485 105.784 29.2221C105.784 29.2221 105.563 28.9096 105.31 28.8438Z" fill="#CDD7D8"/>
<path d="M101.276 25.5917C101.276 25.5917 101.387 25.9482 101.756 26.1236C101.883 26.1839 102.026 26.2059 102.164 26.2004C102.301 26.1894 102.5 26.1675 102.643 26.1017C102.643 26.1017 102.792 26.4197 102.946 26.5733C102.946 26.5733 102.941 26.1127 103.216 25.8495C103.216 25.8495 102.869 25.9043 102.687 26.0414C102.687 26.0414 102.334 25.4272 101.778 25.4437C101.772 25.4382 101.442 25.4437 101.276 25.5917Z" fill="#003042"/>
<path d="M102.819 26.7871C102.819 26.7871 102.621 27.0668 102.704 27.4287C102.731 27.5548 102.797 27.6699 102.88 27.7632C102.963 27.8564 103.095 27.988 103.222 28.0483C103.222 28.0483 103.073 28.3334 103.051 28.5308C103.051 28.5308 103.381 28.2676 103.728 28.3115C103.728 28.3115 103.492 28.0977 103.288 28.0428C103.288 28.0428 103.53 27.4451 103.205 27.0558C103.211 27.0558 103.018 26.82 102.819 26.7871Z" fill="#003042"/>
<path d="M103.359 28.5632C103.359 28.5632 103.459 28.8813 103.784 29.0403C103.899 29.0951 104.021 29.1171 104.147 29.1061C104.269 29.0951 104.45 29.0732 104.577 29.0184C104.577 29.0184 104.709 29.3035 104.847 29.4406C104.847 29.4406 104.842 29.0293 105.084 28.7881C105.084 28.7881 104.776 28.8374 104.61 28.958C104.61 28.958 104.296 28.4097 103.8 28.4261C103.806 28.4316 103.508 28.4371 103.359 28.5632Z" fill="#003042"/>
<path d="M101.006 27.4067C101.006 27.4067 101.05 27.5273 101.183 27.5767C101.227 27.5931 101.276 27.5986 101.326 27.5931C101.37 27.5877 101.442 27.5712 101.486 27.5493C101.486 27.5493 101.546 27.6535 101.601 27.7028C101.601 27.7028 101.59 27.5438 101.673 27.4506C101.673 27.4506 101.557 27.478 101.497 27.5273C101.497 27.5273 101.359 27.3245 101.172 27.3464C101.172 27.3409 101.056 27.3519 101.006 27.4067Z" fill="#003042"/>
<path d="M103.492 27.0503C103.492 27.0503 103.536 27.1709 103.668 27.2202C103.712 27.2367 103.762 27.2422 103.811 27.2367C103.855 27.2312 103.927 27.2148 103.971 27.1928C103.971 27.1928 104.032 27.297 104.087 27.3464C104.087 27.3464 104.076 27.1873 104.158 27.0941C104.158 27.0941 104.043 27.1215 103.982 27.1709C103.982 27.1709 103.844 26.968 103.657 26.9899C103.657 26.9845 103.541 26.9954 103.492 27.0503Z" fill="#003042"/>
<path d="M102.406 27.291C102.406 27.291 102.285 27.4391 102.318 27.642C102.329 27.7132 102.362 27.779 102.406 27.8339C102.45 27.8887 102.516 27.9655 102.583 28.0039C102.583 28.0039 102.489 28.1574 102.472 28.2671C102.472 28.2671 102.665 28.1355 102.852 28.1684C102.852 28.1684 102.731 28.0422 102.621 28.0039C102.621 28.0039 102.775 27.6803 102.61 27.4555C102.616 27.45 102.516 27.3184 102.406 27.291Z" fill="#003042"/>
<path d="M105.707 27.7352C105.707 27.7352 105.855 27.8558 106.059 27.8229C106.131 27.8119 106.197 27.779 106.252 27.7352C106.307 27.6913 106.384 27.6255 106.423 27.5597C106.423 27.5597 106.577 27.6529 106.687 27.6694C106.687 27.6694 106.555 27.4775 106.588 27.291C106.588 27.291 106.461 27.4117 106.423 27.5213C106.423 27.5213 106.098 27.3678 105.872 27.5323C105.872 27.5323 105.734 27.6255 105.707 27.7352Z" fill="#003042"/>
<path d="M109.437 29.9453C109.437 29.9453 109.288 30.0385 109.25 30.2305C109.239 30.2963 109.244 30.3621 109.266 30.4224C109.288 30.4827 109.327 30.5704 109.371 30.6253C109.371 30.6253 109.244 30.7349 109.195 30.8227C109.195 30.8227 109.404 30.7623 109.563 30.8556C109.563 30.8556 109.497 30.7075 109.409 30.6417C109.409 30.6417 109.646 30.4059 109.569 30.1537C109.569 30.1537 109.525 30.0056 109.437 29.9453Z" fill="#003042"/>
<path d="M110.043 29.1559C110.043 29.1559 110.099 29.3369 110.28 29.4246C110.341 29.4575 110.413 29.4685 110.484 29.463C110.55 29.4575 110.655 29.4466 110.721 29.4137C110.721 29.4137 110.793 29.5727 110.87 29.6495C110.87 29.6495 110.87 29.4192 111.002 29.2875C111.002 29.2875 110.831 29.315 110.738 29.3808C110.738 29.3808 110.561 29.0737 110.286 29.0792C110.291 29.0847 110.126 29.0847 110.043 29.1559Z" fill="#003042"/>
<path d="M110.242 30.4169C110.242 30.4169 110.313 30.6637 110.567 30.7843C110.655 30.8282 110.749 30.8446 110.848 30.8336C110.941 30.8282 111.079 30.8117 111.178 30.7678C111.178 30.7678 111.277 30.9872 111.388 31.0914C111.388 31.0914 111.388 30.7733 111.575 30.5924C111.575 30.5924 111.338 30.6308 111.211 30.724C111.211 30.724 110.969 30.3017 110.589 30.3127C110.583 30.3127 110.357 30.3182 110.242 30.4169Z" fill="#003042"/>
<path d="M111.024 29.9674C111.024 29.9674 111.217 30.1867 111.537 30.1977C111.647 30.2032 111.757 30.1703 111.851 30.1209C111.945 30.0716 112.082 29.9893 112.16 29.8961C112.16 29.8961 112.369 30.077 112.529 30.1374C112.529 30.1374 112.38 29.8084 112.485 29.5342C112.485 29.5342 112.253 29.6822 112.171 29.8413C112.171 29.8413 111.724 29.5122 111.333 29.7042C111.333 29.7042 111.096 29.8138 111.024 29.9674Z" fill="#003042"/>
<path d="M99.7612 25.1362C99.7612 25.1362 100.037 25.4323 100.478 25.4268C100.626 25.4268 100.775 25.3829 100.907 25.3061C101.034 25.2349 101.216 25.1142 101.321 24.9881C101.321 24.9881 101.613 25.2294 101.839 25.3007C101.839 25.3007 101.618 24.8565 101.756 24.4727C101.756 24.4727 101.447 24.6865 101.337 24.9059C101.337 24.9059 100.704 24.4781 100.175 24.7523C100.169 24.7578 99.8494 24.9168 99.7612 25.1362Z" fill="#003042"/>
<path d="M97.3476 25.3447C97.3476 25.3447 97.2595 25.5421 97.3586 25.7505C97.3917 25.8218 97.4468 25.8876 97.5074 25.9315C97.568 25.9753 97.6672 26.0411 97.7553 26.0631C97.7553 26.0631 97.7002 26.255 97.7112 26.3811C97.7112 26.3811 97.882 26.1782 98.0969 26.1618C98.0969 26.1618 97.9261 26.0576 97.7939 26.0521C97.7939 26.0521 97.871 25.6518 97.6176 25.4544C97.6231 25.4654 97.4743 25.3447 97.3476 25.3447Z" fill="#003042"/>
<path d="M88.7515 18.6613C88.7515 18.6613 88.8231 18.9025 89.0655 19.0177C89.1481 19.0561 89.2418 19.078 89.3354 19.0725C89.4291 19.067 89.5613 19.0506 89.655 19.0067C89.655 19.0067 89.7541 19.2206 89.8533 19.3248C89.8533 19.3248 89.8533 19.0177 90.0351 18.8422C90.0351 18.8422 89.8037 18.8751 89.6825 18.9683C89.6825 18.9683 89.4511 18.5571 89.082 18.5626C89.082 18.5626 88.8616 18.5626 88.7515 18.6613Z" fill="#003042"/>
<path d="M82.7285 19.9759C82.7285 19.9759 82.7946 20.2007 83.0315 20.3104C83.1142 20.3488 83.2023 20.3652 83.2905 20.3542C83.3786 20.3488 83.5053 20.3323 83.5935 20.2884C83.5935 20.2884 83.6871 20.4913 83.7863 20.5845C83.7863 20.5845 83.7808 20.2939 83.9516 20.1294C83.9516 20.1294 83.7367 20.1623 83.621 20.2501C83.621 20.2501 83.3951 19.8662 83.048 19.8772C83.0425 19.8827 82.8332 19.8882 82.7285 19.9759Z" fill="#003042"/>
<path d="M88.0298 19.7573C88.0298 19.7573 88.1785 19.8944 88.3934 19.8725C88.465 19.867 88.5366 19.8396 88.6027 19.7957C88.6634 19.7573 88.746 19.6915 88.7956 19.6203C88.7956 19.6203 88.9498 19.7244 89.06 19.7573C89.06 19.7573 88.9333 19.549 88.9829 19.3516C88.9829 19.3516 88.8396 19.4667 88.7956 19.5819C88.7956 19.5819 88.4705 19.3954 88.2171 19.5544C88.2116 19.5544 88.0628 19.6477 88.0298 19.7573Z" fill="#003042"/>
<path d="M91.6445 18.9448C91.6445 18.9448 91.8263 19.0929 92.0798 19.049C92.1679 19.0326 92.245 18.9997 92.3167 18.9448C92.3828 18.89 92.4764 18.8077 92.526 18.7255C92.526 18.7255 92.7133 18.8352 92.851 18.8626C92.851 18.8626 92.6858 18.6268 92.7298 18.3965C92.7298 18.3965 92.5701 18.5445 92.526 18.6816C92.526 18.6816 92.1238 18.4897 91.8484 18.6926C91.8484 18.6926 91.6776 18.8132 91.6445 18.9448Z" fill="#557583"/>
<path d="M92.311 21.1774C92.311 21.1774 92.3606 21.3693 92.5534 21.468C92.6196 21.5009 92.6967 21.5173 92.7683 21.5118C92.8399 21.5118 92.9501 21.5009 93.0217 21.468C93.0217 21.468 93.0933 21.638 93.176 21.7257C93.176 21.7257 93.1815 21.4789 93.3302 21.3419C93.3302 21.3419 93.1484 21.3638 93.0493 21.4351C93.0493 21.4351 92.873 21.1006 92.5755 21.1006C92.581 21.1061 92.4047 21.1006 92.311 21.1774Z" fill="#CDD7D8"/>
<path d="M76.5127 20.2069C76.5127 20.2069 76.6284 20.3056 76.7882 20.2837C76.8432 20.2782 76.8983 20.2563 76.9424 20.2234C76.9865 20.1905 77.0526 20.1411 77.0857 20.0863C77.0857 20.0863 77.2069 20.1631 77.2895 20.1795C77.2895 20.1795 77.1903 20.0205 77.2234 19.8779C77.2234 19.8779 77.1187 19.9711 77.0857 20.0589C77.0857 20.0589 76.8322 19.9273 76.6504 20.0479C76.6449 20.0479 76.5347 20.1247 76.5127 20.2069Z" fill="#003042"/>
<path d="M81.2959 15.7212C81.2959 15.7212 81.3951 15.8638 81.5769 15.8912C81.643 15.9022 81.7036 15.8912 81.7642 15.8693C81.8248 15.8473 81.9074 15.8089 81.9625 15.7596C81.9625 15.7596 82.0727 15.8802 82.1608 15.9241C82.1608 15.9241 82.0947 15.7212 82.1774 15.5677C82.1774 15.5677 82.0341 15.639 81.9735 15.7212C81.9735 15.7212 81.7366 15.4964 81.4942 15.5786C81.4942 15.5841 81.351 15.6335 81.2959 15.7212Z" fill="#003042"/>
<path d="M74.6943 16.9827C74.6943 16.9827 74.788 17.1033 74.9478 17.1143C75.0029 17.1198 75.0579 17.1088 75.113 17.0869C75.1626 17.065 75.2342 17.0266 75.2783 16.9827C75.2783 16.9827 75.3775 17.0814 75.4601 17.1143C75.4601 17.1143 75.394 16.9388 75.4546 16.8018C75.4546 16.8018 75.3334 16.873 75.2838 16.9498C75.2838 16.9498 75.0635 16.7689 74.8541 16.8566C74.8596 16.8566 74.7329 16.9059 74.6943 16.9827Z" fill="#003042"/>
<path d="M72.1704 20.4698C72.1704 20.4698 72.468 20.6672 72.8482 20.574C72.9804 20.5411 73.0962 20.4753 73.1953 20.3821C73.289 20.2943 73.4213 20.1518 73.4874 20.0202C73.4874 20.0202 73.7905 20.1682 73.9999 20.1847C73.9999 20.1847 73.7133 19.8447 73.7519 19.4883C73.7519 19.4883 73.5315 19.735 73.4819 19.9489C73.4819 19.9489 72.8482 19.7076 72.4459 20.0586C72.4459 20.0586 72.2035 20.2614 72.1704 20.4698Z" fill="#003042"/>
<path d="M73.5864 16.9718C73.5864 16.9718 73.884 17.1692 74.2642 17.076C74.3965 17.0431 74.5122 16.9773 74.6114 16.884C74.705 16.7963 74.8373 16.6537 74.9034 16.5221C74.9034 16.5221 75.2065 16.6702 75.4159 16.6866C75.4159 16.6866 75.1293 16.3467 75.1679 15.9902C75.1679 15.9902 74.9475 16.237 74.8979 16.4508C74.8979 16.4508 74.2642 16.2151 73.8619 16.5605C73.8564 16.555 73.6195 16.7634 73.5864 16.9718Z" fill="#CDD7D8"/>
<path d="M79.6313 15.6889C79.6313 15.6889 79.725 15.9796 80.0336 16.1167C80.1383 16.166 80.254 16.1825 80.3697 16.1715C80.4799 16.1605 80.6453 16.1386 80.761 16.0838C80.761 16.0838 80.8877 16.3415 81.02 16.4676C81.02 16.4676 81.0089 16.0892 81.2294 15.8644C81.2294 15.8644 80.9483 15.9138 80.7996 16.0344C80.7996 16.0344 80.4965 15.5354 80.0391 15.5573C80.0391 15.5573 79.7636 15.5683 79.6313 15.6889Z" fill="#CDD7D8"/>
<path d="M71.9834 17.0921C71.9834 17.0921 72.1542 17.613 72.7053 17.8598C72.8926 17.942 73.102 17.9749 73.3059 17.953C73.5043 17.9365 73.8018 17.8872 74.0057 17.7885C74.0057 17.7885 74.2372 18.2546 74.4686 18.4684C74.4686 18.4684 74.4466 17.7885 74.8323 17.3882C74.8323 17.3882 74.3253 17.4814 74.0608 17.6898C74.0608 17.6898 73.5153 16.8015 72.6998 16.8453C72.7108 16.8453 72.2203 16.8673 71.9834 17.0921Z" fill="#003042"/>
<path d="M70.2808 18.1117C70.2808 18.1117 70.5673 18.2653 70.8979 18.1446C71.0136 18.1062 71.1128 18.035 71.19 17.9417C71.2671 17.854 71.3718 17.7169 71.4214 17.5908C71.4214 17.5908 71.708 17.695 71.8953 17.695C71.8953 17.695 71.6088 17.4153 71.6143 17.0918C71.6143 17.0918 71.4379 17.3331 71.4104 17.5305C71.4104 17.5305 70.8208 17.3715 70.4957 17.7169C70.4902 17.7224 70.2918 17.9253 70.2808 18.1117Z" fill="#003042"/>
<path d="M75.4272 16.1161C75.4272 16.1161 75.4989 16.3464 75.7413 16.4616C75.8239 16.5 75.9176 16.5164 76.0057 16.5055C76.0939 16.5 76.2261 16.4835 76.3142 16.4397C76.3142 16.4397 76.4134 16.648 76.5126 16.7467C76.5126 16.7467 76.5071 16.4451 76.6833 16.2697C76.6833 16.2697 76.4575 16.308 76.3418 16.3958C76.3418 16.3958 76.1104 16.001 75.7468 16.0119C75.7468 16.0119 75.5319 16.0174 75.4272 16.1161Z" fill="#003042"/>
<path d="M72.4072 19.329C72.4072 19.329 72.4623 19.499 72.6441 19.5758C72.7047 19.6032 72.7708 19.6142 72.8369 19.6032C72.9031 19.5977 72.9967 19.5813 73.0628 19.5484C73.0628 19.5484 73.14 19.6964 73.2116 19.7677C73.2116 19.7677 73.2006 19.5484 73.3273 19.4168C73.3273 19.4168 73.162 19.4497 73.0794 19.5155C73.0794 19.5155 72.9031 19.2303 72.6386 19.2468C72.6386 19.2468 72.4788 19.2577 72.4072 19.329Z" fill="#003042"/>
<path d="M68.1865 17.9694C68.1865 17.9694 68.2967 18.1284 68.5061 18.1559C68.5777 18.1668 68.6493 18.1559 68.7154 18.1284C68.7815 18.101 68.8752 18.0571 68.9358 18.0078C68.9358 18.0078 69.057 18.1394 69.1561 18.1942C69.1561 18.1942 69.0845 17.9694 69.1727 17.7939C69.1727 17.7939 69.0129 17.8762 68.9413 17.9694C68.9413 17.9694 68.6713 17.7227 68.4014 17.8159C68.4069 17.8159 68.2471 17.8707 68.1865 17.9694Z" fill="#003042"/>
<path d="M69.311 17.7113C69.311 17.7113 69.3551 17.8868 69.5314 17.9745C69.592 18.0074 69.6581 18.0184 69.7242 18.0184C69.7903 18.0184 69.8895 18.0074 69.9556 17.98C69.9556 17.98 70.0217 18.1335 70.0933 18.2103C70.0933 18.2103 70.0989 17.991 70.2366 17.8648C70.2366 17.8648 70.0713 17.8868 69.9777 17.9471C69.9777 17.9471 69.8179 17.6455 69.5534 17.6455C69.5534 17.6455 69.3937 17.6455 69.311 17.7113Z" fill="#557583"/>
<path d="M67.145 20.0364C67.145 20.0364 67.3324 20.3928 67.7567 20.508C67.9055 20.5463 68.0597 20.5463 68.203 20.508C68.3463 20.4696 68.5557 20.4038 68.6879 20.3105C68.6879 20.3105 68.9084 20.6176 69.1012 20.7492C69.1012 20.7492 69.0075 20.2612 69.239 19.9267C69.239 19.9267 68.8808 20.0528 68.7155 20.2338C68.7155 20.2338 68.2196 19.6525 67.6354 19.7787C67.641 19.7732 67.2938 19.8445 67.145 20.0364Z" fill="#557583"/>
<path d="M74.0493 19.521C74.0493 19.521 74.1816 19.9213 74.6004 20.1023C74.7436 20.1681 74.9034 20.19 75.0577 20.1735C75.212 20.1571 75.4379 20.1242 75.5922 20.0474C75.5922 20.0474 75.7686 20.4038 75.9449 20.5684C75.9449 20.5684 75.9284 20.0474 76.2204 19.7458C76.2204 19.7458 75.8347 19.8171 75.6363 19.9761C75.6363 19.9761 75.223 19.2962 74.6004 19.3346C74.6004 19.3346 74.2312 19.351 74.0493 19.521Z" fill="#557583"/>
<path d="M79.6367 19.6644C79.6367 19.6644 79.78 19.9276 80.0996 19.9989C80.2098 20.0263 80.3255 20.0209 80.4302 19.988C80.5349 19.9605 80.6892 19.9057 80.7884 19.8289C80.7884 19.8289 80.9592 20.0538 81.1025 20.147C81.1025 20.147 81.0198 19.7851 81.1907 19.5328C81.1907 19.5328 80.9317 19.6315 80.8104 19.7741C80.8104 19.7741 80.4302 19.3519 80.0004 19.4615C80.0004 19.4615 79.7414 19.5219 79.6367 19.6644Z" fill="#557583"/>
<path d="M85.5439 17.69C85.5439 17.69 85.7368 18.3151 86.387 18.6112C86.6075 18.7154 86.8554 18.7537 87.0979 18.7373C87.3348 18.7208 87.6875 18.6715 87.93 18.5563C87.93 18.5563 88.1945 19.1102 88.4645 19.3734C88.4645 19.3734 88.4534 18.5673 88.9218 18.1012C88.9218 18.1012 88.3212 18.1999 88.0016 18.4467C88.0016 18.4467 87.3734 17.3829 86.4091 17.4158C86.4091 17.4158 85.8305 17.4322 85.5439 17.69Z" fill="#557583"/>
<path d="M86.7456 20.8489C86.7456 20.8489 86.8007 21.123 87.0652 21.282C87.1589 21.3369 87.2581 21.3643 87.3683 21.3643C87.473 21.3643 87.6218 21.3588 87.732 21.3204C87.732 21.3204 87.8201 21.5672 87.9248 21.6933C87.9248 21.6933 87.9524 21.3478 88.1728 21.1669C88.1728 21.1669 87.9083 21.1833 87.765 21.2766C87.765 21.2766 87.5391 20.794 87.1258 20.7666C87.1258 20.7721 86.8779 20.7502 86.7456 20.8489Z" fill="#CDD7D8"/>
<path d="M89.1426 17.9202C89.1426 17.9202 89.3134 18.4082 89.8314 18.6276C90.0077 18.7043 90.2061 18.7263 90.3989 18.7043C90.5863 18.6824 90.8618 18.6385 91.0547 18.5398C91.0547 18.5398 91.2806 18.973 91.501 19.1704C91.501 19.1704 91.468 18.5343 91.8261 18.1505C91.8261 18.1505 91.3522 18.2437 91.1098 18.4466C91.1098 18.4466 90.5863 17.6186 89.8204 17.6789C89.8204 17.6789 89.363 17.7063 89.1426 17.9202Z" fill="#CDD7D8"/>
<path d="M67.0181 18.3863C67.0181 18.3863 67.0401 18.5014 67.1448 18.5672C67.1833 18.5892 67.2219 18.6001 67.266 18.6056C67.3101 18.6056 67.3707 18.6056 67.4147 18.5947C67.4147 18.5947 67.4478 18.6988 67.4919 18.7482C67.4919 18.7482 67.5084 18.6056 67.5965 18.5343C67.5965 18.5343 67.4919 18.5398 67.4313 18.5727C67.4313 18.5727 67.3431 18.3753 67.1778 18.3589C67.1778 18.3589 67.0787 18.3479 67.0181 18.3863Z" fill="#003042"/>
<path d="M64.6211 18.9344C64.6211 18.9344 64.7809 19.1099 65.0398 19.1099C65.1279 19.1099 65.2161 19.0825 65.2932 19.0441C65.3703 19.0002 65.475 18.9344 65.5356 18.8576C65.5356 18.8576 65.7064 19.0002 65.8386 19.0441C65.8386 19.0441 65.7119 18.7809 65.789 18.5615C65.789 18.5615 65.6072 18.6876 65.5411 18.8138C65.5411 18.8138 65.172 18.5615 64.8635 18.7205C64.8635 18.7151 64.6762 18.8083 64.6211 18.9344Z" fill="#CDD7D8"/>
<mask id="mask0_1047_55028" style="mask-type:alpha" maskUnits="userSpaceOnUse" x="62" y="20" width="27" height="13">
<path d="M62.5149 20.1185C62.5149 20.1185 61.9804 20.442 62.2835 22.3173C62.5865 24.1927 64.3113 26.5231 65.3417 27.5102C66.3777 28.4972 68.8353 30.6193 71.6016 31.6118C74.3678 32.6043 77.0293 33.0759 80.286 32.9278C83.5426 32.7797 87.5928 31.705 88.2871 31.3705C88.2871 31.3705 87.0748 29.8242 86.7221 27.3511C86.6836 26.8631 86.7056 25.1248 86.5458 24.571C86.397 24.0446 86.105 22.3338 85.6586 21.5003C85.6145 21.4126 85.5429 21.3468 85.4547 21.3029C84.9698 21.0616 83.0247 20.3926 76.5224 20.6065C76.2744 20.6175 76.0264 20.6339 75.784 20.6558C74.7976 20.7545 71.7834 21.0177 68.9125 20.8478C68.9125 20.8478 67.5018 20.7381 65.9258 20.272C65.7385 20.2226 64.2121 20.0088 63.2533 20.0088C62.8951 20.0088 62.6196 20.0362 62.5149 20.1185Z" fill="#47A09D"/>
</mask>
<g mask="url(#mask0_1047_55028)">
<path d="M62.5437 19.8496L61.9707 21.7304V19.8496H62.5437Z" fill="#003042"/>
<path d="M69.8726 19.8496L66.6601 30.4162L61.9707 29.007V21.7304L62.5438 19.8496H69.8726Z" fill="#003042"/>
<path d="M77.2016 19.8486L73.3718 32.4386L66.6602 30.4152L69.8727 19.8486H77.2016Z" fill="#002F41"/>
<path d="M77.3997 19.8486L73.5534 32.4935L73.3716 32.4386L77.2013 19.8486H77.3997Z" fill="#002F41"/>
<path d="M77.5984 19.8486L73.7356 32.5483L73.5537 32.4935L77.4 19.8486H77.5984Z" fill="#002F41"/>
<path d="M77.791 19.8486L73.9117 32.6031L73.7354 32.5483L77.5982 19.8486H77.791Z" fill="#002F40"/>
<path d="M77.9893 19.8486L74.0935 32.658L73.9116 32.6031L77.791 19.8486H77.9893Z" fill="#002E3F"/>
<path d="M78.188 19.8486L74.2756 32.7128L74.0938 32.658L77.9896 19.8486H78.188Z" fill="#002E3F"/>
<path d="M78.4588 19.7004L74.3419 33.2419L74.0658 33.2286L78.1728 19.7381L78.4588 19.7004Z" fill="#002E3F"/>
<path d="M78.5788 19.8486L74.6334 32.817L74.457 32.7622L78.386 19.8486H78.5788Z" fill="#002D3E"/>
<path d="M78.7776 19.8486L74.8156 32.8718L74.6338 32.817L78.5793 19.8486H78.7776Z" fill="#002D3E"/>
<path d="M78.9763 19.8486L74.9978 32.9267L74.8159 32.8718L78.7779 19.8486H78.9763Z" fill="#002C3D"/>
<path d="M79.1685 19.8486L75.1734 32.9815L74.9971 32.9267L78.9756 19.8486H79.1685Z" fill="#002C3D"/>
<path d="M79.3673 19.8486L75.3557 33.0363L75.1738 32.9815L79.1689 19.8486H79.3673Z" fill="#002B3B"/>
<path d="M79.5654 19.8486L75.5373 33.0912L75.3555 33.0363L79.3671 19.8486H79.5654Z" fill="#002B3A"/>
<path d="M79.7581 19.8486L75.73 33.0912H75.5426H75.5371L79.5652 19.8486H79.7581Z" fill="#002A3A"/>
<path d="M79.9565 19.8486L75.9284 33.0912H75.73L79.7581 19.8486H79.9565Z" fill="#002A39"/>
<path d="M80.1552 19.8486L76.1271 33.0912H75.9287L79.9568 19.8486H80.1552Z" fill="#002939"/>
<path d="M80.3479 19.8486L76.3198 33.0912H76.127L80.1551 19.8486H80.3479Z" fill="#002938"/>
<path d="M80.5463 19.8486L76.5182 33.0912H76.3198L80.3479 19.8486H80.5463Z" fill="#002838"/>
<path d="M80.7446 19.8486L76.7164 33.0912H76.5181L80.5462 19.8486H80.7446Z" fill="#002737"/>
<path d="M80.9373 19.8486L76.9092 33.0912H76.7163L80.7444 19.8486H80.9373Z" fill="#002736"/>
<path d="M81.1362 19.8486L77.108 33.0912H76.9097L80.9378 19.8486H81.1362Z" fill="#012635"/>
<path d="M81.3344 19.8486L77.3063 33.0912H77.1079L81.136 19.8486H81.3344Z" fill="#032533"/>
<path d="M81.5271 19.8486L77.499 33.0912H77.3062L81.3343 19.8486H81.5271Z" fill="#032532"/>
<path d="M81.5382 19.8486L81.709 19.898L77.6974 33.0912H77.499L81.5271 19.8486H81.5382Z" fill="#042431"/>
<path d="M81.7089 19.8994L81.8907 19.9542L77.8956 33.0926H77.6973L81.7089 19.8994Z" fill="#052330"/>
<path d="M81.891 19.9541L82.0729 20.0089L78.0889 33.0924H77.896L81.891 19.9541Z" fill="#06232F"/>
<path d="M82.0724 20.0088L82.2487 20.0636L78.2868 33.0923H78.0884L82.0724 20.0088Z" fill="#07222E"/>
<path d="M82.2491 20.0635L82.4309 20.1183L78.4855 33.0922H78.2871L82.2491 20.0635Z" fill="#07212D"/>
<path d="M82.4308 20.1182L82.6127 20.173L78.6837 33.092H78.4854L82.4308 20.1182Z" fill="#07202C"/>
<path d="M82.6125 20.1729L82.7889 20.2277L78.8765 33.0919H78.6836L82.6125 20.1729Z" fill="#07202B"/>
<path d="M82.7889 20.2275L82.9707 20.2824L79.0748 33.0917H78.8765L82.7889 20.2275Z" fill="#07202A"/>
<path d="M82.9711 20.2832L83.1529 20.338L79.2736 33.0925H79.0752L82.9711 20.2832Z" fill="#071F29"/>
<path d="M83.1528 20.3379L83.3291 20.3927L79.4663 33.0924H79.2734L83.1528 20.3379Z" fill="#071E28"/>
<path d="M83.3291 20.3926L83.5109 20.4419L79.6647 33.0923H79.4663L83.3291 20.3926Z" fill="#061D27"/>
<path d="M83.5108 20.4414L83.6927 20.4962L79.8629 33.0917H79.6646L83.5108 20.4414Z" fill="#061D26"/>
<path d="M83.6925 20.4961L83.8744 20.5509L80.0557 33.0916H79.8628L83.6925 20.4961Z" fill="#061C26"/>
<path d="M83.8749 20.5518L84.0512 20.6066L80.2545 33.0924H80.0562L83.8749 20.5518Z" fill="#071C24"/>
<path d="M84.0511 20.6064L84.2329 20.6613L80.4528 33.0923H80.2544L84.0511 20.6064Z" fill="#071B23"/>
<path d="M84.2328 20.6611L84.4146 20.716L80.6455 33.0921H80.4526L84.2328 20.6611Z" fill="#071A23"/>
<path d="M84.4146 20.7158L84.591 20.7707L80.8439 33.092H80.6455L84.4146 20.7158Z" fill="#071922"/>
<path d="M84.5908 20.7705L84.7727 20.8253L81.0421 33.0918H80.8438L84.5908 20.7705Z" fill="#081821"/>
<path d="M84.773 20.8262L84.9549 20.881L81.2353 33.0927H81.0425L84.773 20.8262Z" fill="#081820"/>
<path d="M84.9549 20.8809L85.1312 20.9302L81.4337 33.0925H81.2354L84.9549 20.8809Z" fill="#08171F"/>
<path d="M85.1306 20.9297L85.3124 20.9845L81.6315 33.092H81.4331L85.1306 20.9297Z" fill="#09171E"/>
<path d="M85.3128 20.9844L85.4946 21.0392L81.8247 33.0918H81.6318L85.3128 20.9844Z" fill="#09161D"/>
<path d="M85.4946 21.04L85.671 21.0949L82.0231 33.0927H81.8247L85.4946 21.04Z" fill="#09161C"/>
<path d="M85.6709 21.0947L85.8527 21.1496L82.2213 33.0925H82.0229L85.6709 21.0947Z" fill="#09151A"/>
<path d="M85.8526 21.1484L86.0344 21.2033L82.4196 33.0914H82.2212L85.8526 21.1484Z" fill="#091419"/>
<path d="M86.0348 21.2041L86.2111 21.2589L82.6128 33.0922H82.4199L86.0348 21.2041Z" fill="#0A1318"/>
<path d="M86.2111 21.2588L86.3929 21.3136L82.8112 33.0921H82.6128L86.2111 21.2588Z" fill="#0A1217"/>
<path d="M86.3928 21.3135L86.5746 21.3683L83.0094 33.0919H82.811L86.3928 21.3135Z" fill="#0A1216"/>
<path d="M86.5745 21.3682L86.7564 21.423L83.2021 33.0918H83.0093L86.5745 21.3682Z" fill="#0A1115"/>
<path d="M86.7564 21.4229L86.9327 21.4722L83.4005 33.0916H83.2021L86.7564 21.4229Z" fill="#091013"/>
<path d="M86.9326 21.4727L87.1144 21.5275L83.5988 33.0921H83.4004L86.9326 21.4727Z" fill="#090F12"/>
<path d="M87.1148 21.5273L87.2966 21.5822L83.792 33.092H83.5991L87.1148 21.5273Z" fill="#080E11"/>
<path d="M87.2966 21.582L87.473 21.6369L83.9904 33.0918H83.792L87.2966 21.582Z" fill="#080D0F"/>
<path d="M87.4728 21.6377L87.6547 21.6925L84.1886 33.0926H83.9902L87.4728 21.6377Z" fill="#070C0E"/>
<path d="M87.655 21.6924L87.8369 21.7472L84.3818 33.0925H84.189L87.655 21.6924Z" fill="#070B0D"/>
<path d="M87.8369 21.7471L88.0132 21.8019L84.5802 33.0923H84.3818L87.8369 21.7471Z" fill="#06090B"/>
<path d="M88.0131 21.8018L88.1949 21.8566L84.7785 33.0922H84.5801L88.0131 21.8018Z" fill="#050709"/>
<path d="M88.1948 21.8564L88.2829 21.8784V22.2184L84.9712 33.092H84.7783L88.1948 21.8564Z" fill="#040507"/>
<path d="M88.283 22.8648L85.1696 33.0915H84.9712L88.283 22.2178V22.8648Z" fill="#030405"/>
<path d="M85.1699 33.0919L88.2833 22.8652V33.0919H85.1699Z" fill="#030405"/>
</g>
<path d="M79.1298 33.1371C76.5013 33.1371 74.1263 32.7093 71.564 31.7881C68.7261 30.7682 66.2134 28.5639 65.2656 27.6591C64.1635 26.6117 62.4773 24.2922 62.1742 22.4059C61.8711 20.558 62.3671 20.1522 62.4497 20.0974C62.9126 19.7629 65.7615 20.1851 65.9544 20.24C67.5028 20.6951 68.9079 20.8102 68.919 20.8102C71.8064 20.9802 74.8923 20.7061 75.7684 20.6183C76.0219 20.5909 76.2754 20.5745 76.5178 20.569C82.9209 20.3551 84.9377 20.9912 85.5053 21.2763C85.6155 21.3312 85.7037 21.4134 85.7588 21.5231C86.0949 22.1482 86.3429 23.2668 86.5082 24.0016C86.5633 24.2593 86.6129 24.4787 86.6515 24.6103C86.7672 25.0106 86.7892 25.9976 86.8058 26.7214C86.8113 27.012 86.8168 27.2643 86.8278 27.4068C87.1695 29.825 88.3542 31.3549 88.3652 31.3714L88.4479 31.481L88.3267 31.5414C87.6544 31.8594 83.6208 32.9561 80.287 33.1096C79.8957 33.1261 79.51 33.1371 79.1298 33.1371ZM62.5655 20.2838C62.5434 20.3003 62.1026 20.6567 62.3836 22.373C62.6812 24.1881 64.3674 26.5076 65.4143 27.5001C66.3511 28.3939 68.8363 30.5763 71.6356 31.5798C74.5396 32.6216 77.2066 33.0274 80.2759 32.8903C83.2956 32.7532 87.1419 31.7826 88.1117 31.3988C87.8252 30.9985 86.9105 29.5673 86.6129 27.4397V27.4343C86.6019 27.2862 86.5964 27.0285 86.5909 26.7324C86.5743 26.025 86.5523 25.0544 86.4421 24.6761C86.4035 24.5335 86.3539 24.3142 86.2933 24.051C86.128 23.3272 85.8855 22.225 85.5659 21.6273C85.5329 21.5615 85.4778 21.5121 85.4116 21.4737C84.9818 21.2599 83.0642 20.569 76.5289 20.7883C76.2919 20.7938 76.0439 20.8157 75.796 20.8377C74.6663 20.9528 71.7403 21.1941 68.9079 21.0351C68.8914 21.0351 67.4642 20.9144 65.8937 20.4538C65.5962 20.3661 62.9016 20.0316 62.582 20.2784L62.5655 20.2838Z" fill="black"/>
<path d="M80.2322 30.9986C78.6287 30.9986 76.8047 30.8505 74.9036 30.4283C72.8427 29.9677 70.9361 29.1397 69.2279 27.9608C67.8613 27.0176 66.6215 25.8551 65.5469 24.5007C63.712 22.1922 62.9681 20.103 62.957 20.0811L63.1664 20.0098C63.1719 20.0317 63.9103 22.0935 65.7233 24.3746C67.3929 26.4748 70.352 29.1945 74.9532 30.22C78.4193 30.9931 81.6098 30.8341 83.6762 30.5599C85.9189 30.2638 87.3627 29.7813 87.3737 29.7758L87.4453 29.9842C87.4288 29.9896 85.974 30.4777 83.7093 30.7738C82.756 30.8999 81.5712 30.9986 80.2322 30.9986Z" fill="black"/>
<path d="M81.6871 28.2839C80.2819 28.2839 78.6233 28.2072 76.7497 27.9824C73.5923 27.6095 71.0905 25.6409 69.5476 24.0562C67.878 22.3509 66.9412 20.7003 66.9302 20.6839L67.123 20.5742C67.1341 20.5907 68.0598 22.2193 69.7129 23.9082C71.2283 25.4655 73.6915 27.3956 76.7773 27.763C82.8994 28.4923 86.7126 27.6643 86.7511 27.6534L86.8007 27.8672C86.7677 27.8782 84.8996 28.2839 81.6871 28.2839Z" fill="black"/>
<path d="M82.6186 25.3615C81.3512 25.3615 80.1555 25.2738 79.0479 25.1038C77.268 24.8296 75.6975 24.3361 74.3805 23.6397C72.1213 22.4443 71.3884 21.0844 71.3608 21.0241L71.5537 20.9199C71.5647 20.9419 72.2976 22.2908 74.5018 23.4533C76.5461 24.528 80.2987 25.6467 86.5916 24.8845L86.6192 25.1038C85.2195 25.2793 83.8805 25.3615 82.6186 25.3615Z" fill="black"/>
<path d="M85.357 22.9325C82.3317 22.9325 80.5464 22.3787 79.5655 21.8906C78.3973 21.3149 78.0722 20.7062 78.0557 20.6843L78.2485 20.5801C78.254 20.5856 78.5681 21.1613 79.6867 21.7097C80.7227 22.2141 82.6789 22.8009 86.0954 22.7022L86.1009 22.9215C85.8474 22.927 85.5994 22.9325 85.357 22.9325Z" fill="black"/>
<mask id="mask1_1047_55028" style="mask-type:alpha" maskUnits="userSpaceOnUse" x="87" y="21" width="13" height="11">
<path d="M91.4012 31.0086C91.4012 30.9428 91.3957 30.877 91.3957 30.8167C91.3792 30.9319 91.4012 31.0086 91.4012 31.0086ZM87.9848 21.8403C87.847 21.928 87.5274 22.2516 88.0399 23.3263C88.5799 24.4614 90.3928 26.0735 90.7565 27.2031C90.7841 27.2908 90.8116 27.3786 90.8392 27.4663C90.9714 27.8556 91.3241 29.0455 91.4012 30.8112C91.4343 30.5699 91.6492 30.1587 92.6135 29.9339C92.6135 29.9339 97.606 28.4259 99.1048 28.2669C99.1048 28.2669 96.1898 23.3208 88.095 21.8184C88.084 21.8184 88.0729 21.8184 88.0674 21.8184C88.0399 21.8184 88.0123 21.8238 87.9848 21.8403Z" fill="#47A09D"/>
</mask>
<g mask="url(#mask1_1047_55028)">
<path d="M88.9714 21.8125L87.5332 25.4371V21.8125H88.9714Z" fill="#003042"/>
<path d="M89.1753 21.8125L87.5332 25.947V25.4371L88.9714 21.8125H89.1753Z" fill="#003042"/>
<path d="M89.3792 21.8125L87.5332 26.4625V25.947L89.1753 21.8125H89.3792Z" fill="#002F41"/>
<path d="M89.5831 21.8125L87.5332 26.9724V26.4625L89.3792 21.8125H89.5831Z" fill="#002E3F"/>
<path d="M89.787 21.8125L87.5332 27.4824V26.9724L89.5831 21.8125H89.787Z" fill="#002E3F"/>
<path d="M89.9909 21.8125L87.5332 27.9978V27.4824L89.787 21.8125H89.9909Z" fill="#002D3E"/>
<path d="M90.1948 21.8125L87.5332 28.5078V27.9978L89.9909 21.8125H90.1948Z" fill="#002C3D"/>
<path d="M90.3986 21.8125L87.5332 29.0232V28.5078L90.1947 21.8125H90.3986Z" fill="#002B3B"/>
<path d="M90.597 21.8125L87.5332 29.5332V29.0232L90.3986 21.8125H90.597Z" fill="#002B3A"/>
<path d="M90.8009 21.8125L87.6875 29.6593L87.5332 29.599V29.5332L90.597 21.8125H90.8009Z" fill="#002A39"/>
<path d="M91.0048 21.8125L87.8638 29.7306L87.6875 29.6593L90.8009 21.8125H91.0048Z" fill="#002939"/>
<path d="M91.2076 21.8125L88.0391 29.8019L87.8628 29.7306L91.0037 21.8125H91.2076Z" fill="#002838"/>
<path d="M91.4114 21.8125L88.2099 29.8677L88.0391 29.8019L91.2075 21.8125H91.4114Z" fill="#002837"/>
<path d="M91.6164 21.8125L88.3873 29.939L88.2109 29.8677L91.4125 21.8125H91.6164Z" fill="#002736"/>
<path d="M91.8202 21.8125L88.5635 30.0048L88.3872 29.939L91.6163 21.8125H91.8202Z" fill="#022635"/>
<path d="M92.024 21.8125L88.7398 30.0761L88.5635 30.0048L91.8201 21.8125H92.024Z" fill="#032533"/>
<path d="M92.2278 21.8125L88.9161 30.1473L88.7397 30.0761L92.0239 21.8125H92.2278Z" fill="#042532"/>
<path d="M92.4317 21.8125L89.0924 30.2131L88.916 30.1473L92.2278 21.8125H92.4317Z" fill="#052431"/>
<path d="M92.636 21.8125L89.2691 30.2844L89.0928 30.2131L92.4321 21.8125H92.636Z" fill="#062330"/>
<path d="M92.6635 21.8125L92.8123 21.8728L89.4454 30.3557L89.269 30.2844L92.6359 21.8125H92.6635Z" fill="#07222F"/>
<path d="M92.8011 21.8701L89.4316 30.3496L89.6203 30.4239L92.9898 21.9444L92.8011 21.8701Z" fill="#07222E"/>
<path d="M92.9886 21.9434L89.6191 30.4229L89.8011 30.4945L93.1706 22.015L92.9886 21.9434Z" fill="#07212D"/>
<path d="M93.1663 22.0137L89.7969 30.4932L89.9711 30.5617L93.3405 22.0822L93.1663 22.0137Z" fill="#07202C"/>
<path d="M93.3392 22.0811L89.9697 30.5605L90.1439 30.6291L93.5134 22.1496L93.3392 22.0811Z" fill="#07202B"/>
<path d="M93.513 22.1484L90.1436 30.6279L90.3261 30.6998L93.6955 22.2203L93.513 22.1484Z" fill="#07202A"/>
<path d="M93.6956 22.2207L90.3262 30.7002L90.5004 30.7687L93.8698 22.2892L93.6956 22.2207Z" fill="#071F29"/>
<path d="M93.8685 22.2881L90.499 30.7676L90.679 30.8384L94.0484 22.3589L93.8685 22.2881Z" fill="#071E28"/>
<path d="M94.0462 22.3574L90.6768 30.8369L90.8562 30.9075L94.2256 22.428L94.0462 22.3574Z" fill="#071D27"/>
<path d="M94.2224 22.4316L90.853 30.9111L91.0272 30.9797L94.3966 22.5002L94.2224 22.4316Z" fill="#071D26"/>
<path d="M94.3937 22.498L94.57 22.5693L91.2197 31.0084H91.1095L91.0269 30.9755L94.3937 22.498Z" fill="#071C26"/>
<path d="M94.5701 22.5693L94.7464 22.6351L91.4236 31.0084H91.2197L94.5701 22.5693Z" fill="#071C25"/>
<path d="M94.7461 22.6348L94.9224 22.7061L91.6272 31.008H91.4233L94.7461 22.6348Z" fill="#081B24"/>
<path d="M94.9227 22.7061L95.099 22.7719L91.8258 31.008H91.6274L94.9227 22.7061Z" fill="#071B22"/>
<path d="M95.0989 22.7725L95.2752 22.8437L92.0296 31.0086H91.8257L95.0989 22.7725Z" fill="#071A22"/>
<path d="M95.2754 22.8438L95.4517 22.915L92.2337 31.0086H92.0298L95.2754 22.8438Z" fill="#071921"/>
<path d="M95.4515 22.9141L95.6278 22.9799L92.4373 31.0076H92.2334L95.4515 22.9141Z" fill="#081820"/>
<path d="M95.628 22.9805L95.8044 23.0518L92.6414 31.0082H92.4375L95.628 22.9805Z" fill="#07181F"/>
<path d="M95.8041 23.0518L95.9804 23.1176L92.845 31.0082H92.6411L95.8041 23.0518Z" fill="#08171F"/>
<path d="M95.9806 23.1172L96.157 23.1885L93.0491 31.0079H92.8452L95.9806 23.1172Z" fill="#09171E"/>
<path d="M96.1572 23.1885L96.3335 23.2598L93.2532 31.0079H93.0493L96.1572 23.1885Z" fill="#09161D"/>
<path d="M96.3337 23.2598L96.5046 23.3256L93.4573 31.0079H93.2534L96.3337 23.2598Z" fill="#08161C"/>
<path d="M96.5043 23.3262L96.6806 23.3975L93.6609 31.0085H93.457L96.5043 23.3262Z" fill="#09151B"/>
<path d="M96.6808 23.3975L96.8572 23.4687L93.865 31.0085H93.6611L96.6808 23.3975Z" fill="#09151A"/>
<path d="M96.8569 23.4678L97.0332 23.5336L94.0631 31.0075H93.8647L96.8569 23.4678Z" fill="#091419"/>
<path d="M97.0331 23.5342L97.2094 23.6055L94.2669 31.0081H94.063L97.0331 23.5342Z" fill="#091418"/>
<path d="M97.2092 23.6055L97.3855 23.6713L94.4705 31.0081H94.2666L97.2092 23.6055Z" fill="#0A1317"/>
<path d="M97.3862 23.6709L97.5625 23.7422L94.6751 31.0078H94.4712L97.3862 23.6709Z" fill="#0A1217"/>
<path d="M97.5623 23.7422L97.7386 23.8135L94.8787 31.0078H94.6748L97.5623 23.7422Z" fill="#0A1216"/>
<path d="M97.7383 23.8145L97.9147 23.8803L95.0823 31.0087H94.8784L97.7383 23.8145Z" fill="#0A1215"/>
<path d="M97.9149 23.8799L98.0912 23.9512L95.2864 31.0084H95.0825L97.9149 23.8799Z" fill="#091114"/>
<path d="M98.0909 23.9512L98.2673 24.0225L95.49 31.0084H95.2861L98.0909 23.9512Z" fill="#091013"/>
<path d="M98.2675 24.0225L98.4438 24.0883L95.6941 31.0084H95.4902L98.2675 24.0225Z" fill="#090F12"/>
<path d="M98.444 24.0889L98.6149 24.1602L95.8982 31.009H95.6943L98.444 24.0889Z" fill="#080F11"/>
<path d="M98.6146 24.1592L98.7909 24.225L96.1018 31.008H95.8979L98.6146 24.1592Z" fill="#080E10"/>
<path d="M98.7911 24.2256L98.9675 24.2969L96.3004 31.0086H96.1021L98.7911 24.2256Z" fill="#080D0F"/>
<path d="M98.9673 24.2969L99.1106 24.3517V24.4614L96.5042 31.0086H96.3003L98.9673 24.2969Z" fill="#070C0E"/>
<path d="M99.1108 24.9709L96.7083 31.0082H96.5044L99.1108 24.4609V24.9709Z" fill="#070B0D"/>
<path d="M99.1105 25.4807L96.9119 31.008H96.708L99.1105 24.9707V25.4807Z" fill="#060A0C"/>
<path d="M99.1103 25.9969L97.1155 31.0088H96.9116L99.1103 25.4814V25.9969Z" fill="#06090B"/>
<path d="M99.1105 26.5061L97.3196 31.008H97.1157L99.1105 25.9961V26.5061Z" fill="#050709"/>
<path d="M99.1107 27.0168L97.5237 31.0088H97.3198L99.1107 26.5068V27.0168Z" fill="#050708"/>
<path d="M99.1109 27.5311L97.7278 31.0076H97.5239L99.1109 27.0156V27.5311Z" fill="#040507"/>
<path d="M99.1104 28.0412L97.9314 31.0078H97.7275L99.1104 27.5312V28.0412Z" fill="#030405"/>
<path d="M97.9312 31.0085L99.1101 28.042V31.0085H97.9312Z" fill="#030405"/>
</g>
<path d="M91.3796 31.3761C91.3631 31.2445 91.341 31.0307 91.3245 30.921C91.2363 29.2486 90.8837 27.9874 90.7404 27.5597C90.7183 27.4993 90.7018 27.439 90.6798 27.3787L90.6522 27.2965C90.4594 26.6988 89.8367 25.942 89.2305 25.2127C88.696 24.5712 88.1946 23.9625 87.9466 23.4361C87.4011 22.2901 87.7593 21.9172 87.9356 21.8075C87.9907 21.7746 88.0568 21.7637 88.1229 21.7746C92.3274 22.5533 95.1157 24.2751 96.7137 25.5856C98.4495 27.0058 99.1768 28.2232 99.2099 28.278L99.2981 28.4261L99.1272 28.4425C97.6504 28.596 92.7021 30.093 92.6525 30.1095H92.647C91.9637 30.2685 91.6937 30.5207 91.589 30.7017C91.5504 30.7675 91.5284 30.8333 91.5229 30.8881C91.4843 31.0691 91.4457 31.2665 91.4237 31.3871C91.4127 31.3981 91.3796 31.3926 91.3796 31.3761ZM88.0678 21.983C88.0623 21.983 88.0513 21.983 88.0458 21.9885C87.9466 22.0488 87.6601 22.323 88.1395 23.3374C88.3764 23.8419 88.8944 24.467 89.3958 25.0702C90.013 25.8159 90.6577 26.5891 90.8616 27.2307L90.8892 27.3129C90.9057 27.3732 90.9277 27.4335 90.9443 27.4884C91.082 27.8887 91.3796 28.9196 91.4843 30.444C91.6937 30.1972 92.0629 30.0108 92.5809 29.8901C92.8178 29.8188 97.2592 28.4809 98.9178 28.2396C98.6699 27.8777 97.926 26.8633 96.5594 25.7446C94.9834 24.456 92.2337 22.7616 88.0789 21.9885C88.0789 21.983 88.0733 21.983 88.0678 21.983Z" fill="black"/>
<path d="M96.9779 26.091C92.4594 23.607 88.0455 23.3219 88.0015 23.3219L88.0125 23.1025C88.0566 23.1025 92.52 23.3932 97.0826 25.8991L96.9779 26.091Z" fill="black"/>
<path d="M98.1794 27.2808C94.7574 25.4932 89.5831 25.4713 89.5005 25.4713V25.252C89.5831 25.252 94.8125 25.2684 98.2841 27.0834L98.1794 27.2808Z" fill="black"/>
<path d="M98.5322 27.6639C95.9423 27.1869 90.8617 27.4994 90.8066 27.5049L90.79 27.2856C90.8396 27.2801 95.9478 26.9621 98.5652 27.4501L98.5322 27.6639Z" fill="black"/>
<path d="M91.3134 29.6266L91.2583 29.4128C91.2969 29.4018 94.9723 28.4203 99.1051 28.2119L99.1161 28.4313C95.0054 28.6396 91.352 29.6157 91.3134 29.6266Z" fill="black"/>
</g>
<path d="M8.52046 0.542329V2.32883H5.38557V11.8036H3.11881V2.32883H0V0.542329H8.52046Z" fill="#003042"/>
<path d="M15.0734 2.83926C16.1023 2.83926 16.9222 3.17422 17.5331 3.84416C18.144 4.5141 18.4495 5.4552 18.4495 6.66747V11.8036H16.1988V6.92268C16.1988 6.22084 16.0166 5.67851 15.6522 5.29569C15.2878 4.90224 14.7894 4.70551 14.1571 4.70551C13.514 4.70551 12.9996 4.91287 12.6138 5.32759C12.2279 5.74231 12.035 6.33781 12.035 7.11409V11.8036H9.76826V0H12.035V4.73741C12.2708 4.14191 12.6566 3.67933 13.1925 3.34968C13.7391 3.0094 14.3661 2.83926 15.0734 2.83926Z" fill="#003042"/>
<path d="M28.8197 7.05029C28.8197 7.2736 28.7929 7.52881 28.7393 7.81593H22.2123C22.2445 8.60284 22.4589 9.18239 22.8554 9.55457C23.252 9.92676 23.745 10.1129 24.3344 10.1129C24.8596 10.1129 25.2936 9.98525 25.6366 9.73003C25.9903 9.47482 26.2154 9.12922 26.3118 8.69323H28.7072C28.5893 9.30999 28.3374 9.86296 27.9516 10.3521C27.5658 10.8413 27.0674 11.2241 26.4565 11.5006C25.8563 11.7771 25.1865 11.9153 24.447 11.9153C23.5788 11.9153 22.8072 11.7345 22.132 11.373C21.4568 11.0008 20.9316 10.4744 20.5565 9.79384C20.1814 9.11327 19.9938 8.31041 19.9938 7.38526C19.9938 6.4601 20.1814 5.65724 20.5565 4.97667C20.9316 4.28547 21.4568 3.75909 22.132 3.39754C22.8072 3.03598 23.5788 2.85521 24.447 2.85521C25.3258 2.85521 26.0921 3.03598 26.7459 3.39754C27.4104 3.75909 27.9194 4.25888 28.2731 4.89692C28.6375 5.52432 28.8197 6.24211 28.8197 7.05029ZM26.5369 6.82697C26.569 6.10387 26.3761 5.55622 25.9581 5.18403C25.5509 4.81185 25.0471 4.62575 24.447 4.62575C23.8361 4.62575 23.3216 4.81185 22.9036 5.18403C22.4856 5.55622 22.2552 6.10387 22.2123 6.82697H26.5369Z" fill="#003042"/>
<path d="M36.1966 10.081H40.0067V11.8036H33.9299V0.542329H36.1966V10.081Z" fill="#003042"/>
<path d="M49.7315 7.05029C49.7315 7.2736 49.7047 7.52881 49.6511 7.81593H43.1241C43.1563 8.60284 43.3706 9.18239 43.7672 9.55457C44.1637 9.92676 44.6568 10.1129 45.2462 10.1129C45.7714 10.1129 46.2054 9.98525 46.5484 9.73003C46.9021 9.47482 47.1271 9.12922 47.2236 8.69323H49.619C49.5011 9.30999 49.2492 9.86296 48.8634 10.3521C48.4776 10.8413 47.9792 11.2241 47.3683 11.5006C46.7681 11.7771 46.0983 11.9153 45.3588 11.9153C44.4906 11.9153 43.719 11.7345 43.0438 11.373C42.3686 11.0008 41.8434 10.4744 41.4683 9.79384C41.0932 9.11327 40.9056 8.31041 40.9056 7.38526C40.9056 6.4601 41.0932 5.65724 41.4683 4.97667C41.8434 4.28547 42.3686 3.75909 43.0438 3.39754C43.719 3.03598 44.4906 2.85521 45.3588 2.85521C46.2376 2.85521 47.0039 3.03598 47.6577 3.39754C48.3222 3.75909 48.8312 4.25888 49.1849 4.89692C49.5493 5.52432 49.7315 6.24211 49.7315 7.05029ZM47.4487 6.82697C47.4808 6.10387 47.2879 5.55622 46.8699 5.18403C46.4627 4.81185 45.9589 4.62575 45.3588 4.62575C44.7479 4.62575 44.2334 4.81185 43.8154 5.18403C43.3974 5.55622 43.167 6.10387 43.1241 6.82697H47.4487Z" fill="#003042"/>
<path d="M54.8292 2.85521C55.5794 2.85521 56.2225 3.03067 56.7584 3.38159C57.2943 3.7325 57.6747 4.20571 57.8998 4.80121V2.96686H60.1505V11.8036H57.8998V9.95335C57.6747 10.5488 57.2943 11.0274 56.7584 11.3889C56.2225 11.7398 55.5794 11.9153 54.8292 11.9153C54.079 11.9153 53.4038 11.7345 52.8036 11.373C52.2034 11.0114 51.7318 10.4904 51.3889 9.80979C51.0566 9.11858 50.8905 8.31041 50.8905 7.38526C50.8905 6.4601 51.0566 5.65724 51.3889 4.97667C51.7318 4.28547 52.2034 3.75909 52.8036 3.39754C53.4038 3.03598 54.079 2.85521 54.8292 2.85521ZM55.5366 4.81716C54.8292 4.81716 54.2612 5.04579 53.8325 5.50305C53.4038 5.96031 53.1894 6.58771 53.1894 7.38526C53.1894 8.1828 53.4038 8.8102 53.8325 9.26746C54.2612 9.71408 54.8292 9.9374 55.5366 9.9374C56.2225 9.9374 56.7852 9.70877 57.2246 9.25151C57.6747 8.78361 57.8998 8.16153 57.8998 7.38526C57.8998 6.59835 57.6747 5.97626 57.2246 5.519C56.7852 5.05111 56.2225 4.81716 55.5366 4.81716Z" fill="#003042"/>
<path d="M64.4715 4.65765C64.8037 4.09406 65.2432 3.65275 65.7898 3.33373C66.3364 3.00408 66.9473 2.83926 67.6225 2.83926V5.24784H66.9633C65.3021 5.24784 64.4715 6.01348 64.4715 7.54476V11.8036H62.2047V2.96686H64.4715V4.65765Z" fill="#003042"/>
<path d="M74.1822 2.83926C75.2111 2.83926 76.031 3.17422 76.6419 3.84416C77.2528 4.5141 77.5583 5.4552 77.5583 6.66747V11.8036H75.3076V6.92268C75.3076 6.22084 75.1254 5.67851 74.761 5.29569C74.3966 4.90224 73.8982 4.70551 73.2659 4.70551C72.6228 4.70551 72.1084 4.91287 71.7226 5.32759C71.3367 5.74231 71.1438 6.33781 71.1438 7.11409V11.8036H68.877V2.96686H71.1438V4.73741C71.3796 4.14191 71.7654 3.67933 72.3013 3.34968C72.8479 3.0094 73.4749 2.83926 74.1822 2.83926Z" fill="#003042"/>
<path d="M81.8195 7.62452V11.8036H79.5527V0.542329H83.6844C85.024 0.542329 86.0315 0.861347 86.7067 1.49938C87.3926 2.13742 87.7356 3.00408 87.7356 4.09937C87.7356 5.1734 87.3819 6.02943 86.6746 6.66747C85.9779 7.3055 84.9812 7.62452 83.6844 7.62452H81.8195ZM83.4432 5.82207C84.7722 5.82207 85.4367 5.24784 85.4367 4.09937C85.4367 3.53578 85.2813 3.1051 84.9705 2.80735C84.6597 2.5096 84.1506 2.36073 83.4432 2.36073H81.8195V5.82207H83.4432Z" fill="#003042"/>
<path d="M92.6965 2.85521C93.4468 2.85521 94.0898 3.03067 94.6257 3.38159C95.1616 3.7325 95.542 4.20571 95.7671 4.80121V2.96686H98.0178V11.8036H95.7671V9.95335C95.542 10.5488 95.1616 11.0274 94.6257 11.3889C94.0898 11.7398 93.4468 11.9153 92.6965 11.9153C91.9463 11.9153 91.2711 11.7345 90.6709 11.373C90.0707 11.0114 89.5991 10.4904 89.2562 9.80979C88.9239 9.11858 88.7578 8.31041 88.7578 7.38526C88.7578 6.4601 88.9239 5.65724 89.2562 4.97667C89.5991 4.28547 90.0707 3.75909 90.6709 3.39754C91.2711 3.03598 91.9463 2.85521 92.6965 2.85521ZM93.4039 4.81716C92.6965 4.81716 92.1285 5.04579 91.6998 5.50305C91.2711 5.96031 91.0567 6.58771 91.0567 7.38526C91.0567 8.1828 91.2711 8.8102 91.6998 9.26746C92.1285 9.71408 92.6965 9.9374 93.4039 9.9374C94.0898 9.9374 94.6525 9.70877 95.0919 9.25151C95.542 8.78361 95.7671 8.16153 95.7671 7.38526C95.7671 6.59835 95.542 5.97626 95.0919 5.519C94.6525 5.05111 94.0898 4.81716 93.4039 4.81716Z" fill="#003042"/>
<path d="M103.561 2.85521C104.311 2.85521 104.949 3.03067 105.474 3.38159C106.01 3.7325 106.395 4.20571 106.631 4.80121V0H108.882V11.8036H106.631V9.95335C106.395 10.5488 106.01 11.0274 105.474 11.3889C104.949 11.7398 104.311 11.9153 103.561 11.9153C102.81 11.9153 102.135 11.7345 101.535 11.373C100.935 11.0114 100.463 10.4904 100.12 9.80979C99.788 9.11858 99.6219 8.31041 99.6219 7.38526C99.6219 6.4601 99.788 5.65724 100.12 4.97667C100.463 4.28547 100.935 3.75909 101.535 3.39754C102.135 3.03598 102.81 2.85521 103.561 2.85521ZM104.268 4.81716C103.561 4.81716 102.993 5.04579 102.564 5.50305C102.135 5.96031 101.921 6.58771 101.921 7.38526C101.921 8.1828 102.135 8.8102 102.564 9.26746C102.993 9.71408 103.561 9.9374 104.268 9.9374C104.954 9.9374 105.517 9.70877 105.956 9.25151C106.406 8.78361 106.631 8.16153 106.631 7.38526C106.631 6.59835 106.406 5.97626 105.956 5.519C105.517 5.05111 104.954 4.81716 104.268 4.81716Z" fill="#003042"/>
<defs>
<clipPath id="clip0_1047_55028">
<rect width="50.5581" height="22.5425" fill="white" transform="translate(61.9707 15.458)"/>
</clipPath>
</defs>
</svg>
