<svg width="15" height="15" viewBox="0 0 15 15" fill="none" xmlns="http://www.w3.org/2000/svg">
<path d="M14.9963 14.9996V14.999H15V9.49777C15 6.80652 14.4207 4.7334 11.2744 4.7334C9.76191 4.7334 8.74691 5.5634 8.33254 6.35027H8.28879V4.98465H5.30566V14.999H8.41191V10.0403C8.41191 8.73465 8.65941 7.47215 10.2763 7.47215C11.8694 7.47215 11.8932 8.96215 11.8932 10.124V14.9996H14.9963Z" fill="#FEFEFE"/>
<path d="M0.247559 4.98535H3.35756V14.9997H0.247559V4.98535Z" fill="#FEFEFE"/>
<path d="M1.80125 0C0.806875 0 0 0.806875 0 1.80125C0 2.79563 0.806875 3.61938 1.80125 3.61938C2.79563 3.61938 3.6025 2.79563 3.6025 1.80125C3.60188 0.806875 2.795 0 1.80125 0V0Z" fill="#FEFEFE"/>
</svg>
