<svg width="16" height="16" viewBox="0 0 16 16" fill="none" xmlns="http://www.w3.org/2000/svg">
<path d="M14.0952 0H1.90476C0.854476 0 0 0.854476 0 1.90476V14.0952C0 15.1455 0.854476 16 1.90476 16H14.0952C15.1455 16 16 15.1455 16 14.0952V1.90476C16 0.854476 15.1455 0 14.0952 0ZM12.5737 6.98019C12.4863 6.98868 12.3986 6.99312 12.3109 6.99352C11.8369 6.99359 11.3704 6.87563 10.9535 6.6503C10.5365 6.42497 10.1823 6.09936 9.92267 5.70285V10.0979C9.92267 10.7404 9.73215 11.3684 9.37522 11.9026C9.01828 12.4368 8.51095 12.8531 7.91739 13.099C7.32382 13.3449 6.67068 13.4092 6.04056 13.2839C5.41043 13.1585 4.83163 12.8491 4.37733 12.3948C3.92304 11.9406 3.61366 11.3617 3.48832 10.7316C3.36298 10.1015 3.42731 9.44836 3.67317 8.8548C3.91904 8.26123 4.33539 7.75391 4.86958 7.39697C5.40378 7.04003 6.03182 6.84952 6.67429 6.84952C6.7421 6.84952 6.80838 6.85561 6.87505 6.8598V8.46057C6.80838 8.45257 6.74286 8.44038 6.67429 8.44038C6.23458 8.44038 5.81289 8.61505 5.50197 8.92596C5.19105 9.23688 5.01638 9.65858 5.01638 10.0983C5.01638 10.538 5.19105 10.9597 5.50197 11.2706C5.81289 11.5815 6.23458 11.7562 6.67429 11.7562C7.5901 11.7562 8.39886 11.0347 8.39886 10.1189L8.41486 2.65447H9.94629C10.0163 3.31988 10.3179 3.93952 10.7985 4.40504C11.279 4.87057 11.9079 5.15236 12.5752 5.20114V6.98019" fill="white"/>
</svg>
