<svg width="411" height="283" viewBox="0 0 411 283" fill="none" xmlns="http://www.w3.org/2000/svg">
<g clip-path="url(#clip0_103_2963)">
<path d="M395.413 249.607H371.674H321.598C317.029 249.607 313.267 245.847 313.267 241.281C313.267 236.715 317.029 232.955 321.598 232.955H377.676C377.765 232.776 377.765 232.597 377.855 232.328H394.427C398.996 232.328 402.759 228.568 402.759 224.002C402.759 219.436 398.996 215.676 394.427 215.676H381.976C384.215 204.305 385.38 192.577 385.38 180.58C385.38 151.752 378.572 124.445 366.568 100.273H382.155C390.665 100.273 397.652 93.2894 397.652 84.7841C397.652 76.2788 390.665 69.2956 382.155 69.2956H262.116C260.593 69.2956 259.159 69.5641 257.726 69.9223C251.276 68.0421 246.618 62.0437 246.618 55.0604C246.618 46.5551 253.605 39.5719 262.116 39.5719H317.477C286.571 14.7723 247.424 0 204.783 0C131.774 0 68.8882 43.3321 40.4013 105.644H153.364C157.932 105.644 161.695 109.405 161.695 113.971C161.695 118.537 157.932 122.297 153.364 122.297H33.7722V122.386H11.9143C7.34568 122.386 3.58326 126.147 3.58326 130.713C3.58326 135.279 7.34568 139.039 11.9143 139.039H28.9348C25.7995 152.289 24.187 166.166 24.187 180.401C24.187 193.831 25.6203 206.812 28.3973 219.436H15.4976C6.98736 219.525 0 226.509 0 235.014C0 243.519 6.98736 250.503 15.4976 250.503H38.2513C43.3575 262.678 49.8073 274.138 57.3322 284.792H352.055C353.041 283.449 354.026 282.017 354.922 280.584H395.323C403.833 280.584 410.821 273.601 410.821 265.096C411 256.591 404.013 249.607 395.413 249.607Z" fill="#B0FDEB" fill-opacity="0.11"/>
<path d="M42.3723 233.581C42.1036 233.581 41.9244 233.402 41.8348 233.223C41.6557 232.865 41.8348 232.506 42.1036 232.417L43.2681 231.88C43.6264 231.701 43.9848 231.88 44.0744 232.148C44.2535 232.506 44.0744 232.865 43.8056 232.954L42.641 233.491C42.5515 233.581 42.4619 233.581 42.3723 233.581Z" fill="#0D2523"/>
<path d="M43.5369 233.044C43.2681 233.044 43.0889 232.865 42.9994 232.686C42.8202 232.328 42.9994 231.97 43.2681 231.88L45.5972 230.806C45.866 230.627 46.3139 230.806 46.4035 231.164C46.5826 231.432 46.4035 231.88 46.0451 231.97L43.716 233.044C43.716 233.044 43.6264 233.044 43.5369 233.044ZM48.2847 230.895C48.0159 230.895 47.8368 230.716 47.7472 230.537C47.568 230.179 47.7472 229.821 48.1055 229.731C48.4638 229.552 48.8222 229.731 48.9117 230.089C49.0013 230.269 49.0013 230.448 48.9117 230.537C48.8222 230.716 48.7326 230.806 48.5534 230.895C48.4638 230.806 48.3743 230.895 48.2847 230.895Z" fill="#0D2523"/>
<path d="M50.614 229.731C50.3452 229.731 50.166 229.552 50.0765 229.373C49.9869 229.194 49.9869 229.015 50.0765 228.926C50.166 228.746 50.2556 228.657 50.4348 228.567L55.1826 226.419C55.5409 226.24 55.8993 226.419 55.9888 226.687C56.168 227.045 55.9888 227.404 55.7201 227.493L50.9723 229.642C50.7931 229.731 50.7035 229.731 50.614 229.731ZM57.6909 226.508C57.4221 226.508 57.243 226.329 57.1534 226.15C56.9742 225.882 57.1534 225.434 57.5117 225.344C57.7805 225.165 58.2284 225.344 58.318 225.613C58.4075 225.792 58.4075 225.971 58.318 226.061C58.2284 226.24 58.1388 226.329 57.9596 226.419C57.8701 226.508 57.7805 226.508 57.6909 226.508ZM60.1096 225.434C59.8408 225.434 59.6617 225.255 59.5721 225.076C59.3929 224.807 59.5721 224.36 59.8409 224.27L64.4991 222.032C64.7678 221.853 65.2157 222.032 65.3053 222.3C65.3949 222.479 65.3949 222.658 65.3053 222.748C65.2157 222.927 65.1262 223.017 64.947 223.106L60.1992 225.255C60.2888 225.434 60.1992 225.434 60.1096 225.434ZM67.1865 222.211C66.9178 222.211 66.7386 222.032 66.649 221.853C66.4699 221.584 66.649 221.136 66.9178 221.047C67.2761 220.868 67.6344 221.047 67.8136 221.316C67.9928 221.584 67.8136 222.032 67.4553 222.121C67.3657 222.121 67.2761 222.211 67.1865 222.211ZM69.5157 221.136C69.2469 221.136 69.0677 220.957 68.9782 220.778C68.8886 220.599 68.8886 220.42 68.9782 220.331C69.0677 220.152 69.1573 220.062 69.3365 219.973L74.0843 217.824C74.3531 217.645 74.801 217.824 74.8905 218.093C75.0697 218.451 74.8905 218.809 74.6218 218.898L69.874 221.047C69.6948 221.047 69.6052 221.136 69.5157 221.136ZM76.5926 217.824C76.3238 217.824 76.1447 217.645 76.0551 217.466C75.9655 217.287 75.9655 217.108 76.0551 217.018C76.1447 216.839 76.2343 216.75 76.4134 216.66C76.6822 216.481 77.1301 216.66 77.2197 216.929C77.3988 217.287 77.2197 217.645 76.8613 217.734C76.7718 217.824 76.6822 217.824 76.5926 217.824ZM79.0113 216.75C78.7425 216.75 78.5634 216.571 78.4738 216.391C78.2946 216.033 78.4738 215.675 78.7426 215.586L83.4904 213.437C83.7591 213.347 84.207 213.437 84.2966 213.795C84.3862 213.974 84.3862 214.153 84.2966 214.243C84.207 214.422 84.1174 214.511 83.9383 214.601L79.1905 216.75C79.1905 216.75 79.1009 216.75 79.0113 216.75ZM86.0882 213.527C85.8195 213.527 85.6403 213.347 85.5507 213.168C85.4612 212.989 85.4612 212.81 85.5507 212.721C85.6403 212.542 85.7299 212.452 85.9091 212.363C86.1778 212.184 86.6257 212.363 86.7153 212.631C86.8049 212.81 86.8049 212.989 86.7153 213.079C86.6257 213.258 86.5361 213.347 86.357 213.437C86.2674 213.527 86.1778 213.527 86.0882 213.527ZM88.4174 212.452C88.1486 212.452 87.9694 212.273 87.8799 212.094C87.7007 211.736 87.8799 211.378 88.2382 211.288L92.986 209.14C93.3443 208.961 93.7027 209.14 93.7922 209.408C93.8818 209.587 93.8818 209.766 93.7922 209.856C93.7027 210.035 93.6131 210.124 93.4339 210.214L88.6861 212.363C88.5965 212.363 88.5069 212.452 88.4174 212.452ZM95.4943 209.14C95.2256 209.14 95.0464 208.961 94.9568 208.781C94.8672 208.602 94.8672 208.423 94.9568 208.334C95.0464 208.155 95.136 208.065 95.3151 207.976C95.6735 207.797 96.0318 207.976 96.1214 208.244C96.211 208.423 96.211 208.602 96.1214 208.692C96.0318 208.871 95.9422 208.961 95.763 209.05C95.6735 209.14 95.5839 209.14 95.4943 209.14ZM97.913 208.065C97.6443 208.065 97.4651 207.886 97.3755 207.707C97.2859 207.528 97.2859 207.349 97.3755 207.259C97.4651 207.08 97.5547 206.991 97.7338 206.901L102.482 204.753C102.84 204.574 103.198 204.753 103.288 205.021C103.467 205.29 103.288 205.737 102.93 205.827L98.1817 207.976C98.0922 208.065 98.0026 208.065 97.913 208.065ZM104.99 204.842C104.721 204.842 104.542 204.663 104.363 204.484C104.273 204.305 104.273 204.126 104.363 204.036C104.452 203.857 104.542 203.768 104.721 203.678C104.99 203.499 105.438 203.678 105.527 203.947C105.707 204.215 105.527 204.663 105.169 204.753C105.169 204.842 105.08 204.842 104.99 204.842ZM107.319 203.768C107.05 203.768 106.871 203.589 106.782 203.41C106.602 203.052 106.782 202.693 107.14 202.604L111.888 200.455C112.246 200.276 112.604 200.455 112.694 200.813C112.873 201.082 112.694 201.53 112.425 201.619L107.677 203.768C107.498 203.768 107.409 203.768 107.319 203.768ZM114.396 200.455C114.127 200.455 113.948 200.276 113.859 200.097C113.769 199.918 113.769 199.739 113.859 199.649C113.948 199.47 114.038 199.381 114.217 199.291C114.486 199.112 114.933 199.291 115.023 199.56C115.113 199.739 115.113 199.918 115.023 200.008C114.933 200.187 114.844 200.276 114.665 200.366C114.575 200.455 114.486 200.455 114.396 200.455ZM116.815 199.381C116.546 199.381 116.367 199.202 116.188 199.023C116.098 198.844 116.098 198.665 116.188 198.575C116.277 198.396 116.367 198.307 116.546 198.217L121.294 196.068C121.563 195.889 122.01 196.068 122.1 196.337C122.19 196.516 122.19 196.695 122.1 196.785C122.01 196.964 121.921 197.053 121.742 197.143L116.994 199.291C116.994 199.381 116.904 199.381 116.815 199.381ZM123.892 196.158C123.623 196.158 123.444 195.979 123.354 195.8C123.265 195.621 123.265 195.442 123.354 195.352C123.444 195.173 123.533 195.084 123.712 194.994C123.981 194.815 124.429 194.994 124.519 195.263C124.698 195.621 124.519 195.979 124.25 196.068C124.071 196.158 123.981 196.158 123.892 196.158ZM126.221 195.084C125.952 195.084 125.773 194.904 125.683 194.725C125.594 194.546 125.594 194.367 125.683 194.278C125.773 194.099 125.862 194.009 126.042 193.92L130.789 191.771C131.058 191.592 131.506 191.771 131.596 192.04C131.775 192.398 131.596 192.756 131.237 192.845L126.489 194.994C126.4 195.084 126.31 195.084 126.221 195.084ZM133.298 191.86C133.029 191.86 132.85 191.681 132.76 191.502C132.581 191.144 132.76 190.786 133.119 190.697C133.387 190.518 133.835 190.697 133.925 190.965C134.104 191.323 133.925 191.681 133.566 191.771C133.477 191.771 133.387 191.86 133.298 191.86ZM135.716 190.697C135.448 190.697 135.268 190.518 135.179 190.338C135 190.07 135.179 189.622 135.448 189.533L140.195 187.384C140.464 187.205 140.912 187.384 141.002 187.742C141.091 187.921 141.091 188.1 141.002 188.19C140.912 188.369 140.823 188.458 140.643 188.548L135.896 190.697C135.896 190.697 135.806 190.697 135.716 190.697ZM142.793 187.474C142.525 187.474 142.345 187.294 142.256 187.115C142.077 186.847 142.256 186.399 142.614 186.31C142.972 186.22 143.331 186.31 143.42 186.668C143.51 186.847 143.51 187.026 143.42 187.115C143.331 187.294 143.241 187.384 143.062 187.474C142.972 187.474 142.883 187.474 142.793 187.474ZM145.122 186.399C144.854 186.399 144.675 186.22 144.585 186.041C144.495 185.862 144.495 185.683 144.585 185.593C144.675 185.414 144.764 185.325 144.943 185.235L149.691 183.087C150.049 182.908 150.408 183.087 150.497 183.445C150.677 183.713 150.497 184.161 150.139 184.25L145.391 186.399C145.302 186.399 145.212 186.399 145.122 186.399ZM152.199 183.176C151.931 183.176 151.751 182.997 151.662 182.818C151.483 182.46 151.662 182.102 152.02 182.012C152.289 181.833 152.737 182.012 152.826 182.37C153.006 182.639 152.826 183.087 152.468 183.176C152.379 183.087 152.289 183.176 152.199 183.176ZM154.618 182.102C154.349 182.102 154.17 181.923 154.081 181.744C153.901 181.386 154.081 181.027 154.349 180.938L159.097 178.789C159.456 178.61 159.814 178.789 159.903 179.058C160.083 179.416 159.903 179.774 159.635 179.864L154.887 182.012C154.797 182.012 154.708 182.102 154.618 182.102ZM161.695 178.789C161.426 178.789 161.247 178.61 161.158 178.431C160.978 178.163 161.158 177.715 161.516 177.625C161.874 177.446 162.233 177.625 162.322 177.894C162.501 178.252 162.322 178.61 161.964 178.7C161.874 178.789 161.785 178.789 161.695 178.789ZM164.024 177.715C163.755 177.715 163.576 177.536 163.487 177.357C163.308 177.088 163.487 176.641 163.845 176.551L168.593 174.402C168.862 174.223 169.309 174.402 169.399 174.671C169.489 174.85 169.489 175.029 169.399 175.119C169.309 175.298 169.22 175.387 169.041 175.477L164.293 177.625C164.203 177.715 164.114 177.715 164.024 177.715ZM171.101 174.492C170.832 174.492 170.653 174.313 170.564 174.134C170.384 173.776 170.564 173.417 170.832 173.328C171.191 173.149 171.549 173.328 171.639 173.597C171.728 173.776 171.728 173.955 171.639 174.044C171.549 174.223 171.459 174.313 171.28 174.402C171.28 174.492 171.191 174.492 171.101 174.492Z" fill="#0D2523"/>
<path d="M175.401 173.865C175.222 173.865 175.042 173.776 174.863 173.597L174.415 172.97L173.699 173.328C173.34 173.507 172.982 173.328 172.892 173.06C172.713 172.702 172.892 172.343 173.161 172.254L174.326 171.717C174.594 171.627 174.953 171.717 175.132 171.896L175.849 172.881C176.028 173.149 176.028 173.597 175.669 173.776C175.669 173.865 175.58 173.865 175.401 173.865Z" fill="#0D2523"/>
<path d="M178.447 178.073C178.267 178.073 178.088 177.983 177.909 177.804C177.819 177.715 177.73 177.536 177.819 177.356C177.819 177.177 177.909 176.998 178.088 176.909C178.357 176.73 178.805 176.73 178.984 177.088C179.163 177.356 179.163 177.804 178.894 177.983C178.715 177.983 178.626 178.073 178.447 178.073ZM176.924 175.924C176.745 175.924 176.565 175.834 176.386 175.655L174.863 173.596C174.684 173.328 174.684 172.88 175.042 172.701C175.311 172.522 175.759 172.522 175.938 172.79L177.461 174.85C177.64 175.118 177.64 175.566 177.372 175.745C177.192 175.924 177.103 175.924 176.924 175.924Z" fill="#0D2523"/>
<path d="M184.628 186.399C184.449 186.399 184.27 186.31 184.09 186.13C184.001 185.951 183.911 185.862 184.001 185.683C184.001 185.504 184.09 185.414 184.27 185.235C184.538 185.056 184.986 185.056 185.165 185.414C185.344 185.683 185.345 186.13 184.986 186.31C184.897 186.31 184.807 186.399 184.628 186.399ZM183.105 184.34C182.926 184.34 182.747 184.25 182.567 184.071L179.522 179.863C179.432 179.684 179.432 179.595 179.432 179.416C179.432 179.237 179.522 179.147 179.701 178.968C179.97 178.789 180.418 178.879 180.597 179.147L183.642 183.355C183.822 183.624 183.822 184.071 183.553 184.25C183.374 184.25 183.195 184.34 183.105 184.34Z" fill="#0D2523"/>
<path d="M186.957 189.533C186.778 189.533 186.598 189.443 186.419 189.264L185.703 188.28C185.523 188.011 185.523 187.563 185.882 187.384C186.151 187.205 186.598 187.205 186.778 187.563L187.226 188.1L187.853 187.742C188.121 187.563 188.569 187.653 188.748 188.011C188.928 188.28 188.838 188.727 188.48 188.906L187.405 189.533C187.136 189.443 187.046 189.533 186.957 189.533Z" fill="#0D2523"/>
<path d="M188.032 188.906C187.763 188.906 187.584 188.816 187.494 188.548C187.315 188.279 187.405 187.831 187.763 187.652L190.003 186.399C190.271 186.22 190.719 186.399 190.898 186.668C190.988 186.847 190.988 186.936 190.988 187.115C190.898 187.294 190.809 187.384 190.719 187.473L188.48 188.727C188.211 188.906 188.121 188.906 188.032 188.906ZM192.511 186.488C192.242 186.488 192.063 186.399 191.973 186.13C191.794 185.862 191.884 185.414 192.242 185.235C192.511 185.056 192.959 185.146 193.138 185.504C193.228 185.683 193.228 185.862 193.228 185.951C193.228 186.13 193.048 186.22 192.959 186.309C192.69 186.399 192.601 186.488 192.511 186.488Z" fill="#0D2523"/>
<path d="M194.661 185.235C194.392 185.235 194.213 185.146 194.123 184.877C193.944 184.609 194.034 184.161 194.392 183.982L198.782 181.565C199.05 181.386 199.498 181.475 199.677 181.833C199.856 182.102 199.767 182.55 199.409 182.729L194.93 185.146C194.93 185.235 194.84 185.235 194.661 185.235ZM201.379 181.565C201.111 181.565 200.931 181.475 200.842 181.207C200.663 180.938 200.752 180.49 201.111 180.311C201.379 180.132 201.827 180.311 202.006 180.58C202.186 180.848 202.096 181.296 201.738 181.475C201.559 181.565 201.469 181.565 201.379 181.565ZM203.529 180.401C203.261 180.401 203.081 180.311 202.992 180.043C202.813 179.774 202.902 179.326 203.261 179.147L207.65 176.73C207.919 176.551 208.367 176.73 208.546 176.999C208.725 177.267 208.635 177.715 208.277 177.894L203.798 180.311C203.798 180.311 203.619 180.401 203.529 180.401ZM210.248 176.73C209.979 176.73 209.8 176.641 209.71 176.372C209.531 176.103 209.621 175.656 209.979 175.477C210.248 175.298 210.696 175.477 210.875 175.745C211.054 176.014 210.965 176.462 210.606 176.641C210.427 176.73 210.338 176.73 210.248 176.73ZM212.398 175.477C212.129 175.477 211.95 175.387 211.86 175.119C211.681 174.85 211.771 174.402 212.129 174.223L216.608 171.806C216.877 171.627 217.325 171.806 217.504 172.075C217.594 172.254 217.594 172.433 217.594 172.522C217.594 172.701 217.414 172.791 217.325 172.88L212.846 175.298C212.667 175.477 212.487 175.477 212.398 175.477ZM219.027 171.806C218.848 171.806 218.579 171.716 218.489 171.448C218.4 171.269 218.4 171.09 218.4 171C218.489 170.821 218.579 170.732 218.669 170.642C218.937 170.463 219.385 170.642 219.564 170.911C219.744 171.179 219.654 171.627 219.296 171.806C219.296 171.806 219.206 171.806 219.027 171.806ZM221.266 170.642C220.998 170.642 220.819 170.553 220.729 170.284C220.55 170.015 220.639 169.568 220.998 169.389L225.387 166.971C225.656 166.792 226.104 166.971 226.283 167.24C226.373 167.419 226.373 167.598 226.373 167.688C226.283 167.867 226.193 167.956 226.104 168.046L221.625 170.463C221.535 170.642 221.356 170.642 221.266 170.642ZM227.896 166.971C227.627 166.971 227.448 166.882 227.358 166.613C227.179 166.345 227.268 165.897 227.627 165.718C227.896 165.539 228.343 165.718 228.523 165.987C228.612 166.166 228.612 166.345 228.612 166.434C228.612 166.613 228.433 166.703 228.343 166.792C228.164 166.971 228.075 166.971 227.896 166.971ZM230.135 165.718C229.956 165.718 229.687 165.629 229.598 165.36C229.418 165.091 229.508 164.644 229.866 164.465L234.345 162.047C234.614 161.868 235.062 162.047 235.241 162.316C235.331 162.495 235.331 162.674 235.331 162.764C235.331 162.943 235.152 163.032 235.062 163.122L230.673 165.539C230.404 165.718 230.225 165.718 230.135 165.718ZM236.764 162.137C236.495 162.137 236.316 162.047 236.227 161.779C236.047 161.51 236.137 161.063 236.495 160.883C236.764 160.704 237.212 160.883 237.391 161.152C237.57 161.51 237.481 161.868 237.122 162.047C237.033 162.047 236.943 162.137 236.764 162.137ZM239.004 160.883C238.735 160.883 238.556 160.794 238.466 160.525C238.377 160.346 238.377 160.167 238.377 160.078C238.377 159.899 238.556 159.809 238.645 159.72L243.124 157.302C243.393 157.123 243.841 157.213 244.02 157.571C244.199 157.929 244.11 158.287 243.751 158.466L239.272 160.883C239.272 160.883 239.093 160.883 239.004 160.883ZM245.633 157.213C245.364 157.213 245.185 157.034 245.095 156.855C244.916 156.586 245.006 156.138 245.364 155.959C245.633 155.78 246.081 155.87 246.26 156.228C246.439 156.497 246.349 156.944 245.991 157.123C245.901 157.213 245.812 157.213 245.633 157.213ZM247.872 156.049C247.603 156.049 247.424 155.959 247.335 155.691C247.156 155.422 247.245 154.975 247.603 154.795L252.083 152.378C252.351 152.199 252.799 152.378 252.978 152.647C253.068 152.826 253.068 153.005 253.068 153.094C252.978 153.273 252.889 153.363 252.799 153.453L248.41 155.87C248.141 155.959 247.962 156.049 247.872 156.049ZM254.501 152.378C254.232 152.378 254.053 152.289 253.964 152.02C253.874 151.841 253.874 151.662 253.874 151.572C253.874 151.393 254.053 151.304 254.143 151.214C254.412 151.035 254.86 151.125 255.039 151.483C255.218 151.751 255.128 152.199 254.77 152.378C254.77 152.378 254.68 152.378 254.501 152.378ZM256.741 151.125C256.472 151.125 256.293 151.035 256.203 150.767C256.024 150.498 256.114 150.05 256.472 149.871L260.862 147.454C261.13 147.275 261.578 147.365 261.757 147.723C261.847 147.902 261.847 148.081 261.847 148.17C261.757 148.349 261.668 148.439 261.578 148.528L257.099 150.946C256.92 151.125 256.83 151.125 256.741 151.125ZM263.37 147.544C263.101 147.544 262.922 147.454 262.832 147.185C262.653 146.917 262.743 146.469 263.101 146.29C263.37 146.111 263.818 146.201 263.997 146.559C264.176 146.827 264.086 147.275 263.728 147.454C263.639 147.454 263.549 147.544 263.37 147.544ZM265.609 146.29C265.341 146.29 265.161 146.201 265.072 145.932C264.982 145.753 264.982 145.574 264.982 145.484C265.072 145.305 265.161 145.216 265.251 145.126L269.73 142.709C269.999 142.53 270.447 142.62 270.626 142.978C270.715 143.157 270.715 143.336 270.715 143.425C270.626 143.604 270.536 143.694 270.447 143.783L266.057 146.201C265.788 146.29 265.699 146.29 265.609 146.29ZM272.238 142.62C271.97 142.62 271.79 142.53 271.701 142.261C271.522 141.993 271.611 141.545 271.97 141.366C272.238 141.187 272.686 141.366 272.865 141.635C273.045 141.903 272.955 142.351 272.597 142.53C272.507 142.62 272.418 142.62 272.238 142.62ZM274.478 141.456C274.209 141.456 274.03 141.366 273.94 141.098C273.851 140.918 273.851 140.739 273.851 140.65C273.851 140.471 274.03 140.381 274.12 140.292L278.599 137.874C278.867 137.695 279.315 137.785 279.494 138.143C279.674 138.412 279.584 138.859 279.226 139.038L274.747 141.456C274.657 141.366 274.567 141.456 274.478 141.456ZM281.107 137.785C280.838 137.785 280.659 137.695 280.569 137.427C280.39 137.158 280.48 136.711 280.838 136.532C281.107 136.352 281.555 136.532 281.734 136.8C281.824 136.979 281.824 137.158 281.824 137.248C281.734 137.427 281.644 137.516 281.555 137.606C281.376 137.695 281.197 137.785 281.107 137.785ZM283.346 136.532C283.078 136.532 282.899 136.442 282.809 136.173C282.63 135.905 282.719 135.457 283.078 135.278L287.557 132.861C287.826 132.682 288.273 132.771 288.453 133.129C288.542 133.308 288.542 133.488 288.542 133.577C288.542 133.756 288.363 133.846 288.273 133.935L283.794 136.352C283.526 136.532 283.436 136.532 283.346 136.532ZM289.976 132.861C289.707 132.861 289.528 132.771 289.438 132.503C289.259 132.234 289.348 131.786 289.707 131.607C289.975 131.428 290.423 131.607 290.603 131.876C290.782 132.145 290.692 132.592 290.334 132.771C290.244 132.861 290.065 132.861 289.976 132.861ZM292.215 131.697C291.946 131.697 291.767 131.607 291.678 131.339C291.498 131.07 291.588 130.623 291.946 130.444L296.425 128.026C296.694 127.847 297.142 128.026 297.321 128.295C297.5 128.563 297.411 129.011 297.052 129.19L292.573 131.607C292.394 131.607 292.305 131.697 292.215 131.697ZM298.844 128.026C298.575 128.026 298.396 127.937 298.307 127.668C298.127 127.31 298.217 126.952 298.575 126.773C298.844 126.594 299.292 126.773 299.471 127.041C299.65 127.31 299.561 127.758 299.202 127.937C299.113 128.026 298.934 128.026 298.844 128.026ZM301.084 126.773C300.904 126.773 300.636 126.683 300.546 126.415C300.367 126.146 300.457 125.699 300.815 125.519L305.294 123.102C305.563 122.923 306.011 123.102 306.19 123.371C306.369 123.729 306.279 124.087 305.921 124.266L301.532 126.683C301.263 126.773 301.173 126.773 301.084 126.773ZM307.713 123.192C307.444 123.192 307.265 123.102 307.175 122.834C306.996 122.475 307.086 122.117 307.444 121.938C307.713 121.759 308.161 121.938 308.34 122.207C308.519 122.565 308.429 122.923 308.071 123.102C307.981 123.102 307.802 123.192 307.713 123.192Z" fill="#0D2523"/>
<path d="M311.744 122.386C311.565 122.386 311.296 122.297 311.206 122.117L310.848 121.58L310.221 121.938C309.952 122.117 309.504 122.028 309.325 121.67C309.146 121.401 309.235 120.954 309.594 120.775L310.669 120.148C310.937 119.969 311.296 120.058 311.475 120.327L312.192 121.401C312.371 121.67 312.281 122.117 312.012 122.297C312.012 122.386 311.923 122.386 311.744 122.386Z" fill="#0D2523"/>
<path d="M314.162 125.967C313.983 125.967 313.715 125.878 313.625 125.699C313.535 125.519 313.535 125.34 313.535 125.251C313.535 125.072 313.715 124.893 313.804 124.893C314.073 124.714 314.521 124.803 314.7 125.072C314.879 125.34 314.79 125.788 314.521 125.967C314.342 125.878 314.252 125.967 314.162 125.967ZM312.908 124.177C312.729 124.177 312.46 124.087 312.371 123.908L311.206 122.117C311.117 121.938 311.117 121.759 311.117 121.67C311.117 121.491 311.296 121.401 311.385 121.222C311.654 121.043 312.102 121.133 312.281 121.401L313.446 123.192C313.535 123.281 313.535 123.46 313.535 123.639C313.535 123.818 313.446 123.908 313.267 124.087C313.177 124.087 313.087 124.177 312.908 124.177Z" fill="#0D2523"/>
<path d="M323.569 140.203C323.39 140.203 323.121 140.113 323.031 139.934C322.942 139.755 322.942 139.665 322.942 139.486C322.942 139.307 323.031 139.218 323.21 139.128C323.479 138.949 323.927 139.039 324.106 139.307C324.285 139.576 324.196 140.024 323.927 140.203C323.837 140.203 323.658 140.203 323.569 140.203ZM322.404 138.412C322.225 138.412 321.956 138.322 321.867 138.143L319.538 134.562C319.358 134.294 319.448 133.846 319.717 133.667C319.985 133.488 320.433 133.577 320.613 133.846L322.942 137.427C323.121 137.696 323.031 138.143 322.762 138.322C322.583 138.412 322.494 138.412 322.404 138.412ZM318.821 133.04C318.642 133.04 318.373 132.951 318.283 132.772C318.104 132.503 318.194 132.055 318.463 131.876C318.731 131.697 319.179 131.787 319.358 132.055C319.538 132.324 319.448 132.772 319.179 132.951C319.09 133.04 319 133.04 318.821 133.04ZM317.656 131.339C317.477 131.339 317.208 131.25 317.119 131.071L314.79 127.489C314.7 127.31 314.7 127.131 314.7 127.042C314.7 126.863 314.879 126.684 314.969 126.594C315.238 126.415 315.686 126.505 315.865 126.773L318.194 130.354C318.283 130.533 318.283 130.712 318.283 130.802C318.283 130.981 318.194 131.16 318.015 131.25C317.925 131.25 317.746 131.339 317.656 131.339Z" fill="#0D2523"/>
<path d="M325.45 143.067H325.36C325.181 143.067 325.002 142.977 324.912 142.798L324.196 141.724C324.017 141.455 324.106 141.008 324.375 140.829C324.644 140.649 325.092 140.739 325.271 141.008L325.629 141.545L326.167 141.187C326.435 141.008 326.883 141.008 327.062 141.366C327.242 141.634 327.242 142.082 326.883 142.261L325.808 142.977C325.719 142.977 325.539 143.067 325.45 143.067Z" fill="#0D2523"/>
<path d="M326.435 142.351C326.256 142.351 325.988 142.262 325.898 142.083C325.719 141.814 325.719 141.366 326.077 141.187L327.958 139.844C328.227 139.665 328.675 139.665 328.854 140.023C328.944 140.202 329.033 140.381 328.944 140.471C328.944 140.65 328.854 140.74 328.675 140.919L326.794 142.262C326.704 142.262 326.615 142.351 326.435 142.351ZM330.198 139.665C330.019 139.665 329.75 139.576 329.66 139.397C329.481 139.128 329.571 138.68 329.84 138.501C330.108 138.322 330.556 138.412 330.735 138.68C330.825 138.859 330.914 138.949 330.825 139.128C330.825 139.307 330.735 139.486 330.556 139.576C330.467 139.665 330.287 139.665 330.198 139.665Z" fill="#0D2523"/>
<path d="M331.989 138.411C331.81 138.411 331.631 138.322 331.452 138.143C331.273 137.874 331.273 137.427 331.631 137.248L335.304 134.651C335.572 134.472 336.02 134.562 336.199 134.83C336.379 135.099 336.289 135.547 336.02 135.726L332.347 138.322C332.258 138.322 332.168 138.411 331.989 138.411ZM337.543 134.472C337.364 134.472 337.185 134.383 337.006 134.204C336.827 133.935 336.916 133.487 337.185 133.308C337.454 133.129 337.902 133.219 338.081 133.487C338.17 133.666 338.26 133.756 338.17 133.935C338.17 134.114 338.081 134.293 337.902 134.383C337.812 134.383 337.722 134.472 337.543 134.472ZM339.424 133.129C339.245 133.129 339.066 133.04 338.887 132.861C338.708 132.592 338.708 132.144 339.066 131.965L342.739 129.369C343.008 129.19 343.456 129.279 343.635 129.548C343.814 129.817 343.724 130.264 343.456 130.443L339.783 133.04C339.693 133.04 339.514 133.129 339.424 133.129ZM344.978 129.19C344.799 129.19 344.531 129.1 344.441 128.921C344.351 128.742 344.262 128.563 344.351 128.474C344.351 128.295 344.441 128.116 344.62 128.026C344.889 127.847 345.337 127.937 345.516 128.205C345.695 128.474 345.695 128.921 345.337 129.1C345.247 129.1 345.068 129.19 344.978 129.19ZM346.86 127.847C346.681 127.847 346.501 127.757 346.322 127.578C346.233 127.489 346.143 127.31 346.233 127.131C346.233 126.952 346.322 126.773 346.501 126.683L350.174 124.087C350.443 123.908 350.891 123.997 351.07 124.266C351.16 124.445 351.249 124.624 351.16 124.713C351.16 124.893 351.07 125.072 350.891 125.161L347.218 127.757C347.039 127.847 346.949 127.847 346.86 127.847ZM352.414 123.908C352.235 123.908 351.966 123.818 351.876 123.639C351.787 123.46 351.697 123.371 351.787 123.192C351.787 123.012 351.876 122.833 352.055 122.744C352.324 122.565 352.772 122.654 352.951 122.923C353.13 123.192 353.13 123.639 352.772 123.818C352.593 123.908 352.503 123.908 352.414 123.908ZM354.205 122.654C354.026 122.654 353.847 122.565 353.668 122.386C353.489 122.117 353.578 121.67 353.847 121.49L357.52 118.894C357.789 118.715 358.237 118.805 358.416 119.073C358.505 119.163 358.595 119.342 358.505 119.521C358.505 119.7 358.416 119.789 358.237 119.968L354.564 122.565C354.474 122.565 354.385 122.654 354.205 122.654ZM359.759 118.715C359.58 118.715 359.312 118.626 359.222 118.446C359.132 118.267 359.132 118.178 359.132 117.999C359.132 117.82 359.222 117.641 359.401 117.551C359.67 117.372 360.118 117.462 360.297 117.73C360.386 117.82 360.476 117.999 360.386 118.178C360.386 118.357 360.297 118.446 360.118 118.626C360.028 118.626 359.939 118.715 359.759 118.715Z" fill="#0D2523"/>
<path d="M361.641 117.373C361.462 117.373 361.283 117.283 361.104 117.104C360.924 116.836 360.924 116.388 361.283 116.209L362.358 115.493C362.626 115.314 363.074 115.314 363.253 115.672C363.433 115.94 363.433 116.388 363.074 116.567L361.999 117.283C361.91 117.283 361.731 117.373 361.641 117.373Z" fill="#0D2523"/>
<path d="M360.835 117.283L355.908 115.134L355.997 114.955L363.791 113.075C366.21 112.001 368.718 111.016 371.137 109.941C369.345 111.911 367.553 113.881 365.762 115.85L361.372 122.565H361.193L360.835 117.283Z" fill="#0D2523"/>
<path d="M73.3672 211.826V284.882" stroke="#22DBB5" stroke-width="2.8347" stroke-miterlimit="10" stroke-linecap="round" stroke-linejoin="round"/>
<path d="M74 218C92.2254 218 107 203.225 107 185C107 166.775 92.2254 152 74 152C55.7746 152 41 166.775 41 185C41 203.225 55.7746 218 74 218Z" fill="#F6D738"/>
<path d="M73.9998 213.011C89.4699 213.011 102.011 200.47 102.011 185C102.011 169.53 89.4699 156.989 73.9998 156.989C58.5297 156.989 45.9888 169.53 45.9888 185C45.9888 200.47 58.5297 213.011 73.9998 213.011Z" fill="#F3CC30"/>
<path d="M88.6552 161.095C91.4407 165.45 93.0621 170.626 93.0621 176.176C93.0621 191.642 80.5273 204.187 65.0511 204.187C59.6776 204.187 54.6574 202.67 50.396 200.05C55.3746 207.825 64.0845 212.97 74.0001 212.97C89.4659 212.97 102.011 200.435 102.011 184.969C102.011 174.866 96.6687 166.021 88.6552 161.095Z" fill="#EDBD31"/>
<path d="M50.8949 187.567C50.8949 173.91 61.9642 162.84 75.6215 162.84C83.6038 162.84 90.7027 166.624 95.224 172.496C90.9522 165.085 82.949 160.086 73.7818 160.086C60.1245 160.086 49.0552 171.155 49.0552 184.813C49.0552 190.488 50.9676 195.716 54.1793 199.883C52.0901 196.256 50.8949 192.047 50.8949 187.567Z" fill="#F7DB5E"/>
<path d="M76.3076 166.926V170.491C77.7419 170.719 78.906 171.198 79.8206 171.915C80.7353 172.632 81.598 173.734 82.4191 175.21L78.8644 177.195C77.7939 175.251 76.4011 174.285 74.6758 174.285C73.6052 174.285 72.7217 174.596 72.015 175.23C71.3082 175.864 70.9548 176.654 70.9548 177.6C70.9548 178.463 71.2355 179.18 71.8071 179.752C72.3684 180.313 73.4909 180.968 75.1954 181.737C76.661 182.402 77.877 183.036 78.8332 183.618C79.7895 184.211 80.517 184.772 80.9951 185.323C82.3671 186.799 83.0531 188.597 83.0531 190.696C83.0531 192.765 82.4295 194.583 81.1926 196.153C79.9662 197.722 78.3239 198.772 76.2764 199.323V203.096H73.0855V199.437C70.7054 199.053 68.8969 198.232 67.6392 196.984C66.392 195.737 65.467 193.804 64.8745 191.195L68.8761 190.353C69.427 192.203 70.0921 193.513 70.8821 194.303C71.7032 195.051 72.8049 195.436 74.1769 195.436C75.5073 195.436 76.6298 195.01 77.5236 194.147C78.4071 193.295 78.854 192.203 78.854 190.852C78.854 189.646 78.4799 188.69 77.7419 187.963C77.3677 187.609 76.8065 187.214 76.0789 186.767C75.341 186.32 74.4055 185.842 73.2622 185.323C70.9029 184.262 69.3646 183.296 68.6162 182.412C67.4418 181.092 66.8493 179.502 66.8493 177.662C66.8493 176.789 66.9844 175.979 67.2651 175.22C67.5457 174.472 67.951 173.786 68.4707 173.172C69.0008 172.559 69.6556 172.029 70.4247 171.582C71.2043 171.135 72.0773 170.782 73.0647 170.522V166.957H76.3076V166.926Z" fill="#D49A34"/>
<path d="M96.569 232.149C96.569 232.149 70.1424 236.626 73.9048 254.084C91.3732 258.381 96.569 232.149 96.569 232.149Z" fill="#22DBB5"/>
<path d="M74.2632 253.816C74.2632 253.816 85.7296 240.924 93.344 235.283" stroke="#0D2523" stroke-width="0.5669" stroke-miterlimit="10" stroke-linecap="round" stroke-linejoin="round"/>
<path d="M87.7002 236.178L87.9689 239.848" stroke="#0D2523" stroke-width="0.5669" stroke-miterlimit="10" stroke-linecap="round" stroke-linejoin="round"/>
<path d="M85.8193 241.818L90.9255 243.251" stroke="#0D2523" stroke-width="0.5669" stroke-miterlimit="10" stroke-linecap="round" stroke-linejoin="round"/>
<path d="M83.4004 244.146L85.9983 244.863" stroke="#0D2523" stroke-width="0.5669" stroke-miterlimit="10" stroke-linecap="round" stroke-linejoin="round"/>
<path d="M82.0568 245.489L81.4297 240.117" stroke="#0D2523" stroke-width="0.5669" stroke-miterlimit="10" stroke-linecap="round" stroke-linejoin="round"/>
<path d="M79.7277 247.907L79.1006 245.848" stroke="#0D2523" stroke-width="0.5669" stroke-miterlimit="10" stroke-linecap="round" stroke-linejoin="round"/>
<path d="M78.2046 249.519L83.7586 250.593" stroke="#0D2523" stroke-width="0.5669" stroke-miterlimit="10" stroke-linecap="round" stroke-linejoin="round"/>
<path d="M76.5923 251.487L79.9964 252.651" stroke="#0D2523" stroke-width="0.5669" stroke-miterlimit="10" stroke-linecap="round" stroke-linejoin="round"/>
<path d="M77.0401 250.772L76.2339 247.817" stroke="#0D2523" stroke-width="0.5669" stroke-miterlimit="10" stroke-linecap="round" stroke-linejoin="round"/>
<path d="M150.228 170.911V282.823" stroke="#22DBB5" stroke-width="2.8347" stroke-miterlimit="10" stroke-linecap="round" stroke-linejoin="round"/>
<path d="M150 173C168.225 173 183 158.225 183 140C183 121.775 168.225 107 150 107C131.775 107 117 121.775 117 140C117 158.225 131.775 173 150 173Z" fill="#F6D738"/>
<path d="M150 168.011C165.47 168.011 178.011 155.47 178.011 140C178.011 124.53 165.47 111.989 150 111.989C134.53 111.989 121.989 124.53 121.989 140C121.989 155.47 134.53 168.011 150 168.011Z" fill="#F3CC30"/>
<path d="M164.655 116.095C167.441 120.45 169.062 125.626 169.062 131.176C169.062 146.642 156.527 159.187 141.051 159.187C135.678 159.187 130.657 157.67 126.396 155.05C131.375 162.825 140.084 167.97 150 167.97C165.466 167.97 178.011 155.435 178.011 139.969C178.011 129.866 172.669 121.021 164.655 116.095Z" fill="#EDBD31"/>
<path d="M126.895 142.567C126.895 128.91 137.964 117.84 151.621 117.84C159.604 117.84 166.703 121.624 171.224 127.496C166.952 120.085 158.949 115.086 149.782 115.086C136.124 115.086 125.055 126.155 125.055 139.813C125.055 145.488 126.968 150.716 130.179 154.883C128.09 151.256 126.895 147.047 126.895 142.567Z" fill="#F7DB5E"/>
<path d="M152.308 121.926V125.491C153.742 125.719 154.906 126.198 155.821 126.915C156.735 127.632 157.598 128.734 158.419 130.21L154.864 132.195C153.794 130.251 152.401 129.285 150.676 129.285C149.605 129.285 148.722 129.596 148.015 130.23C147.308 130.864 146.955 131.654 146.955 132.6C146.955 133.463 147.235 134.18 147.807 134.752C148.368 135.313 149.491 135.968 151.195 136.737C152.661 137.402 153.877 138.036 154.833 138.618C155.789 139.211 156.517 139.772 156.995 140.323C158.367 141.799 159.053 143.597 159.053 145.696C159.053 147.765 158.429 149.583 157.193 151.153C155.966 152.722 154.324 153.772 152.276 154.323V158.096H149.086V154.437C146.705 154.053 144.897 153.232 143.639 151.984C142.392 150.737 141.467 148.804 140.875 146.195L144.876 145.353C145.427 147.203 146.092 148.513 146.882 149.303C147.703 150.051 148.805 150.436 150.177 150.436C151.507 150.436 152.63 150.01 153.524 149.147C154.407 148.295 154.854 147.203 154.854 145.852C154.854 144.646 154.48 143.69 153.742 142.963C153.368 142.609 152.806 142.214 152.079 141.767C151.341 141.32 150.406 140.842 149.262 140.323C146.903 139.262 145.365 138.296 144.616 137.412C143.442 136.092 142.849 134.502 142.849 132.662C142.849 131.789 142.984 130.979 143.265 130.22C143.546 129.472 143.951 128.786 144.471 128.172C145.001 127.559 145.656 127.029 146.425 126.582C147.204 126.135 148.077 125.782 149.065 125.522V121.957H152.308V121.926Z" fill="#D49A34"/>
<path d="M122.547 195.263C122.547 195.263 149.332 193.472 149.691 211.289C133.745 219.525 122.547 195.263 122.547 195.263Z" fill="#22DBB5"/>
<path d="M149.332 211.11C149.332 211.11 135.178 201.262 126.399 197.591" stroke="#0D2523" stroke-width="0.5669" stroke-miterlimit="10" stroke-linecap="round" stroke-linejoin="round"/>
<path d="M132.133 197.144L132.76 200.725" stroke="#0D2523" stroke-width="0.5669" stroke-miterlimit="10" stroke-linecap="round" stroke-linejoin="round"/>
<path d="M135.178 202.067L130.61 204.753" stroke="#0D2523" stroke-width="0.5669" stroke-miterlimit="10" stroke-linecap="round" stroke-linejoin="round"/>
<path d="M138.134 203.857L135.805 205.111" stroke="#0D2523" stroke-width="0.5669" stroke-miterlimit="10" stroke-linecap="round" stroke-linejoin="round"/>
<path d="M139.747 204.842L139.12 199.471" stroke="#0D2523" stroke-width="0.5669" stroke-miterlimit="10" stroke-linecap="round" stroke-linejoin="round"/>
<path d="M142.524 206.633L142.703 204.484" stroke="#0D2523" stroke-width="0.5669" stroke-miterlimit="10" stroke-linecap="round" stroke-linejoin="round"/>
<path d="M144.495 207.797L139.299 210.214" stroke="#0D2523" stroke-width="0.5669" stroke-miterlimit="10" stroke-linecap="round" stroke-linejoin="round"/>
<path d="M146.465 209.408L143.509 211.288" stroke="#0D2523" stroke-width="0.5669" stroke-miterlimit="10" stroke-linecap="round" stroke-linejoin="round"/>
<path d="M145.838 208.782L146.018 205.648" stroke="#0D2523" stroke-width="0.5669" stroke-miterlimit="10" stroke-linecap="round" stroke-linejoin="round"/>
<path d="M213.831 212.273V282.822" stroke="#22DBB5" stroke-width="2.8347" stroke-miterlimit="10" stroke-linecap="round" stroke-linejoin="round"/>
<path d="M214 237C228.912 237 241 224.912 241 210C241 195.088 228.912 183 214 183C199.088 183 187 195.088 187 210C187 224.912 199.088 237 214 237Z" fill="#F6D738"/>
<path d="M214 232.918C226.657 232.918 236.918 222.657 236.918 210C236.918 197.343 226.657 187.082 214 187.082C201.343 187.082 191.082 197.343 191.082 210C191.082 222.657 201.343 232.918 214 232.918Z" fill="#F3CC30"/>
<path d="M225.99 190.441C228.27 194.005 229.596 198.24 229.596 202.781C229.596 215.434 219.34 225.699 206.678 225.699C202.282 225.699 198.174 224.457 194.688 222.314C198.761 228.675 205.887 232.885 214 232.885C226.654 232.885 236.918 222.629 236.918 209.975C236.918 201.709 232.547 194.472 225.99 190.441Z" fill="#EDBD31"/>
<path d="M195.096 212.101C195.096 200.926 204.152 191.87 215.326 191.87C221.857 191.87 227.666 194.965 231.365 199.77C227.87 193.707 221.322 189.616 213.821 189.616C202.647 189.616 193.59 198.673 193.59 209.847C193.59 214.49 195.155 218.768 197.783 222.178C196.073 219.21 195.096 215.766 195.096 212.101Z" fill="#F7DB5E"/>
<path d="M215.888 195.212V198.129C217.062 198.316 218.014 198.707 218.762 199.294C219.511 199.881 220.217 200.782 220.888 201.99L217.98 203.614C217.104 202.024 215.965 201.233 214.553 201.233C213.677 201.233 212.954 201.488 212.376 202.007C211.798 202.525 211.508 203.172 211.508 203.945C211.508 204.651 211.738 205.238 212.206 205.706C212.665 206.165 213.583 206.701 214.978 207.33C216.177 207.874 217.172 208.393 217.954 208.869C218.737 209.354 219.332 209.813 219.723 210.264C220.846 211.471 221.407 212.943 221.407 214.66C221.407 216.353 220.897 217.841 219.885 219.125C218.881 220.409 217.538 221.268 215.863 221.719V224.806H213.252V221.812C211.304 221.498 209.825 220.826 208.796 219.805C207.775 218.785 207.018 217.203 206.534 215.069L209.808 214.38C210.258 215.893 210.803 216.965 211.449 217.611C212.121 218.224 213.022 218.538 214.145 218.538C215.233 218.538 216.152 218.19 216.883 217.484C217.606 216.786 217.971 215.893 217.971 214.788C217.971 213.802 217.665 213.019 217.062 212.424C216.755 212.135 216.296 211.812 215.701 211.446C215.097 211.08 214.332 210.689 213.396 210.264C211.466 209.396 210.207 208.606 209.595 207.883C208.634 206.803 208.149 205.502 208.149 203.996C208.149 203.282 208.26 202.619 208.49 201.998C208.719 201.386 209.051 200.825 209.476 200.323C209.91 199.821 210.446 199.387 211.075 199.022C211.713 198.656 212.427 198.367 213.235 198.154V195.237H215.888V195.212Z" fill="#D49A34"/>
<path d="M196.452 241.37C196.452 241.37 203.798 256.322 213.562 251.04C213.025 239.848 196.452 241.37 196.452 241.37Z" fill="#22DBB5"/>
<path d="M213.294 250.86C213.294 250.86 203.529 246.294 198.871 242.713" stroke="#0D2523" stroke-width="0.5669" stroke-miterlimit="10" stroke-linecap="round" stroke-linejoin="round"/>
<path d="M200.394 245.937L202.544 245.131" stroke="#0D2523" stroke-width="0.5669" stroke-miterlimit="10" stroke-linecap="round" stroke-linejoin="round"/>
<path d="M204.066 246.025V242.713" stroke="#0D2523" stroke-width="0.5669" stroke-miterlimit="10" stroke-linecap="round" stroke-linejoin="round"/>
<path d="M205.948 247.1L205.858 245.399" stroke="#0D2523" stroke-width="0.5669" stroke-miterlimit="10" stroke-linecap="round" stroke-linejoin="round"/>
<path d="M206.933 247.638L203.887 248.981" stroke="#0D2523" stroke-width="0.5669" stroke-miterlimit="10" stroke-linecap="round" stroke-linejoin="round"/>
<path d="M208.814 248.622L207.65 249.338" stroke="#0D2523" stroke-width="0.5669" stroke-miterlimit="10" stroke-linecap="round" stroke-linejoin="round"/>
<path d="M210.068 249.248L209.71 245.757" stroke="#0D2523" stroke-width="0.5669" stroke-miterlimit="10" stroke-linecap="round" stroke-linejoin="round"/>
<path d="M211.502 249.786L211.591 247.638" stroke="#0D2523" stroke-width="0.5669" stroke-miterlimit="10" stroke-linecap="round" stroke-linejoin="round"/>
<path d="M210.965 249.696L209.352 250.771" stroke="#0D2523" stroke-width="0.5669" stroke-miterlimit="10" stroke-linecap="round" stroke-linejoin="round"/>
<path d="M265.609 157.481V282.822" stroke="#22DBB5" stroke-width="2.8347" stroke-miterlimit="10" stroke-linecap="round" stroke-linejoin="round"/>
<path d="M266 164C283.121 164 297 150.121 297 133C297 115.879 283.121 102 266 102C248.879 102 235 115.879 235 133C235 150.121 248.879 164 266 164Z" fill="#F6D738"/>
<path d="M266 159.313C280.532 159.313 292.313 147.532 292.313 133C292.313 118.467 280.532 106.687 266 106.687C251.467 106.687 239.687 118.467 239.687 133C239.687 147.532 251.467 159.313 266 159.313Z" fill="#F3CC30"/>
<path d="M279.767 110.543C282.384 114.634 283.907 119.496 283.907 124.71C283.907 139.239 272.132 151.024 257.594 151.024C252.546 151.024 247.83 149.598 243.827 147.138C248.504 154.441 256.686 159.274 266 159.274C280.529 159.274 292.314 147.499 292.314 132.97C292.314 123.48 287.295 115.171 279.767 110.543Z" fill="#EDBD31"/>
<path d="M244.295 135.412C244.295 122.583 254.694 112.184 267.523 112.184C275.022 112.184 281.69 115.738 285.938 121.255C281.925 114.293 274.407 109.597 265.795 109.597C252.965 109.597 242.567 119.995 242.567 132.825C242.567 138.156 244.363 143.067 247.38 146.982C245.418 143.575 244.295 139.62 244.295 135.412Z" fill="#F7DB5E"/>
<path d="M268.167 116.021V119.369C269.515 119.584 270.608 120.033 271.468 120.707C272.327 121.381 273.137 122.416 273.908 123.802L270.569 125.667C269.564 123.841 268.255 122.933 266.634 122.933C265.629 122.933 264.799 123.226 264.135 123.822C263.471 124.417 263.139 125.159 263.139 126.048C263.139 126.858 263.403 127.532 263.94 128.069C264.467 128.596 265.521 129.211 267.123 129.934C268.499 130.559 269.642 131.154 270.54 131.701C271.438 132.258 272.122 132.785 272.571 133.302C273.86 134.689 274.504 136.378 274.504 138.35C274.504 140.293 273.918 142.002 272.756 143.476C271.604 144.951 270.062 145.937 268.138 146.454V149.998H265.141V146.562C262.905 146.2 261.206 145.429 260.024 144.257C258.853 143.086 257.984 141.27 257.427 138.819L261.186 138.028C261.704 139.766 262.329 140.996 263.071 141.738C263.842 142.441 264.877 142.803 266.166 142.803C267.416 142.803 268.47 142.402 269.31 141.592C270.14 140.791 270.56 139.766 270.56 138.497C270.56 137.364 270.208 136.466 269.515 135.782C269.163 135.45 268.636 135.079 267.953 134.66C267.259 134.24 266.381 133.791 265.307 133.302C263.09 132.306 261.645 131.398 260.942 130.569C259.839 129.329 259.282 127.835 259.282 126.106C259.282 125.286 259.409 124.525 259.673 123.812C259.937 123.109 260.317 122.465 260.806 121.889C261.303 121.312 261.919 120.815 262.641 120.395C263.373 119.975 264.194 119.643 265.121 119.399V116.05H268.167V116.021Z" fill="#D49A34"/>
<path d="M293.38 241.997C293.38 241.997 266.595 240.206 266.236 258.112C282.182 266.349 293.38 241.997 293.38 241.997Z" fill="#22DBB5"/>
<path d="M266.595 257.934C266.595 257.934 280.749 247.996 289.438 244.325" stroke="#0D2523" stroke-width="0.5669" stroke-miterlimit="10" stroke-linecap="round" stroke-linejoin="round"/>
<path d="M283.794 243.967L283.167 247.548" stroke="#0D2523" stroke-width="0.5669" stroke-miterlimit="10" stroke-linecap="round" stroke-linejoin="round"/>
<path d="M280.659 248.891L285.317 251.576" stroke="#0D2523" stroke-width="0.5669" stroke-miterlimit="10" stroke-linecap="round" stroke-linejoin="round"/>
<path d="M277.792 250.682L280.122 251.935" stroke="#0D2523" stroke-width="0.5669" stroke-miterlimit="10" stroke-linecap="round" stroke-linejoin="round"/>
<path d="M276.09 251.666L276.717 246.294" stroke="#0D2523" stroke-width="0.5669" stroke-miterlimit="10" stroke-linecap="round" stroke-linejoin="round"/>
<path d="M273.313 253.456L273.224 251.308" stroke="#0D2523" stroke-width="0.5669" stroke-miterlimit="10" stroke-linecap="round" stroke-linejoin="round"/>
<path d="M271.432 254.71L276.628 257.038" stroke="#0D2523" stroke-width="0.5669" stroke-miterlimit="10" stroke-linecap="round" stroke-linejoin="round"/>
<path d="M269.461 256.232L272.417 258.113" stroke="#0D2523" stroke-width="0.5669" stroke-miterlimit="10" stroke-linecap="round" stroke-linejoin="round"/>
<path d="M269.999 255.606L269.909 252.562" stroke="#0D2523" stroke-width="0.5669" stroke-miterlimit="10" stroke-linecap="round" stroke-linejoin="round"/>
<path d="M238.197 231.253C238.197 231.253 264.982 229.463 265.341 247.279C249.395 255.605 238.197 231.253 238.197 231.253Z" fill="#22DBB5"/>
<path d="M264.982 247.1C264.982 247.1 250.828 237.252 242.049 233.581" stroke="#0D2523" stroke-width="0.5669" stroke-miterlimit="10" stroke-linecap="round" stroke-linejoin="round"/>
<path d="M247.693 233.134L248.41 236.715" stroke="#0D2523" stroke-width="0.5669" stroke-miterlimit="10" stroke-linecap="round" stroke-linejoin="round"/>
<path d="M250.828 238.147L246.26 240.744" stroke="#0D2523" stroke-width="0.5669" stroke-miterlimit="10" stroke-linecap="round" stroke-linejoin="round"/>
<path d="M253.785 239.848L251.456 241.191" stroke="#0D2523" stroke-width="0.5669" stroke-miterlimit="10" stroke-linecap="round" stroke-linejoin="round"/>
<path d="M255.397 240.833L254.77 235.551" stroke="#0D2523" stroke-width="0.5669" stroke-miterlimit="10" stroke-linecap="round" stroke-linejoin="round"/>
<path d="M258.174 242.624L258.353 240.564" stroke="#0D2523" stroke-width="0.5669" stroke-miterlimit="10" stroke-linecap="round" stroke-linejoin="round"/>
<path d="M260.145 243.877L254.949 246.205" stroke="#0D2523" stroke-width="0.5669" stroke-miterlimit="10" stroke-linecap="round" stroke-linejoin="round"/>
<path d="M262.116 245.488L259.07 247.279" stroke="#0D2523" stroke-width="0.5669" stroke-miterlimit="10" stroke-linecap="round" stroke-linejoin="round"/>
<path d="M261.488 244.862L261.667 241.729" stroke="#0D2523" stroke-width="0.5669" stroke-miterlimit="10" stroke-linecap="round" stroke-linejoin="round"/>
<path d="M283.436 173.15C283.436 173.15 276.09 188.101 266.326 182.819C266.863 171.628 283.436 173.15 283.436 173.15Z" fill="#22DBB5"/>
<path d="M266.594 182.639C266.594 182.639 276.359 178.073 281.017 174.492" stroke="#0D2523" stroke-width="0.5669" stroke-miterlimit="10" stroke-linecap="round" stroke-linejoin="round"/>
<path d="M279.494 177.716L277.344 176.91" stroke="#0D2523" stroke-width="0.5669" stroke-miterlimit="10" stroke-linecap="round" stroke-linejoin="round"/>
<path d="M275.821 177.805V174.492" stroke="#0D2523" stroke-width="0.5669" stroke-miterlimit="10" stroke-linecap="round" stroke-linejoin="round"/>
<path d="M273.94 178.88L274.03 177.179" stroke="#0D2523" stroke-width="0.5669" stroke-miterlimit="10" stroke-linecap="round" stroke-linejoin="round"/>
<path d="M272.955 179.417L276 180.76" stroke="#0D2523" stroke-width="0.5669" stroke-miterlimit="10" stroke-linecap="round" stroke-linejoin="round"/>
<path d="M271.074 180.401L272.238 181.118" stroke="#0D2523" stroke-width="0.5669" stroke-miterlimit="10" stroke-linecap="round" stroke-linejoin="round"/>
<path d="M269.819 181.028L270.178 177.536" stroke="#0D2523" stroke-width="0.5669" stroke-miterlimit="10" stroke-linecap="round" stroke-linejoin="round"/>
<path d="M268.386 181.655L268.296 179.417" stroke="#0D2523" stroke-width="0.5669" stroke-miterlimit="10" stroke-linecap="round" stroke-linejoin="round"/>
<path d="M268.924 181.476L270.536 182.55" stroke="#0D2523" stroke-width="0.5669" stroke-miterlimit="10" stroke-linecap="round" stroke-linejoin="round"/>
<path d="M338.618 212.273V282.822" stroke="#22DBB5" stroke-width="2.8347" stroke-miterlimit="10" stroke-linecap="round" stroke-linejoin="round"/>
<path d="M338.5 214C358.658 214 375 197.658 375 177.5C375 157.342 358.658 141 338.5 141C318.342 141 302 157.342 302 177.5C302 197.658 318.342 214 338.5 214Z" fill="#F6D738"/>
<path d="M338.5 208.482C355.611 208.482 369.482 194.611 369.482 177.5C369.482 160.39 355.611 146.519 338.5 146.519C321.389 146.519 307.518 160.39 307.518 177.5C307.518 194.611 321.389 208.482 338.5 208.482Z" fill="#F3CC30"/>
<path d="M354.71 151.059C357.791 155.875 359.584 161.6 359.584 167.739C359.584 184.846 345.72 198.721 328.602 198.721C322.659 198.721 317.106 197.043 312.393 194.146C317.899 202.745 327.533 208.435 338.5 208.435C355.606 208.435 369.482 194.571 369.482 177.465C369.482 166.291 363.573 156.508 354.71 151.059Z" fill="#EDBD31"/>
<path d="M312.944 180.34C312.944 165.234 325.188 152.991 340.294 152.991C349.123 152.991 356.974 157.175 361.975 163.671C357.25 155.474 348.398 149.944 338.259 149.944C323.153 149.944 310.91 162.188 310.91 177.293C310.91 183.57 313.025 189.353 316.577 193.963C314.267 189.951 312.944 185.295 312.944 180.34Z" fill="#F7DB5E"/>
<path d="M341.052 157.509V161.452C342.638 161.705 343.926 162.234 344.938 163.027C345.949 163.82 346.903 165.039 347.812 166.671L343.88 168.867C342.696 166.717 341.155 165.648 339.247 165.648C338.063 165.648 337.086 165.993 336.304 166.694C335.522 167.395 335.131 168.269 335.131 169.315C335.131 170.269 335.442 171.063 336.074 171.695C336.695 172.316 337.936 173.04 339.822 173.891C341.443 174.626 342.788 175.328 343.845 175.971C344.903 176.627 345.708 177.248 346.237 177.857C347.754 179.489 348.513 181.478 348.513 183.8C348.513 186.088 347.823 188.1 346.455 189.836C345.099 191.572 343.282 192.733 341.017 193.342V197.515H337.488V193.468C334.856 193.043 332.855 192.135 331.464 190.755C330.085 189.376 329.062 187.238 328.406 184.352L332.832 183.421C333.442 185.467 334.177 186.916 335.051 187.789C335.959 188.617 337.178 189.042 338.695 189.042C340.167 189.042 341.408 188.571 342.397 187.617C343.374 186.674 343.868 185.467 343.868 183.973C343.868 182.639 343.455 181.582 342.638 180.777C342.225 180.386 341.604 179.949 340.799 179.455C339.983 178.96 338.948 178.432 337.684 177.857C335.074 176.684 333.373 175.615 332.545 174.638C331.246 173.178 330.59 171.419 330.59 169.384C330.59 168.419 330.74 167.522 331.05 166.683C331.361 165.855 331.809 165.096 332.384 164.418C332.97 163.74 333.694 163.153 334.545 162.659C335.407 162.165 336.373 161.774 337.465 161.486V157.543H341.052V157.509Z" fill="#D49A34"/>
<path d="M311.027 222.927C311.027 222.927 337.812 221.137 338.17 238.953C322.225 247.189 311.027 222.927 311.027 222.927Z" fill="#22DBB5"/>
<path d="M337.812 238.774C337.812 238.774 323.658 228.926 314.879 225.255" stroke="#0D2523" stroke-width="0.5669" stroke-miterlimit="10" stroke-linecap="round" stroke-linejoin="round"/>
<path d="M320.522 224.808L321.239 228.389" stroke="#0D2523" stroke-width="0.5669" stroke-miterlimit="10" stroke-linecap="round" stroke-linejoin="round"/>
<path d="M323.658 229.821L319.089 232.418" stroke="#0D2523" stroke-width="0.5669" stroke-miterlimit="10" stroke-linecap="round" stroke-linejoin="round"/>
<path d="M326.614 231.521L324.285 232.775" stroke="#0D2523" stroke-width="0.5669" stroke-miterlimit="10" stroke-linecap="round" stroke-linejoin="round"/>
<path d="M328.227 232.507L327.6 227.135" stroke="#0D2523" stroke-width="0.5669" stroke-miterlimit="10" stroke-linecap="round" stroke-linejoin="round"/>
<path d="M331.003 234.297L331.183 232.148" stroke="#0D2523" stroke-width="0.5669" stroke-miterlimit="10" stroke-linecap="round" stroke-linejoin="round"/>
<path d="M332.975 235.551L327.779 237.879" stroke="#0D2523" stroke-width="0.5669" stroke-miterlimit="10" stroke-linecap="round" stroke-linejoin="round"/>
<path d="M334.945 237.072L331.899 238.952" stroke="#0D2523" stroke-width="0.5669" stroke-miterlimit="10" stroke-linecap="round" stroke-linejoin="round"/>
<path d="M334.318 236.446L334.497 233.402" stroke="#0D2523" stroke-width="0.5669" stroke-miterlimit="10" stroke-linecap="round" stroke-linejoin="round"/>
<path d="M355.638 242.982C355.638 242.982 348.293 257.933 338.528 252.651C338.976 241.46 355.638 242.982 355.638 242.982Z" fill="#22DBB5"/>
<path d="M338.708 252.471C338.708 252.471 348.472 247.905 353.13 244.324" stroke="#0D2523" stroke-width="0.5669" stroke-miterlimit="10" stroke-linecap="round" stroke-linejoin="round"/>
<path d="M351.607 247.548L349.458 246.742" stroke="#0D2523" stroke-width="0.5669" stroke-miterlimit="10" stroke-linecap="round" stroke-linejoin="round"/>
<path d="M347.935 247.637V244.324" stroke="#0D2523" stroke-width="0.5669" stroke-miterlimit="10" stroke-linecap="round" stroke-linejoin="round"/>
<path d="M346.143 248.712V247.011" stroke="#0D2523" stroke-width="0.5669" stroke-miterlimit="10" stroke-linecap="round" stroke-linejoin="round"/>
<path d="M345.068 249.249L348.114 250.592" stroke="#0D2523" stroke-width="0.5669" stroke-miterlimit="10" stroke-linecap="round" stroke-linejoin="round"/>
<path d="M343.276 250.233L344.351 250.95" stroke="#0D2523" stroke-width="0.5669" stroke-miterlimit="10" stroke-linecap="round" stroke-linejoin="round"/>
<path d="M342.022 250.86L342.291 247.368" stroke="#0D2523" stroke-width="0.5669" stroke-miterlimit="10" stroke-linecap="round" stroke-linejoin="round"/>
<path d="M340.499 251.487L340.41 249.249" stroke="#0D2523" stroke-width="0.5669" stroke-miterlimit="10" stroke-linecap="round" stroke-linejoin="round"/>
<path d="M341.037 251.308L342.649 252.382" stroke="#0D2523" stroke-width="0.5669" stroke-miterlimit="10" stroke-linecap="round" stroke-linejoin="round"/>
<path d="M140.822 266.707C140.822 266.707 138.672 283.27 127.743 281.3C124.608 270.646 140.822 266.707 140.822 266.707Z" fill="#22DBB5"/>
<path d="M127.922 281.122C127.922 281.122 135.626 273.691 138.941 268.767" stroke="#0D2523" stroke-width="0.5669" stroke-miterlimit="10" stroke-linecap="round" stroke-linejoin="round"/>
<path d="M138.583 272.347L136.253 272.258" stroke="#0D2523" stroke-width="0.5669" stroke-miterlimit="10" stroke-linecap="round" stroke-linejoin="round"/>
<path d="M135.089 273.6L134.104 270.467" stroke="#0D2523" stroke-width="0.5669" stroke-miterlimit="10" stroke-linecap="round" stroke-linejoin="round"/>
<path d="M133.745 275.212L133.208 273.601" stroke="#0D2523" stroke-width="0.5669" stroke-miterlimit="10" stroke-linecap="round" stroke-linejoin="round"/>
<path d="M132.939 276.107L136.253 276.286" stroke="#0D2523" stroke-width="0.5669" stroke-miterlimit="10" stroke-linecap="round" stroke-linejoin="round"/>
<path d="M131.506 277.54L132.76 277.898" stroke="#0D2523" stroke-width="0.5669" stroke-miterlimit="10" stroke-linecap="round" stroke-linejoin="round"/>
<path d="M130.52 278.525L129.714 275.123" stroke="#0D2523" stroke-width="0.5669" stroke-miterlimit="10" stroke-linecap="round" stroke-linejoin="round"/>
<path d="M129.356 279.599L128.549 277.54" stroke="#0D2523" stroke-width="0.5669" stroke-miterlimit="10" stroke-linecap="round" stroke-linejoin="round"/>
<path d="M129.804 279.331L131.595 279.779" stroke="#0D2523" stroke-width="0.5669" stroke-miterlimit="10" stroke-linecap="round" stroke-linejoin="round"/>
<path d="M109.648 260.978C109.648 260.978 112.604 284.166 128.012 281.48C132.312 266.528 109.648 260.978 109.648 260.978Z" fill="#22DBB5"/>
<path d="M127.743 281.211C127.743 281.211 116.904 270.736 112.246 263.932" stroke="#0D2523" stroke-width="0.5669" stroke-miterlimit="10" stroke-linecap="round" stroke-linejoin="round"/>
<path d="M112.873 268.856L116.008 268.767" stroke="#0D2523" stroke-width="0.5669" stroke-miterlimit="10" stroke-linecap="round" stroke-linejoin="round"/>
<path d="M117.621 270.647L119.143 266.26" stroke="#0D2523" stroke-width="0.5669" stroke-miterlimit="10" stroke-linecap="round" stroke-linejoin="round"/>
<path d="M119.591 272.885L120.308 270.646" stroke="#0D2523" stroke-width="0.5669" stroke-miterlimit="10" stroke-linecap="round" stroke-linejoin="round"/>
<path d="M120.756 274.139L116.098 274.497" stroke="#0D2523" stroke-width="0.5669" stroke-miterlimit="10" stroke-linecap="round" stroke-linejoin="round"/>
<path d="M122.727 276.197L120.935 276.645" stroke="#0D2523" stroke-width="0.5669" stroke-miterlimit="10" stroke-linecap="round" stroke-linejoin="round"/>
<path d="M124.16 277.63L125.235 272.795" stroke="#0D2523" stroke-width="0.5669" stroke-miterlimit="10" stroke-linecap="round" stroke-linejoin="round"/>
<path d="M125.772 279.062L126.847 276.197" stroke="#0D2523" stroke-width="0.5669" stroke-miterlimit="10" stroke-linecap="round" stroke-linejoin="round"/>
<path d="M125.146 278.704L122.548 279.241" stroke="#0D2523" stroke-width="0.5669" stroke-miterlimit="10" stroke-linecap="round" stroke-linejoin="round"/>
<path d="M323.927 266.707C323.927 266.707 321.777 283.27 310.848 281.3C307.802 270.646 323.927 266.707 323.927 266.707Z" fill="#22DBB5"/>
<path d="M311.027 281.122C311.027 281.122 318.731 273.691 322.045 268.767" stroke="#0D2523" stroke-width="0.5669" stroke-miterlimit="10" stroke-linecap="round" stroke-linejoin="round"/>
<path d="M321.687 272.347L319.448 272.258" stroke="#0D2523" stroke-width="0.5669" stroke-miterlimit="10" stroke-linecap="round" stroke-linejoin="round"/>
<path d="M318.283 273.6L317.208 270.467" stroke="#0D2523" stroke-width="0.5669" stroke-miterlimit="10" stroke-linecap="round" stroke-linejoin="round"/>
<path d="M316.85 275.212L316.312 273.601" stroke="#0D2523" stroke-width="0.5669" stroke-miterlimit="10" stroke-linecap="round" stroke-linejoin="round"/>
<path d="M316.043 276.107L319.358 276.286" stroke="#0D2523" stroke-width="0.5669" stroke-miterlimit="10" stroke-linecap="round" stroke-linejoin="round"/>
<path d="M314.61 277.54L315.864 277.898" stroke="#0D2523" stroke-width="0.5669" stroke-miterlimit="10" stroke-linecap="round" stroke-linejoin="round"/>
<path d="M313.625 278.525L312.818 275.123" stroke="#0D2523" stroke-width="0.5669" stroke-miterlimit="10" stroke-linecap="round" stroke-linejoin="round"/>
<path d="M312.46 279.599L311.654 277.54" stroke="#0D2523" stroke-width="0.5669" stroke-miterlimit="10" stroke-linecap="round" stroke-linejoin="round"/>
<path d="M312.908 279.331L314.789 279.779" stroke="#0D2523" stroke-width="0.5669" stroke-miterlimit="10" stroke-linecap="round" stroke-linejoin="round"/>
<path d="M292.752 260.978C292.752 260.978 295.709 284.166 311.117 281.48C315.506 266.528 292.752 260.978 292.752 260.978Z" fill="#22DBB5"/>
<path d="M310.848 281.211C310.848 281.211 300.008 270.736 295.35 263.932" stroke="#0D2523" stroke-width="0.5669" stroke-miterlimit="10" stroke-linecap="round" stroke-linejoin="round"/>
<path d="M295.978 268.856L299.113 268.767" stroke="#0D2523" stroke-width="0.5669" stroke-miterlimit="10" stroke-linecap="round" stroke-linejoin="round"/>
<path d="M300.725 270.647L302.248 266.26" stroke="#0D2523" stroke-width="0.5669" stroke-miterlimit="10" stroke-linecap="round" stroke-linejoin="round"/>
<path d="M302.786 272.885L303.413 270.646" stroke="#0D2523" stroke-width="0.5669" stroke-miterlimit="10" stroke-linecap="round" stroke-linejoin="round"/>
<path d="M303.86 274.139L299.202 274.497" stroke="#0D2523" stroke-width="0.5669" stroke-miterlimit="10" stroke-linecap="round" stroke-linejoin="round"/>
<path d="M305.921 276.197L304.04 276.645" stroke="#0D2523" stroke-width="0.5669" stroke-miterlimit="10" stroke-linecap="round" stroke-linejoin="round"/>
<path d="M307.265 277.63L308.34 272.795" stroke="#0D2523" stroke-width="0.5669" stroke-miterlimit="10" stroke-linecap="round" stroke-linejoin="round"/>
<path d="M308.877 279.062L310.042 276.197" stroke="#0D2523" stroke-width="0.5669" stroke-miterlimit="10" stroke-linecap="round" stroke-linejoin="round"/>
<path d="M308.25 278.704L305.652 279.241" stroke="#0D2523" stroke-width="0.5669" stroke-miterlimit="10" stroke-linecap="round" stroke-linejoin="round"/>
<path d="M80.5341 93.7373C82.7605 93.7373 84.5653 91.9335 84.5653 89.7085C84.5653 87.4834 82.7605 85.6797 80.5341 85.6797C78.3077 85.6797 76.5029 87.4834 76.5029 89.7085C76.5029 91.9335 78.3077 93.7373 80.5341 93.7373Z" stroke="#22DBB5" stroke-width="0.8504" stroke-miterlimit="10" stroke-linecap="round" stroke-linejoin="round"/>
<path d="M177.909 21.6665C177.909 23.9047 176.117 25.6953 173.878 25.6953C171.638 25.6953 169.847 23.9047 169.847 21.6665C169.847 19.4283 171.638 17.6377 173.878 17.6377C176.117 17.6377 177.909 19.4283 177.909 21.6665Z" stroke="#22DBB5" stroke-width="0.8504" stroke-miterlimit="10" stroke-linecap="round" stroke-linejoin="round"/>
<path d="M164.472 197.054C166.698 197.054 168.503 195.25 168.503 193.025C168.503 190.8 166.698 188.996 164.472 188.996C162.245 188.996 160.44 190.8 160.44 193.025C160.44 195.25 162.245 197.054 164.472 197.054Z" stroke="#22DBB5" stroke-width="0.8504" stroke-miterlimit="10" stroke-linecap="round" stroke-linejoin="round"/>
<path d="M302.786 159.899C305.012 159.899 306.817 158.096 306.817 155.871C306.817 153.646 305.012 151.842 302.786 151.842C300.559 151.842 298.754 153.646 298.754 155.871C298.754 158.096 300.559 159.899 302.786 159.899Z" stroke="#22DBB5" stroke-width="0.8504" stroke-miterlimit="10" stroke-linecap="round" stroke-linejoin="round"/>
<path d="M173.878 86.2167C173.878 87.4702 172.893 88.455 171.638 88.455C170.384 88.455 169.399 87.4702 169.399 86.2167C169.399 84.9633 170.384 83.9785 171.638 83.9785C172.893 83.9785 173.878 84.9633 173.878 86.2167Z" stroke="#22DBB5" stroke-width="0.8504" stroke-miterlimit="10" stroke-linecap="round" stroke-linejoin="round"/>
<path d="M302.965 107.167C302.965 108.42 301.98 109.405 300.725 109.405C299.471 109.405 298.486 108.42 298.486 107.167C298.486 105.914 299.471 104.929 300.725 104.929C301.98 104.929 302.965 105.914 302.965 107.167Z" stroke="#22DBB5" stroke-width="0.8504" stroke-miterlimit="10" stroke-linecap="round" stroke-linejoin="round"/>
<path d="M336.737 120.597C336.737 121.85 335.752 122.835 334.497 122.835C333.243 122.835 332.258 121.85 332.258 120.597C332.258 119.343 333.243 118.358 334.497 118.358C335.662 118.358 336.737 119.343 336.737 120.597Z" stroke="#22DBB5" stroke-width="0.8504" stroke-miterlimit="10" stroke-linecap="round" stroke-linejoin="round"/>
<path d="M40.3118 157.303C41.5487 157.303 42.5513 156.301 42.5513 155.064C42.5513 153.828 41.5487 152.826 40.3118 152.826C39.0749 152.826 38.0723 153.828 38.0723 155.064C38.0723 156.301 39.0749 157.303 40.3118 157.303Z" stroke="#22DBB5" stroke-width="0.8504" stroke-miterlimit="10" stroke-linecap="round" stroke-linejoin="round"/>
<path d="M58.5863 111.554L54.376 115.762" stroke="#22DBB5" stroke-width="0.8504" stroke-miterlimit="10" stroke-linecap="round" stroke-linejoin="round"/>
<path d="M58.5863 115.762L54.376 111.554" stroke="#22DBB5" stroke-width="0.8504" stroke-miterlimit="10" stroke-linecap="round" stroke-linejoin="round"/>
<path d="M98.7191 70.1914L94.5088 74.4888" stroke="#22DBB5" stroke-width="0.8504" stroke-miterlimit="10" stroke-linecap="round" stroke-linejoin="round"/>
<path d="M98.7191 74.4888L94.5088 70.1914" stroke="#22DBB5" stroke-width="0.8504" stroke-miterlimit="10" stroke-linecap="round" stroke-linejoin="round"/>
<path d="M227.985 145.127L223.685 149.335" stroke="#22DBB5" stroke-width="0.8504" stroke-miterlimit="10" stroke-linecap="round" stroke-linejoin="round"/>
<path d="M227.985 149.335L223.685 145.127" stroke="#22DBB5" stroke-width="0.8504" stroke-miterlimit="10" stroke-linecap="round" stroke-linejoin="round"/>
<path d="M105.975 155.513L101.675 159.721" stroke="#22DBB5" stroke-width="0.8504" stroke-miterlimit="10" stroke-linecap="round" stroke-linejoin="round"/>
<path d="M105.975 159.721L101.675 155.513" stroke="#22DBB5" stroke-width="0.8504" stroke-miterlimit="10" stroke-linecap="round" stroke-linejoin="round"/>
<path d="M385.917 224.092L381.707 228.389" stroke="#22DBB5" stroke-width="0.8504" stroke-miterlimit="10" stroke-linecap="round" stroke-linejoin="round"/>
<path d="M385.917 228.389L381.707 224.092" stroke="#22DBB5" stroke-width="0.8504" stroke-miterlimit="10" stroke-linecap="round" stroke-linejoin="round"/>
<path d="M264.086 23.6357L259.876 27.8436" stroke="#22DBB5" stroke-width="0.8504" stroke-miterlimit="10" stroke-linecap="round" stroke-linejoin="round"/>
<path d="M264.086 27.8436L259.876 23.6357" stroke="#22DBB5" stroke-width="0.8504" stroke-miterlimit="10" stroke-linecap="round" stroke-linejoin="round"/>
<path d="M365.582 139.756L361.372 144.053" stroke="#22DBB5" stroke-width="0.8504" stroke-miterlimit="10" stroke-linecap="round" stroke-linejoin="round"/>
<path d="M365.582 144.053L361.372 139.756" stroke="#22DBB5" stroke-width="0.8504" stroke-miterlimit="10" stroke-linecap="round" stroke-linejoin="round"/>
<path d="M248.32 173.239L244.11 177.447" stroke="#22DBB5" stroke-width="0.8504" stroke-miterlimit="10" stroke-linecap="round" stroke-linejoin="round"/>
<path d="M248.32 177.447L244.11 173.239" stroke="#22DBB5" stroke-width="0.8504" stroke-miterlimit="10" stroke-linecap="round" stroke-linejoin="round"/>
<path d="M332.079 78.3389L327.869 82.5467" stroke="#22DBB5" stroke-width="0.8504" stroke-miterlimit="10" stroke-linecap="round" stroke-linejoin="round"/>
<path d="M332.079 82.5467L327.869 78.3389" stroke="#22DBB5" stroke-width="0.8504" stroke-miterlimit="10" stroke-linecap="round" stroke-linejoin="round"/>
<path d="M56.526 255.964L52.2261 260.261" stroke="#22DBB5" stroke-width="0.8504" stroke-miterlimit="10" stroke-linecap="round" stroke-linejoin="round"/>
<path d="M56.526 260.261L52.2261 255.964" stroke="#22DBB5" stroke-width="0.8504" stroke-miterlimit="10" stroke-linecap="round" stroke-linejoin="round"/>
<path d="M298.128 212.274L293.828 216.572" stroke="#22DBB5" stroke-width="0.8504" stroke-miterlimit="10" stroke-linecap="round" stroke-linejoin="round"/>
<path d="M298.128 216.572L293.828 212.274" stroke="#22DBB5" stroke-width="0.8504" stroke-miterlimit="10" stroke-linecap="round" stroke-linejoin="round"/>
<path d="M188.659 268.946C189.896 268.946 190.898 267.944 190.898 266.708C190.898 265.472 189.896 264.47 188.659 264.47C187.422 264.47 186.419 265.472 186.419 266.708C186.419 267.944 187.422 268.946 188.659 268.946Z" stroke="#22DBB5" stroke-width="0.8504" stroke-miterlimit="10" stroke-linecap="round" stroke-linejoin="round"/>
</g>
<defs>
<clipPath id="clip0_103_2963">
<rect width="411" height="283" fill="white"/>
</clipPath>
</defs>
</svg>
