<svg width="76" height="56" viewBox="0 0 76 56" fill="none" xmlns="http://www.w3.org/2000/svg">
<circle cx="48" cy="28" r="28" fill="#22DBB5" fill-opacity="0.15"/>
<g clip-path="url(#clip0_2_9)">
<path d="M54.4277 9.12461C54.4277 7.01028 54.0671 4.93533 53.3558 2.95706C53.1077 2.26756 52.3434 1.88945 51.652 2.1152C50.6697 2.43578 49.434 1.8573 48.1261 1.2448C46.8803 0.661281 45.4681 0 43.9812 0C42.4944 0 41.082 0.661281 39.8361 1.24469C38.5283 1.85708 37.2931 2.43556 36.3102 2.11509C35.6186 1.88978 34.8543 2.26756 34.6066 2.95717C33.8953 4.93511 33.5346 7.01017 33.5346 9.12461C33.5346 9.43359 33.545 9.7393 33.5605 10.043C30.9117 8.96405 28.0171 8.36719 24.9852 8.36719C12.4107 8.36719 2.18052 18.5974 2.18052 31.1719C2.18052 34.0471 2.71777 36.7985 3.69339 39.3342L2.04259 40.985C1.41544 41.6123 1.41544 42.633 2.04259 43.2603L14.3111 55.5287C14.6149 55.8327 15.0191 56 15.4488 56C15.8785 56 16.2826 55.8327 16.5865 55.5287L18.9509 53.1643C20.8737 53.6928 22.8968 53.9766 24.9851 53.9766C27.0734 53.9766 29.0965 53.6928 31.0193 53.1643L33.3837 55.5286C33.6875 55.8325 34.0917 55.9999 34.5214 55.9999C34.9511 55.9999 35.3552 55.8325 35.6591 55.5286L40.3574 50.8303C40.6778 50.5099 40.6778 49.9905 40.3574 49.6702C40.037 49.3499 39.5176 49.3499 39.1973 49.6702L34.5214 54.3461L30.2428 50.0675L42.4665 37.8439L46.745 42.1225L41.9041 46.9633C41.5837 47.2837 41.5837 47.8031 41.9041 48.1234C42.2246 48.4437 42.7439 48.4437 43.0642 48.1234L47.9275 43.2601C48.2313 42.9562 48.3988 42.5521 48.3988 42.1224C48.3988 41.6925 48.2314 41.2885 47.9275 40.9847L46.2768 39.334C47.2524 36.7982 47.7897 34.0469 47.7897 31.1717C47.7897 28.404 47.2915 25.7514 46.3842 23.2951C51.5888 19.9784 54.4277 15.012 54.4277 9.12461V9.12461ZM15.4489 54.3463L3.22516 42.1226L7.50369 37.8441L19.7274 50.0677L15.4489 54.3463ZM23.9028 22.3964H25.5219L27.0501 23.9246C27.3504 24.225 27.5108 24.6245 27.5014 25.0494C27.4921 25.4739 27.3136 25.8664 26.9989 26.1545C26.3998 26.7028 25.4208 26.6574 24.8168 26.0531L19.3942 20.6305C18.7929 20.0292 18.7929 19.0509 19.3941 18.4496C19.6204 18.2234 19.9 18.0836 20.1927 18.0281C20.1906 18.0667 20.1868 18.1048 20.1868 18.1439V18.6804C20.1868 20.7294 21.8538 22.3964 23.9028 22.3964ZM21.8274 18.6804V18.1439C21.8274 17.8835 22.0394 17.6716 22.2997 17.6716H26.518C27.0687 17.6716 27.5654 17.964 27.8388 18.4181L25.5009 20.756H23.9028C22.7584 20.7558 21.8274 19.8248 21.8274 18.6804V18.6804ZM24.328 27.8845C24.6224 28.1789 24.7828 28.5705 24.7796 28.987C24.7763 29.4035 24.6097 29.7925 24.3107 30.0824C23.7096 30.6649 22.7389 30.6574 22.1471 30.0654L16.0532 23.9715H16.0531C15.7618 23.6802 15.6014 23.2929 15.6014 22.881C15.6014 22.4691 15.7618 22.0818 16.0532 21.7906C16.3444 21.4993 16.7317 21.339 17.1437 21.339C17.5556 21.339 17.9429 21.4993 18.234 21.7906L24.328 27.8845ZM19.8962 30.1348C20.1908 30.4293 20.3511 30.8209 20.3478 31.2374C20.3446 31.6539 20.1781 32.0428 19.8789 32.3328C19.2778 32.9154 18.3072 32.9077 17.7154 32.3158L13.7347 28.3351L12.7121 27.3126C12.4209 27.0213 12.2605 26.634 12.2605 26.2221C12.2605 25.8102 12.4209 25.4229 12.7121 25.1316C13.0128 24.831 13.4078 24.6807 13.8027 24.6807C14.1974 24.6807 14.5923 24.8309 14.8928 25.1313L14.8932 25.1316L19.8962 30.1348ZM12.5734 29.4941L15.2395 32.1601C15.5336 32.4545 15.6938 32.8459 15.6905 33.2619C15.6872 33.6784 15.5207 34.0675 15.2216 34.3573C14.6204 34.9398 13.6499 34.9323 13.0581 34.3404L10.3936 31.6759C9.79236 31.0745 9.79236 30.0963 10.3935 29.4949C10.6942 29.1943 11.0891 29.044 11.4841 29.044C11.8785 29.0442 12.2729 29.1942 12.5734 29.4941V29.4941ZM14.149 36.4271C14.9491 36.4271 15.7497 36.1304 16.3635 35.5355C16.804 35.1086 17.1042 34.5773 17.2431 33.9957C17.7257 34.2661 18.2658 34.4024 18.8063 34.4024C19.6064 34.4024 20.4069 34.1056 21.0207 33.5108C21.4864 33.0595 21.7962 32.4916 21.9231 31.8709C22.3392 32.0579 22.7884 32.1521 23.2379 32.1521C24.038 32.1521 24.8386 31.8554 25.4525 31.2605C26.0698 30.6622 26.4134 29.8594 26.4201 28.9998C26.4223 28.7152 26.3867 28.4364 26.3171 28.1685C26.9654 28.1005 27.5939 27.8341 28.1067 27.3646C28.7547 26.7714 29.1222 25.962 29.1416 25.0857C29.1608 24.209 28.83 23.3846 28.21 22.7647L27.0112 21.5658L29.6297 18.9472C30.2313 18.3461 31.2095 18.346 31.8106 18.9472C32.4112 19.5478 32.4119 20.5247 31.8128 21.1261C31.8122 21.1268 31.8115 21.1274 31.8108 21.1282C31.4904 21.4485 31.4904 21.968 31.8109 22.2882C32.1311 22.6086 32.6505 22.6085 32.9709 22.2882C33.572 21.687 34.5505 21.687 35.1516 22.2882C35.7522 22.8888 35.7528 23.8656 35.1537 24.4671C35.153 24.4677 35.1524 24.4684 35.1517 24.4692H35.1516C34.8312 24.7895 34.8312 25.3089 35.1516 25.6292C35.472 25.9495 35.9914 25.9495 36.3116 25.6292C36.603 25.3378 36.9902 25.1775 37.4022 25.1775C37.8141 25.1775 38.2014 25.3378 38.4926 25.6291C39.0939 26.2304 39.0939 27.2088 38.4926 27.81C38.1722 28.1304 38.1722 28.6498 38.4926 28.97C38.8129 29.2904 39.3324 29.2904 39.6526 28.97C39.951 28.6718 40.3445 28.511 40.7692 28.5187C41.1906 28.5257 41.5819 28.6997 41.8707 29.0085C42.4318 29.6083 42.3955 30.589 41.7898 31.1947L35.9041 37.0804C35.5837 37.4008 35.5837 37.9202 35.9041 38.2405C36.2246 38.5608 36.7439 38.5608 37.0642 38.2405L38.5 36.8052L39.8426 38.1478L31.1371 46.8533L26.4292 42.1454C27.0988 41.9109 27.8117 41.7983 28.5313 41.8251L30.0924 41.8828C31.4675 41.9345 32.8245 41.5993 34.0207 40.9158C34.4141 40.691 34.5508 40.1898 34.3259 39.7965C34.1012 39.4031 33.5999 39.2665 33.2068 39.4912C32.2767 40.0226 31.2196 40.2829 30.1531 40.2431L28.592 40.1855C26.5513 40.1089 24.5524 40.8949 23.1084 42.3388L18.7138 46.7335L10.2784 38.2983L12.567 36.0097C13.0543 36.2875 13.6013 36.4271 14.149 36.4271V36.4271ZM24.9852 52.3359C23.377 52.3359 21.8114 52.1521 20.305 51.8103L20.91 51.2053C21.2138 50.9015 21.3813 50.4973 21.3813 50.0676C21.3813 49.6378 21.214 49.2337 20.91 48.9299L19.8739 47.8938L24.2687 43.499C24.4695 43.2981 24.6848 43.1144 24.911 42.9472L29.9771 48.0132L29.0604 48.9299C28.4334 49.5572 28.4334 50.5778 29.0605 51.2052L29.6655 51.8102C28.159 52.1521 26.5935 52.3359 24.9852 52.3359V52.3359ZM46.1493 31.1719C46.1493 33.581 45.7439 35.897 44.999 38.0563L43.6043 36.6616C43.3005 36.3577 42.8963 36.1903 42.4666 36.1903C42.0369 36.1903 41.6327 36.3577 41.3289 36.6616L41.0027 36.9878L39.6602 35.6452L42.9504 32.355C44.1746 31.1306 44.2281 29.1267 43.0694 27.888C42.474 27.2514 41.667 26.8929 40.797 26.8784C40.7244 26.877 40.6519 26.8784 40.5798 26.882C40.6236 26.0137 40.3148 25.1308 39.6532 24.469C39.052 23.8679 38.2527 23.5368 37.4027 23.5368C37.3478 23.5368 37.2931 23.5383 37.2387 23.541C37.2826 22.6728 36.9738 21.7897 36.3121 21.1281C35.6499 20.4659 34.767 20.1576 33.8976 20.2016C33.942 19.3328 33.6332 18.4492 32.971 17.7871C31.9147 16.7308 30.2947 16.5743 29.0705 17.3165C28.4831 16.5272 27.5473 16.031 26.5182 16.031H22.2999C21.8472 16.031 21.4283 16.1754 21.084 16.4187C20.0829 16.2277 19.0078 16.5161 18.2341 17.2895C17.5724 17.9512 17.2639 18.8342 17.3078 19.7025C17.2534 19.6997 17.1987 19.6982 17.1438 19.6982C16.2936 19.6982 15.4943 20.0293 14.8933 20.6304C14.292 21.2315 13.961 22.0309 13.961 22.881C13.961 22.9359 13.9625 22.9906 13.9652 23.0451C13.097 23.0011 12.214 23.3098 11.5523 23.9715C10.9511 24.5726 10.6201 25.3719 10.6201 26.2221C10.6201 26.6558 10.7067 27.076 10.8709 27.4636C10.2707 27.5807 9.69775 27.871 9.23367 28.335C7.99281 29.576 7.99281 31.5952 9.23367 32.8361L11.3273 34.9298L9.11861 37.1385L8.64174 36.6616C8.33789 36.3577 7.93375 36.1903 7.50402 36.1903C7.07428 36.1903 6.67025 36.3577 6.36641 36.6616L4.97177 38.0563C4.22692 35.897 3.82158 33.581 3.82158 31.1719C3.82158 19.502 13.3158 10.0078 24.9856 10.0078C28.1141 10.0078 31.0849 10.6924 33.7596 11.9162C34.6199 17.1857 37.9503 21.5258 43.3553 24.317C43.5514 24.4183 43.7665 24.469 43.9817 24.469C44.1967 24.469 44.4118 24.4184 44.6077 24.3171C44.722 24.2581 44.8334 24.1969 44.9457 24.1365C45.7239 26.3387 46.1493 28.7063 46.1493 31.1719V31.1719ZM43.9812 22.7933C41.2665 21.3694 39.1307 19.5335 37.6314 17.3348C36.0016 14.9446 35.1751 12.1823 35.1751 9.12461C35.1751 7.28459 35.4749 5.47794 36.0669 3.75014C37.5767 4.11436 39.0777 3.41152 40.5318 2.73055C41.6762 2.19472 42.8594 1.64062 43.9812 1.64062C45.103 1.64062 46.2862 2.19472 47.4305 2.73055C48.8846 3.41163 50.3858 4.11447 51.8955 3.75014C52.4873 5.47783 52.7871 7.2847 52.7871 9.12461C52.7871 12.1823 51.9607 14.9446 50.3309 17.3348C48.8317 19.5334 46.6958 21.3694 43.9812 22.7933Z" fill="#11302D"/>
<path d="M49.6421 10.1888C50.0745 10.0535 50.3152 9.59326 50.1799 9.1609C49.3277 6.4379 46.8366 4.60838 43.9813 4.60838C40.4002 4.60838 37.4867 7.5218 37.4867 11.1029C37.4867 14.6839 40.4002 17.5973 43.9813 17.5973C46.6383 17.5973 49.001 16.0057 50.0002 13.5424C50.1705 13.1226 49.9683 12.6442 49.5484 12.4739C49.1284 12.3034 48.6501 12.5058 48.4798 12.9256C47.7329 14.7668 45.967 15.9566 43.9812 15.9566C41.3047 15.9566 39.1272 13.7791 39.1272 11.1027C39.1272 8.42634 41.3047 6.2489 43.9812 6.2489C46.1154 6.2489 47.9772 7.61609 48.6141 9.6509C48.7495 10.0834 49.2102 10.3241 49.6421 10.1888V10.1888Z" fill="#11302D"/>
<path d="M46.1307 9.10837L43.5975 11.6416L41.8316 9.87564C41.5111 9.55528 40.9918 9.55528 40.6714 9.87564C40.3511 10.196 40.3511 10.7154 40.6714 11.0357L43.0174 13.3817C43.1777 13.5418 43.3877 13.622 43.5975 13.622C43.8074 13.622 44.0174 13.5419 44.1777 13.3817L47.2909 10.2684C47.6113 9.94805 47.6113 9.42862 47.2909 9.10837C46.9705 8.78801 46.4511 8.78801 46.1307 9.10837V9.10837Z" fill="#11302D"/>
</g>
<defs>
<clipPath id="clip0_2_9">
<rect width="56" height="56" fill="white"/>
</clipPath>
</defs>
</svg>
