<svg width="56" height="56" viewBox="0 0 56 56" fill="none" xmlns="http://www.w3.org/2000/svg">
<g clip-path="url(#clip0_103_2856)">
<path d="M54.4278 9.12461C54.4278 7.01028 54.0672 4.93533 53.3558 2.95706C53.1077 2.26756 52.3434 1.88945 51.6521 2.1152C50.6698 2.43578 49.4341 1.8573 48.1261 1.2448C46.8804 0.661281 45.4681 0 43.9813 0C42.4944 0 41.0821 0.661281 39.8362 1.24469C38.5284 1.85708 37.2931 2.43556 36.3103 2.11509C35.6187 1.88978 34.8544 2.26756 34.6066 2.95717C33.8954 4.93511 33.5346 7.01017 33.5346 9.12461C33.5346 9.43359 33.545 9.7393 33.5606 10.043C30.9117 8.96405 28.0171 8.36719 24.9852 8.36719C12.4107 8.36719 2.18055 18.5974 2.18055 31.1719C2.18055 34.0471 2.71781 36.7985 3.69343 39.3342L2.04263 40.985C1.41548 41.6123 1.41548 42.633 2.04263 43.2603L14.3111 55.5287C14.615 55.8327 15.0191 56 15.4488 56C15.8786 56 16.2826 55.8327 16.5866 55.5287L18.9509 53.1643C20.8737 53.6928 22.8968 53.9766 24.9851 53.9766C27.0734 53.9766 29.0965 53.6928 31.0194 53.1643L33.3837 55.5286C33.6876 55.8325 34.0917 55.9999 34.5214 55.9999C34.9512 55.9999 35.3552 55.8325 35.6591 55.5286L40.3575 50.8303C40.6778 50.5099 40.6778 49.9905 40.3575 49.6702C40.037 49.3499 39.5177 49.3499 39.1973 49.6702L34.5214 54.3461L30.2428 50.0675L42.4665 37.8439L46.7451 42.1225L41.9041 46.9633C41.5838 47.2837 41.5838 47.8031 41.9041 48.1234C42.2246 48.4437 42.7439 48.4437 43.0643 48.1234L47.9275 43.2601C48.2314 42.9562 48.3988 42.5521 48.3988 42.1224C48.3988 41.6925 48.2315 41.2885 47.9275 40.9847L46.2768 39.334C47.2525 36.7982 47.7897 34.0469 47.7897 31.1717C47.7897 28.404 47.2915 25.7514 46.3842 23.2951C51.5889 19.9784 54.4278 15.012 54.4278 9.12461ZM15.4489 54.3463L3.2252 42.1226L7.50373 37.8441L19.7275 50.0677L15.4489 54.3463ZM23.9029 22.3964H25.5219L27.0501 23.9246C27.3505 24.225 27.5108 24.6245 27.5014 25.0494C27.4921 25.4739 27.3136 25.8664 26.9989 26.1545C26.3998 26.7028 25.4209 26.6574 24.8168 26.0531L19.3942 20.6305C18.793 20.0292 18.793 19.0509 19.3941 18.4496C19.6204 18.2234 19.9001 18.0836 20.1928 18.0281C20.1907 18.0667 20.1869 18.1048 20.1869 18.1439V18.6804C20.1869 20.7294 21.8538 22.3964 23.9029 22.3964ZM21.8275 18.6804V18.1439C21.8275 17.8835 22.0394 17.6716 22.2998 17.6716H26.518C27.0687 17.6716 27.5654 17.964 27.8388 18.4181L25.5009 20.756H23.9029C22.7585 20.7558 21.8275 19.8248 21.8275 18.6804ZM24.328 27.8845C24.6224 28.1789 24.7828 28.5705 24.7796 28.987C24.7763 29.4035 24.6098 29.7925 24.3107 30.0824C23.7096 30.6649 22.7389 30.6574 22.1472 30.0654L16.0532 23.9715H16.0531C15.7619 23.6802 15.6014 23.2929 15.6014 22.881C15.6014 22.4691 15.7619 22.0818 16.0532 21.7906C16.3444 21.4993 16.7317 21.339 17.1437 21.339C17.5556 21.339 17.9429 21.4993 18.2341 21.7906L24.328 27.8845ZM19.8962 30.1348C20.1908 30.4293 20.3511 30.8209 20.3479 31.2374C20.3447 31.6539 20.1781 32.0428 19.879 32.3328C19.2778 32.9154 18.3072 32.9077 17.7154 32.3158L13.7347 28.3351L12.7122 27.3126C12.4209 27.0213 12.2606 26.634 12.2606 26.2221C12.2606 25.8102 12.4209 25.4229 12.7122 25.1316C13.0128 24.831 13.4078 24.6807 13.8027 24.6807C14.1975 24.6807 14.5923 24.8309 14.8929 25.1313L14.8932 25.1316L19.8962 30.1348ZM12.5735 29.4941L15.2395 32.1601C15.5336 32.4545 15.6938 32.8459 15.6906 33.2619C15.6873 33.6784 15.5207 34.0675 15.2217 34.3573C14.6204 34.9398 13.6499 34.9323 13.0581 34.3404L10.3936 31.6759C9.7924 31.0745 9.7924 30.0963 10.3935 29.4949C10.6942 29.1943 11.0891 29.044 11.4841 29.044C11.8785 29.0442 12.2729 29.1942 12.5735 29.4941ZM14.149 36.4271C14.9491 36.4271 15.7497 36.1304 16.3635 35.5355C16.804 35.1086 17.1042 34.5773 17.2431 33.9957C17.7257 34.2661 18.2658 34.4024 18.8063 34.4024C19.6064 34.4024 20.4069 34.1056 21.0207 33.5107C21.4864 33.0595 21.7962 32.4916 21.9232 31.8709C22.3392 32.0579 22.7884 32.1521 23.238 32.1521C24.0381 32.1521 24.8387 31.8554 25.4525 31.2605C26.0698 30.6622 26.4135 29.8594 26.4201 28.9998C26.4223 28.7152 26.3868 28.4364 26.3171 28.1685C26.9655 28.1005 27.5939 27.8341 28.1067 27.3646C28.7547 26.7714 29.1222 25.962 29.1416 25.0857C29.1609 24.209 28.83 23.3846 28.2101 22.7647L27.0112 21.5658L29.6297 18.9473C30.2313 18.3461 31.2096 18.346 31.8107 18.9473C32.4113 19.5478 32.4119 20.5247 31.8129 21.1261C31.8122 21.1268 31.8116 21.1274 31.8108 21.1282C31.4904 21.4485 31.4904 21.968 31.8109 22.2882C32.1311 22.6086 32.6506 22.6085 32.9709 22.2882C33.5721 21.687 34.5505 21.687 35.1516 22.2882C35.7522 22.8888 35.7529 23.8656 35.1537 24.4671C35.1531 24.4677 35.1524 24.4684 35.1518 24.4692H35.1516C34.8313 24.7895 34.8313 25.3089 35.1516 25.6292C35.472 25.9495 35.9914 25.9495 36.3117 25.6292C36.6031 25.3378 36.9902 25.1775 37.4023 25.1775C37.8142 25.1775 38.2015 25.3378 38.4926 25.6291C39.094 26.2304 39.094 27.2088 38.4926 27.81C38.1723 28.1304 38.1723 28.6498 38.4926 28.97C38.813 29.2904 39.3324 29.2904 39.6526 28.97C39.951 28.6718 40.3446 28.511 40.7693 28.5187C41.1907 28.5257 41.5819 28.6997 41.8708 29.0085C42.4319 29.6083 42.3956 30.589 41.7898 31.1947L35.9041 37.0804C35.5838 37.4008 35.5838 37.9202 35.9041 38.2405C36.2246 38.5608 36.7439 38.5608 37.0643 38.2405L38.5001 36.8052L39.8426 38.1478L31.1371 46.8533L26.4292 42.1454C27.0988 41.9109 27.8117 41.7983 28.5313 41.8251L30.0924 41.8828C31.4676 41.9345 32.8246 41.5993 34.0207 40.9158C34.4141 40.691 34.5508 40.1898 34.326 39.7965C34.1012 39.4031 33.5999 39.2665 33.2069 39.4912C32.2767 40.0226 31.2196 40.2829 30.1531 40.2431L28.592 40.1855C26.5514 40.1089 24.5524 40.8949 23.1085 42.3388L18.7138 46.7335L10.2785 38.2983L12.567 36.0098C13.0543 36.2875 13.6014 36.4271 14.149 36.4271ZM24.9852 52.3359C23.377 52.3359 21.8114 52.1521 20.3051 51.8103L20.91 51.2053C21.2139 50.9015 21.3813 50.4973 21.3813 50.0676C21.3813 49.6378 21.214 49.2337 20.91 48.9299L19.8739 47.8938L24.2687 43.499C24.4695 43.2981 24.6848 43.1144 24.9111 42.9472L29.9771 48.0132L29.0604 48.9299C28.4334 49.5572 28.4334 50.5778 29.0606 51.2052L29.6655 51.8102C28.1591 52.1521 26.5935 52.3359 24.9852 52.3359ZM46.1493 31.1719C46.1493 33.581 45.744 35.897 44.999 38.0563L43.6044 36.6616C43.3005 36.3577 42.8964 36.1903 42.4666 36.1903C42.0369 36.1903 41.6328 36.3577 41.3289 36.6616L41.0028 36.9878L39.6602 35.6452L42.9504 32.355C44.1746 31.1306 44.2281 29.1267 43.0694 27.888C42.4741 27.2514 41.667 26.8929 40.797 26.8784C40.7244 26.877 40.6519 26.8784 40.5798 26.882C40.6237 26.0138 40.3148 25.1308 39.6532 24.469C39.0521 23.8679 38.2528 23.5368 37.4027 23.5368C37.3478 23.5368 37.2931 23.5383 37.2387 23.541C37.2826 22.6728 36.9738 21.7897 36.3121 21.1281C35.65 20.4659 34.7671 20.1576 33.8977 20.2016C33.9421 19.3328 33.6332 18.4492 32.971 17.7871C31.9147 16.7308 30.2947 16.5743 29.0705 17.3165C28.4832 16.5272 27.5474 16.031 26.5182 16.031H22.3C21.8473 16.031 21.4284 16.1754 21.0841 16.4187C20.0829 16.2277 19.0078 16.5161 18.2342 17.2895C17.5725 17.9512 17.2639 18.8342 17.3079 19.7025C17.2534 19.6997 17.1987 19.6982 17.1438 19.6982C16.2936 19.6982 15.4943 20.0293 14.8933 20.6304C14.2921 21.2315 13.961 22.0309 13.961 22.881C13.961 22.9359 13.9625 22.9906 13.9653 23.0451C13.0971 23.0011 12.2141 23.3098 11.5524 23.9715C10.9511 24.5726 10.6201 25.3719 10.6201 26.2221C10.6201 26.6558 10.7068 27.076 10.8709 27.4636C10.2707 27.5807 9.69779 27.871 9.23371 28.335C7.99285 29.576 7.99285 31.5952 9.23371 32.8361L11.3274 34.9298L9.11865 37.1385L8.64177 36.6616C8.33793 36.3577 7.93379 36.1903 7.50406 36.1903C7.07432 36.1903 6.67029 36.3577 6.36645 36.6616L4.97181 38.0563C4.22696 35.897 3.82162 33.581 3.82162 31.1719C3.82162 19.502 13.3158 10.0078 24.9857 10.0078C28.1141 10.0078 31.085 10.6924 33.7596 11.9162C34.62 17.1857 37.9503 21.5258 43.3553 24.317C43.5514 24.4183 43.7666 24.469 43.9817 24.469C44.1967 24.469 44.4119 24.4184 44.6078 24.3171C44.7221 24.2581 44.8334 24.1969 44.9457 24.1365C45.7239 26.3387 46.1493 28.7063 46.1493 31.1719ZM43.9813 22.7933C41.2666 21.3694 39.1307 19.5335 37.6314 17.3348C36.0016 14.9446 35.1752 12.1823 35.1752 9.12461C35.1752 7.28459 35.475 5.47794 36.0669 3.75014C37.5767 4.11436 39.0778 3.41152 40.5318 2.73055C41.6762 2.19472 42.8594 1.64062 43.9813 1.64062C45.103 1.64062 46.2862 2.19472 47.4305 2.73055C48.8847 3.41163 50.3858 4.11447 51.8955 3.75014C52.4874 5.47783 52.7872 7.2847 52.7872 9.12461C52.7872 12.1823 51.9607 14.9446 50.3309 17.3348C48.8317 19.5334 46.6959 21.3694 43.9813 22.7933Z" fill="#11302D"/>
<path d="M49.6422 10.1888C50.0746 10.0535 50.3153 9.59327 50.18 9.16091C49.3278 6.43791 46.8368 4.6084 43.9814 4.6084C40.4004 4.6084 37.4868 7.52182 37.4868 11.1029C37.4868 14.6839 40.4004 17.5973 43.9814 17.5973C46.6385 17.5973 49.0011 16.0057 50.0003 13.5424C50.1706 13.1226 49.9684 12.6442 49.5485 12.4739C49.1285 12.3034 48.6502 12.5058 48.4799 12.9256C47.733 14.7668 45.9671 15.9566 43.9813 15.9566C41.3048 15.9566 39.1273 13.7792 39.1273 11.1028C39.1273 8.42635 41.3048 6.24891 43.9813 6.24891C46.1155 6.24891 47.9773 7.6161 48.6142 9.65091C48.7496 10.0834 49.2103 10.3241 49.6422 10.1888Z" fill="#11302D"/>
<path d="M46.1307 9.10843L43.5975 11.6417L41.8316 9.8757C41.5111 9.55534 40.9918 9.55534 40.6714 9.8757C40.3511 10.1961 40.3511 10.7155 40.6714 11.0357L43.0174 13.3817C43.1776 13.5418 43.3876 13.622 43.5975 13.622C43.8074 13.622 44.0174 13.542 44.1777 13.3817L47.2909 10.2685C47.6113 9.94811 47.6113 9.42868 47.2909 9.10843C46.9704 8.78807 46.4511 8.78807 46.1307 9.10843Z" fill="#11302D"/>
</g>
<defs>
<clipPath id="clip0_103_2856">
<rect width="56" height="56" fill="white"/>
</clipPath>
</defs>
</svg>
