<svg width="19" height="16" viewBox="0 0 19 16" fill="none" xmlns="http://www.w3.org/2000/svg">
<path d="M19 1.82756C18.2934 2.1375 17.5406 2.34294 16.7556 2.44269C17.5631 1.96056 18.1794 1.20294 18.4692 0.28975C17.7163 0.738625 16.8851 1.05569 15.9992 1.23263C15.2843 0.471438 14.2654 0 13.1539 0C10.9974 0 9.26131 1.75038 9.26131 3.89619C9.26131 4.20494 9.28744 4.50181 9.35156 4.78444C6.11325 4.6265 3.24781 3.07444 1.32287 0.710125C0.986812 1.29319 0.789688 1.96056 0.789688 2.679C0.789688 4.028 1.48438 5.22381 2.51988 5.91613C1.89406 5.90425 1.28013 5.72256 0.76 5.43638C0.76 5.44825 0.76 5.46369 0.76 5.47913C0.76 7.372 2.11019 8.94425 3.88075 9.30644C3.56369 9.39313 3.21812 9.43469 2.8595 9.43469C2.61013 9.43469 2.35837 9.42044 2.12206 9.36819C2.62675 10.9108 4.05888 12.0448 5.76175 12.0816C4.4365 13.1183 2.75381 13.7429 0.932188 13.7429C0.61275 13.7429 0.306375 13.7287 0 13.6895C1.72544 14.8022 3.77031 15.4375 5.9755 15.4375C13.1432 15.4375 17.062 9.5 17.062 4.35338C17.062 4.18119 17.0561 4.01494 17.0478 3.84988C17.8208 3.30125 18.4704 2.61606 19 1.82756Z" fill="white"/>
</svg>
