<svg width="25" height="15" viewBox="0 0 25 15" fill="none" xmlns="http://www.w3.org/2000/svg">
<path d="M11.5245 0.398999L0.399387 11.5243C0.141869 11.7816 0 12.1251 0 12.4914C0 12.8576 0.141869 13.2011 0.399387 13.4584L1.21849 14.2777C1.75222 14.8109 2.61969 14.8109 3.15262 14.2777L12.4948 4.93555L21.8474 14.2881C22.1049 14.5454 22.4482 14.6875 22.8142 14.6875C23.1807 14.6875 23.524 14.5454 23.7817 14.2881L24.6006 13.4688C24.8581 13.2113 25 12.868 25 12.5017C25 12.1355 24.8581 11.792 24.6006 11.5347L13.4653 0.398999C13.207 0.141074 12.8621 -0.000591278 12.4954 0.000222206C12.1273 -0.000591278 11.7826 0.141074 11.5245 0.398999Z" fill="#22DBB5"/>
</svg>
