<svg width="56" height="56" viewBox="0 0 56 56" fill="none" xmlns="http://www.w3.org/2000/svg">
<path d="M49.313 13.3323C49.0752 12.9465 48.5698 12.8266 48.1842 13.0644C47.7986 13.3022 47.6786 13.8076 47.9164 14.1932C50.3261 18.1021 51.6635 22.5757 51.8056 27.1797H41.7266C41.3113 18.8501 34.6088 12.1476 26.2793 11.7323V1.6532C33.8381 1.88606 40.8977 5.32777 45.7523 11.177C46.0417 11.5256 46.5589 11.5737 46.9074 11.2843C47.2561 10.9949 47.3041 10.4778 47.0148 10.1291C41.6722 3.69195 33.8154 0 25.459 0C25.0059 0 24.6387 0.367172 24.6387 0.820312V5.09786C19.7198 5.26783 15.0987 6.96522 11.2283 10.0347C7.26553 13.1774 4.41784 17.5968 3.2099 22.4786C3.10107 22.9184 3.36937 23.3632 3.80917 23.472C3.87523 23.4883 3.94151 23.4963 4.00681 23.4963C4.37518 23.4963 4.70998 23.2465 4.8024 22.8728C7.08943 13.6303 15.179 7.098 24.6387 6.73958V11.7321C16.0366 12.1608 9.17007 19.2934 9.17007 28C9.17007 32.0763 10.6575 35.924 13.3753 38.9235L9.84568 42.4531C6.18742 38.5085 4.18115 33.4086 4.18115 28C4.18115 27.4971 4.19854 26.9966 4.23278 26.5124C4.26471 26.0603 3.92423 25.6681 3.47229 25.6362C3.01981 25.6032 2.62814 25.9446 2.5962 26.3967C2.55934 26.9192 2.54053 27.4586 2.54053 27.9999C2.54053 33.8467 4.71709 39.3587 8.68478 43.6138L5.65946 46.6391C5.33911 46.9596 5.33911 47.4789 5.65946 47.7993C10.9477 53.0877 17.9792 56 25.459 56C32.9379 56 39.9691 53.0877 45.2573 47.7994C45.5776 47.4789 45.5776 46.9596 45.2573 46.6394L42.2323 43.6139C46.0136 39.5588 48.1664 34.3614 48.3601 28.8203H52.6386C53.0917 28.8203 53.459 28.4531 53.459 28C53.459 22.8039 52.0254 17.7319 49.313 13.3323ZM25.459 54.3594C18.6917 54.3594 12.3139 51.8269 7.40848 47.2106L14.5362 40.0829C17.017 42.3231 20.1593 43.7647 23.471 44.1674C23.9216 44.2223 24.3297 43.9018 24.3844 43.4521C24.439 43.0023 24.1188 42.5934 23.669 42.5387C20.4489 42.1472 17.4062 40.6623 15.1015 38.3574C15.0997 38.3556 15.0979 38.3542 15.0961 38.3525C12.3327 35.5865 10.8107 31.9102 10.8107 28C10.8107 19.9247 17.3791 13.3548 25.4538 13.3523C25.4556 13.3523 25.4572 13.3525 25.459 13.3525C33.5351 13.3525 40.1055 19.9224 40.1065 27.9984C40.1065 27.9989 40.1064 27.9995 40.1064 28C40.1064 31.9126 38.5826 35.591 35.8161 38.3575C35.8156 38.358 35.8151 38.3587 35.8145 38.3592C33.5212 40.6506 30.4962 42.133 27.2962 42.5335C26.8467 42.5899 26.5279 42.9999 26.5842 43.4494C26.6404 43.899 27.05 44.2168 27.5001 44.1616C30.7905 43.7497 33.914 42.3103 36.3816 40.0828L43.5085 47.2105C38.6029 51.8269 32.2256 54.3594 25.459 54.3594ZM41.0716 42.453L37.5421 38.9231C40.0767 36.1257 41.5409 32.5905 41.7266 28.8202H46.7184C46.5263 33.9232 44.544 38.7089 41.0716 42.453Z" fill="#11302D"/>
<path d="M33.6346 36.2229C34.0876 36.2229 34.4549 35.8558 34.4549 35.4026V31.646C34.4549 28.7719 32.1287 26.4319 29.2603 26.4074C30.1506 25.4678 30.6984 24.2006 30.6984 22.8071C30.6984 19.9179 28.3479 17.5674 25.4586 17.5674C22.5694 17.5674 20.2189 19.9179 20.2189 22.8071C20.2189 24.2006 20.7667 25.4678 21.6571 26.4074C18.7886 26.4318 16.4624 28.7719 16.4624 31.646V35.4026C16.4624 35.8558 16.8297 36.2229 17.2827 36.2229H33.6346ZM25.4586 19.208C27.4432 19.208 29.0578 20.8226 29.0578 22.8071C29.0578 24.7916 27.4432 26.4062 25.4586 26.4062C23.474 26.4062 21.8595 24.7916 21.8595 22.8071C21.8595 20.8226 23.4741 19.208 25.4586 19.208ZM18.1029 31.646C18.1029 29.6614 19.7175 28.0469 21.7021 28.0469H29.2152C31.1998 28.0469 32.8143 29.6615 32.8143 31.646V34.5823H29.8145V33.1929C29.8145 32.7398 29.4472 32.3726 28.9942 32.3726C28.5411 32.3726 28.1738 32.7398 28.1738 33.1929V34.5823H22.7434V33.1929C22.7434 32.7398 22.3761 32.3726 21.9231 32.3726C21.47 32.3726 21.1027 32.7398 21.1027 33.1929V34.5823H18.1029V31.646Z" fill="#11302D"/>
</svg>
