<svg width="76" height="56" viewBox="0 0 76 56" fill="none" xmlns="http://www.w3.org/2000/svg">
<circle cx="48" cy="28" r="28" fill="#22DBB5" fill-opacity="0.15"/>
<path d="M49.3132 13.3323C49.0754 12.9465 48.57 12.8266 48.1845 13.0644C47.7988 13.3022 47.6788 13.8076 47.9166 14.1932C50.3264 18.1021 51.6637 22.5757 51.8059 27.1797H41.7269C41.3116 18.8501 34.6091 12.1476 26.2795 11.7323V1.6532C33.8383 1.88606 40.8979 5.32777 45.7525 11.177C46.0419 11.5256 46.5592 11.5737 46.9076 11.2843C47.2563 10.9949 47.3043 10.4778 47.015 10.1291C41.6724 3.69195 33.8157 0 25.4592 0C25.0062 0 24.6389 0.367172 24.6389 0.820312V5.09786C19.7201 5.26783 15.099 6.96522 11.2285 10.0347C7.26575 13.1774 4.41806 17.5968 3.21013 22.4786C3.1013 22.9184 3.3696 23.3632 3.80939 23.472C3.87546 23.4883 3.94174 23.4963 4.00703 23.4963C4.37541 23.4963 4.71021 23.2465 4.80263 22.8728C7.08966 13.6303 15.1793 7.098 24.6389 6.73958V11.7321C16.0369 12.1607 9.1703 19.2934 9.1703 28C9.1703 32.0763 10.6577 35.924 13.3755 38.9235L9.84591 42.4531C6.18764 38.5085 4.18138 33.4086 4.18138 28C4.18138 27.4971 4.19877 26.9966 4.233 26.5124C4.26494 26.0603 3.92446 25.6681 3.47252 25.6362C3.02003 25.6032 2.62836 25.9446 2.59642 26.3967C2.55956 26.9192 2.54075 27.4586 2.54075 27.9999C2.54075 33.8467 4.71731 39.3587 8.685 43.6138L5.65969 46.6391C5.33933 46.9596 5.33933 47.4789 5.65969 47.7993C10.948 53.0877 17.9795 56 25.4592 56C32.9381 56 39.9693 53.0877 45.2575 47.7994C45.5778 47.4789 45.5778 46.9596 45.2575 46.6394L42.2325 43.6139C46.0138 39.5588 48.1666 34.3614 48.3603 28.8203H52.6389C53.0919 28.8203 53.4592 28.4531 53.4592 28C53.4592 22.8039 52.0256 17.7319 49.3132 13.3323V13.3323ZM25.4592 54.3594C18.6919 54.3594 12.3142 51.8269 7.40871 47.2106L14.5365 40.0829C17.0172 42.3231 20.1595 43.7647 23.4712 44.1674C23.9218 44.2223 24.3299 43.9018 24.3846 43.4521C24.4393 43.0023 24.119 42.5934 23.6693 42.5387C20.4492 42.1472 17.4065 40.6623 15.1017 38.3574C15.1 38.3556 15.0981 38.3542 15.0963 38.3525C12.3329 35.5865 10.8109 31.9102 10.8109 28C10.8109 19.9247 17.3793 13.3548 25.4541 13.3523C25.4558 13.3523 25.4574 13.3525 25.4592 13.3525C33.5353 13.3525 40.1057 19.9224 40.1067 27.9984C40.1067 27.9989 40.1066 27.9995 40.1066 28C40.1066 31.9126 38.5829 35.591 35.8163 38.3575C35.8158 38.358 35.8154 38.3587 35.8147 38.3592C33.5214 40.6506 30.4965 42.133 27.2965 42.5335C26.8469 42.5899 26.5281 42.9999 26.5844 43.4494C26.6407 43.899 27.0503 44.2168 27.5003 44.1616C30.7907 43.7497 33.9142 42.3103 36.3818 40.0828L43.5087 47.2105C38.6031 51.8269 32.2258 54.3594 25.4592 54.3594ZM41.0718 42.453L37.5423 38.9231C40.0769 36.1257 41.5411 32.5905 41.7269 28.8202H46.7186C46.5266 33.9232 44.5443 38.7089 41.0718 42.453V42.453Z" fill="#11302D"/>
<path d="M33.6348 36.223C34.0878 36.223 34.4551 35.8558 34.4551 35.4027V31.6461C34.4551 28.7719 32.1289 26.432 29.2604 26.4075C30.1507 25.4678 30.6986 24.2007 30.6986 22.8072C30.6986 19.9179 28.348 17.5675 25.4588 17.5675C22.5695 17.5675 20.2191 19.9179 20.2191 22.8072C20.2191 24.2007 20.7669 25.4678 21.6572 26.4075C18.7888 26.4319 16.4626 28.7719 16.4626 31.6461V35.4027C16.4626 35.8558 16.8299 36.223 17.2829 36.223H33.6348ZM25.4588 19.2081C27.4434 19.2081 29.058 20.8227 29.058 22.8072C29.058 24.7917 27.4434 26.4063 25.4588 26.4063C23.4742 26.4063 21.8597 24.7917 21.8597 22.8072C21.8597 20.8227 23.4743 19.2081 25.4588 19.2081ZM18.1031 31.6461C18.1031 29.6615 19.7177 28.047 21.7023 28.047H29.2154C31.2 28.047 32.8145 29.6616 32.8145 31.6461V34.5824H29.8146V33.193C29.8146 32.7399 29.4474 32.3727 28.9943 32.3727C28.5413 32.3727 28.174 32.7399 28.174 33.193V34.5824H22.7435V33.193C22.7435 32.7399 22.3763 32.3727 21.9232 32.3727C21.4702 32.3727 21.1029 32.7399 21.1029 33.193V34.5824H18.1031V31.6461Z" fill="#11302D"/>
</svg>
